<svg xmlns="http://www.w3.org/2000/svg" xmlns:xlink="http://www.w3.org/1999/xlink" width="165.78" height="96.72" viewBox="0 0 165.78 96.72">
  <defs>
    <clipPath id="clip-path">
      <rect id="Rectangle_1007" data-name="Rectangle 1007" width="165.78" height="96.72" fill="none"/>
    </clipPath>
  </defs>
  <g id="KENYA" transform="translate(-564.793 -605.551)">
    <g id="Group_211" data-name="Group 211" transform="translate(564.793 605.551)">
      <g id="Group_210" data-name="Group 210">
        <g id="Group_209" data-name="Group 209" clip-path="url(#clip-path)">
          <rect id="Rectangle_1003" data-name="Rectangle 1003" width="165.78" height="96.72" fill="#fff"/>
          <rect id="Rectangle_1004" data-name="Rectangle 1004" width="165.78" height="29.018"/>
          <rect id="Rectangle_1005" data-name="Rectangle 1005" width="165.78" height="29.018" transform="translate(0 67.702)" fill="#2a680b"/>
          <g id="Group_208" data-name="Group 208">
            <g id="Group_207" data-name="Group 207" clip-path="url(#clip-path)">
              <path id="Path_10174" data-name="Path 10174" d="M577.935,671.042l1.052.6,28.2-48.888c1.66-.445,2.559-2.025,3.468-3.591a35.253,35.253,0,0,0,4.07-10.669,35.626,35.626,0,0,0-7.217,8.856c-.9,1.566-1.8,3.146-1.353,4.786Z" transform="translate(-513.021 -593.965)"/>
              <g id="Group_205" data-name="Group 205" transform="translate(64.87 14.468)">
                <path id="Path_10175" data-name="Path 10175" d="M579.042,671.806l-1.116-.657,28.189-49.007c-.464-1.6.464-3.24,1.358-4.766a35,35,0,0,1,7.226-8.9,30.619,30.619,0,0,1-3.937,10.767c-.9,1.566-1.832,3.166-3.522,3.611l-28.2,48.948Zm35.628-63.287a39.469,39.469,0,0,0-7.049,8.916c-.889,1.526-1.8,3.126-1.353,4.727l-28.229,48.987.949.444,28.17-48.834c1.67-.484,2.583-2.064,3.462-3.586a34.648,34.648,0,0,0,4.05-10.654Z" transform="translate(-577.926 -608.48)"/>
              </g>
              <path id="Path_10176" data-name="Path 10176" d="M577.935,671.042l1.052.6,28.2-48.888c1.66-.445,2.559-2.025,3.468-3.591a35.253,35.253,0,0,0,4.07-10.669,35.626,35.626,0,0,0-7.217,8.856c-.9,1.566-1.8,3.146-1.353,4.786Z" transform="translate(-513.021 -593.965)" fill="#fff"/>
              <path id="Path_10177" data-name="Path 10177" d="M614.261,671.042l-1.062.6L585.01,622.752c-1.66-.445-2.559-2.025-3.453-3.591a34.632,34.632,0,0,1-4.08-10.669,35.751,35.751,0,0,1,7.217,8.856c.884,1.566,1.793,3.146,1.348,4.786Z" transform="translate(-514.825 -593.965)"/>
              <g id="Group_206" data-name="Group 206" transform="translate(62.573 14.547)">
                <path id="Path_10178" data-name="Path 10178" d="M613.232,671.743l-.03-.079L584.984,622.8c-1.62-.444-2.544-2.045-3.443-3.591a34.94,34.94,0,0,1-4.08-10.708,30.618,30.618,0,0,1,7.36,8.817c.9,1.526,1.813,3.146,1.373,4.826l28.2,48.849-1.161.756ZM577.49,608.555a40.9,40.9,0,0,0,4.179,10.555c.894,1.521,1.813,3.1,3.423,3.546L613.3,671.53l.973-.578-28.239-48.775c.434-1.679-.479-3.28-1.359-4.806a34.492,34.492,0,0,0-7.187-8.817Z" transform="translate(-577.461 -608.496)"/>
              </g>
              <path id="Path_10179" data-name="Path 10179" d="M614.261,671.042l-1.062.6L585.01,622.752c-1.66-.445-2.559-2.025-3.453-3.591a34.632,34.632,0,0,1-4.08-10.669,35.751,35.751,0,0,1,7.217,8.856c.884,1.566,1.793,3.146,1.348,4.786Z" transform="translate(-514.825 -593.965)" fill="#fff"/>
              <path id="Path_10180" data-name="Path 10180" d="M564.793,623.976v29.018h70.7c1.818,4.826,7.844,14.511,11.474,14.511s9.667-9.686,11.46-14.511h72.14V623.976H658.43c-1.793-4.84-7.834-14.507-11.46-14.507s-9.657,9.666-11.474,14.507Z" transform="translate(-564.793 -590.116)" fill="#aa0017"/>
              <path id="Path_10181" data-name="Path 10181" d="M586.149,641.424a36.279,36.279,0,0,0,0-29.018,36.494,36.494,0,0,0,0,29.018Z" transform="translate(-492.512 -578.546)"/>
              <path id="Path_10182" data-name="Path 10182" d="M581.514,641.424a36.384,36.384,0,0,1,0-29.018,36.329,36.329,0,0,1,0,29.018Z" transform="translate(-510.811 -578.546)"/>
              <path id="Path_10183" data-name="Path 10183" d="M583.356,614.609c1.329,0,2.42,1.625,2.42,3.611,0,2.025-1.092,3.645-2.42,3.645-1.344,0-2.416-1.62-2.416-3.645,0-1.986,1.072-3.611,2.416-3.611Z" transform="translate(-501.179 -569.868)" fill="#fff"/>
              <path id="Path_10184" data-name="Path 10184" d="M581.553,616.059a34.761,34.761,0,0,1,0,25.387Z" transform="translate(-498.768 -564.156)" fill="#fff"/>
              <path id="Path_10185" data-name="Path 10185" d="M583.233,634.881a34.577,34.577,0,0,1,0-25.393Z" transform="translate(-501.664 -590.041)" fill="#fff"/>
              <path id="Path_10186" data-name="Path 10186" d="M583.233,616.059a34.563,34.563,0,0,0,0,25.387Z" transform="translate(-501.664 -564.156)" fill="#fff"/>
              <path id="Path_10187" data-name="Path 10187" d="M581.553,634.881a34.775,34.775,0,0,0,0-25.393Z" transform="translate(-498.768 -590.041)" fill="#fff"/>
            </g>
          </g>
        </g>
      </g>
    </g>
  </g>
</svg>
