<svg xmlns="http://www.w3.org/2000/svg" xmlns:xlink="http://www.w3.org/1999/xlink" width="165.78" height="96.72" viewBox="0 0 165.78 96.72">
  <defs>
    <clipPath id="clip-path">
      <rect id="Rectangle_1099" data-name="Rectangle 1099" width="165.78" height="96.72" fill="none"/>
    </clipPath>
  </defs>
  <g id="LESOTHO" transform="translate(-512.668 -605.551)">
    <g id="Group_320" data-name="Group 320" transform="translate(512.668 605.551)">
      <g id="Group_319" data-name="Group 319">
        <g id="Group_318" data-name="Group 318" clip-path="url(#clip-path)">
          <rect id="Rectangle_1095" data-name="Rectangle 1095" width="165.78" height="96.72" fill="#fff"/>
          <rect id="Rectangle_1096" data-name="Rectangle 1096" width="165.78" height="29.018" transform="translate(0 67.702)" fill="#3d9546"/>
          <rect id="Rectangle_1097" data-name="Rectangle 1097" width="165.78" height="29.018" fill="#1f189b"/>
          <g id="Group_317" data-name="Group 317">
            <g id="Group_316" data-name="Group 316" clip-path="url(#clip-path)">
              <path id="Path_10389" data-name="Path 10389" d="M541.643,611.793a1.823,1.823,0,0,0-1.086.617l.039,6.52-2.065,2.144h1.68l-.01,3.744-9.869,13.272-1.448-.479-2.549,5.438a31.036,31.036,0,0,0,15.436,3.823c10.042-.119,15.515-4.016,15.515-4.016l-2.652-5.384-1.274.558-10.017-13.193v-3.843h1.67l-2.277-2.139.02-6.5a1.946,1.946,0,0,0-1.111-.558Z" transform="translate(-458.824 -580.961)"/>
              <g id="Group_314" data-name="Group 314" transform="translate(67.453 30.753)">
                <path id="Path_10390" data-name="Path 10390" d="M541.444,646.989a31.488,31.488,0,0,1-15.12-3.818l2.529-5.537,1.561.459,9.775-13.252v-3.7l-1.61.079,2.025-2.277-.079-6.465a1.811,1.811,0,0,1,1.166-.7,2.267,2.267,0,0,1,1.171.583v6.559L545.119,621l-1.729.114.1,3.783,9.963,13.158,1.205-.563,2.722,5.384c-.064.138-5.6,4.016-15.559,4.109Zm-14.981-3.857a32.236,32.236,0,0,0,14.981,3.724h.375c9.9-.119,15.4-3.956,15.456-4l-2.653-5.285-1.2.6-10.076-13.217-.02-3.9,1.734-.074-2.317-2.01-.005-6.559h0a2.025,2.025,0,0,0-1.022-.5,1.948,1.948,0,0,0-1.072.6l.064,6.48-2.075,2.2,1.625-.138.054,3.823-9.879,13.331-1.521-.464-2.47,5.384Z" transform="translate(-526.324 -611.777)"/>
              </g>
              <g id="Group_315" data-name="Group 315" transform="translate(76.962 31.741)">
                <path id="Path_10391" data-name="Path 10391" d="M537.767,627.022h-7.276l-.089-.212c-.084-.208-2.5-5.325-2.109-9.049.405-3.645,2.49-5.749,5.71-5.784h0c3.541,0,5.424,1.773,5.962,5.631.538,3.744-2.005,8.994-2.094,9.2l-.1.212Zm-6.831-.692h6.377c.474-1,2.381-5.482,1.956-8.6-.5-3.492-2.1-5.058-5.162-5.058-2.969.039-4.742,1.872-5.1,5.171-.336,3.127,1.507,7.488,1.932,8.49Z" transform="translate(-528.25 -611.977)"/>
              </g>
              <path id="Path_10392" data-name="Path 10392" d="M527.771,617.469c-.108.133-.938,1.793-.938,1.793l1.418-.306Z" transform="translate(-456.87 -558.602)" fill="#fff"/>
              <path id="Path_10393" data-name="Path 10393" d="M528.372,617.9l-1.486.463,1.775.733Z" transform="translate(-456.654 -556.911)" fill="#fff"/>
              <path id="Path_10394" data-name="Path 10394" d="M527.323,617.477l.752,2.2,1.8-.54-.482-1.041Z" transform="translate(-454.938 -558.572)" fill="#fff"/>
              <path id="Path_10395" data-name="Path 10395" d="M527.555,618.509l.27.888,2.412.617-.965-2.045Z" transform="translate(-454.023 -556.633)" fill="#fff"/>
              <path id="Path_10396" data-name="Path 10396" d="M528.1,617.7l.839,2.045,1.833-.714-.589-.906Z" transform="translate(-451.884 -557.68)" fill="#fff"/>
              <path id="Path_10397" data-name="Path 10397" d="M528.338,618.789l.3.772,2.837.405-1.206-1.833Z" transform="translate(-450.938 -555.987)" fill="#fff"/>
              <path id="Path_10398" data-name="Path 10398" d="M528.889,617.82l1.033,1.833,2.634-.984-.3-.694Z" transform="translate(-448.768 -557.218)" fill="#fff"/>
              <path id="Path_10399" data-name="Path 10399" d="M529.2,619.078l.56.983,3.281-.135-1.235-1.794Z" transform="translate(-447.56 -555.987)" fill="#fff"/>
              <path id="Path_10400" data-name="Path 10400" d="M529.893,618.086l.917,1.5,2.074-1-.559-.811Z" transform="translate(-444.813 -557.388)" fill="#fff"/>
              <path id="Path_10401" data-name="Path 10401" d="M532.247,618.07l-2.083,1.042.579.887,2.768-.424Z" transform="translate(-443.743 -556.233)" fill="#fff"/>
              <path id="Path_10402" data-name="Path 10402" d="M530.723,618.285l1.09,1.331,1.736-1.37-.589-.637Z" transform="translate(-441.543 -558.049)" fill="#fff"/>
              <path id="Path_10403" data-name="Path 10403" d="M532.71,617.891l-1.678,1.254.443.772,2.315-.559Z" transform="translate(-440.327 -556.941)" fill="#fff"/>
              <path id="Path_10404" data-name="Path 10404" d="M533.382,617.355l.406.6-1.139,1.7-1.206-1.5Z" transform="translate(-438.703 -559.049)" fill="#fff"/>
              <path id="Path_10405" data-name="Path 10405" d="M532.658,617.656l.695,1.408-1.418.5-.106-.675Z" transform="translate(-437.188 -557.864)" fill="#fff"/>
            </g>
          </g>
        </g>
      </g>
    </g>
  </g>
</svg>
