<svg xmlns="http://www.w3.org/2000/svg" xmlns:xlink="http://www.w3.org/1999/xlink" width="165.78" height="96.72" viewBox="0 0 165.78 96.72">
  <defs>
    <clipPath id="clip-path">
      <rect id="Rectangle_1058" data-name="Rectangle 1058" width="165.78" height="96.72" fill="none"/>
    </clipPath>
  </defs>
  <g id="NAMIBIA" transform="translate(-722.922 -564.402)">
    <g id="Group_291" data-name="Group 291" transform="translate(722.922 564.402)">
      <g id="Group_290" data-name="Group 290">
        <g id="Group_289" data-name="Group 289" clip-path="url(#clip-path)">
          <path id="Path_10337" data-name="Path 10337" d="M722.922,564.4v96.72L888.7,564.4Z" transform="translate(-722.922 -564.402)" fill="#1f357e"/>
          <path id="Path_10338" data-name="Path 10338" d="M888.7,564.4l-165.78,96.72H888.7Z" transform="translate(-722.922 -564.402)" fill="#3d9546"/>
          <g id="Group_286" data-name="Group 286">
            <g id="Group_285" data-name="Group 285" clip-path="url(#clip-path)">
              <g id="Group_283" data-name="Group 283" transform="translate(-8.682 -14.878)">
                <path id="Path_10339" data-name="Path 10339" d="M738.529,687.867l-17.365-29.757,165.78-96.72,17.365,29.776-165.78,96.7Z" transform="translate(-721.164 -561.391)" fill="#fff"/>
              </g>
              <g id="Group_284" data-name="Group 284" transform="translate(-6.512 -11.135)">
                <path id="Path_10340" data-name="Path 10340" d="M734.627,681.176,721.6,658.83l165.771-96.682,13.043,22.289-165.79,96.738Z" transform="translate(-721.604 -562.148)" fill="#c0003b"/>
              </g>
            </g>
          </g>
          <path id="Path_10341" data-name="Path 10341" d="M756.813,590.707l-7.11-1.216,1.215,7.1-5.547-4.612-2.508,6.773-2.509-6.773-5.557,4.612,1.225-7.1-7.12,1.216,4.611-5.558-6.772-2.508,6.772-2.529-4.611-5.558,7.12,1.255-1.225-7.121,5.557,4.612,2.509-6.773,2.508,6.773,5.547-4.612L749.7,575.81l7.11-1.255-4.611,5.558,6.782,2.529L752.2,585.15Z" transform="translate(-707.872 -556.029)" fill="#f5cd28"/>
          <g id="Group_288" data-name="Group 288">
            <g id="Group_287" data-name="Group 287" clip-path="url(#clip-path)">
              <path id="Path_10342" data-name="Path 10342" d="M747.39,577.5a9.671,9.671,0,1,1-9.667-9.668,9.666,9.666,0,0,1,9.667,9.668" transform="translate(-702.732 -550.889)" fill="#1f357e"/>
              <path id="Path_10343" data-name="Path 10343" d="M744.5,576.239a8.061,8.061,0,1,1-8.057-8.087,8.064,8.064,0,0,1,8.057,8.087" transform="translate(-701.448 -549.628)" fill="#f5cd28"/>
            </g>
          </g>
        </g>
      </g>
    </g>
  </g>
</svg>
