<svg xmlns="http://www.w3.org/2000/svg" xmlns:xlink="http://www.w3.org/1999/xlink" width="165.78" height="96.72" viewBox="0 0 165.78 96.72">
  <defs>
    <clipPath id="clip-path">
      <rect id="Rectangle_1028" data-name="Rectangle 1028" width="165.78" height="96.72" fill="none"/>
    </clipPath>
  </defs>
  <g id="RWANDA" transform="translate(-564.793 -561.391)">
    <g id="Group_245" data-name="Group 245" transform="translate(564.793 561.391)">
      <g id="Group_244" data-name="Group 244">
        <g id="Group_243" data-name="Group 243" clip-path="url(#clip-path)">
          <rect id="Rectangle_1024" data-name="Rectangle 1024" width="165.78" height="48.341" fill="#3e81c5"/>
          <rect id="Rectangle_1025" data-name="Rectangle 1025" width="165.78" height="24.18" transform="translate(0 48.341)" fill="#f1d62f"/>
          <rect id="Rectangle_1026" data-name="Rectangle 1026" width="165.78" height="24.2" transform="translate(0 72.52)" fill="#347d59"/>
          <path id="Path_10227" data-name="Path 10227" d="M621.917,594.084l-7.505-5.769,3.618,8.741-5.75-7.506,1.216,9.378-3.608-8.723-1.235,9.359-1.245-9.359-3.617,8.723,1.235-9.378-5.74,7.506,3.579-8.741-7.486,5.769,5.75-7.526-8.741,3.628,7.506-5.77-9.368,1.235,8.721-3.609-9.368-1.216,9.368-1.254-8.721-3.628,9.368,1.235-7.506-5.77,8.741,3.628-5.75-7.507,7.486,5.77-3.579-8.741,5.74,7.487-1.235-9.378,3.617,8.722,1.245-9.359,1.235,9.359,3.608-8.722-1.216,9.378,5.75-7.487-3.618,8.741,7.505-5.77-5.749,7.507,8.721-3.628-7.486,5.77,9.368-1.235-8.722,3.628,9.359,1.254-9.359,1.216,8.722,3.609-9.368-1.235,7.486,5.77-8.721-3.628Z" transform="translate(-465.969 -558.866)" fill="#dfad29"/>
          <g id="Group_242" data-name="Group 242">
            <g id="Group_241" data-name="Group 241" clip-path="url(#clip-path)">
              <path id="Path_10228" data-name="Path 10228" d="M605.959,571.3a6.831,6.831,0,1,1-6.831-6.852,6.841,6.841,0,0,1,6.831,6.852Z" transform="translate(-456.443 -549.34)" fill="#dfad29"/>
              <g id="Group_240" data-name="Group 240" transform="translate(135.518 14.743)">
                <path id="Path_10229" data-name="Path 10229" d="M599.4,578.731a7.178,7.178,0,1,1,7.157-7.139,7.164,7.164,0,0,1-7.157,7.139Zm0-13.64a6.484,6.484,0,1,0,6.49,6.5,6.491,6.491,0,0,0-6.49-6.5Z" transform="translate(-592.229 -564.375)" fill="#3e81c5"/>
              </g>
            </g>
          </g>
        </g>
      </g>
    </g>
  </g>
</svg>
