<svg xmlns="http://www.w3.org/2000/svg" xmlns:xlink="http://www.w3.org/1999/xlink" width="165.78" height="96.72" viewBox="0 0 165.78 96.72">
  <defs>
    <clipPath id="clip-path">
      <rect id="Rectangle_1087" data-name="Rectangle 1087" width="165.78" height="96.72" fill="none"/>
    </clipPath>
  </defs>
  <g id="SWAZILAND" transform="translate(-95.639 -561.391)">
    <g id="Group_307" data-name="Group 307" transform="translate(95.639 561.391)">
      <g id="Group_306" data-name="Group 306">
        <g id="Group_305" data-name="Group 305" clip-path="url(#clip-path)">
          <rect id="Rectangle_1059" data-name="Rectangle 1059" width="165.78" height="96.72" fill="#4a5bb5"/>
          <rect id="Rectangle_1060" data-name="Rectangle 1060" width="165.78" height="62.216" transform="translate(0 17.252)" fill="#f6d928"/>
          <rect id="Rectangle_1061" data-name="Rectangle 1061" width="165.78" height="48.34" transform="translate(0 24.18)" fill="#a1001d"/>
          <g id="Group_304" data-name="Group 304">
            <g id="Group_303" data-name="Group 303" clip-path="url(#clip-path)">
              <path id="Path_10344" data-name="Path 10344" d="M101.681,570.969h115.4a1.033,1.033,0,0,1,0,2.065h-115.4a1.033,1.033,0,0,1,0-2.065Z" transform="translate(-75.843 -523.65)" fill="#f6d928" fill-rule="evenodd"/>
              <g id="Group_292" data-name="Group 292" transform="translate(24.691 47.181)">
                <path id="Path_10345" data-name="Path 10345" d="M217.179,573.278h-115.4a1.147,1.147,0,0,1-1.146-1.176,1.16,1.16,0,0,1,1.146-1.161h115.4a1.166,1.166,0,0,1,1.161,1.161,1.154,1.154,0,0,1-1.161,1.176Zm-115.4-2.065a.888.888,0,0,0-.884.889.908.908,0,0,0,.884.924h115.4a.912.912,0,0,0,.889-.924.892.892,0,0,0-.889-.889Z" transform="translate(-100.637 -570.941)"/>
              </g>
              <path id="Path_10346" data-name="Path 10346" d="M126.536,568.945l-5.866,2.065,5.866,2.045,5.881-2.045Z" transform="translate(2.981 -531.624)" fill="#fff" fill-rule="evenodd"/>
              <g id="Group_293" data-name="Group 293" transform="translate(123.311 37.187)">
                <path id="Path_10347" data-name="Path 10347" d="M126.806,573.32l-6.2-2.2,6.17-2.2,6.259,2.2-6.224,2.2Zm-5.518-2.2,5.518,1.951,5.533-1.951-5.567-1.966-5.483,1.966Z" transform="translate(-120.601 -568.918)"/>
              </g>
              <path id="Path_10348" data-name="Path 10348" d="M104.494,569.219h84.862a.731.731,0,0,1,.741.711.713.713,0,0,1-.741.677H104.494a.717.717,0,0,1-.746-.677.735.735,0,0,1,.746-.711Z" transform="translate(-63.689 -530.545)" fill="#f6d928" fill-rule="evenodd"/>
              <g id="Group_294" data-name="Group 294" transform="translate(39.936 38.555)">
                <path id="Path_10349" data-name="Path 10349" d="M189.455,570.815H104.592a.848.848,0,0,1-.869-.79.857.857,0,0,1,.869-.83h84.862a.847.847,0,0,1,.869.83.838.838,0,0,1-.869.79Zm-84.862-1.368a.564.564,0,1,0,0,1.122h84.862a.564.564,0,1,0,0-1.122Z" transform="translate(-103.723 -569.195)"/>
              </g>
              <g id="Group_295" data-name="Group 295" transform="translate(122.96 38.555)">
                <path id="Path_10350" data-name="Path 10350" d="M120.53,570.815v-.247a.561.561,0,1,0,0-1.122v-.252a.81.81,0,1,1,0,1.62Zm1.383,0v-.247a.561.561,0,1,0,0-1.122v-.252a.81.81,0,1,1,0,1.62Zm-.692,0v-.247a.561.561,0,1,0,0-1.122v-.252a.81.81,0,1,1,0,1.62Z" transform="translate(-120.53 -569.195)"/>
              </g>
              <path id="Path_10351" data-name="Path 10351" d="M125.43,569.777l-5.88,2.1,5.88,2.065,5.876-2.065Z" transform="translate(-1.432 -528.346)" fill="#fff" fill-rule="evenodd"/>
              <g id="Group_296" data-name="Group 296" transform="translate(117.773 41.356)">
                <path id="Path_10352" data-name="Path 10352" d="M125.7,574.124l-6.224-2.184,6.19-2.179,6.239,2.179-6.2,2.184Zm-5.533-2.2,5.533,1.951,5.518-1.931-5.552-1.966-5.5,1.946Z" transform="translate(-119.48 -569.762)"/>
              </g>
              <path id="Path_10353" data-name="Path 10353" d="M103.376,570.063h84.857a.677.677,0,1,1,0,1.349H103.376a.678.678,0,1,1,0-1.349Z" transform="translate(-68.094 -527.22)" fill="#f6d928" fill-rule="evenodd"/>
              <g id="Group_297" data-name="Group 297" transform="translate(34.413 42.705)">
                <path id="Path_10354" data-name="Path 10354" d="M188.332,571.655H103.474a.812.812,0,1,1,0-1.62h84.857a.812.812,0,1,1,0,1.62Zm-84.857-1.388a.6.6,0,0,0-.622.6.581.581,0,0,0,.622.543h84.857a.586.586,0,0,0,.627-.543.62.62,0,0,0-.627-.6Z" transform="translate(-102.605 -570.035)"/>
              </g>
              <g id="Group_298" data-name="Group 298" transform="translate(117.437 42.705)">
                <path id="Path_10355" data-name="Path 10355" d="M120.78,571.655v-.247a.611.611,0,0,0,.583-.543.65.65,0,0,0-.583-.6v-.232a.81.81,0,1,1,0,1.62Zm-.687,0v-.247a.605.605,0,0,0,.573-.543.645.645,0,0,0-.573-.6v-.232a.81.81,0,1,1,0,1.62Zm-.682,0v-.247a.613.613,0,0,0,.568-.543.653.653,0,0,0-.568-.6v-.232a.81.81,0,0,1,0,1.62Z" transform="translate(-119.412 -570.035)"/>
              </g>
              <path id="Path_10356" data-name="Path 10356" d="M127.259,571.012c-1.052,1.813.81-.6,5.315,2.43a4.322,4.322,0,0,1,1.556,3.107c-.2-.173-.366-.484-.588-.677-.331.311.306,1.833.41,2.529-.711-.365-.647-.578-.879-1.082a11.158,11.158,0,0,0,.168,2.855c-.568-.173-.534-.637-.815-.711.2.711-.178,1.482-.074,2.278a10.358,10.358,0,0,0-.835-.716c-.015.385-.617,1.368-.637,1.739a.974.974,0,0,1-.39-.618,11.611,11.611,0,0,0-1.63,2.505c-.943-.83-3.349-2.856-3.66-3.918-.282.618-.682.8-1.462,1.255-.326-1.694-1.487-3.606-.869-5.054a9.488,9.488,0,0,0-1.245.87,10.011,10.011,0,0,1,5.636-6.793Z" transform="translate(6.737 -523.481)" fill="#485ba3" fill-rule="evenodd"/>
              <g id="Group_299" data-name="Group 299" transform="translate(128.434 47.452)">
                <path id="Path_10357" data-name="Path 10357" d="M128.865,584.893l-.38-.312c-1.092-.963-3.132-2.742-3.438-3.745-.1.618-.519.83-1.265,1.255l-.1.06-.1-.06a13.886,13.886,0,0,0-.474-1.7c-.405-1.176-.82-2.411-.385-3.433a5.128,5.128,0,0,1-1.082.949c.3-2.782,2.633-5.558,5.523-6.912.03.272-.188.658-.148.736,0,0,.02.034.227.034l.514-.02a8.26,8.26,0,0,1,4.816,1.68,4.461,4.461,0,0,1,1.605,3.186.634.634,0,0,1-.479-.311c-.089-.114-.178-.193-.277-.306a6.3,6.3,0,0,0,.331,1.541c.1.351.188.7.227.909-.613-.173-.766-.346-.869-.578,0,.074,0,.212,0,.326a5.772,5.772,0,0,0,.148,2.005.691.691,0,0,1-.711-.365c-.074-.114-.119-.212-.2-.232a1.555,1.555,0,0,1,.094,1.122,4.085,4.085,0,0,0-.064,1.062,3.9,3.9,0,0,1-.8-.465l-.178-.173c.138.173-.02.479-.178.85a3.863,3.863,0,0,0-.311.83.763.763,0,0,1-.578-.583,25.145,25.145,0,0,0-1.457,2.51l-.015.139Zm-3.809-4.13c.449.963,2.534,2.816,3.557,3.666l.133.133a14.261,14.261,0,0,1,1.61-2.41c.207.193.267.444.514.578-.124-.114.025-.445.188-.81a3.38,3.38,0,0,0,.311-.83l.331.079c.188.153.42.346.657.558a1.411,1.411,0,0,1-.1-1.023,2.632,2.632,0,0,0,.03-1.141.308.308,0,0,1,.42.178.867.867,0,0,0,.489.405c-.3-.311-.282-1.235-.262-1.951,0-.326.015-.6,0-.79l.282.232a1.245,1.245,0,0,0,.721.75,1.932,1.932,0,0,1-.361-.79c-.207-.751-.41-1.467-.163-1.739a1.04,1.04,0,0,1,.43.331,1.979,1.979,0,0,0,.3.326,4.979,4.979,0,0,0-1.675-2.929,7.963,7.963,0,0,0-4.708-1.68l-.514.02c-.168,0-.321-.02-.385-.119-.079-.133,0-.306.262-.77-2.722,1.447-5.009,4.189-5.468,6.832a3.735,3.735,0,0,1,1.116-.948,6.515,6.515,0,0,0,.5,3.438,13.051,13.051,0,0,1,.5,1.694c.662-.519,1.037-.711,1.289-1.289Z" transform="translate(-121.638 -570.996)"/>
              </g>
              <path id="Path_10358" data-name="Path 10358" d="M121.973,575.533c.435-.889.845-1.156,1.107-1.719.5-.983.573-1.754,1-1.66.45.138.44.524-.114,1.507a4.278,4.278,0,0,1-2,1.872Z" transform="translate(8.115 -519.011)" fill="#980015" fill-rule="evenodd"/>
              <path id="Path_10359" data-name="Path 10359" d="M122.614,575.373c-.049-.637.148-.924.114-1.349-.069-.756-.37-1.275.035-1.314s.583.212.583.983-.123.949-.731,1.68Z" transform="translate(10.409 -516.805)" fill="#980015" fill-rule="evenodd"/>
              <path id="Path_10360" data-name="Path 10360" d="M123.434,576.539c-.178-.909-.04-1.334-.158-1.912-.2-1.062-.573-1.754-.207-1.872.366-.079.593.252.736,1.314a3.8,3.8,0,0,1-.37,2.47Z" transform="translate(11.826 -516.657)" fill="#980015" fill-rule="evenodd"/>
              <path id="Path_10361" data-name="Path 10361" d="M125.428,573.381c-.543-.4-.869-.444-1.215-.711-.617-.444-.934-.968-1.126-.7-.207.232-.064.524.588.929a2.344,2.344,0,0,0,1.754.479Z" transform="translate(12.154 -519.986)" fill="#980015" fill-rule="evenodd"/>
              <path id="Path_10362" data-name="Path 10362" d="M124.8,574.633c-.287-.617-.588-.751-.771-1.156-.331-.658-.331-1.255-.687-1.082-.361.134-.385.445-.01,1.082.375.657.578.77,1.467,1.156Z" transform="translate(12.398 -518.15)" fill="#980015" fill-rule="evenodd"/>
              <path id="Path_10363" data-name="Path 10363" d="M104.9,572.443c-.044-.519.069-.6-.257-1,.464.212.484.736,1.072.346.2-.094.291-.094.035-.692.6.039,2.569.692,2.875.711.825.039,2.332-.85,3.379.252,1,1,.677,2.085.677,3.473-.41-.193-.217-.286-.637-.791.316,1.235-.02,3.434-.02,4.748-.163-.311-.143-.193-.3-.5-.43,1.2-.948,1.428-.948,2.841-.148-.563,0-.425-.178-.716-.41.89-3.2,1.66-2.134,2.589-.963-.583-1.388-.5-1.828-1.023a1.806,1.806,0,0,0-.519.652c-1.7-.791-1.092-2.47-2.435-3.606a7.861,7.861,0,0,0-.38,1.2,20.326,20.326,0,0,0-.637-2.549c-.262.425-.247.272-.716.909-.2-1.294-.529-1.581-.4-2.45-.5.346-.173.193-.682.657.484-3.359,2.559-5.83,4.031-5.039Z" transform="translate(-75.024 -523.158)" fill="#485ba3" fill-rule="evenodd"/>
              <g id="Group_300" data-name="Group 300" transform="translate(25.684 47.818)">
                <path id="Path_10364" data-name="Path 10364" d="M108.534,583.885a5.048,5.048,0,0,0-.948-.465,1.907,1.907,0,0,1-.919-.6,1.923,1.923,0,0,1-.306.657,2.454,2.454,0,0,1-1.645-1.912,3.578,3.578,0,0,0-.983-1.66.685.685,0,0,1,.01.464,5.977,5.977,0,0,1-.183.677l-.148.385-.089-.385c-.1-.405-.168-.736-.227-1a12.679,12.679,0,0,0-.336-1.314,1.262,1.262,0,0,1-.158.193,3.714,3.714,0,0,0-.425.544l-.178.247-.044-.326a9.506,9.506,0,0,0-.262-1.156,3.437,3.437,0,0,1-.163-1.062.627.627,0,0,0-.094.114,2.027,2.027,0,0,1-.351.365l-.247.232.044-.326c.445-3.167,2.45-5.77,4.026-5.212a.8.8,0,0,1-.01-.153.724.724,0,0,0-.222-.578l-.316-.371.459.2a1.042,1.042,0,0,1,.41.287c.2.192.287.212.543.059.163-.1.193-.119,0-.544l-.084-.173h.193a12.984,12.984,0,0,1,1.867.445c.445.119.9.272,1.018.272.193-.02.538-.079.825-.134a2.769,2.769,0,0,1,2.638.42,3.109,3.109,0,0,1,.726,2.722c-.02.272-.025.544-.025.83v.193l-.183-.074c-.212-.118-.3-.193-.356-.331a18.482,18.482,0,0,1-.044,2.7c-.039.539-.069,1.043-.069,1.468v.5l-.237-.445a1.46,1.46,0,0,0-.143-.232l-.025-.059a7.093,7.093,0,0,1-.366.77,3.4,3.4,0,0,0-.474,1.8v.884l-.247-.85a1.927,1.927,0,0,1-.084-.479v-.02a4.286,4.286,0,0,1-1.092.85c-.543.346-1.107.711-1.126,1.023-.01.113.049.212.193.346l-.143.213Zm-1.843-1.235a3.1,3.1,0,0,0,.993.538c.158.079.341.158.563.252a.282.282,0,0,1-.01-.133c.025-.445.613-.81,1.24-1.215a3.483,3.483,0,0,0,1.146-.948l.1-.213.119.193.01.02a3.369,3.369,0,0,1,.45-1.136,9.875,9.875,0,0,0,.435-.964l.089-.271.138.271.079.114c0-.306.025-.677.049-1.062a11.664,11.664,0,0,0-.044-3.241l-.128-.524.341.425a1.788,1.788,0,0,1,.326.5.49.49,0,0,0,.1.133c0-.212.015-.425.025-.617a2.852,2.852,0,0,0-.662-2.524,2.45,2.45,0,0,0-2.4-.371,3.562,3.562,0,0,1-.84.158,6.6,6.6,0,0,1-1.111-.272c-.558-.173-1.225-.346-1.615-.425.148.385.1.5-.153.637-.41.272-.617.153-.8,0a.707.707,0,0,1,.02.212c0,.094.01.193.015.346l.03.212-.2-.133c-1.235-.637-3.221,1.368-3.8,4.594a.286.286,0,0,1,.044-.079,1.255,1.255,0,0,1,.375-.311l.242-.192-.049.292a2.726,2.726,0,0,0,.133,1.255c.064.232.143.538.212.9.138-.173.2-.247.272-.326a2.438,2.438,0,0,0,.267-.365l.133-.213.089.232a10.684,10.684,0,0,1,.425,1.561c.044.173.074.346.119.558a1.884,1.884,0,0,1,.054-.213,2.19,2.19,0,0,1,.2-.539,2.7,2.7,0,0,1,1.235,1.74,2.479,2.479,0,0,0,1.363,1.793.923.923,0,0,1,.385-.657Z" transform="translate(-100.838 -571.07)"/>
              </g>
              <path id="Path_10365" data-name="Path 10365" d="M101.264,575.811c.435-1.082.84-1.428,1.116-2.144.5-1.2.583-2.179,1-2.025s.415.657-.143,1.872a4.768,4.768,0,0,1-1.976,2.3Z" transform="translate(-73.476 -521.062)" fill="#980015" fill-rule="evenodd"/>
              <path id="Path_10366" data-name="Path 10366" d="M101.6,576.051c.178-.949.454-1.334.573-1.931.2-1.1.079-1.912.474-1.873s.484.445.217,1.547a3.911,3.911,0,0,1-1.265,2.257Z" transform="translate(-72.148 -518.62)" fill="#980015" fill-rule="evenodd"/>
              <path id="Path_10367" data-name="Path 10367" d="M102,576.366c.054-.929.277-1.295.3-1.892.059-1.082-.143-1.833.227-1.833s.514.385.4,1.448a3.79,3.79,0,0,1-.924,2.278Z" transform="translate(-70.56 -517.062)" fill="#980015" fill-rule="evenodd"/>
              <path id="Path_10368" data-name="Path 10368" d="M105.824,574.566c-.83-.81-1.314-.964-1.843-1.5-.934-.909-1.373-1.778-1.709-1.447-.336.286-.133.751.845,1.62a4.615,4.615,0,0,0,2.707,1.329Z" transform="translate(-70.097 -521.382)" fill="#980015" fill-rule="evenodd"/>
              <path id="Path_10369" data-name="Path 10369" d="M104.863,575.264c-.529-.81-.924-1.023-1.27-1.561-.6-.929-.81-1.7-1.151-1.507s-.262.6.38,1.507a3.889,3.889,0,0,0,2.04,1.561Z" transform="translate(-69.64 -518.934)" fill="#980015" fill-rule="evenodd"/>
              <path id="Path_10370" data-name="Path 10370" d="M174.515,587.693c-6.9,6.926-16.124,20.724-34.54,20.724-16.124,0-27.634-13.8-34.55-20.724,6.916-6.912,18.426-20.709,34.55-20.709,18.416,0,27.639,13.8,34.54,20.709Z" transform="translate(-57.078 -539.352)" fill="#fff" fill-rule="evenodd"/>
              <g id="Group_301" data-name="Group 301" transform="translate(48.264 27.519)">
                <path id="Path_10371" data-name="Path 10371" d="M140.043,608.641c-14.494,0-25.223-11.1-32.322-18.407-.82-.85-1.581-1.64-2.312-2.376.731-.844,1.482-1.64,2.292-2.485,7.108-7.336,17.838-18.412,32.341-18.412,15.625,0,24.645,9.9,31.235,17.138,1.2,1.329,2.312,2.544,3.384,3.606-1.072,1.235-2.193,2.47-3.4,3.8-6.58,7.237-15.6,17.132-31.215,17.132Zm0-41.468c-14.4,0-25.1,11.056-32.169,18.373-.815.83-1.581,1.62-2.3,2.312a31.634,31.634,0,0,1,2.307,2.2c7.069,7.331,17.764,18.353,32.159,18.353,15.506,0,24.492-9.88,31.047-17.078,1.205-1.314,2.337-2.549,3.4-3.631a45.845,45.845,0,0,1-3.394-3.433c-6.555-7.218-15.546-17.1-31.057-17.1Z" transform="translate(-105.409 -566.961)"/>
              </g>
              <path id="Path_10372" data-name="Path 10372" d="M137.565,574.2c1.828,2.045.291,2.875,2.248,3.033,2.045.133.879,2.178,2.6,2.238,1.21.054-.119,4.881,1.047,6.481,1.186,1.66,2.174.484,2.2,1.66.02,1.255-3.221,1.122-3.285,4.94-.094,2.2-2.732,2.356-2.855,3.745-.153,1.348,5.2,2.1,5.128,3.28-.069,1.2-5.785,1.023-6.037,2.357-.128,1.215,7.85,2.2,8.482,5.73a29.729,29.729,0,0,1-7.118.751c-16.124.02-27.634-13.8-34.55-20.724,6.916-6.912,18.426-20.709,34.55-20.709,0,0-4.8,4.382-2.411,7.218Z" transform="translate(-57.078 -539.352)" fill-rule="evenodd"/>
              <rect id="Rectangle_1062" data-name="Rectangle 1062" width="1.664" height="5.519" transform="translate(61.252 40.988)" fill="#fff"/>
              <rect id="Rectangle_1063" data-name="Rectangle 1063" width="1.664" height="5.519" transform="translate(61.252 50.212)" fill="#fff"/>
              <rect id="Rectangle_1064" data-name="Rectangle 1064" width="1.684" height="5.519" transform="translate(64.59 40.988)" fill="#fff"/>
              <rect id="Rectangle_1065" data-name="Rectangle 1065" width="1.684" height="5.519" transform="translate(64.59 50.212)" fill="#fff"/>
              <rect id="Rectangle_1066" data-name="Rectangle 1066" width="1.674" height="5.519" transform="translate(67.948 40.988)" fill="#fff"/>
              <rect id="Rectangle_1067" data-name="Rectangle 1067" width="1.674" height="5.519" transform="translate(67.948 50.212)" fill="#fff"/>
              <rect id="Rectangle_1068" data-name="Rectangle 1068" width="1.669" height="5.519" transform="translate(71.295 40.988)" fill="#fff"/>
              <rect id="Rectangle_1069" data-name="Rectangle 1069" width="1.669" height="5.519" transform="translate(71.295 50.212)" fill="#fff"/>
              <rect id="Rectangle_1070" data-name="Rectangle 1070" width="1.674" height="5.519" transform="translate(74.638 40.988)" fill="#fff"/>
              <rect id="Rectangle_1071" data-name="Rectangle 1071" width="1.674" height="5.519" transform="translate(74.638 50.212)" fill="#fff"/>
              <rect id="Rectangle_1072" data-name="Rectangle 1072" width="1.669" height="5.519" transform="translate(77.996 40.988)" fill="#fff"/>
              <rect id="Rectangle_1073" data-name="Rectangle 1073" width="1.669" height="5.519" transform="translate(77.996 50.212)" fill="#fff"/>
              <rect id="Rectangle_1074" data-name="Rectangle 1074" width="1.679" height="5.519" transform="translate(86.573 40.988)"/>
              <rect id="Rectangle_1075" data-name="Rectangle 1075" width="1.679" height="5.519" transform="translate(86.573 50.212)"/>
              <rect id="Rectangle_1076" data-name="Rectangle 1076" width="1.669" height="5.519" transform="translate(89.926 40.988)"/>
              <rect id="Rectangle_1077" data-name="Rectangle 1077" width="1.669" height="5.519" transform="translate(89.926 50.212)"/>
              <rect id="Rectangle_1078" data-name="Rectangle 1078" width="1.674" height="5.519" transform="translate(93.279 40.988)"/>
              <rect id="Rectangle_1079" data-name="Rectangle 1079" width="1.674" height="5.519" transform="translate(93.279 50.212)"/>
              <rect id="Rectangle_1080" data-name="Rectangle 1080" width="1.684" height="5.519" transform="translate(96.617 40.988)"/>
              <rect id="Rectangle_1081" data-name="Rectangle 1081" width="1.684" height="5.519" transform="translate(96.617 50.212)"/>
              <rect id="Rectangle_1082" data-name="Rectangle 1082" width="1.669" height="5.519" transform="translate(99.975 40.988)"/>
              <rect id="Rectangle_1083" data-name="Rectangle 1083" width="1.669" height="5.519" transform="translate(99.975 50.212)"/>
              <rect id="Rectangle_1084" data-name="Rectangle 1084" width="1.679" height="5.519" transform="translate(103.323 40.988)"/>
              <rect id="Rectangle_1085" data-name="Rectangle 1085" width="1.679" height="5.519" transform="translate(103.323 50.212)"/>
              <path id="Path_10373" data-name="Path 10373" d="M114.275,567.727c-.963,1.853,1.665-.617,5.795,2.485a7.157,7.157,0,0,1,1.872,3.9,13.329,13.329,0,0,1-2.44-1.042,6.537,6.537,0,0,1,1.823,3.952c-.647-.425-.963-.366-1.181-.864,0,.691.573,1.116.573,2.159a10.353,10.353,0,0,0-1.25-.81c.6,1.043-1.111,3.068-.247,3.765a5.345,5.345,0,0,1-3.66-2.218,1.03,1.03,0,0,0-.366.924c.049.04-2.282-1.739-2.07-2.43a2.192,2.192,0,0,0-.43,1.2,6.283,6.283,0,0,1-1.932-2.8c-.38.5-.41.5-.785,1a3.953,3.953,0,0,1,.286-3.166,12.313,12.313,0,0,0-1.151.87,10.094,10.094,0,0,1,5.162-6.926Z" transform="translate(-42.551 -536.424)" fill="#485ba3" fill-rule="evenodd"/>
              <g id="Group_302" data-name="Group 302" transform="translate(66.626 31.204)">
                <path id="Path_10374" data-name="Path 10374" d="M119.495,581.505l-.346-.06a5.425,5.425,0,0,1-3.72-2.277,1.575,1.575,0,0,0-.193.889c-.163.114-1.309-.889-1.665-1.275-.454-.519-.657-.884-.6-1.156a10.718,10.718,0,0,0-.247,1.2,5.317,5.317,0,0,1-2.1-2.761,1.158,1.158,0,0,1-.237.543l-.524.637-.04-.272a3.926,3.926,0,0,1,.262-3.048,9.471,9.471,0,0,1-.958.89,9.59,9.59,0,0,1,5.054-7.1c-.03.465-.1.657-.049.716s.242.074.435.074h.627a7.751,7.751,0,0,1,4.891,1.719,7.249,7.249,0,0,1,1.892,3.977,7.415,7.415,0,0,1-2.366-.85,5.515,5.515,0,0,1,1.759,3.759,3.615,3.615,0,0,1-.687-.227,1.6,1.6,0,0,1-.484-.311,4.035,4.035,0,0,1,.222.5,2.905,2.905,0,0,1,.341,1.329,11.325,11.325,0,0,1-1.393-.751c.445.445.183,1.2-.069,1.927s-.464,1.393-.069,1.719l.267.213Zm-4.041-2.45a5.971,5.971,0,0,0,3.473,2.179c-.247-.425-.025-1.062.2-1.714.232-.7.479-1.408.2-1.892a2.973,2.973,0,0,1,1.4.711,12.543,12.543,0,0,0-.479-1.215,2.041,2.041,0,0,1-.252-.884,2.566,2.566,0,0,0,.751.459c.163.079.346.178.578.311a7.26,7.26,0,0,0-1.941-3.8c.128-.153,1.67.716,2.524.909a8.168,8.168,0,0,0-1.941-3.745,7.56,7.56,0,0,0-4.777-1.7h-.627c-.257,0-.5,0-.6-.153-.084-.113-.03-.345.173-.751a10.7,10.7,0,0,0-4.979,6.966,3.129,3.129,0,0,1,.993-.944l.252-.158-.148.351a3.755,3.755,0,0,0-.247,2.949l.227-.464c.1-.114.2-.247.4-.5a8.042,8.042,0,0,0,2.075,2.776,1.284,1.284,0,0,1,.282-1.156c0,.6,1.749,2.045,2.2,2.391a.733.733,0,0,1,.262-.924Z" transform="translate(-109.126 -567.707)"/>
              </g>
              <path id="Path_10375" data-name="Path 10375" d="M109.679,573.595c.158-1.275.489-1.759.588-2.589.178-1.428-.035-2.51.484-2.47.514.02.647.578.405,2.026a5.185,5.185,0,0,1-1.477,3.033Z" transform="translate(-40.321 -533.241)" fill="#980015" fill-rule="evenodd"/>
              <path id="Path_10376" data-name="Path 10376" d="M110.4,573.5c-.109-1.062.094-1.541.035-2.218-.114-1.215-.494-2.045-.044-2.124s.667.312.711,1.547a4.307,4.307,0,0,1-.7,2.8Z" transform="translate(-38.365 -530.816)" fill="#980015" fill-rule="evenodd"/>
              <path id="Path_10377" data-name="Path 10377" d="M113,573.281c-.454-.944-.845-1.215-1.141-1.793-.509-1.062-.622-1.932-1.013-1.778s-.385.6.2,1.64A4.191,4.191,0,0,0,113,573.281Z" transform="translate(-36.799 -528.684)" fill="#980015" fill-rule="evenodd"/>
              <path id="Path_10378" data-name="Path 10378" d="M115.278,570.464c-1.151-.618-1.744-.618-2.49-1-1.314-.691-2.07-1.467-2.342-1.057-.277.44.084.864,1.442,1.482a5.234,5.234,0,0,0,3.389.578Z" transform="translate(-37.637 -534.206)" fill="#980015" fill-rule="evenodd"/>
              <path id="Path_10379" data-name="Path 10379" d="M114.438,571.483c-.83-.7-1.334-.81-1.882-1.235-.948-.81-1.428-1.586-1.739-1.255-.316.307-.114.712.894,1.448a4.264,4.264,0,0,0,2.727,1.043Z" transform="translate(-36.377 -531.747)" fill="#980015" fill-rule="evenodd"/>
            </g>
          </g>
        </g>
      </g>
    </g>
  </g>
</svg>
