<svg xmlns="http://www.w3.org/2000/svg" xmlns:xlink="http://www.w3.org/1999/xlink" width="165.78" height="96.72" viewBox="0 0 165.78 96.72">
  <defs>
    <clipPath id="clip-path">
      <rect id="Rectangle_1094" data-name="Rectangle 1094" width="165.78" height="96.72" fill="none"/>
    </clipPath>
  </defs>
  <g id="TANZANIA" transform="translate(-43.515 -561.391)">
    <g id="Group_313" data-name="Group 313" transform="translate(43.515 561.391)">
      <g id="Group_312" data-name="Group 312">
        <g id="Group_311" data-name="Group 311" clip-path="url(#clip-path)">
          <path id="Path_10380" data-name="Path 10380" d="M43.515,561.391v73.427L169.9,561.391Z" transform="translate(-43.515 -561.391)" fill="#42a04b"/>
          <path id="Path_10381" data-name="Path 10381" d="M51.489,639.548H177.879V566.1Z" transform="translate(-12.099 -542.829)" fill="#4694d2"/>
          <path id="Path_10382" data-name="Path 10382" d="M77.059,561.391l.029.038.062-.038Z" transform="translate(88.63 -561.391)" fill="#eac126"/>
          <path id="Path_10383" data-name="Path 10383" d="M43.515,581.061l.063-.059-.063-.057Z" transform="translate(-43.515 -484.341)" fill="#eac126"/>
          <path id="Path_10384" data-name="Path 10384" d="M169.9,561.391,43.515,634.818v7.468l139.009-80.9Z" transform="translate(-43.515 -561.391)" fill="#eac126"/>
          <path id="Path_10385" data-name="Path 10385" d="M43.515,581.015h.092l-.029-.059Z" transform="translate(-43.515 -484.295)" fill="#eac126"/>
          <path id="Path_10386" data-name="Path 10386" d="M77.127,561.391l-.062.038.062.059Z" transform="translate(88.653 -561.391)" fill="#eac126"/>
          <path id="Path_10387" data-name="Path 10387" d="M48.935,645.521H61.553l126.389-73.447v-7.488Z" transform="translate(-22.163 -548.801)" fill="#eac126"/>
          <path id="Path_10388" data-name="Path 10388" d="M182.523,561.391l-139.009,80.9v15.708l.063.058.029.059h26.68l139.008-80.935V561.487l-.062-.059-.029-.038Z" transform="translate(-43.515 -561.391)"/>
        </g>
      </g>
    </g>
  </g>
</svg>
