<svg xmlns="http://www.w3.org/2000/svg" xmlns:xlink="http://www.w3.org/1999/xlink" width="165.78" height="96.72" viewBox="0 0 165.78 96.72">
  <defs>
    <clipPath id="clip-path">
      <rect id="Rectangle_1023" data-name="Rectangle 1023" width="165.78" height="96.72" fill="none"/>
    </clipPath>
  </defs>
  <g id="UGANDA" transform="translate(-616.98 -523.148)">
    <g id="Group_239" data-name="Group 239" transform="translate(616.981 523.148)">
      <g id="Group_238" data-name="Group 238">
        <g id="Group_237" data-name="Group 237" clip-path="url(#clip-path)">
          <rect id="Rectangle_1017" data-name="Rectangle 1017" width="165.78" height="96.72"/>
          <rect id="Rectangle_1018" data-name="Rectangle 1018" width="165.78" height="16.094" transform="translate(0 16.133)" fill="#f8e82a"/>
          <rect id="Rectangle_1019" data-name="Rectangle 1019" width="165.78" height="16.133" transform="translate(0 32.227)" fill="#cc3220"/>
          <rect id="Rectangle_1020" data-name="Rectangle 1020" width="165.78" height="16.113" transform="translate(0 64.493)" fill="#f8e82a"/>
          <rect id="Rectangle_1021" data-name="Rectangle 1021" width="165.78" height="16.114" transform="translate(0 80.606)" fill="#cc3220"/>
          <g id="Group_236" data-name="Group 236">
            <g id="Group_235" data-name="Group 235" clip-path="url(#clip-path)">
              <path id="Path_10198" data-name="Path 10198" d="M660.837,544.944a15.061,15.061,0,1,1-15.081-15.053,15.07,15.07,0,0,1,15.081,15.053Z" transform="translate(-562.87 -496.581)" fill="#fffcff"/>
              <g id="Group_221" data-name="Group 221" transform="translate(67.746 33.211)">
                <path id="Path_10199" data-name="Path 10199" d="M645.835,560.149a15.139,15.139,0,1,1,15.126-15.127,15.155,15.155,0,0,1-15.126,15.127Zm0-30.125a15,15,0,1,0,14.982,15,15.007,15.007,0,0,0-14.982-15Z" transform="translate(-630.695 -529.871)"/>
              </g>
              <path id="Path_10200" data-name="Path 10200" d="M634,532.572l-.969-1.8a2.659,2.659,0,0,1,2.011-.672c0,.054-.1,1.986-.1,1.986Z" transform="translate(-553.762 -495.75)" fill="#cc2920"/>
              <g id="Group_222" data-name="Group 222" transform="translate(79.171 34.273)">
                <path id="Path_10201" data-name="Path 10201" d="M634.031,532.729l-1.023-1.852a2.624,2.624,0,0,1,2.1-.79,16.709,16.709,0,0,1-.02,2.065l-1.062.578Zm1-2.564a2.9,2.9,0,0,0-1.882.731l.953,1.621.879-.445c-.039-.02.05-1.853.05-1.907Z" transform="translate(-633.008 -530.086)"/>
              </g>
              <path id="Path_10202" data-name="Path 10202" d="M633.414,532.11l.128-2.005a4.182,4.182,0,0,1,3.132,1.2c.02-.02-1.086,1.561-1.086,1.561Z" transform="translate(-552.237 -495.752)" fill="#f8e82a"/>
              <g id="Group_223" data-name="Group 223" transform="translate(81.147 34.273)">
                <path id="Path_10203" data-name="Path 10203" d="M635.646,533l-2.238-.771.089-2.144h.212a4.179,4.179,0,0,1,3.048,1.215c.039.079.039.079-1.082,1.64l-.03.06Zm-1.936-2.762-.193,1.931,2.074.637c.163-.252,1-1.428,1.038-1.487a4.163,4.163,0,0,0-2.92-1.082Z" transform="translate(-633.408 -530.086)"/>
              </g>
              <path id="Path_10204" data-name="Path 10204" d="M633.861,531.9l1-1.561a3.241,3.241,0,0,1,1.037,1.966l-1.571.37-.465-.775Z" transform="translate(-550.476 -494.812)" fill="#cc2920"/>
              <g id="Group_224" data-name="Group 224" transform="translate(83.331 35.488)">
                <path id="Path_10205" data-name="Path 10205" d="M634.369,532.782l-.069-.06c-.015-.034-.415-.711-.45-.751l.983-1.64a2.974,2.974,0,0,1,1.205,1.986,8.164,8.164,0,0,1-1.67.464Zm-.4-.83a4.426,4.426,0,0,1,.445.677c.252-.06,1.418-.331,1.487-.365a3.406,3.406,0,0,0-1.052-1.818l-.879,1.507Z" transform="translate(-633.85 -530.332)"/>
              </g>
              <path id="Path_10206" data-name="Path 10206" d="M636.449,556.773a6.36,6.36,0,0,1,5.5-1.66c-.543-.889-2.317-.791-2.317-.791s-.553-4.169-.128-4.362a7.748,7.748,0,0,1,2.258.02.758.758,0,0,0,.331-1.062c-.331-.425-1.294-2.006-.9-2.317s2.549.173,2.549.173l-6.061-7.736s-.627-2.934.608-4.323a2.886,2.886,0,0,0,1.294-2.569,2.236,2.236,0,0,0-3.655-1.082,1.435,1.435,0,0,0-.272,1.759s-2.159.578-2.258.963c-.084.351,2.46-.074,2.46-.074l-.252,1.714s-4.91,4.481-1.146,8.339a1.586,1.586,0,0,0,.124-.173,6.513,6.513,0,0,0,2.7,1.986c1.294,1.334,1.186,1.136,1.186,1.136a8.84,8.84,0,0,1,.02,2.51,19.992,19.992,0,0,0-4.154-.04c-.454.139-2.173.059-1.739,2.86.336-.775.627-1.428.627-1.428s-.06,1,.356,1.388a3.239,3.239,0,0,1,.395-1.8s.089,1.161.341,1.314c.267.193.267-1.872,1.684-1.7a16.658,16.658,0,0,0,2.45.138,34.116,34.116,0,0,1,.321,4.4c-1.032-.247-3.473.119-3.635.716a6.926,6.926,0,0,1,2.119.094s-1.166,1.022-.81,1.606Z" transform="translate(-555.717 -494.226)"/>
              <g id="Group_225" data-name="Group 225" transform="translate(76.83 36.226)">
                <path id="Path_10207" data-name="Path 10207" d="M636.417,556.955l-.035-.1c-.361-.578.479-1.408.731-1.66-.133.02-.548-.035-1.215-.035-.213,0-.484,0-.771.015.094-.845,2.707-1.1,3.655-.865.02-.212-.213-2.663-.415-4.268a10.01,10.01,0,0,1-2.4-.094h0c-.933,0-1.205.81-1.358,1.295-.1.266-.163.4-.272.4-.287-.158-.415-.889-.449-1.255a5.153,5.153,0,0,0-.232,1.621c-.568-.311-.544-1.334-.524-1.369l-.479,1.442c-.534-2.544.79-2.8,1.437-2.91.084-.02.163-.02.193-.059a9.968,9.968,0,0,1,1.522-.079,18.3,18.3,0,0,1,2.692.139,15.614,15.614,0,0,0-.114-2.4h0a7.449,7.449,0,0,1-1.161-1.117,6.734,6.734,0,0,1-2.712-1.991l.109-.113a6.465,6.465,0,0,0,2.672,1.966c1,1.023,1.166,1.141,1.206,1.141a7.209,7.209,0,0,1,.049,2.623,33.808,33.808,0,0,0-4.189,0c-.074.02-.143.02-.242.039-.632.133-1.822.346-1.462,2.722l.479-1.448c.143.054.119,1.023.484,1.349a2.657,2.657,0,0,1,.272-1.773,5.458,5.458,0,0,0,.469,1.329,1.107,1.107,0,0,1,.089-.326c.173-.539.464-1.408,1.378-1.408a14.635,14.635,0,0,0,2.613.113,24,24,0,0,1,.4,4.535c-.286,0-.578-.039-.894-.039-1.186,0-2.633.331-2.722.736A1.3,1.3,0,0,1,635.9,555a7.122,7.122,0,0,1,1.358.1c-.257.4-.9,1.116-.8,1.581a6.526,6.526,0,0,1,5.5-1.621,3.32,3.32,0,0,0-2.168-.617l-.232-.079c-.143-1-.519-4.244-.084-4.456a9.92,9.92,0,0,1,2.282,0c.059,0,.2-.114.291-.292a.6.6,0,0,0-.039-.632,5.058,5.058,0,0,1-.983-2.184.392.392,0,0,1,.1-.252c.38-.267,2.549.158,2.618.178l-6.145-7.642c-.03-.139-.617-2.994.637-4.422a2.781,2.781,0,0,0,1.26-2.451,2.217,2.217,0,0,0-3.522-1.062,1.385,1.385,0,0,0-.266,1.66c-1.082.385-2.184.79-2.218,1.023h0s.045.04.385.04a16.349,16.349,0,0,0,1.956-.213l-.163,1.813c-.06.079-2.47,2.317-2.549,4.94a4.361,4.361,0,0,0,1.393,3.3l0-.02a.445.445,0,0,1-.025.158,4.342,4.342,0,0,1-1.527-3.438c.069-2.7,2.549-5,2.579-5.014l.222-1.66a5.757,5.757,0,0,1-1.892.286c-.37,0-.484-.054-.533-.113.069-.524,1.822-1.042,2.257-1.122-.123-.074-.5-.83.252-1.754,1.3-1.181,3.581-.331,3.794,1.117a2.929,2.929,0,0,1-1.3,2.643c-1.186,1.334-.588,4.209-.588,4.249l6.026,7.716a19.264,19.264,0,0,1-2.05-.153c-.331,0-.455.06-.484.1a3.963,3.963,0,0,0,.889,2.159.738.738,0,0,1,.054.81c-.094.193-.266.4-.434.4a14.978,14.978,0,0,0-1.531-.113,2.663,2.663,0,0,0-.687.074c-.232.119-.084,2.3.163,4.308a2.543,2.543,0,0,1,2.307.731,4.467,4.467,0,0,1-1.072.079,6.173,6.173,0,0,0-4.436,1.694l-.079.1Z" transform="translate(-632.534 -530.481)"/>
              </g>
              <path id="Path_10208" data-name="Path 10208" d="M635.36,531.363s-3.562,3.938-2.02,6.931c.069-.425.029-.677.089-.677-.089-.02.444.385.415.291a2.83,2.83,0,0,0-.183-.677c.183.039.336.074.5.113-.1-.173-.2-.345-.287-.5.242,0,.45.034.682.054,0,0-.232-.637-.163-.637.089,0,.568.039.568.039-1.013-1.813-.064-3.335.4-4.94Z" transform="translate(-554.055 -490.781)" fill="#9ba49a"/>
              <g id="Group_226" data-name="Group 226" transform="translate(78.807 40.527)">
                <path id="Path_10209" data-name="Path 10209" d="M633.442,538.584l-.123-.212c-1.536-3.009,2.025-6.985,2.045-7.02a2.055,2.055,0,0,1-.183,1.057c-.444,1.275-.879,2.47-.069,3.9-.089.119-.558.079-.647.079.059,0,.163.291.252.538l-.78.02.365.425-.425.019v-.019a3.481,3.481,0,0,1,.108.6c-.187.1-.543-.227-.543-.227a.956.956,0,0,1,.039.617l-.039.227Zm1.9-7.158c-.272.484-3.117,3.917-1.986,6.659a2.28,2.28,0,0,0,.034-.252l.089-.232c.124.06.4.272.455.292a1.484,1.484,0,0,1-.252-.6l-.06-.158.627.178-.375-.405.771-.02c-.326-.524-.286-.6-.252-.637a2.959,2.959,0,0,1,.637.02c-.884-1.373-.44-2.643,0-3.917.119-.311.222-.618.311-.929Z" transform="translate(-632.934 -531.352)" fill="#9ba49a"/>
              </g>
              <path id="Path_10210" data-name="Path 10210" d="M634.541,530.68s.193,1.368-.539,1.734c-.123.1-.6.252-.519.524.084.385.286.306.568.232.791-.119,1.69-1.779.489-2.49Z" transform="translate(-551.996 -493.472)" fill="#9ba49a"/>
              <g id="Group_227" data-name="Group 227" transform="translate(81.4 37.208)">
                <path id="Path_10211" data-name="Path 10211" d="M633.834,533.323c-.2,0-.306-.134-.365-.366-.069-.272.252-.445.435-.563.8-.4.627-1.694.627-1.714a1,1,0,0,1,.691,1.275,1.6,1.6,0,0,1-1.086,1.289,1.717,1.717,0,0,1-.3.079Zm.771-2.549a1.558,1.558,0,0,1-.5,1.719c-.331.173-.523.286-.494.425.06.213.148.232.222.232h0a1.476,1.476,0,0,0,.232-.04,1.51,1.51,0,0,0,1-1.2,1.034,1.034,0,0,0-.464-1.141Z" transform="translate(-633.459 -530.68)" fill="#9ba49a"/>
              </g>
              <path id="Path_10212" data-name="Path 10212" d="M633.895,531.147a.282.282,0,0,1-.312.272.26.26,0,0,1-.276-.272.289.289,0,0,1,.276-.292.31.31,0,0,1,.312.292Z" transform="translate(-552.658 -492.783)" fill="#fff"/>
              <path id="Path_10213" data-name="Path 10213" d="M633.68,531.145c-.178.153-1.161,1.176-.2,1.561,1.008-.291.736-.484.948-.7.02-.46-.5-.578-.751-.865Z" transform="translate(-553.609 -491.64)" fill="#cc2920"/>
              <g id="Group_228" data-name="Group 228" transform="translate(79.368 39.446)">
                <path id="Path_10214" data-name="Path 10214" d="M633.552,532.832l-.035-.019a.7.7,0,0,1-.464-.484c-.069-.484.5-1.062.647-1.2a2.491,2.491,0,0,1,.405.232c.232.173.479.346.479.692l-.114.212c-.079.193-.183.351-.9.544l-.02.019Zm.148-1.586c-.079.139-.543.677-.464,1.062.01.153.114.252.316.346.687-.193.736-.306.786-.44a.318.318,0,0,1,.113-.193c-.02-.232-.2-.37-.434-.524a1.97,1.97,0,0,1-.316-.252Z" transform="translate(-633.048 -531.133)"/>
              </g>
              <path id="Path_10215" data-name="Path 10215" d="M633.729,533.113a2.529,2.529,0,0,0,.039,1.66c.855-.345,1.255-.252,1.531-.054a7.26,7.26,0,0,1-1.571-1.605Z" transform="translate(-551.49 -483.886)" fill="#9ba49a"/>
              <g id="Group_229" data-name="Group 229" transform="translate(82.028 49.267)">
                <path id="Path_10216" data-name="Path 10216" d="M633.8,534.86l-.04-.079a2.574,2.574,0,0,1-.059-1.66l.02.02a5.992,5.992,0,0,0,.148,1.507,1.706,1.706,0,0,1,1.378-.119,4.409,4.409,0,0,1-1.527-1.388,20.121,20.121,0,0,0,1.709,1.487,5.361,5.361,0,0,1-.628-.039,2.581,2.581,0,0,0-.933.232l-.069.039Z" transform="translate(-633.586 -533.121)" fill="#9ba49a"/>
              </g>
              <path id="Path_10217" data-name="Path 10217" d="M633.926,533.9,634,535.83a2.509,2.509,0,0,0,.969,0c.3-.133-.02-1.329-1.042-1.931Z" transform="translate(-550.22 -480.793)" fill="#fff"/>
              <g id="Group_230" data-name="Group 230" transform="translate(83.637 53.105)">
                <path id="Path_10218" data-name="Path 10218" d="M634.628,535.963a3.439,3.439,0,0,1-.588-.054l-.128-2.01a2.085,2.085,0,0,1,1.3,1.739.286.286,0,0,1-.153.252.946.946,0,0,1-.435.074Zm-.415-.173a2.5,2.5,0,0,0,.771-.039,1.969,1.969,0,0,0-1.042-1.774l.183,1.813Z" transform="translate(-633.912 -533.898)" fill="#fff"/>
              </g>
              <path id="Path_10219" data-name="Path 10219" d="M640.541,540.762A6.88,6.88,0,0,0,636.134,537a3.324,3.324,0,0,1-2.47-4.308c.123-.286.227-.731,1.146-.286.9.4,5.083,2.529,5.671,2.623.608.1.1,5.81.059,5.73Z" transform="translate(-551.964 -487.405)" fill="#9ba49a"/>
              <g id="Group_231" data-name="Group 231" transform="translate(81.439 44.742)">
                <path id="Path_10220" data-name="Path 10220" d="M640.6,540.9l-.084-.059a6.941,6.941,0,0,0-4.342-3.686,3.254,3.254,0,0,1-2.608-2.6,2.7,2.7,0,0,1,.1-1.872c.133-.351.415-.7,1.225-.291l1.052.484c1.561.771,4.179,2.065,4.619,2.139.563.079.341,3.458.222,4.906-.094.983-.094.983-.183.983Zm-6.357-8.551c-.272,0-.336.193-.425.37a2.91,2.91,0,0,0-.079,1.907,3.1,3.1,0,0,0,2.47,2.376,6.783,6.783,0,0,1,4.332,3.552c.128-1.008.395-4.768.039-5.331-.484-.133-2.574-1.156-4.708-2.2l-1.042-.484a1.347,1.347,0,0,0-.588-.193Z" transform="translate(-633.467 -532.205)"/>
              </g>
              <path id="Path_10221" data-name="Path 10221" d="M634.3,534.882c-.049.015,4.2,2.524,2.925,4.669a2.063,2.063,0,0,0,.84-2.218,3.132,3.132,0,0,1-1.442,3.878c.272.193.435.133.435.133l-.415.445s-.173.292,1.438-.5c-.45.37-.469.637-.469.637s.113.351,1.166-.618a7.6,7.6,0,0,0-1.032,1.408c2.327-.193,7.35-7.716-1.6-9.954a4.772,4.772,0,0,0,.415.425Z" transform="translate(-548.735 -485.285)" fill="#cc2920"/>
              <g id="Group_232" data-name="Group 232" transform="translate(85.499 47.533)">
                <path id="Path_10222" data-name="Path 10222" d="M637.658,542.764l.064-.134.079.035-.06-.054a5.244,5.244,0,0,1,.608-.87.9.9,0,0,1-.548.272h-.06l-.143-.119c0-.074.039-.346.5-.711a3.029,3.029,0,0,1-1.339.692l-.124-.193.356-.366c-.089.059-.212,0-.356-.114a3.027,3.027,0,0,0,1.571-3.073,1.965,1.965,0,0,1-.879,1.433c.375-.929.311-2.357-2.845-4.521-.193-.173-.193-.173-.193-.207l2.287-1.778-.425-.286c4.836,1.022,5.335,3.666,5.241,5.133-.193,2.47-2.336,4.728-3.581,4.861Zm1.126-1.547c-.306.563-.647,1.028-.83,1.334,1.2-.272,3.1-2.371,3.28-4.669.173-2.431-1.611-4.248-5.054-5.1.539.331.539.331.5.39l-2.2,1.66.1.054c2.6,1.813,3.557,3.379,2.766,4.634a2.223,2.223,0,0,0,.686-2.218h.029a.294.294,0,0,1,.074.134,2.932,2.932,0,0,1-1.418,3.779c.183,0,.291.02.351.02v.019h-.02l-.291.524c.1-.059.4-.138,1.363-.617a2.076,2.076,0,0,0-.381.711c.158-.02.405-.113,1.042-.657Z" transform="translate(-634.289 -532.77)"/>
              </g>
              <path id="Path_10223" data-name="Path 10223" d="M636.689,535.021c.588.425.78.558.859.736a3.291,3.291,0,0,0-1.007-.059,12.759,12.759,0,0,0-1.359-1.2,6.014,6.014,0,0,1-1.042-.563c-.444-.232-.859-1.754.791-1.329a20.056,20.056,0,0,0,1.931.869c.686.227,1.349.44,2.025.652.376.425.771.85,1.161,1.314a25.441,25.441,0,0,0-2.327-1.042,3.882,3.882,0,0,1,.894,1.082,13.044,13.044,0,0,0-1.926-.464Z" transform="translate(-550.938 -486.159)" fill="#fff"/>
              <g id="Group_233" data-name="Group 233" transform="translate(82.717 46.31)">
                <path id="Path_10224" data-name="Path 10224" d="M637.743,535.944l-.143-.04a3.363,3.363,0,0,0-.8-.094l-.242-.019a14.892,14.892,0,0,0-1.344-1.161h0a4.878,4.878,0,0,1-1.057-.578,1.047,1.047,0,0,1-.41-1.042c.069-.252.4-.637,1.274-.425,1.64.791,1.932.89,1.932.89l2.025.618,1.2,1.348c-.884-.267-2.218-.9-2.381-.924a2.381,2.381,0,0,1,.953,1l.089.133-.3-.074a14.192,14.192,0,0,0-1.724-.405l-.029-.178a13.093,13.093,0,0,1,1.763.425,4.116,4.116,0,0,0-.8-.9,8.308,8.308,0,0,1,2.41.9l-.672-.538-.6-.637-1.951-.637a15.021,15.021,0,0,1-1.986-.85c-.553-.153-.948-.074-1.042.272a.939.939,0,0,0,.345.889,4.49,4.49,0,0,0,1,.578,10.969,10.969,0,0,1,1.408,1.176,2.642,2.642,0,0,1,.79.04,4.688,4.688,0,0,0-.642-.5v-.015c.627.267.82.405.874.6l.06.153Z" transform="translate(-633.726 -532.523)"/>
              </g>
              <path id="Path_10225" data-name="Path 10225" d="M632.7,531.506a13.988,13.988,0,0,1,2.238-.405Z" transform="translate(-555.038 -491.848)"/>
              <g id="Group_234" data-name="Group 234" transform="translate(77.655 39.149)">
                <path id="Path_10226" data-name="Path 10226" d="M632.731,531.641l-.03-.138a15.647,15.647,0,0,1,2.267-.425,17.317,17.317,0,0,1-2.238.563Z" transform="translate(-632.701 -531.073)" fill="#fff"/>
              </g>
            </g>
          </g>
        </g>
      </g>
    </g>
  </g>
</svg>
