<svg xmlns="http://www.w3.org/2000/svg" xmlns:xlink="http://www.w3.org/1999/xlink" width="165.78" height="96.72" viewBox="0 0 165.78 96.72">
  <defs>
    <clipPath id="clip-path">
      <rect id="Rectangle_1050" data-name="Rectangle 1050" width="165.78" height="96.72" fill="none"/>
    </clipPath>
  </defs>
  <g id="ZAMBIA" transform="translate(-564.857 -523.148)">
    <g id="Group_279" data-name="Group 279" transform="translate(564.857 523.148)">
      <g id="Group_278" data-name="Group 278">
        <g id="Group_277" data-name="Group 277" clip-path="url(#clip-path)">
          <rect id="Rectangle_1045" data-name="Rectangle 1045" width="165.78" height="96.72" fill="#3e8b11"/>
          <rect id="Rectangle_1046" data-name="Rectangle 1046" width="19.458" height="57.025" transform="translate(146.322 39.695)" fill="#df7a21"/>
          <rect id="Rectangle_1047" data-name="Rectangle 1047" width="19.43" height="57.025" transform="translate(126.892 39.676)"/>
          <rect id="Rectangle_1048" data-name="Rectangle 1048" width="19.864" height="57.005" transform="translate(107.047 39.715)" fill="#cb0423"/>
          <g id="Group_276" data-name="Group 276">
            <g id="Group_275" data-name="Group 275" clip-path="url(#clip-path)">
              <path id="Path_10304" data-name="Path 10304" d="M609.6,529.018s7.325-3.127,8.026-3.764c.321.366-2.944,4.3-9.261,5.77,5.749-1.368,10.654-5.637,11.637-5.479.306.035.232,4.145-12.927,7.7,9.094-2.391,14.384-6.773,14.324-6.289.059.114-.919,3.453-8.866,6.057,2.218-.5,8.259-4.2,8.18-3.453.2.252-5.824,8.008-16.715,5.479,8.7,2.258,14.344-3.181,15.144-3.087.163.039-1.61,4.787-12.591,5.078,5.265-.563,3.744-.04,3.744-.04a7.046,7.046,0,0,1-6.821.771c2.944.791,3.26.83,3.309,1.1-.192.326-2.6.81-4.919-.464,1.862.79,3.551.909,3.581,1.2a2.414,2.414,0,0,1-2.307.292c-1.062-.484-10.872-6.506-10.872-6.506l16.705-4.59Z" transform="translate(-456.859 -514.852)" fill="#df7a21"/>
              <g id="Group_260" data-name="Group 260" transform="translate(135.277 10.249)">
                <path id="Path_10305" data-name="Path 10305" d="M604.092,540.33a1.962,1.962,0,0,1-.9-.193c-1.052-.5-10.476-6.269-10.882-6.521a.1.1,0,0,1-.059-.133c0-.079.04-.119.1-.119l16.7-4.594.7.232c2.43-1.077,7.35-3.26,7.893-3.745a.238.238,0,0,1,.1-.034.089.089,0,0,1,.089.054.329.329,0,0,1,.04.232,5.826,5.826,0,0,1-1.951,2.258c.578-.326,1.092-.637,1.571-.943a8.021,8.021,0,0,1,2.588-1.314c.069,0,.232.173.242.232.054.524-.34,1.6-1.931,2.915.81-.465,1.447-.87,1.931-1.136.751-.465,1-.618,1.156-.618.01.015.173.153.173.193a5.575,5.575,0,0,1-2.129,2.737,4.152,4.152,0,0,1,1.205-.405c.03,0,.173.039.193.079l.059.232a8.121,8.121,0,0,1-2.05,2.277.528.528,0,0,1,.291-.1c.069,0,.193.119.173.193-.02.558-1.734,3.725-8.644,4.807v.039c.019.133-.074.212-.287.287a7.3,7.3,0,0,1-3.853,1.334c.281.114.375.212.435.365-.163.326-.79.5-1.561.539.123.059.193.138.193.212-.069.252-.84.638-1.591.638Zm-11.356-6.793c1.6.983,9.637,5.923,10.571,6.348a2.642,2.642,0,0,0,2.124-.247,6.008,6.008,0,0,1-.983-.178,6.634,6.634,0,0,1-2.539-.825c-.079-.02-.084-.1-.079-.178a.181.181,0,0,1,.188-.054,15.8,15.8,0,0,0,2.45.751,4.136,4.136,0,0,0,2.331-.252h0c-.054,0-.286-.074-1.289-.346a7.542,7.542,0,0,1-1.991-.538.139.139,0,0,1-.054-.178.12.12,0,0,1,.143-.094l1.966.539c.222.02.454.04.686.04a7.18,7.18,0,0,0,4.026-1.294h-.232c-1.052.119-2.183.213-3.368.252-.069-.039-.134-.059-.134-.133a.113.113,0,0,1,.114-.138c1.6-.173,2.722-.267,3.369-.267,7.231-.949,9.059-4.19,9.1-4.654a4.258,4.258,0,0,1-.988.7c-.548.306-1.254.731-2.089,1.156a15.547,15.547,0,0,1-3.369,1.294,15.942,15.942,0,0,1-8.615.059c-.089-.02-.128-.1-.108-.139a.147.147,0,0,1,.163-.114,17.889,17.889,0,0,0,8.471-.059,18.092,18.092,0,0,0,3.329-1.289,12.378,12.378,0,0,0,4.786-4.016,17.033,17.033,0,0,0-2.549,1.136,23.693,23.693,0,0,1-4.1,1.971c-.539.212-1.022.385-1.378.484a.142.142,0,0,1-.173-.118A.119.119,0,0,1,612.6,533c.484-.133.948-.331,1.363-.484,1.042-.425,2.277-1.062,3.413-1.64l.667-.306c2.652-1.66,3.29-3.167,3.349-3.458a4.536,4.536,0,0,1-.909.637c-.953.583-2.509,1.507-4.594,2.529a37.089,37.089,0,0,1-6.673,2.663c-.647.193-1.314.385-1.991.559h0a.14.14,0,0,1-.173-.094.21.21,0,0,1,.1-.193c.7-.173,1.348-.346,1.976-.544A46.219,46.219,0,0,0,615.784,530c4.1-2.2,4.371-4.051,4.243-4.263a12.97,12.97,0,0,0-2.381,1.334c-1.235.731-2.781,1.68-4.544,2.544a20.083,20.083,0,0,1-4.584,1.64.128.128,0,0,1-.163-.094.136.136,0,0,1,.1-.173h0a22.485,22.485,0,0,0,4.534-1.64,11.937,11.937,0,0,0,4.525-3.671c-1.531.909-7.483,3.478-7.745,3.572l-.731-.213-16.305,4.5Z" transform="translate(-592.244 -525.223)"/>
              </g>
              <path id="Path_10306" data-name="Path 10306" d="M593.068,532.906a1.371,1.371,0,0,0-1.506,1.314s-.124.079-.06.711a5.484,5.484,0,0,1,.381-.558,2.216,2.216,0,0,0,1.9-.617c-.983,1.022-.4,1.388-.4,1.388s-.232.8.5.968a.648.648,0,0,1-.089-.6,1.182,1.182,0,0,0,.963-1.393c.04,1.161.667,1.428.667,1.428a.706.706,0,0,0,.676.7,1.015,1.015,0,0,1-.281-.83,1.193,1.193,0,0,0,.138-1.719,2.838,2.838,0,0,0,.81-.963,5.794,5.794,0,0,1-.9-.464,9.41,9.41,0,0,1-.02-1.853l-.356-2.006-1.042,3.147a1.421,1.421,0,0,1-1.388,1.349Z" transform="translate(-459.962 -502.417)" fill="#df7a21"/>
              <g id="Group_261" data-name="Group 261" transform="translate(131.383 25.88)">
                <path id="Path_10307" data-name="Path 10307" d="M596.217,536.469h-.009a.825.825,0,0,1-.791-.81c-.059.02-.346-.114-.543-.652a1.2,1.2,0,0,1-.894.711,2.571,2.571,0,0,0,.143.405.113.113,0,0,1,0,.153.121.121,0,0,1-.143.059.827.827,0,0,1-.533-.366.957.957,0,0,1-.094-.716c-.049,0-.133-.113-.153-.326a1.027,1.027,0,0,1,.113-.539,2.8,2.8,0,0,1-1.284.227,3.794,3.794,0,0,0-.287.484.185.185,0,0,1-.148.059c-.045-.019-.1-.059-.1-.118-.089-.6.02-.791.079-.845a1.446,1.446,0,0,1,1.61-1.353,1.336,1.336,0,0,0,1.274-1.2v-.02a.288.288,0,0,1,.015-.114l1.018-3.053c.015-.054.074-.074.143-.074a.112.112,0,0,1,.123.094l.356,2.01a8.9,8.9,0,0,0,0,1.813c.232.133.83.385.83.385a.275.275,0,0,1,.069.094c.019.04,0,.079,0,.119a4.457,4.457,0,0,1-.731.944,1.337,1.337,0,0,1-.232,1.778.932.932,0,0,0,.262.6.148.148,0,0,1,.035.173.137.137,0,0,1-.124.074Zm-1.343-2.371c.1,0,.148.04.148.113a1.528,1.528,0,0,0,.568,1.314c.079.114.1.346.272.524a1.692,1.692,0,0,1-.069-.563,1.1,1.1,0,0,0,.163-1.6c-.02-.039-.04-.079-.02-.114.02-.059.03-.1.069-.1a2.394,2.394,0,0,0,.687-.771,4.639,4.639,0,0,1-.8-.445,6.368,6.368,0,0,1-.054-1.951l-.272-1.428-.84,2.569h0a1.609,1.609,0,0,1-1.551,1.487,1.252,1.252,0,0,0-1.383,1.176.617.617,0,0,0-.055.272.737.737,0,0,1,.143-.212,3.531,3.531,0,0,1,.464,0,2.326,2.326,0,0,0,1.437-.637.15.15,0,0,1,.213.02.171.171,0,0,1,0,.193c-.464.479-.553.771-.534.943s.1.252.119.252c.04.153-.03.484.094.7a.123.123,0,0,1,.049.074.782.782,0,0,1,.059-.366,1.187,1.187,0,0,0,.964-1.275.169.169,0,0,1,.124-.173Z" transform="translate(-591.456 -528.387)"/>
              </g>
              <path id="Path_10308" data-name="Path 10308" d="M595.388,531.728c.029.019,1.092,1.215,2.124,1.161.375-.331-.8-1.022-.8-1.2.415.39,2.2,1.912,3.329,1.374.444-.657-.82-.578-2.2-2.3.963.637,3.374,2.065,4.515,1.526.479-.544-2.509-2.124-3.512-3.4l-2.608-1.329-3.5,2.856Z" transform="translate(-455.031 -505.754)" fill="#df7a21"/>
              <g id="Group_262" data-name="Group 262" transform="translate(137.573 21.691)">
                <path id="Path_10309" data-name="Path 10309" d="M599.588,533.408a3.421,3.421,0,0,1-1.749-.657v.074a.75.75,0,0,1-.123.252h-.079a3.321,3.321,0,0,1-2.237-1.156l-2.613-1.275a.144.144,0,0,1-.069-.114c-.02-.02,0-.079.039-.119l3.522-2.875,2.737,1.314a11.267,11.267,0,0,0,1.971,1.714c1,.776,1.63,1.255,1.669,1.64,0,.04-.079.232-.089.272-1.082.538-2.692-.307-3.818-.983a6.451,6.451,0,0,0,1.022.77c.336.233.558.346.588.559a.481.481,0,0,1-.118.4,1.153,1.153,0,0,1-.652.178Zm-2.771-1.759a.148.148,0,0,1,.089.04c.306.291,2.178,1.813,3.171,1.314,0-.232-.2-.331-.454-.5a6.256,6.256,0,0,1-1.783-1.561.106.106,0,0,1,.01-.178.1.1,0,0,1,.163-.015c.484.286,3.309,2.006,4.391,1.5a6.249,6.249,0,0,0-1.591-1.467,10.385,10.385,0,0,1-1.981-1.714l-2.539-1.294-3.181,2.742,2.43,1.176a3.234,3.234,0,0,0,1.986,1.136c.025-.153-.316-.46-.519-.618-.232-.212-.336-.306-.336-.425a.129.129,0,0,1,.084-.114l.059-.02Z" transform="translate(-592.709 -527.539)"/>
              </g>
              <path id="Path_10310" data-name="Path 10310" d="M592.469,529.38s1.2-.716,5.982-.346a29.461,29.461,0,0,0,4.13-1.235c1.378-.272,5.789-1.235,6.984-2.124.84-.1-.232,1.522-1.294,1.932-1.122.5-5.231,1.927-6.678,1.734,1.739.04.776,1.447-2.129.79,1.4.771.879.89.879.89s-2.455.133-3.1-.425c1.655.617.968.83.968.83a6.3,6.3,0,0,1-2.45-.193c1.2.365.588.6.588.6a4.169,4.169,0,0,1-1.773-.134c-.82-.311-2.04-2.317-2.1-2.317Z" transform="translate(-456.083 -513.208)" fill="#df7a21"/>
              <g id="Group_263" data-name="Group 263" transform="translate(136.216 12.342)">
                <path id="Path_10311" data-name="Path 10311" d="M595.845,532.1a3.711,3.711,0,0,1-1.185-.173c-.647-.233-1.487-1.428-1.941-2.065a2.679,2.679,0,0,0-.192-.292c-.059,0-.089-.034-.089-.074-.015-.079.049-.119.089-.153s1.274-.736,6.06-.351h0a24.031,24.031,0,0,0,3.5-1.023l.568-.212c1.813-.326,5.883-1.289,6.955-2.1.356-.035.5.079.534.252.094.484-.805,1.6-1.68,1.912a28.113,28.113,0,0,1-5.839,1.739.3.3,0,0,1,.109.267c-.02.425-.988.85-2.436.657.371.272.425.445.405.558,0,.059-.133.193-.193.213a13.824,13.824,0,0,1-1.946-.039.178.178,0,0,1,.044.178.686.686,0,0,1-.208.267,11.256,11.256,0,0,1-1.63.039v.06c0,.173-.148.252-.252.306a6.5,6.5,0,0,1-.677.04Zm-3.008-2.584a1.343,1.343,0,0,1,.114.193c.385.538,1.245,1.734,1.793,1.946a3.76,3.76,0,0,0,1.1.173,3.126,3.126,0,0,0,.6-.054c.059-.02,0-.079-.276-.213a2.294,2.294,0,0,1-.321-.1.133.133,0,0,1-.079-.173.129.129,0,0,1,.168-.06,1.609,1.609,0,0,1,.356.1,6.018,6.018,0,0,0,1.176.094c.484,0,.879-.034.879-.034,0-.02-.01-.1-.4-.292a1.356,1.356,0,0,1-.657-.306.125.125,0,0,1-.04-.178c.04-.054.124-.094.173-.054.272.114.5.193.657.267a12.645,12.645,0,0,0,2.376.173,2.866,2.866,0,0,0-.909-.672c-.079-.04-.1-.079-.079-.153a.217.217,0,0,1,.168-.1,5.675,5.675,0,0,0,1.417.173c.963,0,1.388-.272,1.408-.445,0-.054-.124-.173-.484-.212a1.052,1.052,0,0,1-.252-.02c-.084-.015-.143-.074-.124-.153a.153.153,0,0,1,.124-.133h.02c.089,0,.192.02.272.02a23.348,23.348,0,0,0,6.318-1.739c.82-.306,1.576-1.309,1.536-1.64-1.3.85-5.69,1.833-7.137,2.1l-.563.193a19.559,19.559,0,0,1-3.537,1.023c-1.027-.06-1.828-.079-2.509-.079a10.492,10.492,0,0,0-3.29.351Z" transform="translate(-592.434 -525.647)"/>
              </g>
              <path id="Path_10312" data-name="Path 10312" d="M594.435,528.622l.158,3.147s-.089.153-.158.247c-.094.1-2.257-.326-1.946,1.314,0,.7.02.83.484,1.235a2.241,2.241,0,0,1-.1-.751s.617.326,1.225-.657c-.435.983-.124,1.349-.04,1.368.089.173-.183.968.627.949a.726.726,0,0,1-.163-.716s.859-.133.568-1.68c.291-.286.415,0,.415,0s.109.929.84.736c.346.193-.049.672-.049.672a.728.728,0,0,0,.7-.42c.163-.484.336-1.294-.528-1.64-.119-.331.336-.351.336-.351a1.6,1.6,0,0,1,.731.484c.183.286.128-.736-.588-.869-.85-.02-.914-.193-.914-.232s-.148-2.3-.212-2.935Z" transform="translate(-456.123 -501.971)" fill="#df7a21"/>
              <g id="Group_264" data-name="Group 264" transform="translate(136.189 26.399)">
                <path id="Path_10313" data-name="Path 10313" d="M594.784,535.749c-.692,0-.731-.578-.731-.869l-.128-.306a1.033,1.033,0,0,1-.054-.677.861.861,0,0,1-.746.232,1.632,1.632,0,0,0,.089.519c.01.059-.02.1-.079.158a.154.154,0,0,1-.143-.02c-.5-.425-.534-.617-.534-1.334a1.135,1.135,0,0,1,.2-.963,1.885,1.885,0,0,1,1.467-.465h.287c.108-.04.183-.212.183-.212l-.183-3.068,1.507-.252a23.818,23.818,0,0,1,.375,3.068s.1.1.79.138a.97.97,0,0,1,.781.983c0,.113-.257.173-.316.04a1.466,1.466,0,0,0-.667-.385c-.02,0-.143.034-.173.094.425.173.944.637.528,1.774a.863.863,0,0,1-.82.543.109.109,0,0,1-.1-.079.113.113,0,0,1,0-.153.727.727,0,0,0,.143-.385,1,1,0,0,1-.953-.929,3.059,3.059,0,0,1-.321,1.467,1.03,1.03,0,0,1-.469.351.9.9,0,0,0,.2.479.214.214,0,0,1,.04.173.2.2,0,0,1-.149.079Zm-.568-2.6.03.02a.122.122,0,0,1,.079.173c-.331.83-.168,1.136-.108,1.176a.507.507,0,0,1,.108.366c.015.272.035.445.208.543a.881.881,0,0,1-.015-.583c.124-.094.286-.113.435-.346a1.628,1.628,0,0,0,.1-1.274c.405-.6.647-.212.711-.074,0,.054.079.672.523.672a.622.622,0,0,1,.252-.02.435.435,0,0,1,.193.272.465.465,0,0,1-.049.346.625.625,0,0,0,.3-.286c.267-.771.124-1.215-.464-1.447a.442.442,0,0,1-.059-.425.7.7,0,0,1,.455-.213,2.648,2.648,0,0,1,.588.292c-.02-.059-.059-.1-.059-.119a.578.578,0,0,0-.405-.252c-.247,0-1.042-.02-1.042-.385,0-.094-.133-2.3-.212-2.915l-1.235.193.311,3.033a1.125,1.125,0,0,1-.222.346.8.8,0,0,1-.232.059h-.287c-.232,0-.948,0-1.235.365a.9.9,0,0,0-.168.771c.02.444.02.637.139.81a1.453,1.453,0,0,1,0-.326.117.117,0,0,1,.084-.119.19.19,0,0,1,.128,0s.5.272,1.022-.578a.118.118,0,0,1,.124-.074Z" transform="translate(-592.429 -528.492)"/>
              </g>
              <path id="Path_10314" data-name="Path 10314" d="M619.759,544.765c0-.173-1.467-2.164-1.092-2.411.375.074.993.983,1.5.711-.153-.365-.6-.173-1.1-1.062-.519-1.023-.6-2.583-2.371-4.243,1.146,1.773,3.759,2.816,3.878,2.3.094-.524-2.3-2.47-2.169-2.954.459.963,2.88,3.127,4.658,2.954.114-.425-1.437-1.255-1.872-2.045-1.121-.756-4.169-3.4-4.228-4a7.281,7.281,0,0,0-2.119-2.3.994.994,0,0,1-.183-.366c-.687-1.62.232-2.139.771-2.218a2.474,2.474,0,0,0,.879-.133c-.375-.138-.756-.292-1.121-.425.474.346,1.729.054,1.437,1.057.548-.212,1.719-1.581-1.284-1.887-1-1.121-5.033-1.8-6.056,3.142a4.4,4.4,0,0,0,.4.331,32.473,32.473,0,0,0-5.962-1.314c-3.369-.963-6.821-3.28-7.167-3.009-.444.193,2.006,2.49,1.882,2.544a57.43,57.43,0,0,0-5.907-2.93c-1.289-.484-2.573-1.606-2.712-1.374-.459.968,2.045,3.419,2.509,3.725.465.272,4.179,1.991,4.12,2.006-5.567-2.525-6.491-2.989-6.762-3.28-.5-.114-1.709-1.714-2.025-1.64-.193.193.173,2.742,2.825,3.9.455.311,5.71,2.2,5.646,2.337,0,.059-6.021-2.49-6.253-2.549-1.166-.479-2.593-2.065-2.845-1.887s.667,1.887,1.822,2.431c.608.272,2.974,1.448,5.083,2.2.148.02-3.808-1.507-5.71-2.3-.859-.479-1.265-1.077-1.4-.944-.193.094.326,2.663,6.416,4.11.163.079,2.168-.484,2.055-.405-.02.02-1.971.445-2.164.445a4.541,4.541,0,0,0-1.254.173c-.054.153.4,1.082,3.551.9.4-.034,2.573-.825,2.391-.652-.084.074-2.988,1.023-3.181,1.042a4.387,4.387,0,0,0-1.255.227c-.059.158.751.815,2.45.909a18.714,18.714,0,0,0,4.283-.85c-.054.079-2.756.983-2.815,1.042-.1.039-1.092.1-1.112.193-.084.173,1.418,1.586,5.839.079-.445.6-2.573,1.023-2.573,1.136a1.82,1.82,0,0,0,1.215.7,3.59,3.59,0,0,0,1.359,0,5.573,5.573,0,0,0,2.865-1.547c.143.311-2.825,1.838-2.682,1.971.647.6,2.771-.079,2.924-.153.133-.079,4.09-2.317,4.07-2.589.079.346-5.112,3.147-5.043,3.261.336.543,2.089-.035,2.188-.074.069-.04,2.257-1.215,2.327-1.255.044-.02-2.559,1.541-2.327,1.773-.124,1.023,4.06-.711,4.4-.9.163-.119-2.03.944-2.03,1.428.706,1.215,2.944.83,3.3.578.168-.118-.212.889-.084.771a3.243,3.243,0,0,0,.667-.909c-.059.331-.311.83-.454,1.448s-.183,1.275-.375,1.991c-.06.306,1.378-.637,1.166-2.855.124,1.156-.454,3.32-.306,3.453.306.232,1.146-1.082,1.235-1.971a4.243,4.243,0,0,0,1.205,1.606,4.018,4.018,0,0,0-.2-1.314,31.087,31.087,0,0,0,.163-3.473c1.215,2.317,1.68,3.3,1.358,5.054.356.158.939-1.235.879-1.926a2.89,2.89,0,0,0,2.49,2.218Z" transform="translate(-478.453 -515.432)" fill="#df7a21"/>
              <g id="Group_265" data-name="Group 265" transform="translate(108.234 9.616)">
                <path id="Path_10315" data-name="Path 10315" d="M619.8,544.926a3.032,3.032,0,0,1-2.381-1.793,3.411,3.411,0,0,1-.593,1.354.406.406,0,0,1-.306.153c-.049-.02-.173-.079-.173-.138.306-1.581-.04-2.485-1.131-4.59a25.106,25.106,0,0,1-.163,3.028,2.591,2.591,0,0,1,.183.929l.03.365c-.529-.1-.983-.771-1.264-1.255-.223.77-.81,1.773-1.225,1.773-.232-.133-.212-.326-.064-1.175,0-.079.015-.134.015-.212-.287.538-.642.83-.82.83a.891.891,0,0,1-.183-.173,7.668,7.668,0,0,0,.232-1.176c.059-.291.109-.583.183-.83a5.122,5.122,0,0,1,.173-.7,2.407,2.407,0,0,1-.247.291c-.212-.1-.193-.2-.109-.484a1.051,1.051,0,0,0,.069-.366c-.05.193-.657.326-1.324.326a2.205,2.205,0,0,1-1.986-.869c0-.232.252-.518.588-.771-1.176.445-2.593.79-2.914.445a.27.27,0,0,1-.084-.272c.01-.153.193-.366.479-.578l-.306.153c-.109.079-2.005.563-2.327.039-.059-.094-.079-.113.425-.4-.8.173-1.966.272-2.356-.1-.015-.153.069-.286.425-.518a3.62,3.62,0,0,1-.519.133,4.712,4.712,0,0,1-1.388.02c-.726-.173-1.354-.657-1.334-.85,0-.114.108-.114.647-.306a12.571,12.571,0,0,0,1.4-.464,11.289,11.289,0,0,1-2.885.445c-1.5,0-2.208-.465-2.361-.717a.8.8,0,0,1-.059-.212c.059-.094.143-.114.731-.173a4.462,4.462,0,0,0,.455-.054,2.247,2.247,0,0,1,.588-.232,9.66,9.66,0,0,1-1.842.252,3.95,3.95,0,0,1-2.692-.869c0-.292.148-.351,1.151-.484.1-.02.376-.079.751-.192-2.519.114-3.181-.484-3.349-.751-.084-.1-.123-.232-.084-.292.05-.114.548-.193.924-.232-4.416-1.136-5.834-2.934-5.992-3.819-.035-.193-.015-.272.049-.331.272-.034.356.079.553.232a5.717,5.717,0,0,0,.973.7c0,.02.03.02.03.04a3.959,3.959,0,0,1-1.427-2.1.535.535,0,0,1,.074-.252c.321-.02.6.212,1.141.637.213.173.459.385.711.578a4.572,4.572,0,0,1-1.264-2.332c-.054-.2-.084-.544.029-.638.311-.019.647.247,1.151.751a3.976,3.976,0,0,0,.973.83,10.331,10.331,0,0,0,2.237,1.2c-.849-.751-2.672-2.7-2.228-3.587.326-.118.578.074,1.062.366a11.225,11.225,0,0,0,1.783.943c1.689.756,3.512,1.6,5.448,2.7a1.437,1.437,0,0,0-.217-.232c-1-1.082-1.447-1.66-1.393-1.912l.252-.193a7.694,7.694,0,0,1,1.951.87,35.046,35.046,0,0,0,5.142,2.184l.489.074a33.316,33.316,0,0,1,5.058,1.042c.672-3.725,2.934-4.09,3.887-4.09a3.012,3.012,0,0,1,2.238.83c1.255.1,1.951.445,2.016,1a1.229,1.229,0,0,1-.751,1.082c-.1-.346-.1-.484-.153-.6a1.5,1.5,0,0,0-.129-.079l-.039.04a1.309,1.309,0,0,1-.588.1c-.084,0-.193.015-.336.015a1.215,1.215,0,0,0-.771.524,1.726,1.726,0,0,0,.1,1.561.936.936,0,0,0,.163.331A7.794,7.794,0,0,1,617.119,534c.089.563,2.954,3.107,4.228,3.957a4.782,4.782,0,0,0,1.067,1.141c.523.405.919.751.84,1.042a.731.731,0,0,1-.317.074,4.974,4.974,0,0,1-2.845-1.2c.439.524.711.869.652,1.1-.005.074-.084.212-.366.212a4.7,4.7,0,0,1-2.218-.968,10.42,10.42,0,0,1,.731,1.719,6.752,6.752,0,0,0,.34.909,1.427,1.427,0,0,0,.751.731.689.689,0,0,1,.355.326c-.123.2-.212.213-.326.213a1.5,1.5,0,0,1-.859-.46,1.1,1.1,0,0,0-.444-.292,8.318,8.318,0,0,0,.918,1.7c.272.425.316.518.316.6l-.143.114Zm-2.45-2.47a.13.13,0,0,1,.124.1,2.767,2.767,0,0,0,2.257,2.124,1.392,1.392,0,0,1-.306-.351c-.627-1.023-1.072-1.793-.751-2.006a.915.915,0,0,1,.622.311,1.342,1.342,0,0,0,.716.42h0c.079,0,0-.034-.133-.114a1.851,1.851,0,0,1-.849-.83,6.321,6.321,0,0,1-.356-.983,9.053,9.053,0,0,0-1.052-2.219,5.416,5.416,0,0,1-.958-1.062.139.139,0,0,1,.04-.138.1.1,0,0,1,.143.02,6.623,6.623,0,0,1,.948,1.062,5.254,5.254,0,0,0,2.583,1.334c.193-.232-.454-.968-.933-1.467-.716-.771-1.171-1.255-1.072-1.527a.1.1,0,0,1,.084-.094.1.1,0,0,1,.109.074c.5,1,2.885,3.034,4.574,2.875-.059-.054-.5-.425-.869-.731a4.382,4.382,0,0,1-1.092-1.141c-.944-.617-4.184-3.334-4.243-4.031a7.672,7.672,0,0,0-2.055-2.2.765.765,0,0,1-.232-.444,1.979,1.979,0,0,1-.094-1.759,1.28,1.28,0,0,1,.914-.6c.163-.02.291-.02.375-.034h.193l-.213-.1a1.573,1.573,0,0,1-.627-.252.1.1,0,0,1-.044-.133.126.126,0,0,1,.153-.059l.627.212c.336.06.686.119.84.385a.626.626,0,0,1,.054.6c.079-.212.5-.558.445-.963-.049-.425-.711-.711-1.872-.83a3.1,3.1,0,0,0-2.149-.81c-.9,0-3.057.385-3.783,3.859.089,0,.163.079.341.212a.1.1,0,0,1,.034.153.127.127,0,0,1-.143.04,25.383,25.383,0,0,0-5.443-1.2l-.479-.094a32.626,32.626,0,0,1-5.182-2.2,9.72,9.72,0,0,0-1.872-.85c-.074.212.87,1.255,1.3,1.719.568.617.628.7.608.771-2.277-1.156-4.243-2.045-6.086-2.835a14.885,14.885,0,0,1-1.828-.983,3.386,3.386,0,0,0-.771-.445c-.375.849,2.045,3.26,2.529,3.552.232.133,1.318.657,2.326,1.136,1.126.544,1.571.756,1.734.849l.04.02-.02.02c.089.04.089.079.069.094l-.089-.035-.069.114c-.094-.059-.983-.484-1.753-.85-.376-.173-.751-.365-1.1-.518-3.22-1.408-3.725-1.68-3.957-1.932-.207,0-.607-.425-1.027-.83a3.23,3.23,0,0,0-.859-.751,4.413,4.413,0,0,0,.212.963,4.62,4.62,0,0,0,2.633,2.7,1.872,1.872,0,0,0,.588.291l.306.114c.534.232,1.265.5,1.991.79,2.875,1.122,2.875,1.161,2.806,1.314-.04.02-.064.02-.163,0l-.04.02a.109.109,0,0,0-.049-.04c-.376-.1-1.438-.538-4.638-1.872l-.292-.133h0c-.672-.272-1.156-.464-1.215-.5a8.452,8.452,0,0,1-1.872-1.255,3.7,3.7,0,0,0-.884-.6,4.065,4.065,0,0,0,1.813,2.238l.568.232c.519.252,1.314.617,2.153.983l1.675.657a4.057,4.057,0,0,1,.6.272.726.726,0,0,1,.084.02v.02c.089.054.089.074.089.094h-.128l-.03.079c-.034-.02-.306-.1-.731-.292l-.306-.094c-.464-.193-.919-.37-1.324-.563-1.146-.425-2.48-.963-3.349-1.329a4.887,4.887,0,0,1-1.022-.756c-.124-.074-.252-.208-.286-.208a2.917,2.917,0,0,0,.193.539c.365.637,1.65,2.317,6.2,3.374a2.363,2.363,0,0,0,.642-.114l.716-.153a3.133,3.133,0,0,1,.657-.139c.02.04.113.158.054.2-.034.054-1.378.326-1.378.326-.252.059-.464.094-.588.113-.124,0-.212.02-.252.02a5.416,5.416,0,0,0-1.2.158c.336.326,1.052.845,3.473.692a10.269,10.269,0,0,0,1.344-.366,6.593,6.593,0,0,1,1.052-.292c.034.04.123.173.094.212a34.013,34.013,0,0,1-3.26,1.082,5.216,5.216,0,0,0-1.166.193,4.2,4.2,0,0,0,2.361.716h.02a16.566,16.566,0,0,0,3.868-.736c.647-.193.464-.133.484-.059a.166.166,0,0,1,0,.138,12.738,12.738,0,0,1-1.689.638c-.568.192-1.092.385-1.156.425a3.4,3.4,0,0,1-.543.094,5.365,5.365,0,0,0-.568.079,3.618,3.618,0,0,0,2.238.558,11.163,11.163,0,0,0,3.5-.657.114.114,0,0,1,.139.04.13.13,0,0,1,0,.133,5.309,5.309,0,0,1-2.1.968c-.212.074-.444.153-.5.173a5.614,5.614,0,0,0,1.185.519,4.777,4.777,0,0,0,1.3,0,5.678,5.678,0,0,0,2.816-1.521c.272.266-.143.558-1.521,1.408a7.023,7.023,0,0,0-.983.657,2.581,2.581,0,0,0,.79.114,6.85,6.85,0,0,0,1.966-.385,36,36,0,0,0,4.036-2.51.086.086,0,0,1,.094-.094c.02-.04.118.054.133.094.03.232-.43.578-3.423,2.317-.78.464-1.59.929-1.67,1.022a2.4,2.4,0,0,0,.563.06,4.665,4.665,0,0,0,1.462-.292l.543-.272c.672-.365,1.734-.943,1.793-.963a.082.082,0,0,1,.134.04.08.08,0,0,1-.02.133h0a9.616,9.616,0,0,0-2.282,1.66c.064.173.163.232.375.232a12.847,12.847,0,0,0,3.512-1.042c.375-.193.405-.193.425-.193a.133.133,0,0,1,.114.079.164.164,0,0,1-.059.133,2.09,2.09,0,0,1-.4.173c-.914.484-1.571.983-1.571,1.161a2.068,2.068,0,0,0,1.783.751,3.2,3.2,0,0,0,1.324-.252c.252.079.222.212.153.524a.153.153,0,0,0-.02.094c.089-.193.3-.479.405-.731.039-.039.079-.079.148-.059s.064.079.064.133a2.172,2.172,0,0,1-.173.617c-.089.232-.193.543-.272.83-.054.252-.1.544-.143.83a7.618,7.618,0,0,1-.232,1.181,3.355,3.355,0,0,0,.958-1.932c.015-.272.015-.539.015-.771h0a.388.388,0,0,1,.069-.212.232.232,0,0,1,.108-.02c.015,0,.035,0,.035.02v.02a3.789,3.789,0,0,1-.02.983c-.035.484-.123,1.023-.193,1.467a3.74,3.74,0,0,0-.113.943,3.1,3.1,0,0,0,1-1.926.091.091,0,0,1,.1-.079.08.08,0,0,1,.114.059,4.388,4.388,0,0,0,1.166,1.522l-.192-.266a2.032,2.032,0,0,0-.163-.889c.109-.849.128-1.951.163-3.206v-.306c0-.059.029-.1.089-.1.059-.02.089,0,.1.039,1.19,2.258,1.739,3.3,1.363,5.152l.094-.212a3.2,3.2,0,0,0,.593-1.754.136.136,0,0,1,.084-.138Z" transform="translate(-586.77 -525.095)"/>
              </g>
              <path id="Path_10316" data-name="Path 10316" d="M590.868,526.113a3.329,3.329,0,0,1-1.852.563c.232,1.023,2.381.227,2.381.227a5.412,5.412,0,0,1-1.764,1.334,4.443,4.443,0,0,0,2.594.059,5.789,5.789,0,0,0,.859-.909s-1.9,2.2-2.188,2.183c-.01.247,2.005.153,2.42-.212a8.632,8.632,0,0,1,1.487-.949s-2.781,1.932-2.9,1.932a7.215,7.215,0,0,0,4.466-1.181,19.2,19.2,0,0,1-3.157,2.011c.9.212,1.344.81,4.371-.524a7.12,7.12,0,0,0,2.722-2.3,17.912,17.912,0,0,1-4.663,3.863c-.1.212,2.01,1.136,4.732-1.7Z" transform="translate(-469.686 -511.467)" fill="#df7a21"/>
              <g id="Group_266" data-name="Group 266" transform="translate(119.211 14.52)">
                <path id="Path_10317" data-name="Path 10317" d="M596.693,532.739a1.825,1.825,0,0,1-.959-.212.567.567,0,0,1-.084-.272c.677-.445,1.319-.869,1.966-1.349-2.489,1.077-3.22.845-3.937.6-.123-.04-.266-.079-.415-.119a.129.129,0,0,1-.084-.114.2.2,0,0,1,.069-.1A9.018,9.018,0,0,0,595,530.13a.361.361,0,0,0,.1-.074,5.755,5.755,0,0,1-3.141.479c-.059-.02-.1-.04-.079-.113a.108.108,0,0,1,.108-.1,9.649,9.649,0,0,0,.81-.538,3.633,3.633,0,0,1-1.813.039.814.814,0,0,1-.089-.173,6.115,6.115,0,0,0,1.146-1.082,4.148,4.148,0,0,1-2.4-.133,6.386,6.386,0,0,0,1.447-1.181,2.654,2.654,0,0,1-1.739.02.752.752,0,0,1-.365-.484,3.937,3.937,0,0,0,1.892-.692c.059-.02.109-.02.143.04a.093.093,0,0,1-.019.153,3.035,3.035,0,0,1-1.9.6,1.015,1.015,0,0,1,.366.193c.607.326,1.966-.153,1.966-.173a.125.125,0,0,1,.128.059c.03.035.03.074-.02.114a5.036,5.036,0,0,1-1.793,1.368,7.051,7.051,0,0,0,2.5-.173.475.475,0,0,0,.2-.133c.192-.233.425-.5.637-.716.02-.054.119-.054.148-.02a.087.087,0,0,1,.015.138,4.057,4.057,0,0,1-.642.731c-.628.717-1.363,1.467-1.615,1.487a6.264,6.264,0,0,0,2.326-.405,10.561,10.561,0,0,1,1.507-.943c.074-.04.123-.02.143.034.059.059.02.079-.02.119-1.571,1.1-2.307,1.6-2.642,1.813a7.864,7.864,0,0,0,4.08-1.2.137.137,0,0,1,.148.04.113.113,0,0,1-.039.153c-.608.385-1.042.7-1.383.943a12.571,12.571,0,0,1-1.5.929.192.192,0,0,1,.1.04c.706.213,1.417.459,3.907-.617a7.784,7.784,0,0,0,1.506-1.023,8.6,8.6,0,0,0,1.176-1.275.106.106,0,0,1,.148-.02.115.115,0,0,1,.035.153,7.817,7.817,0,0,1-1.269,1.368,27.7,27.7,0,0,1-3.408,2.529c.079-.039.272.059.617.1.529.054,2.074-.02,3.937-1.971a.113.113,0,0,1,.153,0,.12.12,0,0,1,0,.158,5.551,5.551,0,0,1-3.838,2.045Z" transform="translate(-588.992 -526.087)"/>
              </g>
              <path id="Path_10318" data-name="Path 10318" d="M592.367,527.344a2.875,2.875,0,0,0,.909,1.522,2.241,2.241,0,0,1,.77,1.294Z" transform="translate(-456.485 -506.617)" fill="#df7a21"/>
              <g id="Group_267" data-name="Group 267" transform="translate(135.763 20.623)">
                <path id="Path_10319" data-name="Path 10319" d="M594.141,530.361c-.059,0-.084-.04-.109-.1a1.958,1.958,0,0,0-.751-1.216,3.361,3.361,0,0,1-.934-1.6.087.087,0,0,1,.074-.119.113.113,0,0,1,.139.079,3.1,3.1,0,0,0,.884,1.467,2.143,2.143,0,0,1,.805,1.368.09.09,0,0,1-.089.118Z" transform="translate(-592.343 -527.323)"/>
              </g>
              <path id="Path_10320" data-name="Path 10320" d="M592.289,526.211a2.721,2.721,0,0,0,1,1.275A7.482,7.482,0,0,1,595.3,529.8a29.224,29.224,0,0,1,.524,2.969Z" transform="translate(-456.792 -511.081)" fill="#df7a21"/>
              <g id="Group_268" data-name="Group 268" transform="translate(135.401 15.011)">
                <path id="Path_10321" data-name="Path 10321" d="M595.9,532.985h-.04a.15.15,0,0,1-.084-.138c.035-.212-.4-2.564-.484-2.915a8.592,8.592,0,0,0-1.971-2.277,2.664,2.664,0,0,1-1.037-1.309.111.111,0,0,1,.055-.153.121.121,0,0,1,.148.094,2.553,2.553,0,0,0,.963,1.2,8.959,8.959,0,0,1,2.045,2.376,23.406,23.406,0,0,1,.5,3.028.1.1,0,0,1-.094.1Z" transform="translate(-592.27 -526.187)"/>
              </g>
              <path id="Path_10322" data-name="Path 10322" d="M592.089,526.453c.054.292-1.082,1.778.479,3.513-1.408,1.719-1.408,1.932-1.408,1.932s.78.445,2.183-.756c2.322,2.841,1.541,4.15,1.541,4.15Z" transform="translate(-461.24 -510.127)" fill="#df7a21"/>
              <g id="Group_269" data-name="Group 269" transform="translate(129.854 16.212)">
                <path id="Path_10323" data-name="Path 10323" d="M594.937,535.5l-.04-.02a.118.118,0,0,1-.054-.138c.015-.02.691-1.309-1.546-4.031-1.284,1.255-2.1.81-2.144.79-.074-.272.464-1,1.383-2.124a2.623,2.623,0,0,1-.588-3.122c.03-.118.084-.252.084-.292a.105.105,0,0,1,.089-.133c.084,0,.1.02.124.094a.776.776,0,0,1-.084.385,2.671,2.671,0,0,0,.539,3.068,13.094,13.094,0,0,0-1.388,2.011h.163a2.8,2.8,0,0,0,1.842-.85c2.509,2.895,1.753,4.244,1.719,4.3-.03.04-.049.059-.1.059Z" transform="translate(-591.147 -526.43)"/>
              </g>
              <path id="Path_10324" data-name="Path 10324" d="M591.938,529.006s-.242-.311.163-1.467c.336.425.716.5.889.677.163.153,1.9.425,2.025,1.581Z" transform="translate(-458.457 -505.848)" fill="#df7a21"/>
              <g id="Group_270" data-name="Group 270" transform="translate(133.299 21.671)">
                <path id="Path_10325" data-name="Path 10325" d="M595.1,529.946a.141.141,0,0,1-.124-.114c-.069-.81-1.052-1.156-1.6-1.349-.213-.079-.346-.118-.375-.192a1.328,1.328,0,0,1-.252-.119,2.271,2.271,0,0,1-.662-.538,2.425,2.425,0,0,0,.015,1.329c.04.059,0,.1-.034.139a.133.133,0,0,1-.158-.02c-.02-.04-.227-.385.158-1.547.4.213.627.331.79.445a1.364,1.364,0,0,1,.286.173,1.148,1.148,0,0,0,.291.119c.588.212,1.679.578,1.763,1.541a.122.122,0,0,1-.1.134Z" transform="translate(-591.844 -527.535)"/>
              </g>
              <path id="Path_10326" data-name="Path 10326" d="M593.617,525.973c0-.094-.336-.869-1.66.079.716.054,1.388.445,1.66-.079Z" transform="translate(-458.1 -513.546)" fill="#df7a21"/>
              <g id="Group_271" data-name="Group 271" transform="translate(133.551 11.929)">
                <path id="Path_10327" data-name="Path 10327" d="M593.377,526.427h0a3.234,3.234,0,0,1-.568-.074,3.385,3.385,0,0,0-.608-.1l-.306-.02.227-.173a2.262,2.262,0,0,1,1.191-.5.635.635,0,0,1,.672.5.584.584,0,0,1-.608.365Zm-.854-.346c.1.02.217.04.316.059a2.094,2.094,0,0,0,.538.074h0a.379.379,0,0,0,.4-.212h0a1.112,1.112,0,0,0-1.25.079Z" transform="translate(-591.895 -525.563)"/>
              </g>
              <path id="Path_10328" data-name="Path 10328" d="M601.14,526.363c.059.02,3.927.87,5.211.445-1.649,2.2-4.939.7-4.939.7,1.63.5,1.684.464,2.2.924.163.405-2.973.212-3.986-.366,2.855.909,2.934.85,3.023,1.2.124.484-4.712-.133-5.127-.77a25.66,25.66,0,0,0,2.7,1.66c-.869.365-2.489.751-5.438-1.354,3.887,3.572,7.419,3.34,7.948,3.977-1.339,2.006-6.6-1.175-9.019-2.816-2.42-1.581,5.295,3.937,6,3.818-.36.544-2.9.079-3.067-.173Z" transform="translate(-453.033 -510.482)" fill="#df7a21"/>
              <g id="Group_272" data-name="Group 272" transform="translate(140.12 15.767)">
                <path id="Path_10329" data-name="Path 10329" d="M598.846,534.234h-.02a4.378,4.378,0,0,1-2.218-.5l.213-.114A5.342,5.342,0,0,0,599.1,534a1.842,1.842,0,0,0,.435-.079,47.515,47.515,0,0,1-6.234-4.051h-.019a.422.422,0,0,1-.055-.079c.094-.173.094-.173.627.173,2.238,1.507,7.582,4.768,8.866,2.836-.148-.035-.593-.133-1.2-.306a14.819,14.819,0,0,1-6.733-3.513.119.119,0,0,1-.02-.173.1.1,0,0,1,.143-.02c2.87,2.025,4.421,1.739,5.355,1.329a1.407,1.407,0,0,1-.751-.207,9.7,9.7,0,0,1-1.719-1.042.809.809,0,0,1-.287-.232.085.085,0,0,1,.02-.138.087.087,0,0,1,.124,0c.089.059.173.119.272.178a10.039,10.039,0,0,0,2.845.652,3.976,3.976,0,0,0,1.842.02c-.059-.173-.059-.193-1.507-.637l-.163-.054a3.777,3.777,0,0,1-1.3-.39c-.054-.015-.074-.094-.054-.153s.094-.074.143-.074l1.294.425a6.493,6.493,0,0,0,2.554.054,2.328,2.328,0,0,0-.855-.425,8.107,8.107,0,0,1-1.274-.385c-.049-.02-.069-.094-.069-.153a.131.131,0,0,1,.143-.04l.607.153c.272.1.484.138.657.192a3.5,3.5,0,0,0,3.359-.791,18.1,18.1,0,0,1-4.979-.538l.089-.193c.163.059,3.907.85,5.142.444a.107.107,0,0,1,.133.054.122.122,0,0,1-.02.138,3.326,3.326,0,0,1-3.038,1.215,2.368,2.368,0,0,1,.286.252c.03.02.03.074.03.114a.224.224,0,0,1-.064.133,3.077,3.077,0,0,1-1.536.119c.533.193.568.272.637.518.02.04-.089.193-.134.232a12.1,12.1,0,0,1-4.055-.385,9.124,9.124,0,0,0,.988.539c.247.118.5.272.731.4-.81.544-2.055.85-4.12-.247a13.964,13.964,0,0,0,5.335,2.391,3.223,3.223,0,0,1,1.334.524c-.968,1.541-3.823.479-6.416-.949a14.969,14.969,0,0,0,3.28,1.912.128.128,0,0,1,.1.059.158.158,0,0,1,0,.133c-.124.173-.459.291-1.023.291Z" transform="translate(-593.225 -526.34)"/>
              </g>
              <path id="Path_10330" data-name="Path 10330" d="M596.625,527.113a11.441,11.441,0,0,1-1.986.04Z" transform="translate(-447.535 -507.527)" fill="#df7a21"/>
              <g id="Group_273" data-name="Group 273" transform="translate(146.976 19.453)">
                <path id="Path_10331" data-name="Path 10331" d="M595.4,527.377a4.988,4.988,0,0,1-.672-.02c-.079-.02-.119-.059-.119-.118.02-.059.1-.114.148-.094a12.016,12.016,0,0,0,1.956-.059c.069.02.118.04.133.114a.114.114,0,0,1-.1.118,12.163,12.163,0,0,1-1.343.059Z" transform="translate(-594.613 -527.086)"/>
              </g>
              <path id="Path_10332" data-name="Path 10332" d="M589.158,525.988s2.954,1.566,4.188,1.448a1.87,1.87,0,0,1-.82.444,3.693,3.693,0,0,0,2.47.292c-.311.306-.716.672-.716.672a3.173,3.173,0,0,0,2.376-.247,8.649,8.649,0,0,0-.588.81l.854.054Z" transform="translate(-469.127 -511.96)" fill="#df7a21"/>
              <g id="Group_274" data-name="Group 274" transform="translate(119.931 13.933)">
                <path id="Path_10333" data-name="Path 10333" d="M597,529.675h0l-.864-.06c-.079-.133.025-.365.247-.657a3.067,3.067,0,0,1-2.06.04c-.04-.113.173-.345.415-.578a3.806,3.806,0,0,1-2.084-.331c-.049-.015-.128-.094-.108-.114,0-.059-.02-.114.039-.114a2.915,2.915,0,0,0,.519-.232,15.708,15.708,0,0,1-3.922-1.447c-.03-.04-.069-.119-.03-.173a.09.09,0,0,1,.134-.02c.04,0,2.963,1.561,4.139,1.428a.121.121,0,0,1,.1.054.174.174,0,0,1-.019.138,2.155,2.155,0,0,1-.588.366,3.621,3.621,0,0,0,2.134.173c.059-.019.089,0,.1.06a.069.069,0,0,1,0,.114c-.247.252-.548.524-.672.637a5.218,5.218,0,0,1,.568,0,3.419,3.419,0,0,0,1.63-.385.126.126,0,0,1,.143.02c.04.059.04.114,0,.133a5.682,5.682,0,0,0-.6.83l.791-.114a.094.094,0,0,1,.1.114.114.114,0,0,1-.119.118Z" transform="translate(-589.138 -525.969)"/>
              </g>
              <path id="Path_10334" data-name="Path 10334" d="M581.382,535.986c.094,0,.346-.133.124-.133-.109,0-.336.133-.124.133Z" transform="translate(-500.101 -473.094)" fill="#fff"/>
            </g>
          </g>
        </g>
      </g>
    </g>
  </g>
</svg>
