<svg xmlns="http://www.w3.org/2000/svg" xmlns:xlink="http://www.w3.org/1999/xlink" width="165.78" height="96.72" viewBox="0 0 165.78 96.72">
  <defs>
    <clipPath id="clip-path">
      <rect id="Rectangle_1034" data-name="Rectangle 1034" width="165.78" height="96.72" fill="none"/>
    </clipPath>
  </defs>
  <g id="ZIMBABWE" transform="translate(-512.732 -523.148)">
    <g id="Group_250" data-name="Group 250" transform="translate(512.732 523.148)">
      <g id="Group_249" data-name="Group 249">
        <g id="Group_248" data-name="Group 248" clip-path="url(#clip-path)">
          <rect id="Rectangle_1029" data-name="Rectangle 1029" width="165.78" height="96.72" fill="#4a9318"/>
          <rect id="Rectangle_1030" data-name="Rectangle 1030" width="165.78" height="69.105" transform="translate(0 13.817)" fill="#f6d128"/>
          <rect id="Rectangle_1031" data-name="Rectangle 1031" width="165.78" height="41.432" transform="translate(0 27.654)" fill="#cb0423"/>
          <rect id="Rectangle_1032" data-name="Rectangle 1032" width="165.78" height="13.836" transform="translate(0 41.452)"/>
          <path id="Path_10230" data-name="Path 10230" d="M512.732,523.148v96.72h3.521l64.421-48.379-64.421-48.341Z" transform="translate(-512.732 -523.148)"/>
          <path id="Path_10231" data-name="Path 10231" d="M512.732,523.148v96.72l64.421-48.379Z" transform="translate(-512.732 -523.148)" fill="#fff"/>
          <path id="Path_10232" data-name="Path 10232" d="M526.667,527.965,515.815,550l16.506,8.163Z" transform="translate(-500.592 -504.171)" fill="#cb0423"/>
          <path id="Path_10233" data-name="Path 10233" d="M522.513,527.965,533.385,550l-16.516,8.163Z" transform="translate(-496.438 -504.171)" fill="#cb0423"/>
          <path id="Path_10234" data-name="Path 10234" d="M524.567,527.965l-8.219,23.157,17.345,6.156Z" transform="translate(-498.491 -504.171)" fill="#cb0423"/>
          <path id="Path_10235" data-name="Path 10235" d="M525.274,527.965l8.228,23.157-17.335,6.156Z" transform="translate(-499.199 -504.171)" fill="#cb0423"/>
          <path id="Path_10236" data-name="Path 10236" d="M544.219,534.219l-24.281-3.531-2.653,18.236Z" transform="translate(-494.798 -493.443)" fill="#cb0423"/>
          <path id="Path_10237" data-name="Path 10237" d="M513.287,534.219l24.281-3.531,2.643,18.236Z" transform="translate(-510.547 -493.443)" fill="#cb0423"/>
          <path id="Path_10238" data-name="Path 10238" d="M542.711,531.941l-24.532-.675-.511,18.41Z" transform="translate(-493.291 -491.165)" fill="#cb0423"/>
          <path id="Path_10239" data-name="Path 10239" d="M513.287,531.941l24.542-.675.5,18.41Z" transform="translate(-510.547 -491.165)" fill="#cb0423"/>
          <path id="Path_10240" data-name="Path 10240" d="M532.185,552.883l-4.3-20.668-10.322,2.142Z" transform="translate(-493.714 -487.425)" fill="#cb0423"/>
          <path id="Path_10241" data-name="Path 10241" d="M535.116,552.067l-18.3-10.5,5.239-9.147Z" transform="translate(-496.645 -486.609)" fill="#cb0423"/>
          <path id="Path_10242" data-name="Path 10242" d="M515.5,552.067l18.309-10.5-5.239-9.147Z" transform="translate(-501.823 -486.609)" fill="#cb0423"/>
          <path id="Path_10243" data-name="Path 10243" d="M515.5,552.883l4.312-20.668,10.322,2.142Z" transform="translate(-501.823 -487.425)" fill="#cb0423"/>
          <g id="Group_247" data-name="Group 247">
            <g id="Group_246" data-name="Group 246" clip-path="url(#clip-path)">
              <path id="Path_10244" data-name="Path 10244" d="M535.078,565.6a26.967,26.967,0,0,1,1.64-9.2,31.673,31.673,0,0,1,2.218-4.807,4.687,4.687,0,0,1,1.274.252c1.339.385,1.714.326,1.714-.331,0-.346-1.388-1.581-8.149-7.272-4.574-3.784-8.313-6.812-8.5-6.812a.487.487,0,0,1-.405-.213c-.034-.133-.247-1.62-.479-3.3a27.6,27.6,0,0,0-.686-3.705,2.861,2.861,0,0,0-2.741-1.64,2.829,2.829,0,0,0-2.035.385,3.324,3.324,0,0,1-1.486.484,1.409,1.409,0,0,0-1.447,1.388v.519l1.17-.035c.647-.02.993,0,.731.054-.839.173-.5,1.373.494,1.7,1.062.405,1.022.173,1.022,5.192,0,4.071-.04,4.669-.336,5.6a9.5,9.5,0,0,0,0,4.822,9.6,9.6,0,0,1,.336,1.141,13.783,13.783,0,0,1-1.131,1.5,6.765,6.765,0,0,0-1.813,3.785,1.855,1.855,0,0,1-.316.869,1.7,1.7,0,0,0-.04,1.966c.434.425,2.143,7.509,2.153,8.877,0,.484.074.484,2.687-.094a39.844,39.844,0,0,1,9.636-.2c1.151.178,2.519.445,3.023.583,1.541.425,1.457.5,1.467-1.507" transform="translate(-500.57 -501.894)"/>
              <path id="Path_10245" data-name="Path 10245" d="M529.148,538.9a29.362,29.362,0,0,0-7.824-.638c-1.487.079-3.037.193-3.452.272l-.751.133-.183-1.255a8.05,8.05,0,0,1-.148-1.309,10.4,10.4,0,0,1,1.6-.291,48.328,48.328,0,0,1,12.032.326l.519.1v1.527c0,1.116-.045,1.5-.2,1.5-.1-.019-.82-.173-1.59-.365" transform="translate(-496.775 -474.174)" fill="#fcff2c"/>
              <path id="Path_10246" data-name="Path 10246" d="M517.829,542.926c0-.346-.919-4.728-1.314-6.269-.257-1.042-.5-1.971-.5-2.045s.267.02.558.232a2.05,2.05,0,0,0,.859.365c.84,0,1.3,1.275,2.015,5.538.1.6.2,1.275.252,1.487.054.346-.03.425-.746.578-.924.232-1.126.252-1.126.114" transform="translate(-499.798 -478.088)" fill="#fcff2c"/>
              <path id="Path_10247" data-name="Path 10247" d="M519.617,536c-.049-.1.015-.252.153-.385.2-.178.247-.158.247.074,0,.312-.267.558-.4.312" transform="translate(-485.678 -474.497)" fill="#fcff2c"/>
              <path id="Path_10248" data-name="Path 10248" d="M517.3,535.762c.445-.484.455-.484.79-.133.321.326.331.346.039.479a2.687,2.687,0,0,1-.78.138l-.484.02Z" transform="translate(-496.469 -474.955)" fill="#fcff2c"/>
              <path id="Path_10249" data-name="Path 10249" d="M519.133,535.973a1.2,1.2,0,0,1,.385-.444c.292-.213.356-.173.608.212l.3.445h-.676c-.445,0-.657-.079-.617-.212" transform="translate(-487.539 -474.875)" fill="#fcff2c"/>
              <path id="Path_10250" data-name="Path 10250" d="M519.652,535.906c-.183-.272-.321-.539-.282-.558a4.175,4.175,0,0,1,.746.074l.7.139-.405.425-.4.425Z" transform="translate(-486.611 -475.08)" fill="#fcff2c"/>
              <path id="Path_10251" data-name="Path 10251" d="M516.755,535.977c-.139-.365.143-.637.617-.637.375,0,.366.04-.119.518-.375.385-.405.405-.5.119" transform="translate(-497.026 -475.111)" fill="#fcff2c"/>
              <path id="Path_10252" data-name="Path 10252" d="M517.851,535.78l.425-.479.415.385a5.03,5.03,0,0,0,.474.444,3.782,3.782,0,0,1-.84.114l-.918.04Z" transform="translate(-494.323 -475.265)" fill="#fcff2c"/>
              <path id="Path_10253" data-name="Path 10253" d="M519.094,536.225l-.539-.113.4-.425.4-.385.469.518c.514.618.454.657-.721.4" transform="translate(-489.796 -475.265)" fill="#fcff2c"/>
              <path id="Path_10254" data-name="Path 10254" d="M517.5,535.876l-.375-.444h.6a2.485,2.485,0,0,0,.859-.119c.232-.114.212-.02-.089.425a2.156,2.156,0,0,1-.5.6,2.079,2.079,0,0,1-.494-.459" transform="translate(-495.414 -475.395)" fill="#fcff2c"/>
              <path id="Path_10255" data-name="Path 10255" d="M518.437,535.8l.464-.538.459.479a3.051,3.051,0,0,1,.455.563,3.778,3.778,0,0,1-.934.054h-.928Z" transform="translate(-492.168 -475.418)" fill="#fcff2c"/>
              <path id="Path_10256" data-name="Path 10256" d="M519.231,535.746l-.385-.444h.76c.83,0,.938.133.474.6-.375.385-.4.385-.85-.153" transform="translate(-488.65 -475.265)" fill="#fcff2c"/>
              <path id="Path_10257" data-name="Path 10257" d="M518.071,535.707l-.381-.444h1.749l-.4.444c-.474.578-.494.578-.973,0" transform="translate(-493.2 -475.418)" fill="#fcff2c"/>
              <path id="Path_10258" data-name="Path 10258" d="M518.67,535.707l-.385-.444h1.739l-.366.444c-.484.578-.514.578-.988,0" transform="translate(-490.86 -475.418)" fill="#fcff2c"/>
              <path id="Path_10259" data-name="Path 10259" d="M530.231,536.046c-.405-.079-2.025-.252-3.611-.366a44.731,44.731,0,0,0-9.162.306c-.627.1-.78.059-.78-.173,0-.445,3.279-.751,8.322-.751,2.46,0,4.979.074,5.586.153,1.032.133,1.1.173,1.1.558,0,.5-.133.524-1.457.272" transform="translate(-497.191 -476.203)" fill="#fcff2c"/>
              <path id="Path_10260" data-name="Path 10260" d="M517.186,535.438a3.027,3.027,0,0,1,.751-.617,1.708,1.708,0,0,1,.5.425l.37.464-.78.114c-.444.079-.948.139-1.121.2-.242.054-.173-.1.282-.583" transform="translate(-496.839 -477.16)" fill="#fcff2c"/>
              <path id="Path_10261" data-name="Path 10261" d="M516.673,535.5c-.123-.346-.084-.445.183-.578a1.209,1.209,0,0,1,.637-.079c.282.04.252.1-.173.558l-.509.524Z" transform="translate(-497.477 -477.125)" fill="#fcff2c"/>
              <path id="Path_10262" data-name="Path 10262" d="M519.685,535.243c0-.079.109-.193.232-.272.158-.059.2,0,.148.173-.1.292-.381.371-.381.1" transform="translate(-485.345 -476.654)" fill="#fcff2c"/>
              <path id="Path_10263" data-name="Path 10263" d="M517.812,535.344c.242-.311.444-.558.444-.578a2.925,2.925,0,0,1,.519.479l.5.5-.958.06-.943.074Z" transform="translate(-494.437 -477.392)" fill="#fcff2c"/>
              <path id="Path_10264" data-name="Path 10264" d="M519.777,535.765l-.687-.059.494-.465.5-.464.4.425c.435.425.5.717.193.657-.114-.019-.509-.039-.9-.094" transform="translate(-487.689 -477.33)" fill="#fcff2c"/>
              <path id="Path_10265" data-name="Path 10265" d="M517.566,535.4l-.474-.425.79-.134a2.493,2.493,0,0,1,.83-.079c.039.059-.109.311-.321.578l-.365.464Z" transform="translate(-495.56 -477.448)" fill="#fcff2c"/>
              <path id="Path_10266" data-name="Path 10266" d="M518.932,535.64l-.375-.139.415-.4c.346-.385.45-.425.672-.193a1.938,1.938,0,0,1,.415.558c.148.272.109.331-.287.311a5.8,5.8,0,0,1-.84-.134" transform="translate(-489.789 -477.397)" fill="#fcff2c"/>
              <path id="Path_10267" data-name="Path 10267" d="M519.855,535.3l-.484-.563.415.119a5.277,5.277,0,0,0,1.062.113h.647l-.484.465a6,6,0,0,1-.588.444,2.786,2.786,0,0,1-.568-.578" transform="translate(-486.582 -477.483)" fill="#fcff2c"/>
              <path id="Path_10268" data-name="Path 10268" d="M518.044,535.384a1.893,1.893,0,0,1-.341-.524c0-.074.415-.153.918-.153h.924l-.316.405c-.544.657-.8.736-1.186.272" transform="translate(-493.153 -477.606)" fill="#fcff2c"/>
              <path id="Path_10269" data-name="Path 10269" d="M518.438,535.148c.534-.524.716-.524,1.052.059.252.385.232.405-.617.385h-.889Z" transform="translate(-492.046 -477.389)" fill="#fcff2c"/>
              <path id="Path_10270" data-name="Path 10270" d="M519.208,535.266l-.39-.558h.415a4.073,4.073,0,0,1,.889.134l.509.1-.469.444a2.436,2.436,0,0,1-.514.425,3.137,3.137,0,0,1-.44-.543" transform="translate(-488.761 -477.606)" fill="#fcff2c"/>
              <path id="Path_10271" data-name="Path 10271" d="M518.67,535.172l-.385-.465h1.739l-.366.465c-.484.558-.514.558-.988,0" transform="translate(-490.86 -477.606)" fill="#fcff2c"/>
              <path id="Path_10272" data-name="Path 10272" d="M516.627,539.024c.064-.2.2-.736.306-1.235l.193-.929,1.808-1a18.623,18.623,0,0,0,2.42-1.546c.356-.306.731-.618.84-.692a47.079,47.079,0,0,1,7.068.539c1.61.272,4.421.81,4.534.889a17.158,17.158,0,0,1-.558,1.833c-.316,1-.617,1.912-.657,2.065-.049.173-.242.193-.79.094a67.378,67.378,0,0,0-13.38.079c-1.689.292-1.931.272-1.783-.094" transform="translate(-497.535 -482.017)" fill="#fcff2c"/>
              <path id="Path_10273" data-name="Path 10273" d="M521.579,536.935a1.84,1.84,0,0,0-1.156-3.107,1.672,1.672,0,0,0-1.63,1.833,1.608,1.608,0,0,0,2.786,1.275" transform="translate(-488.859 -481.069)"/>
              <path id="Path_10274" data-name="Path 10274" d="M519.5,536.555a1.5,1.5,0,0,1,.109-2.51,1.275,1.275,0,0,1,1.8,1.294,1.338,1.338,0,0,1-1.912,1.215" transform="translate(-488.542 -480.728)" fill="#fcff2c"/>
              <path id="Path_10275" data-name="Path 10275" d="M520.224,537.044a1.906,1.906,0,0,0-.415-3.107,1.512,1.512,0,0,0-2.035.711,1.688,1.688,0,0,0,.252,2.218,1.38,1.38,0,0,0,2.2.178" transform="translate(-494.063 -481.271)"/>
              <path id="Path_10276" data-name="Path 10276" d="M518.277,536.589c-1.2-.539-.781-2.722.528-2.722,1.274,0,1.7,1.971.563,2.643-.534.312-.6.312-1.091.08" transform="translate(-493.677 -480.915)" fill="#fcff2c"/>
              <path id="Path_10277" data-name="Path 10277" d="M518.663,551c.232-.677.193-1.541-.054-1.541-.128,0-.212.227-.212.632a1.546,1.546,0,0,1-.223.869c-.173.193-.2.059-.128-.83.06-.578.03-1.023-.044-1.023-.148,0-.425.87-.534,1.62-.059.464-.059.464-.192-.094a1.481,1.481,0,0,1,.212-1.215,3.412,3.412,0,0,0,.356-1.2c0-.445.3-.889,1.8-2.51,1.008-1.082,2.163-2.416,2.6-2.974.721-.963.761-1.062.721-2.045a4.581,4.581,0,0,0-.114-1.136c-.2-.212-.454.865-.346,1.467.084.558-.01.731-1.062,2.045-.637.81-1.719,2.006-2.4,2.717-1.254,1.255-1.694,1.912-1.694,2.55a4.074,4.074,0,0,1-.331,1.136,1.967,1.967,0,0,0-.2.968c.049.114.01.114-.1,0-.148-.138-.158-.4-.04-.983a2.936,2.936,0,0,0,.089-.949c-.178-.306-.39.079-.484.949-.069.5-.183.864-.252.81-.242-.178-.163-1.062.123-1.507a4.553,4.553,0,0,0,.4-1.275,7.46,7.46,0,0,1,1.877-3.665c.573-.7,1.042-1.275,1.042-1.314s-.163-.558-.346-1.156a9.209,9.209,0,0,1-.069-4.688,10.553,10.553,0,0,1,2.608-4.056c1.368-1.428,2.692-2.278,3.324-2.179.543.1,16.334,13.334,16.334,13.684a.254.254,0,0,1-.282.247c-.153,0-4.173-1.215-8.93-2.682-7.6-2.371-8.693-2.776-9.009-3.181a1.892,1.892,0,0,1-.049-2.144,1.641,1.641,0,0,0,.336-.711c0-.385-.81.637-.973,1.215a2.654,2.654,0,0,0,.657,2.258,26.324,26.324,0,0,0,3.211,1.2c2.682.83,2.874.923,3.028,1.408.331,1.141-.8,2.47-2.43,2.856a4.939,4.939,0,0,0-1.66.81,21.754,21.754,0,0,1-4.193,2.875,7.02,7.02,0,0,0-1.363.737,3.717,3.717,0,0,0-.355,1.176c-.193,1.121-.282,1.295-.578,1.295-.193,0-.2-.1-.07-.465" transform="translate(-500.307 -494.511)" fill="#fcff2c"/>
              <path id="Path_10278" data-name="Path 10278" d="M527.479,537.106a52.615,52.615,0,0,0-7.033-1.023l-2.593-.232.983-.42a11.71,11.71,0,0,0,1.709-.815,2.536,2.536,0,0,1,1.877-.365c1.447.119,2.435-.153,2.8-.81a4.735,4.735,0,0,1,.326-.558,20.26,20.26,0,0,1,2.559.711l2.534.776-.489.943c-.282.484-.617,1.156-.761,1.487-.291.677-.39.7-1.911.306" transform="translate(-492.566 -484.81)" fill="#fcff2c"/>
              <path id="Path_10279" data-name="Path 10279" d="M518.712,533.582c-.138-.113-.119-.212.03-.459.133-.193.257-.232.336-.139.133.272-.133.756-.365.6" transform="translate(-489.548 -484.587)" fill="#fcff2c"/>
              <path id="Path_10280" data-name="Path 10280" d="M518.76,533.2c0-.232.114-.232.247,0,.039.094.015.173-.074.173a.172.172,0,0,1-.173-.173" transform="translate(-488.989 -484.237)" fill="#fcff2c"/>
              <path id="Path_10281" data-name="Path 10281" d="M518.924,533.182c0-.153.079-.232.163-.153.213.133.213.444,0,.444-.084,0-.163-.119-.163-.292" transform="translate(-488.343 -484.341)" fill="#fcff2c"/>
              <path id="Path_10282" data-name="Path 10282" d="M519.171,533.493a.711.711,0,0,1-.114-.425c0-.173.039-.193.183-.074a.5.5,0,0,1,.114.425c-.03.114-.114.153-.183.074" transform="translate(-487.819 -484.651)" fill="#fcff2c"/>
              <path id="Path_10283" data-name="Path 10283" d="M518.906,533.427a.761.761,0,0,1-.113-.4c0-.213.049-.232.183-.079a.549.549,0,0,1,.118.405c-.039.119-.118.158-.188.079" transform="translate(-488.859 -484.951)" fill="#fcff2c"/>
              <path id="Path_10284" data-name="Path 10284" d="M519.255,533.161c-.173-.326.03-.366.252-.074.123.153.143.247.039.247a.4.4,0,0,1-.292-.173" transform="translate(-487.296 -484.764)" fill="#fcff2c"/>
              <path id="Path_10285" data-name="Path 10285" d="M518.956,533.113a.232.232,0,0,1,.079-.272c.089-.074.163.02.163.173,0,.331-.1.351-.242.1" transform="translate(-488.291 -485.061)" fill="#fcff2c"/>
              <path id="Path_10286" data-name="Path 10286" d="M519.09,532.963c0-.153.074-.212.163-.173.213.158.213.464,0,.464-.089,0-.163-.133-.163-.292" transform="translate(-487.689 -485.203)" fill="#fcff2c"/>
              <path id="Path_10287" data-name="Path 10287" d="M518.693,532.981c0-.306.109-.326.242-.094a.265.265,0,0,1-.074.286c-.079.059-.168-.02-.168-.193" transform="translate(-489.253 -485.394)" fill="#fcff2c"/>
              <path id="Path_10288" data-name="Path 10288" d="M518.826,532.887c0-.133.069-.232.153-.153.222.133.222.445,0,.445-.084,0-.153-.138-.153-.291" transform="translate(-488.729 -485.492)" fill="#fcff2c"/>
              <path id="Path_10289" data-name="Path 10289" d="M519.35,540.273c-.044-.776-.044-2.589,0-4.056.1-2.989.03-3.3-.9-3.626-.736-.272-1.013-.5-1.013-.85,0-.232.153-.252.983-.173.879.114.993.079.943-.173-.084-.464-1.235-.83-2.44-.771-.953.074-1.067.034-.993-.213a1.463,1.463,0,0,1,1.457-1.022,3.771,3.771,0,0,0,1.4-.445,2.627,2.627,0,0,1,1.833-.311c2.134.138,2.549.756,3.107,4.826.213,1.561.385,3.028.4,3.261,0,.252-.3.578-1.042,1.116a15.277,15.277,0,0,0-3.23,3.285l-.415.6Z" transform="translate(-500.222 -501.617)" fill="#fcff2c"/>
              <path id="Path_10290" data-name="Path 10290" d="M518.023,530a.625.625,0,0,0,.113-.81c-.232-.578-.5-.445-.4.193.069.346.02.444-.252.444-.3,0-.346-.118-.346-.583s-.04-.519-.252-.326a.765.765,0,0,0,.02,1.121c.361.44.756.44,1.121-.039" transform="translate(-497.311 -500.84)"/>
            </g>
          </g>
        </g>
      </g>
    </g>
  </g>
</svg>
