<svg xmlns="http://www.w3.org/2000/svg" xmlns:xlink="http://www.w3.org/1999/xlink" width="209.009" height="199.341" viewBox="0 0 209.009 199.341">
  <defs>
    <linearGradient id="linear-gradient" x1="0.5" x2="0.5" y2="1" gradientUnits="objectBoundingBox">
      <stop offset="0" stop-color="#00abfb"/>
      <stop offset="1" stop-color="#00ffbf"/>
    </linearGradient>
  </defs>
  <g id="AI_Engineer-icon" data-name="AI Engineer-icon" transform="translate(-855.5 -5683.167)">
    <path id="Path_10231" data-name="Path 10231" d="M106.587,6.857c72.478,8.943,82.635,37.377,99.026,97.409s-27.574,106.056-109.9,100.371S0,163.132,0,104.265,34.11-2.087,106.587,6.857Z" transform="translate(855.5 5677.397)" fill="#f6f9fd"/>
    <g id="artificial-intelligence" transform="translate(913.465 5736.202)">
      <g id="Group_228" data-name="Group 228" transform="translate(0 0)">
        <g id="Group_227" data-name="Group 227">
          <path id="Path_10239" data-name="Path 10239" d="M46.9,0H39.083A29.344,29.344,0,0,0,9.772,29.314V32.6L.244,49.865A1.967,1.967,0,0,0,0,50.809q0,.167,0,.333a5.7,5.7,0,0,0,5.862,5.529,7,7,0,0,1,3.908,1.464v6.353q-.007.224,0,.448A7.6,7.6,0,0,0,17.589,72.3H29.313q.167,0,.333,0a5.7,5.7,0,0,0,5.529-5.862V54.717H31.267V66.441A1.788,1.788,0,0,1,29.313,68.4H17.589a3.681,3.681,0,0,1-3.908-3.908V57.2a1.954,1.954,0,0,0-.659-1.464,11.288,11.288,0,0,0-7.158-2.976l-.026,0a1.716,1.716,0,0,1-1.887-1.525l9.487-17.2a1.967,1.967,0,0,0,.242-.944V29.314a25.432,25.432,0,0,1,25.4-25.4h7.793a1.8,1.8,0,0,1,1.978,1.954v9.77h3.908V5.865q0-.167,0-.333A5.7,5.7,0,0,0,46.9,0Z" transform="translate(0 0)" fill="url(#linear-gradient)"/>
        </g>
      </g>
      <g id="Group_230" data-name="Group 230" transform="translate(31.268 58.622)">
        <g id="Group_229" data-name="Group 229">
          <path id="Path_10240" data-name="Path 10240" d="M219.532,320H198.037v3.908h21.495a1.788,1.788,0,0,1,1.954,1.954v3.693c-.281,1.167-2.165,8.031-7.816,8.031a1.954,1.954,0,0,0-1.954,1.954v11.724H174.588v-5.862H170.68v7.816a1.954,1.954,0,0,0,1.954,1.954H213.67a1.954,1.954,0,0,0,1.954-1.954v-11.9c6.108-1.155,9.02-7.6,9.731-11.162a1.946,1.946,0,0,0,.039-.391v-3.908q0-.167,0-.333A5.7,5.7,0,0,0,219.532,320Z" transform="translate(-170.68 -320)" fill="url(#linear-gradient)"/>
        </g>
      </g>
      <g id="Group_232" data-name="Group 232" transform="translate(48.854 5.865)">
        <g id="Group_231" data-name="Group 231">
          <path id="Path_10241" data-name="Path 10241" d="M309.67,49.6h-4.926a17.811,17.811,0,0,0-.709-1.706l3.486-3.486a1.954,1.954,0,0,0,0-2.763l-5.528-5.528a1.954,1.954,0,0,0-2.763,0L295.743,39.6a18.088,18.088,0,0,0-1.706-.707V33.967a1.954,1.954,0,0,0-1.954-1.954h-7.816a1.954,1.954,0,0,0-1.954,1.954V38.9a17.387,17.387,0,0,0-3.06,1.428l1.985,3.365a13.677,13.677,0,0,1,3.517-1.456,1.954,1.954,0,0,0,1.466-1.891v-4.42h3.908v4.42a1.954,1.954,0,0,0,1.462,1.893,13.677,13.677,0,0,1,3.517,1.456,1.954,1.954,0,0,0,2.376-.3l3.127-3.127,2.765,2.759-3.127,3.127a1.954,1.954,0,0,0-.3,2.376,13.682,13.682,0,0,1,1.46,3.517,1.954,1.954,0,0,0,1.89,1.466h4.42v3.906H303.3a1.954,1.954,0,0,0-1.89,1.466,13.682,13.682,0,0,1-1.46,3.517,1.954,1.954,0,0,0,.3,2.376l3.127,3.127-2.763,2.763-3.127-3.127a1.954,1.954,0,0,0-2.376-.3,13.677,13.677,0,0,1-3.517,1.456,1.954,1.954,0,0,0-1.466,1.891V75h-3.908V70.585a1.954,1.954,0,0,0-1.466-1.891,13.677,13.677,0,0,1-3.517-1.456,1.954,1.954,0,0,0-2.376.3l-3.126,3.126L272.974,67.9l3.127-3.127a1.954,1.954,0,0,0,.3-2.376,13.681,13.681,0,0,1-1.46-3.517,1.954,1.954,0,0,0-1.89-1.466H266.68v3.908h4.928a17.812,17.812,0,0,0,.707,1.706l-3.486,3.486a1.954,1.954,0,0,0,0,2.763l5.528,5.528a1.954,1.954,0,0,0,2.763,0l3.486-3.486a18.084,18.084,0,0,0,1.706.707v4.928a1.954,1.954,0,0,0,1.954,1.954h7.816a1.954,1.954,0,0,0,1.954-1.954V72.03a18.133,18.133,0,0,0,1.706-.707l3.486,3.484a1.954,1.954,0,0,0,2.763,0l5.528-5.528a1.954,1.954,0,0,0,0-2.763l-3.488-3.486a17.82,17.82,0,0,0,.709-1.706h4.928a1.954,1.954,0,0,0,1.954-1.954V51.554A1.954,1.954,0,0,0,309.67,49.6Z" transform="translate(-266.68 -32.013)" fill="url(#linear-gradient)"/>
        </g>
      </g>
      <g id="Group_234" data-name="Group 234" transform="translate(62.533 21.497)">
        <g id="Group_233" data-name="Group 233">
          <path id="Path_10242" data-name="Path 10242" d="M349.162,117.347a7.816,7.816,0,1,0,7.816,7.816A7.816,7.816,0,0,0,349.162,117.347Zm0,11.724a3.908,3.908,0,1,1,3.908-3.908A3.908,3.908,0,0,1,349.162,129.071Z" transform="translate(-341.346 -117.347)" fill="url(#linear-gradient)"/>
        </g>
      </g>
      <g id="Group_236" data-name="Group 236" transform="translate(19.542 31.268)">
        <g id="Group_235" data-name="Group 235">
          <path id="Path_10243" data-name="Path 10243" d="M116.447,170.68v1.954h-5.862V170.68h-3.908v1.954c0,.054,0,.108,0,.162a3.828,3.828,0,0,0,3.908,3.746h5.862c.054,0,.108,0,.162,0a3.828,3.828,0,0,0,3.746-3.908V170.68Z" transform="translate(-106.676 -170.68)" fill="url(#linear-gradient)"/>
        </g>
      </g>
      <g id="Group_238" data-name="Group 238" transform="translate(48.854 54.716)">
        <g id="Group_237" data-name="Group 237">
          <path id="Path_10244" data-name="Path 10244" d="M272.542,298.68a5.862,5.862,0,1,0,5.862,5.862A5.862,5.862,0,0,0,272.542,298.68Zm0,7.816a1.954,1.954,0,1,1,1.954-1.954A1.954,1.954,0,0,1,272.542,306.5Z" transform="translate(-266.68 -298.68)" fill="url(#linear-gradient)"/>
        </g>
      </g>
      <g id="Group_240" data-name="Group 240" transform="translate(27.36 44.946)">
        <g id="Group_239" data-name="Group 239">
          <path id="Path_10245" data-name="Path 10245" d="M155.209,245.347a5.862,5.862,0,1,0,5.862,5.862A5.862,5.862,0,0,0,155.209,245.347Zm0,7.816a1.954,1.954,0,1,1,1.954-1.954A1.954,1.954,0,0,1,155.209,253.163Z" transform="translate(-149.347 -245.347)" fill="url(#linear-gradient)"/>
        </g>
      </g>
      <g id="Group_242" data-name="Group 242" transform="translate(44.946 13.681)">
        <g id="Group_241" data-name="Group 241">
          <path id="Path_10246" data-name="Path 10246" d="M251.209,74.68a5.862,5.862,0,1,0,5.862,5.862A5.862,5.862,0,0,0,251.209,74.68Zm0,7.816a1.954,1.954,0,1,1,1.954-1.954A1.954,1.954,0,0,1,251.209,82.5Z" transform="translate(-245.347 -74.68)" fill="url(#linear-gradient)"/>
        </g>
      </g>
      <g id="Group_244" data-name="Group 244" transform="translate(41.038 31.268)">
        <g id="Group_243" data-name="Group 243">
          <rect id="Rectangle_1017" data-name="Rectangle 1017" width="3.908" height="3.908" fill="url(#linear-gradient)"/>
        </g>
      </g>
      <g id="Group_246" data-name="Group 246" transform="translate(41.038 39.084)">
        <g id="Group_245" data-name="Group 245">
          <rect id="Rectangle_1018" data-name="Rectangle 1018" width="3.908" height="3.908" fill="url(#linear-gradient)"/>
        </g>
      </g>
      <g id="Group_248" data-name="Group 248" transform="translate(31.268 76.211)">
        <g id="Group_247" data-name="Group 247">
          <rect id="Rectangle_1019" data-name="Rectangle 1019" width="3.908" height="3.908" fill="url(#linear-gradient)"/>
        </g>
      </g>
    </g>
  </g>
</svg>
