<svg xmlns="http://www.w3.org/2000/svg" xmlns:xlink="http://www.w3.org/1999/xlink" width="209.009" height="199.341" viewBox="0 0 209.009 199.341">
  <defs>
    <linearGradient id="linear-gradient" x1="0.5" x2="0.5" y2="1" gradientUnits="objectBoundingBox">
      <stop offset="0" stop-color="#00abfb"/>
      <stop offset="1" stop-color="#00ffbf"/>
    </linearGradient>
  </defs>
  <g id="AI_startup_Founder-icon" data-name="AI startup Founder-icon" transform="translate(-855.5 -5171.167)">
    <path id="Path_10229" data-name="Path 10229" d="M106.587,6.857c72.478,8.943,82.635,37.377,99.026,97.409s-27.574,106.056-109.9,100.371S0,163.132,0,104.265,34.11-2.087,106.587,6.857Z" transform="translate(855.5 5165.397)" fill="#f6f9fd"/>
    <g id="brain" transform="translate(913.465 5223.976)">
      <path id="Path_10211" data-name="Path 10211" d="M117.7,147.349a13.381,13.381,0,0,1-4.9,1.451,1.378,1.378,0,0,0-1.225,1.578,8.864,8.864,0,0,1,.116,1.35c0,5.736-5.449,10.4-12.147,10.4-4.879,0-9.269-2.488-11.184-6.339a2.5,2.5,0,0,0-.964-1.035V137.347l.316-.011c2.692-.1,6.041-.216,7.906,1.584a6.506,6.506,0,0,1,1.672,4.3,4.138,4.138,0,1,0,2.761-.028,9.237,9.237,0,0,0-2.52-6.258c-2.708-2.613-6.875-2.464-9.918-2.355l-.218.008v-8.661c14.053.028,21.147.6,21.761,8.176a4.139,4.139,0,1,0,2.759-.029c-.34-4.884-2.894-8-7.783-9.508-4.241-1.308-10.032-1.391-16.737-1.4v-8.608c6.705-.005,12.5-.088,16.737-1.4,4.889-1.507,7.444-4.624,7.783-9.508a4.135,4.135,0,1,0-2.759-.029c-.614,7.572-7.708,8.148-21.761,8.176v-8.388l.218.008c.645.023,1.34.048,2.061.048,2.682,0,5.723-.344,7.857-2.4a9.235,9.235,0,0,0,2.52-6.258,4.135,4.135,0,1,0-2.761-.028,6.505,6.505,0,0,1-1.672,4.3c-1.865,1.8-5.215,1.68-7.906,1.584l-.316-.011V94.7a1.378,1.378,0,0,0-2.755,0v60.06a2.5,2.5,0,0,0-.964,1.036c-1.914,3.85-6.3,6.338-11.184,6.338-6.7,0-12.147-4.666-12.147-10.4a8.864,8.864,0,0,1,.116-1.35,7.389,7.389,0,0,1,1.908-3.821,1.378,1.378,0,0,0-1.913-1.983,9.612,9.612,0,0,0-2.4,4.051,12.364,12.364,0,0,1-7.787-4.768,1.378,1.378,0,0,0-2.247,1.6,14.936,14.936,0,0,0,9.577,5.9c0,.128-.008.254-.008.379,0,7.255,6.685,13.158,14.9,13.158,5.814,0,11.09-2.983,13.525-7.621,2.435,4.638,7.711,7.621,13.525,7.621,8.217,0,14.9-5.9,14.9-13.158,0-.125,0-.251-.008-.379a15.964,15.964,0,0,0,4.543-1.559,1.378,1.378,0,0,0-1.279-2.441Zm-18.99-1.621a1.377,1.377,0,1,1-1.381,1.377A1.381,1.381,0,0,1,98.706,145.728Zm11.867-9.118a1.377,1.377,0,1,1-1.381,1.377A1.381,1.381,0,0,1,110.573,136.61Zm0-38.235a1.377,1.377,0,1,1-1.381,1.377A1.381,1.381,0,0,1,110.573,98.375ZM98.706,89.53a1.377,1.377,0,1,1-1.381,1.377A1.381,1.381,0,0,1,98.706,89.53Z" transform="translate(-38.987 -70.835)" fill="url(#linear-gradient)"/>
      <path id="Path_10212" data-name="Path 10212" d="M9.518,121.745a9.764,9.764,0,0,1,2.873-6.811,1.377,1.377,0,0,0-.665-2.313c-5.282-1.227-8.971-5.347-8.971-10.019a10.244,10.244,0,0,1,3.811-7.776,1.378,1.378,0,0,0,.062-2.035,6.846,6.846,0,0,1-2.182-4.914c0-4.047,3.729-7.317,8.49-7.444a6.176,6.176,0,0,1,3.6,1.341,1.378,1.378,0,0,0,1.826-2.064,8.73,8.73,0,0,0-4.646-1.972,6.5,6.5,0,0,1-.816-3.114A7.079,7.079,0,0,1,16.2,68.8a1.378,1.378,0,1,0-1.55-2.278,9.79,9.79,0,0,0-4.509,8.107,9.133,9.133,0,0,0,.614,3.278c-5.225.989-9.067,5.062-9.067,9.974A9.4,9.4,0,0,0,3.746,93.7,12.714,12.714,0,0,0,0,102.6c0,5.308,3.62,10.031,9.029,12.074a12.415,12.415,0,0,0-2.267,7.068,1.378,1.378,0,0,0,2.755,0Z" transform="translate(0 -54.105)" fill="url(#linear-gradient)"/>
      <path id="Path_10213" data-name="Path 10213" d="M184.207,48.5a12.713,12.713,0,0,0-3.746-8.9,9.4,9.4,0,0,0,2.055-5.822c0-4.912-3.842-8.985-9.067-9.974a9.13,9.13,0,0,0,.614-3.278c0-5.631-5.169-10.213-11.521-10.213-.127,0-.263,0-.405.008a11.2,11.2,0,0,0-3.9-6.926A14.019,14.019,0,0,0,149.2,0h-.184a13.52,13.52,0,0,0-11.838,6.48A13.519,13.519,0,0,0,125.344,0h-.184a14.021,14.021,0,0,0-9.036,3.388,11.2,11.2,0,0,0-3.9,6.926c-.142-.005-.278-.008-.405-.008a1.378,1.378,0,1,0,0,2.755,12.789,12.789,0,0,1,1.531.112,1.378,1.378,0,0,0,1.553-1.474l-.008-.094c0-.025-.005-.049-.006-.061.084-4.7,4.8-8.722,10.3-8.789A10.74,10.74,0,0,1,134.872,8a2.5,2.5,0,0,0,.933.973V17.5a1.378,1.378,0,0,0,2.755,0V8.97A2.5,2.5,0,0,0,139.493,8a10.7,10.7,0,0,1,9.526-5.242h.151c5.5.067,10.218,4.092,10.3,8.776a8.465,8.465,0,0,1-1.52,4.532,1.378,1.378,0,1,0,2.113,1.768,9.969,9.969,0,0,0,2.017-4.756c.166-.009.322-.014.46-.014,4.833,0,8.766,3.345,8.766,7.457a6.6,6.6,0,0,1-1.146,3.666,1.378,1.378,0,0,0,1.109,2.142c4.761.127,8.49,3.4,8.49,7.444a6.846,6.846,0,0,1-2.182,4.914,6.128,6.128,0,0,1-3.409,1.634,1.378,1.378,0,0,0,.108,2.751q.055,0,.111,0a8.356,8.356,0,0,0,4.086-1.56,10.008,10.008,0,0,1,2.978,6.992c0,4.672-3.689,8.792-8.971,10.019a1.377,1.377,0,0,0-.665,2.313,9.765,9.765,0,0,1,2.873,6.811,9.239,9.239,0,0,1-1.489,4.986,1.378,1.378,0,1,0,2.319,1.487,11.986,11.986,0,0,0,1.925-6.473,12.416,12.416,0,0,0-2.267-7.068c5.409-2.043,9.029-6.766,9.029-12.074Z" transform="translate(-90.157)" fill="url(#linear-gradient)"/>
      <path id="Path_10214" data-name="Path 10214" d="M84.7,206.867A1.378,1.378,0,0,0,86,208.32l.079,0a1.378,1.378,0,0,0,1.374-1.3c0-.069.469-6.936,7.418-8.626a1.378,1.378,0,0,0-.651-2.677,11.962,11.962,0,0,0-8.149,6.4,13.336,13.336,0,0,0-1.369,4.751Z" transform="translate(-69.142 -159.734)" fill="url(#linear-gradient)"/>
      <path id="Path_10215" data-name="Path 10215" d="M167.521,83.1a1.381,1.381,0,0,0-1.5,1.242c-.408,4.324-4.885,5.98-5.082,6.05a1.378,1.378,0,0,0,.915,2.6c.258-.091,6.334-2.288,6.909-8.39A1.378,1.378,0,0,0,167.521,83.1Z" transform="translate(-130.626 -67.829)" fill="url(#linear-gradient)"/>
      <path id="Path_10216" data-name="Path 10216" d="M166.312,360.592A1.378,1.378,0,1,0,167.5,358.1c-5.3-2.523-4.848-8.52-4.826-8.78a1.378,1.378,0,0,0-2.744-.253C159.9,349.4,159.247,357.231,166.312,360.592Z" transform="translate(-130.526 -283.931)" fill="url(#linear-gradient)"/>
      <path id="Path_10217" data-name="Path 10217" d="M173.55,251.372a1.378,1.378,0,1,0,1.184,2.488c4.46-2.122,4.052-7.052,4.033-7.261a1.378,1.378,0,1,0-2.744.257A4.728,4.728,0,0,1,173.55,251.372Z" transform="translate(-141.029 -200.281)" fill="url(#linear-gradient)"/>
      <path id="Path_10218" data-name="Path 10218" d="M355.338,256.118a1.378,1.378,0,1,0,1.378-1.378A1.378,1.378,0,0,0,355.338,256.118Z" transform="translate(-290.066 -207.947)" fill="url(#linear-gradient)"/>
      <path id="Path_10219" data-name="Path 10219" d="M407.706,257.5a1.378,1.378,0,1,0-1.378-1.378A1.378,1.378,0,0,0,407.706,257.5Z" transform="translate(-331.689 -207.947)" fill="url(#linear-gradient)"/>
      <path id="Path_10220" data-name="Path 10220" d="M317.608,462.618a1.378,1.378,0,1,0,1.378-1.378A1.378,1.378,0,0,0,317.608,462.618Z" transform="translate(-259.266 -376.514)" fill="url(#linear-gradient)"/>
      <path id="Path_10221" data-name="Path 10221" d="M320.363,49.618A1.378,1.378,0,1,0,318.985,51,1.378,1.378,0,0,0,320.363,49.618Z" transform="translate(-259.265 -39.379)" fill="url(#linear-gradient)"/>
    </g>
  </g>
</svg>
