<?xml version="1.0" encoding="utf-8"?>
<!-- Generator: Adobe Illustrator 23.0.1, SVG Export Plug-In . SVG Version: 6.00 Build 0)  -->
<svg version="1.1" id="Layer_1" xmlns="http://www.w3.org/2000/svg" xmlns:xlink="http://www.w3.org/1999/xlink" x="0px" y="0px"
	 viewBox="0 0 180 40" style="enable-background:new 0 0 180 40;" xml:space="preserve">
<style type="text/css">
	.st0{fill:#00AFAA;}
	.st1{fill:#F88D2B;}
	.st2{fill-rule:evenodd;clip-rule:evenodd;fill:#00AFAA;}
	.st3{fill:#FFFFFF;}
</style>
<g id="XMLID_150_">
	<path id="XMLID_5712_" class="st0" d="M173.46,30.71c0.08-0.01,0.17-0.02,0.23-0.03c0.06,0,0.12-0.01,0.17-0.01
		c0.12,0,0.19,0.03,0.24,0.08c0.02,0.03,0.03,0.08,0.05,0.14c0.01,0.07,0.02,0.16,0.02,0.26v0.07v0.05v0.06v0.05l0.01,1.17
		c0,0.73,0,1.33,0,1.78c0,0.45-0.01,0.75-0.02,0.9c0,0.12-0.01,0.22-0.03,0.29c-0.01,0.08-0.03,0.12-0.05,0.14
		c-0.03,0.02-0.08,0.05-0.18,0.07c-0.1,0.03-0.22,0.05-0.4,0.09v0.23c0.3-0.02,0.53-0.03,0.71-0.03c0.18-0.01,0.3-0.02,0.38-0.02
		c0.1,0,0.24,0.01,0.39,0.02c0.15,0,0.34,0.02,0.55,0.03v-0.23c-0.08-0.03-0.14-0.04-0.18-0.05c-0.12-0.02-0.22-0.05-0.28-0.08
		c-0.07-0.03-0.12-0.06-0.15-0.08c-0.02-0.02-0.04-0.06-0.05-0.1c-0.02-0.05-0.02-0.09-0.03-0.14c0-0.1-0.01-0.27-0.02-0.52
		c-0.01-0.25-0.01-0.58-0.01-0.99l0.93,1.17c0.12,0.15,0.22,0.27,0.28,0.35c0.07,0.09,0.11,0.15,0.13,0.18l0.02,0.06l0,0.05
		l-0.01,0.05l-0.03,0.04c-0.01,0.02-0.1,0.04-0.25,0.07v0.23c0.28-0.02,0.5-0.03,0.68-0.03c0.17-0.01,0.29-0.02,0.37-0.02
		c0.1,0,0.22,0.01,0.37,0.02c0.14,0,0.32,0.02,0.51,0.03v-0.22c-0.16-0.04-0.29-0.08-0.4-0.12c-0.11-0.04-0.2-0.07-0.26-0.11
		c-0.12-0.08-0.27-0.22-0.44-0.44l-1.18-1.47l0.72-0.65c0.16-0.14,0.29-0.26,0.4-0.34c0.12-0.09,0.19-0.16,0.25-0.18
		c0.06-0.03,0.15-0.07,0.27-0.1c0.12-0.03,0.28-0.07,0.46-0.12v-0.23c-0.23,0.01-0.42,0.02-0.56,0.03
		c-0.15,0.01-0.26,0.02-0.33,0.02c-0.09,0-0.2,0-0.35-0.02c-0.14-0.01-0.3-0.02-0.48-0.03v0.23c0.06,0.01,0.11,0.01,0.15,0.02
		c0.04,0.01,0.07,0.02,0.08,0.04l0.03,0.04l0.02,0.06l-0.01,0.04l-0.03,0.04c-0.02,0.04-0.06,0.07-0.11,0.13
		c-0.05,0.05-0.12,0.12-0.2,0.2l-1.02,0.97c0-0.69,0-1.26,0-1.7c0-0.44,0.02-0.76,0.02-0.97c0-0.2,0.01-0.4,0.02-0.59
		c0.01-0.2,0.03-0.4,0.04-0.6l-0.1-0.07c-0.19,0.1-0.39,0.19-0.61,0.28c-0.23,0.1-0.46,0.18-0.73,0.27V30.71z M168.91,32.7
		c0.07-0.01,0.13-0.02,0.17-0.03c0.05,0,0.09,0,0.12,0c0.07,0,0.13,0.02,0.17,0.04c0.04,0.03,0.07,0.08,0.08,0.14
		c0.02,0.07,0.03,0.59,0.03,1.54c0,0.23-0.01,0.44-0.02,0.62c-0.01,0.17-0.02,0.33-0.03,0.46c0,0.05-0.02,0.09-0.03,0.12l-0.03,0.07
		c-0.02,0.02-0.08,0.04-0.18,0.07c-0.09,0.03-0.22,0.07-0.38,0.1v0.23c0.24-0.02,0.45-0.03,0.64-0.03c0.18-0.01,0.34-0.02,0.46-0.02
		c0.13,0,0.27,0.01,0.43,0.02c0.16,0,0.33,0.02,0.52,0.03v-0.23c-0.04-0.01-0.07-0.02-0.1-0.02l-0.07-0.02
		c-0.28-0.07-0.45-0.15-0.49-0.23c-0.02-0.05-0.03-0.2-0.05-0.48c-0.01-0.27-0.01-0.66-0.01-1.16c0-0.18,0.01-0.34,0.03-0.47
		c0.02-0.13,0.05-0.25,0.09-0.34c0.05-0.1,0.1-0.18,0.17-0.24c0.07-0.07,0.14-0.14,0.23-0.19c0.09-0.06,0.18-0.1,0.27-0.12
		c0.1-0.03,0.19-0.04,0.28-0.04c0.09,0,0.17,0.01,0.24,0.04c0.08,0.03,0.14,0.06,0.21,0.11c0.07,0.05,0.12,0.11,0.16,0.18
		c0.04,0.07,0.07,0.15,0.08,0.25c0.02,0.06,0.03,0.18,0.03,0.37c0,0.18,0.01,0.42,0.01,0.73c0,0.28-0.01,0.54-0.01,0.75
		c0,0.21-0.02,0.38-0.03,0.52c-0.01,0.04-0.02,0.07-0.03,0.1l-0.06,0.06c-0.02,0.02-0.07,0.04-0.16,0.07
		c-0.09,0.03-0.22,0.07-0.38,0.12v0.23c0.27-0.02,0.5-0.03,0.69-0.03c0.19-0.01,0.34-0.02,0.45-0.02c0.13,0,0.27,0.01,0.42,0.02
		c0.14,0,0.3,0.02,0.47,0.03v-0.23c-0.04-0.01-0.08-0.02-0.12-0.02l-0.08-0.02c-0.12-0.03-0.2-0.05-0.27-0.08
		c-0.07-0.02-0.11-0.04-0.13-0.06l-0.05-0.07c-0.01-0.03-0.02-0.07-0.03-0.11c-0.01-0.06-0.02-0.19-0.02-0.39c0-0.2,0-0.47,0-0.81
		l0.01-1.02c0-0.22-0.02-0.4-0.05-0.55c-0.03-0.15-0.09-0.27-0.16-0.36c-0.1-0.13-0.23-0.23-0.37-0.3c-0.15-0.07-0.32-0.1-0.53-0.1
		c-0.09,0-0.17,0-0.26,0.02c-0.08,0.02-0.17,0.05-0.25,0.07c-0.06,0.02-0.12,0.05-0.17,0.08c-0.06,0.03-0.1,0.07-0.15,0.11
		l-0.53,0.52c0.01-0.13,0.02-0.25,0.02-0.37c0.01-0.12,0.03-0.24,0.05-0.36l-0.12-0.07c-0.2,0.12-0.42,0.22-0.65,0.31
		c-0.23,0.09-0.47,0.16-0.72,0.22v0.23c0.03,0,0.07-0.01,0.1-0.01L168.91,32.7z M167.04,34.4c0,0.17,0,0.32-0.02,0.43
		c-0.01,0.13-0.03,0.22-0.07,0.28c-0.03,0.06-0.08,0.13-0.14,0.18c-0.07,0.06-0.14,0.12-0.24,0.17c-0.09,0.05-0.18,0.1-0.27,0.12
		c-0.09,0.02-0.17,0.03-0.25,0.03c-0.07,0-0.15-0.01-0.22-0.04c-0.07-0.03-0.13-0.07-0.18-0.15c-0.06-0.06-0.1-0.13-0.13-0.22
		c-0.03-0.08-0.05-0.18-0.05-0.28c0-0.1,0.02-0.2,0.06-0.29c0.04-0.09,0.1-0.17,0.17-0.25c0.08-0.08,0.22-0.17,0.45-0.29
		c0.22-0.12,0.51-0.26,0.87-0.43V34.4z M165.72,32.56c0.08-0.07,0.18-0.13,0.27-0.16c0.1-0.04,0.2-0.06,0.32-0.06
		c0.13,0,0.23,0.02,0.32,0.06c0.09,0.03,0.16,0.08,0.22,0.15c0.06,0.06,0.1,0.16,0.13,0.29c0.03,0.13,0.05,0.29,0.06,0.49
		c-0.2,0.08-0.42,0.17-0.66,0.28c-0.24,0.11-0.5,0.23-0.76,0.36c-0.11,0.06-0.22,0.11-0.3,0.16c-0.08,0.05-0.15,0.09-0.2,0.13
		c-0.05,0.05-0.11,0.12-0.16,0.18c-0.05,0.06-0.09,0.13-0.13,0.2c-0.07,0.15-0.1,0.31-0.1,0.5c0,0.29,0.1,0.53,0.28,0.72
		c0.1,0.1,0.21,0.16,0.33,0.21c0.13,0.05,0.27,0.08,0.43,0.08c0.1,0,0.18-0.01,0.27-0.03c0.09-0.02,0.17-0.05,0.25-0.08
		c0.08-0.03,0.18-0.09,0.31-0.18c0.12-0.08,0.27-0.19,0.43-0.32c0.02,0.11,0.05,0.2,0.08,0.27c0.03,0.08,0.07,0.14,0.12,0.19
		c0.05,0.05,0.11,0.08,0.18,0.11c0.07,0.02,0.15,0.03,0.24,0.03c0.06,0,0.12,0,0.17-0.02c0.05-0.01,0.1-0.03,0.13-0.05
		c0.02-0.01,0.08-0.06,0.19-0.15c0.11-0.09,0.26-0.22,0.46-0.4l-0.13-0.17c-0.11,0.07-0.2,0.12-0.28,0.16
		c-0.08,0.04-0.15,0.05-0.2,0.05c-0.04,0-0.08,0-0.11-0.02c-0.04-0.02-0.07-0.04-0.1-0.09c-0.02-0.03-0.04-0.09-0.05-0.16
		c-0.01-0.08-0.02-0.18-0.02-0.29l0.03-1.72c0-0.15,0-0.27-0.02-0.38c-0.01-0.11-0.03-0.2-0.05-0.27c-0.02-0.06-0.05-0.13-0.09-0.18
		c-0.03-0.06-0.07-0.11-0.11-0.16c-0.05-0.05-0.1-0.09-0.17-0.13c-0.06-0.04-0.13-0.08-0.2-0.1c-0.08-0.03-0.16-0.05-0.24-0.06
		c-0.09-0.02-0.17-0.02-0.27-0.02c-0.22,0-0.45,0.03-0.7,0.09c-0.25,0.05-0.5,0.15-0.77,0.27c-0.01,0.14-0.03,0.28-0.05,0.43
		c-0.02,0.15-0.05,0.29-0.07,0.43l0.27,0.03c0.06-0.15,0.13-0.28,0.2-0.39C165.57,32.72,165.65,32.62,165.72,32.56z M160.81,33.12
		c0.09-0.01,0.18-0.01,0.3-0.01c0.12,0,0.23,0,0.37,0c0.23,0,0.42,0.01,0.59,0.02c0.16,0.02,0.3,0.04,0.4,0.07
		c0.1,0.03,0.2,0.08,0.28,0.14c0.09,0.07,0.17,0.14,0.24,0.23c0.07,0.09,0.13,0.2,0.17,0.32c0.04,0.12,0.06,0.25,0.06,0.41
		c0,0.21-0.03,0.4-0.1,0.56c-0.07,0.17-0.17,0.31-0.3,0.44c-0.13,0.12-0.29,0.21-0.49,0.28c-0.2,0.06-0.43,0.09-0.7,0.09
		c-0.13,0-0.25-0.01-0.39-0.02c-0.14-0.02-0.28-0.03-0.43-0.05V33.12z M160.8,32.31c0-0.37,0.01-0.69,0.02-0.98
		c0.01-0.29,0.02-0.54,0.05-0.75c0.15-0.02,0.28-0.04,0.42-0.05c0.13-0.01,0.27-0.01,0.38-0.01c0.22,0,0.41,0.02,0.56,0.05
		c0.16,0.04,0.28,0.08,0.38,0.15c0.13,0.09,0.23,0.21,0.29,0.35c0.07,0.15,0.11,0.3,0.11,0.49c0,0.13-0.02,0.25-0.05,0.37
		c-0.03,0.12-0.08,0.22-0.15,0.32c-0.07,0.1-0.14,0.18-0.23,0.25c-0.08,0.07-0.19,0.12-0.3,0.16c-0.11,0.04-0.25,0.07-0.42,0.09
		c-0.18,0.02-0.38,0.03-0.62,0.03c0,0-0.05,0-0.12,0c-0.07,0-0.17,0-0.3,0c0-0.1-0.01-0.19-0.01-0.26
		C160.8,32.42,160.8,32.36,160.8,32.31z M159.27,30.41c0.39,0.09,0.6,0.14,0.65,0.16l0.06,0.03l0.03,0.05
		c0.01,0.03,0.02,0.11,0.03,0.23c0.01,0.11,0.02,0.26,0.02,0.45l0.01,1.84c0,0.61,0,1.1,0,1.46c-0.01,0.37-0.02,0.61-0.03,0.75
		c-0.01,0.05-0.01,0.1-0.02,0.13c-0.01,0.04-0.02,0.06-0.04,0.08c-0.02,0.02-0.1,0.04-0.21,0.07c-0.11,0.03-0.27,0.06-0.48,0.1
		c-0.03,0-0.05,0.01-0.08,0.02c-0.03,0.01-0.07,0.02-0.12,0.03v0.25c0.34-0.02,0.59-0.03,0.77-0.03c0.18-0.01,0.28-0.02,0.32-0.02
		c0,0,0.06,0,0.13,0.01c0.07,0,0.18,0.01,0.31,0.01c0.19,0.01,0.35,0.01,0.49,0.02c0.13,0.01,0.25,0.01,0.34,0.01
		c0.38,0,0.73-0.03,1.02-0.09c0.29-0.06,0.53-0.15,0.73-0.28c0.58-0.36,0.87-0.84,0.87-1.46c0-0.16-0.02-0.3-0.05-0.43
		c-0.03-0.13-0.09-0.24-0.16-0.34c-0.14-0.2-0.34-0.36-0.59-0.47c-0.16-0.06-0.4-0.1-0.69-0.13c0.14-0.04,0.27-0.09,0.37-0.14
		c0.11-0.05,0.2-0.1,0.27-0.15c0.09-0.07,0.18-0.14,0.25-0.23c0.08-0.09,0.14-0.18,0.2-0.29c0.05-0.1,0.08-0.21,0.12-0.32
		c0.02-0.11,0.03-0.21,0.03-0.32c0-0.38-0.13-0.68-0.41-0.91c-0.28-0.25-0.71-0.37-1.29-0.37c-0.08,0-0.18,0-0.3,0
		c-0.11,0-0.25,0.01-0.41,0.01c-0.15,0-0.3,0.01-0.45,0.01c-0.15,0-0.3,0-0.44,0c-0.22,0-0.44,0-0.68,0
		c-0.23-0.01-0.48-0.02-0.74-0.04v0.25c0.04,0.01,0.07,0.02,0.1,0.02L159.27,30.41z M152.8,32.45c0.03,0.02,0.05,0.05,0.08,0.08
		c0.03,0.03,0.06,0.07,0.08,0.13c0.09,0.17,0.19,0.37,0.3,0.6c0.11,0.23,0.23,0.5,0.36,0.79l0.82,1.87
		c-0.15,0.53-0.32,0.88-0.51,1.08c-0.08,0.07-0.15,0.13-0.24,0.16c-0.08,0.03-0.17,0.05-0.27,0.05c-0.11,0-0.21-0.02-0.32-0.07
		c-0.1-0.05-0.21-0.12-0.32-0.22l-0.16,0.12c0.04,0.08,0.07,0.15,0.1,0.2c0.03,0.06,0.05,0.1,0.07,0.14
		c0.02,0.04,0.03,0.1,0.05,0.15c0.02,0.07,0.04,0.14,0.06,0.23c0.16,0.03,0.29,0.05,0.39,0.05c0.08,0,0.19-0.02,0.28-0.05
		c0.1-0.04,0.2-0.09,0.3-0.16c0.1-0.07,0.2-0.16,0.29-0.27c0.09-0.11,0.18-0.23,0.26-0.38c0.06-0.11,0.14-0.28,0.23-0.51
		c0.09-0.22,0.2-0.5,0.32-0.84l0.81-2.18c0.11-0.28,0.2-0.5,0.27-0.66c0.08-0.15,0.13-0.25,0.17-0.29c0.03-0.04,0.09-0.08,0.17-0.11
		c0.07-0.03,0.16-0.06,0.27-0.09v-0.23c-0.12,0.01-0.23,0.02-0.33,0.03c-0.11,0.01-0.21,0.01-0.3,0.01c-0.09,0-0.19,0-0.32-0.01
		c-0.12-0.02-0.28-0.02-0.45-0.03v0.23l0.07,0.03l0.05,0.01c0.1,0.04,0.17,0.07,0.21,0.11l0.03,0.05l0,0.07
		c0,0.05-0.03,0.17-0.09,0.37c-0.06,0.2-0.16,0.46-0.28,0.79l-0.44,1.25c-0.14-0.3-0.29-0.61-0.44-0.95
		c-0.14-0.33-0.29-0.68-0.44-1.06c-0.05-0.11-0.08-0.2-0.11-0.27c-0.02-0.07-0.03-0.12-0.03-0.15l0.02-0.07l0.05-0.05
		c0.03-0.02,0.08-0.05,0.15-0.07c0.08-0.02,0.18-0.04,0.3-0.07v-0.23c-0.24,0.01-0.44,0.02-0.6,0.03c-0.16,0.01-0.27,0.01-0.34,0.01
		c-0.1,0-0.23,0-0.38-0.01c-0.17-0.02-0.35-0.02-0.56-0.03v0.23c0.1,0.03,0.18,0.06,0.26,0.08C152.72,32.4,152.77,32.42,152.8,32.45
		z M144.29,30.42c0.18,0.03,0.33,0.05,0.46,0.08c0.12,0.03,0.2,0.05,0.26,0.07l0.07,0.05l0.05,0.06c0.01,0.03,0.02,0.07,0.03,0.14
		c0,0.06,0.01,0.15,0.01,0.25v0.51c0,0.4,0,0.81,0,1.23c0,0.42-0.01,0.83-0.02,1.26l-0.02,0.95c0,0.15-0.02,0.28-0.03,0.37
		c-0.02,0.09-0.04,0.15-0.08,0.2c-0.02,0.03-0.08,0.06-0.18,0.09c-0.1,0.03-0.25,0.07-0.43,0.1l-0.08,0.02
		c-0.03,0.01-0.07,0.01-0.1,0.03v0.25c0.24-0.02,0.47-0.03,0.66-0.03c0.2-0.01,0.38-0.02,0.53-0.02c0.14,0,0.31,0.01,0.51,0.02
		c0.2,0,0.42,0.02,0.65,0.03v-0.25c-0.03-0.01-0.08-0.02-0.11-0.03c-0.03-0.01-0.06-0.01-0.08-0.02c-0.18-0.03-0.33-0.06-0.44-0.09
		c-0.1-0.02-0.17-0.05-0.2-0.07c-0.02-0.02-0.04-0.08-0.06-0.17c-0.01-0.09-0.02-0.21-0.02-0.36l-0.05-3.91
		c0.45,0.92,0.88,1.79,1.26,2.59c0.38,0.8,0.73,1.56,1.04,2.25h0.24c0.12-0.28,0.3-0.69,0.54-1.21c0.45-0.96,0.81-1.75,1.11-2.35
		c0.28-0.6,0.49-1.03,0.62-1.28v3.66c0,0.19,0,0.33-0.01,0.45c0,0.11-0.01,0.19-0.02,0.23l-0.04,0.07l-0.07,0.04
		c-0.03,0.01-0.08,0.03-0.18,0.06c-0.1,0.02-0.23,0.05-0.4,0.08c-0.03,0-0.07,0.01-0.11,0.02c-0.04,0.01-0.09,0.02-0.15,0.04v0.25
		c0.27-0.02,0.52-0.03,0.75-0.03c0.23-0.01,0.44-0.02,0.64-0.02c0.19,0,0.39,0.01,0.61,0.02c0.23,0,0.45,0.02,0.71,0.03v-0.25
		c-0.03-0.01-0.07-0.02-0.09-0.03l-0.07-0.01c-0.22-0.04-0.39-0.08-0.51-0.11c-0.12-0.03-0.19-0.05-0.21-0.07l-0.05-0.08
		c-0.01-0.02-0.02-0.05-0.02-0.1c0-0.18,0-0.52-0.01-1.03c0-0.5,0-1.17,0-2l0.01-1.33v-0.05c0-0.12,0.01-0.21,0.03-0.28
		c0.01-0.07,0.04-0.12,0.08-0.15c0.02-0.01,0.09-0.04,0.2-0.07c0.11-0.03,0.26-0.07,0.45-0.1l0.08-0.02c0.03,0,0.07-0.02,0.1-0.03
		v-0.25c-0.21,0.02-0.4,0.03-0.55,0.04c-0.16,0-0.28,0-0.37,0c-0.1,0-0.22,0-0.37,0c-0.13-0.01-0.3-0.02-0.48-0.04
		c-0.08,0.2-0.15,0.39-0.21,0.55c-0.07,0.16-0.13,0.3-0.18,0.41l-1.79,3.75c-0.14-0.28-0.28-0.55-0.41-0.83
		c-0.13-0.28-0.27-0.56-0.4-0.86c-0.32-0.68-0.57-1.21-0.75-1.6c-0.18-0.39-0.3-0.63-0.34-0.74c-0.03-0.08-0.07-0.17-0.12-0.28
		c-0.05-0.11-0.1-0.24-0.15-0.39c-0.17,0.02-0.32,0.03-0.47,0.04c-0.15,0-0.29,0-0.43,0c-0.13,0-0.28,0-0.45,0
		c-0.17-0.01-0.38-0.02-0.62-0.04v0.25C144.16,30.4,144.24,30.41,144.29,30.42z M140.32,35.96c0.05,0,0.08,0.02,0.13,0.03
		c0.03,0.02,0.07,0.05,0.11,0.09c0.03,0.03,0.06,0.08,0.07,0.12c0.02,0.05,0.03,0.11,0.03,0.17c0,0.15-0.04,0.32-0.13,0.48
		c-0.08,0.17-0.22,0.33-0.39,0.51l0.18,0.22c0.3-0.26,0.52-0.52,0.66-0.77c0.15-0.27,0.22-0.53,0.22-0.8c0-0.09-0.01-0.18-0.05-0.28
		c-0.03-0.08-0.07-0.17-0.13-0.25c-0.07-0.08-0.13-0.15-0.21-0.21c-0.08-0.05-0.17-0.1-0.27-0.14c-0.07,0.13-0.15,0.25-0.23,0.37
		c-0.08,0.11-0.17,0.23-0.27,0.33l0.12,0.16c0.04-0.01,0.07-0.01,0.1-0.01L140.32,35.96z M137.91,34.93
		c-0.02,0.08-0.07,0.15-0.13,0.23c-0.05,0.07-0.13,0.14-0.22,0.2c-0.08,0.06-0.17,0.11-0.27,0.14c-0.1,0.03-0.2,0.04-0.3,0.04
		c-0.15,0-0.3-0.03-0.43-0.1c-0.14-0.07-0.26-0.17-0.38-0.31c-0.11-0.14-0.19-0.3-0.25-0.5c-0.05-0.2-0.08-0.43-0.08-0.69
		c0-0.5,0.11-0.89,0.33-1.16c0.12-0.13,0.24-0.23,0.37-0.29c0.13-0.07,0.28-0.1,0.44-0.1c0.13,0,0.25,0.01,0.35,0.04
		c0.11,0.03,0.21,0.08,0.29,0.13c0.08,0.07,0.15,0.12,0.21,0.19c0.05,0.08,0.08,0.15,0.11,0.23c0.01,0.04,0.02,0.15,0.02,0.3
		c0.01,0.16,0.01,0.37,0.01,0.64C138,34.43,137.97,34.76,137.91,34.93z M137.42,30.66c0.06-0.01,0.12-0.02,0.17-0.02
		c0.04,0,0.08-0.01,0.11-0.01c0.07,0,0.13,0.02,0.18,0.04c0.05,0.03,0.08,0.07,0.1,0.12c0.02,0.04,0.02,0.15,0.03,0.33
		c0,0.18,0,0.43,0,0.76c0,0,0,0.04,0,0.08c0,0.04,0,0.1-0.01,0.17c-0.08-0.03-0.15-0.06-0.23-0.08c-0.07-0.02-0.15-0.04-0.21-0.05
		c-0.07-0.02-0.14-0.02-0.2-0.03c-0.06-0.01-0.12-0.01-0.17-0.01c-0.12,0-0.25,0.01-0.37,0.04c-0.12,0.03-0.25,0.08-0.36,0.14
		c-0.12,0.06-0.24,0.13-0.35,0.2c-0.11,0.08-0.21,0.17-0.3,0.27c-0.1,0.1-0.18,0.21-0.26,0.32c-0.08,0.1-0.14,0.21-0.19,0.32
		c-0.07,0.14-0.12,0.3-0.16,0.48c-0.03,0.17-0.05,0.36-0.05,0.56c0,0.29,0.03,0.54,0.1,0.77c0.07,0.22,0.18,0.42,0.32,0.58
		c0.15,0.16,0.3,0.28,0.48,0.36c0.17,0.08,0.37,0.12,0.58,0.12c0.11,0,0.22-0.01,0.32-0.03c0.1-0.02,0.19-0.05,0.27-0.09
		c0.08-0.03,0.18-0.11,0.32-0.21c0.12-0.1,0.27-0.22,0.45-0.38c0,0.1-0.01,0.21-0.02,0.31c-0.02,0.11-0.03,0.21-0.05,0.32l0.11,0.08
		c0.16-0.1,0.35-0.19,0.58-0.28c0.23-0.08,0.48-0.17,0.77-0.26v-0.23c-0.21,0.03-0.35,0.05-0.43,0.05c-0.08,0-0.13-0.02-0.17-0.03
		c-0.04-0.03-0.07-0.07-0.08-0.13c-0.02-0.06-0.02-0.22-0.03-0.49c-0.01-0.28-0.01-0.65-0.01-1.14c0-0.88,0.01-1.63,0.02-2.23
		c0.02-0.6,0.03-1.06,0.07-1.38l-0.1-0.09c-0.32,0.17-0.56,0.28-0.7,0.34c-0.07,0.03-0.16,0.06-0.27,0.1
		c-0.11,0.04-0.25,0.07-0.39,0.12v0.22c0.03,0,0.06-0.01,0.08-0.01L137.42,30.66z M130.35,32.7c0.07-0.01,0.13-0.02,0.18-0.03
		c0.05,0,0.08,0,0.11,0c0.07,0,0.12,0.02,0.17,0.04c0.04,0.03,0.07,0.08,0.08,0.14c0.02,0.07,0.03,0.59,0.03,1.54
		c0,0.23,0,0.44-0.02,0.62c0,0.17-0.02,0.33-0.04,0.46c0,0.05-0.01,0.09-0.02,0.12l-0.04,0.07c-0.02,0.02-0.08,0.04-0.17,0.07
		c-0.09,0.03-0.23,0.07-0.4,0.1v0.23c0.25-0.02,0.46-0.03,0.65-0.03c0.18-0.01,0.33-0.02,0.46-0.02c0.13,0,0.27,0.01,0.42,0.02
		c0.16,0,0.33,0.02,0.52,0.03v-0.23c-0.03-0.01-0.06-0.02-0.09-0.02l-0.07-0.02c-0.29-0.07-0.45-0.15-0.49-0.23
		c-0.02-0.05-0.03-0.2-0.05-0.48c-0.02-0.27-0.02-0.66-0.02-1.16c0-0.18,0.01-0.34,0.03-0.47c0.02-0.13,0.05-0.25,0.1-0.34
		c0.04-0.1,0.09-0.18,0.16-0.24c0.07-0.07,0.14-0.14,0.23-0.19c0.09-0.06,0.18-0.1,0.28-0.12c0.09-0.03,0.18-0.04,0.27-0.04
		c0.09,0,0.17,0.01,0.24,0.04c0.08,0.03,0.15,0.06,0.22,0.11c0.06,0.05,0.11,0.11,0.15,0.18c0.04,0.07,0.07,0.15,0.09,0.25
		c0.02,0.06,0.02,0.18,0.02,0.37c0.01,0.18,0.01,0.42,0.01,0.73c0,0.28,0,0.54-0.01,0.75c0,0.21-0.02,0.38-0.03,0.52
		c0,0.04-0.02,0.07-0.02,0.1l-0.05,0.06c-0.01,0.02-0.07,0.04-0.17,0.07c-0.09,0.03-0.22,0.07-0.38,0.12v0.23
		c0.27-0.02,0.5-0.03,0.69-0.03c0.2-0.01,0.35-0.02,0.46-0.02c0.12,0,0.26,0.01,0.41,0.02c0.14,0,0.3,0.02,0.47,0.03v-0.23
		c-0.05-0.01-0.08-0.02-0.11-0.02l-0.08-0.02c-0.12-0.03-0.2-0.05-0.27-0.08c-0.07-0.02-0.11-0.04-0.13-0.06l-0.04-0.07
		c-0.02-0.03-0.03-0.07-0.04-0.11c-0.01-0.06-0.02-0.19-0.02-0.39c0-0.2,0-0.47,0-0.81l0.01-1.02c0-0.22-0.02-0.4-0.05-0.55
		c-0.04-0.15-0.09-0.27-0.15-0.36c-0.11-0.13-0.23-0.23-0.38-0.3c-0.14-0.07-0.32-0.1-0.52-0.1c-0.09,0-0.18,0-0.26,0.02
		c-0.08,0.02-0.17,0.05-0.26,0.07c-0.06,0.02-0.11,0.05-0.17,0.08c-0.05,0.03-0.1,0.07-0.15,0.11l-0.53,0.52
		c0-0.13,0.01-0.25,0.02-0.37c0.02-0.12,0.02-0.24,0.04-0.36l-0.11-0.07c-0.2,0.12-0.43,0.22-0.65,0.31
		c-0.23,0.09-0.47,0.16-0.72,0.22v0.23c0.03,0,0.07-0.01,0.1-0.01L130.35,32.7z M127.48,33.29c-0.03,0-0.06,0-0.1,0
		c-0.04,0-0.09,0-0.14,0c0.05-0.18,0.1-0.33,0.17-0.47c0.07-0.13,0.15-0.23,0.24-0.32c0.09-0.07,0.18-0.14,0.28-0.18
		c0.11-0.04,0.22-0.06,0.33-0.06c0.13,0,0.25,0.03,0.36,0.08c0.11,0.05,0.2,0.13,0.28,0.24c0.05,0.07,0.1,0.15,0.13,0.26
		c0.03,0.11,0.05,0.23,0.07,0.37c-0.31,0.02-0.6,0.05-0.86,0.05C127.96,33.29,127.71,33.29,127.48,33.29z M128.95,35.45
		c-0.1,0.03-0.2,0.06-0.29,0.07c-0.1,0.02-0.19,0.03-0.28,0.03c-0.18,0-0.34-0.04-0.49-0.12c-0.15-0.08-0.27-0.2-0.38-0.37
		c-0.1-0.15-0.18-0.35-0.23-0.59c-0.05-0.24-0.08-0.51-0.08-0.83c0.28-0.01,0.57-0.01,0.9-0.02c0.32,0,0.67-0.01,1.04-0.01
		c0.03,0,0.07,0,0.14,0c0.06,0,0.14,0,0.24,0c0.05-0.05,0.1-0.09,0.15-0.13c0.06-0.04,0.1-0.08,0.17-0.12c0-0.25-0.04-0.46-0.1-0.64
		c-0.06-0.18-0.15-0.33-0.27-0.46c-0.12-0.12-0.26-0.21-0.43-0.27c-0.17-0.06-0.36-0.08-0.58-0.08c-0.27,0-0.53,0.04-0.77,0.15
		c-0.24,0.1-0.45,0.25-0.64,0.46c-0.2,0.2-0.34,0.44-0.44,0.7c-0.1,0.27-0.15,0.57-0.15,0.91c0,0.31,0.04,0.59,0.12,0.83
		c0.09,0.25,0.21,0.47,0.37,0.65c0.16,0.18,0.33,0.32,0.53,0.42c0.19,0.09,0.4,0.13,0.63,0.13c0.09,0,0.18,0,0.28-0.02
		c0.09-0.01,0.18-0.02,0.27-0.05c0.06-0.03,0.12-0.05,0.18-0.07c0.06-0.03,0.12-0.06,0.18-0.1l0.83-0.62l-0.16-0.25
		c-0.15,0.1-0.28,0.17-0.41,0.23C129.16,35.36,129.05,35.41,128.95,35.45z M124.41,32.65c0.05,0,0.08,0.01,0.12,0.02
		c0.03,0.02,0.06,0.04,0.08,0.07c0.02,0.03,0.04,0.1,0.05,0.19c0.01,0.09,0.02,0.22,0.02,0.37v0.17v0.89c0,0.37,0,0.65-0.02,0.85
		c-0.01,0.21-0.03,0.32-0.05,0.36c-0.05,0.08-0.26,0.16-0.64,0.25v0.23c0.32-0.02,0.56-0.03,0.75-0.03c0.19-0.01,0.32-0.02,0.4-0.02
		c0.12,0,0.25,0.01,0.4,0.02c0.15,0,0.31,0.02,0.5,0.03v-0.23l-0.08-0.02l-0.06-0.02c-0.12-0.03-0.22-0.06-0.3-0.1
		c-0.07-0.02-0.12-0.05-0.14-0.07l-0.05-0.06c-0.02-0.03-0.02-0.07-0.03-0.11c-0.02-0.05-0.02-0.16-0.03-0.32c0-0.16,0-0.37,0-0.61
		c0-1.09,0.03-1.93,0.08-2.52l-0.11-0.08c-0.21,0.12-0.42,0.22-0.63,0.32c-0.22,0.08-0.45,0.17-0.68,0.22v0.23
		c0.12-0.02,0.22-0.02,0.29-0.03C124.33,32.65,124.39,32.65,124.41,32.65z M124.7,30.04c-0.08,0.08-0.13,0.19-0.13,0.31
		c0,0.07,0.01,0.12,0.03,0.17c0.02,0.05,0.05,0.1,0.09,0.14c0.09,0.08,0.19,0.13,0.31,0.13c0.12,0,0.22-0.04,0.31-0.13
		c0.05-0.05,0.07-0.09,0.1-0.14c0.02-0.05,0.03-0.11,0.03-0.17c0-0.12-0.05-0.23-0.13-0.31c-0.09-0.08-0.19-0.13-0.31-0.13
		C124.89,29.91,124.79,29.95,124.7,30.04z M120.95,32.71c0.08-0.02,0.16-0.02,0.22-0.03c0.06,0,0.11,0,0.15,0
		c0.07,0,0.12,0.01,0.15,0.04c0.04,0.02,0.07,0.07,0.08,0.13c0.02,0.04,0.03,0.17,0.03,0.42c0,0.24,0.01,0.58,0.01,1.03l-0.01,0.91
		c0,0.12-0.01,0.21-0.02,0.28c-0.02,0.07-0.03,0.12-0.06,0.15c-0.02,0.03-0.09,0.05-0.2,0.09c-0.11,0.04-0.26,0.08-0.45,0.13v0.23
		c0.27-0.02,0.51-0.03,0.71-0.03c0.2-0.01,0.35-0.02,0.47-0.02c0.14,0,0.3,0.01,0.45,0.02c0.15,0,0.33,0.02,0.5,0.03v-0.23
		c-0.33-0.07-0.53-0.14-0.59-0.18c-0.03-0.03-0.06-0.06-0.08-0.09c-0.02-0.04-0.03-0.07-0.04-0.12c-0.03-0.22-0.05-0.66-0.05-1.31
		c0-0.18,0.01-0.34,0.03-0.48c0.03-0.14,0.06-0.27,0.1-0.37c0.04-0.1,0.1-0.2,0.17-0.28c0.06-0.09,0.14-0.17,0.24-0.25
		c0.12-0.1,0.25-0.15,0.36-0.15c0.03,0,0.07,0,0.1,0.01c0.03,0.02,0.06,0.03,0.09,0.07c0.03,0.03,0.05,0.07,0.07,0.13
		c0.02,0.05,0.03,0.1,0.05,0.17h0.22c0.04-0.3,0.1-0.59,0.16-0.88c-0.08-0.02-0.14-0.05-0.21-0.06c-0.07-0.01-0.13-0.02-0.19-0.02
		c-0.1,0-0.18,0.01-0.25,0.03c-0.08,0.03-0.15,0.06-0.22,0.1c-0.06,0.05-0.16,0.14-0.27,0.26c-0.12,0.13-0.26,0.29-0.43,0.5
		c0-0.16,0.01-0.32,0.03-0.47c0-0.15,0.03-0.29,0.05-0.42l-0.12-0.08c-0.18,0.11-0.38,0.21-0.6,0.3c-0.22,0.09-0.46,0.17-0.72,0.23
		v0.23l0.07-0.01H120.95z M115.93,30.41c0.18,0.04,0.33,0.07,0.44,0.1c0.12,0.03,0.18,0.06,0.21,0.09c0.02,0.02,0.05,0.05,0.05,0.08
		c0.02,0.04,0.03,0.08,0.03,0.14c0,0.08,0,0.3,0.01,0.65c0,0.36,0,0.85,0,1.49c0,0.26,0,0.48,0,0.65c0,0.17,0,0.31-0.01,0.4
		l-0.02,1.19c0,0.1,0,0.18-0.02,0.24c-0.02,0.07-0.04,0.12-0.07,0.15c-0.03,0.03-0.1,0.06-0.2,0.08c-0.1,0.03-0.24,0.06-0.4,0.08
		c-0.02,0-0.06,0.01-0.1,0.02c-0.05,0.01-0.09,0.01-0.15,0.03v0.25l1.46-0.05c0.14,0,0.32,0.01,0.55,0.02c0.22,0,0.5,0.02,0.81,0.03
		v-0.25c-0.28-0.04-0.51-0.08-0.67-0.11c-0.15-0.03-0.25-0.06-0.28-0.08l-0.07-0.06l-0.02-0.07c-0.02-0.08-0.03-0.68-0.03-1.79
		c0-0.05,0-0.12,0-0.21s0-0.21,0.01-0.35h1.13c0.16,0,0.28,0,0.37,0.02c0.1,0.02,0.16,0.04,0.2,0.08c0.03,0.03,0.07,0.1,0.1,0.2
		c0.03,0.11,0.07,0.25,0.1,0.43c0,0.05,0.01,0.1,0.02,0.18h0.28c-0.01-0.33-0.02-0.58-0.03-0.76c-0.01-0.18-0.01-0.28-0.01-0.31
		c0-0.09,0-0.23,0.01-0.42c0-0.19,0.02-0.43,0.03-0.73h-0.28c-0.01,0.05-0.02,0.09-0.02,0.12c-0.01,0.04-0.02,0.07-0.02,0.09
		c-0.03,0.13-0.05,0.23-0.08,0.32c-0.03,0.08-0.05,0.14-0.07,0.18c-0.02,0.03-0.05,0.06-0.08,0.09l-0.09,0.06
		c-0.03,0.02-0.08,0.02-0.16,0.03c-0.07,0-0.16,0-0.27,0h-1.15c0-0.53,0.01-0.96,0.02-1.32c0.01-0.35,0.01-0.62,0.02-0.8h1.82
		c0.15,0,0.27,0,0.37,0.01c0.1,0.01,0.17,0.02,0.21,0.05c0.09,0.03,0.15,0.09,0.18,0.17c0.03,0.07,0.07,0.17,0.12,0.31
		c0.05,0.14,0.09,0.33,0.15,0.55h0.29l-0.09-1.57c-0.5,0.02-0.96,0.03-1.41,0.04c-0.45,0-0.88,0-1.29,0c-0.39,0-0.76,0-1.12,0
		c-0.36-0.01-0.7-0.02-1.02-0.04v0.25c0.05,0.01,0.1,0.02,0.13,0.03C115.88,30.41,115.91,30.41,115.93,30.41z M109.43,32.45
		c0.02,0.02,0.05,0.05,0.08,0.08c0.03,0.03,0.05,0.07,0.08,0.13c0.09,0.17,0.18,0.37,0.3,0.6c0.11,0.23,0.23,0.5,0.36,0.79
		l0.81,1.87c-0.14,0.53-0.32,0.88-0.51,1.08c-0.07,0.07-0.15,0.13-0.23,0.16c-0.09,0.03-0.18,0.05-0.27,0.05
		c-0.1,0-0.21-0.02-0.32-0.07c-0.1-0.05-0.2-0.12-0.31-0.22l-0.16,0.12c0.04,0.08,0.07,0.15,0.1,0.2c0.04,0.06,0.05,0.1,0.08,0.14
		c0.01,0.04,0.02,0.1,0.04,0.15c0.02,0.07,0.03,0.14,0.06,0.23c0.17,0.03,0.29,0.05,0.39,0.05s0.19-0.02,0.29-0.05
		c0.1-0.04,0.2-0.09,0.29-0.16c0.1-0.07,0.2-0.16,0.29-0.27c0.09-0.11,0.18-0.23,0.26-0.38c0.06-0.11,0.13-0.28,0.23-0.51
		c0.09-0.22,0.19-0.5,0.31-0.84l0.81-2.18c0.11-0.28,0.19-0.5,0.27-0.66c0.07-0.15,0.13-0.25,0.17-0.29
		c0.04-0.04,0.1-0.08,0.17-0.11c0.07-0.03,0.16-0.06,0.27-0.09v-0.23c-0.12,0.01-0.23,0.02-0.33,0.03c-0.1,0.01-0.2,0.01-0.3,0.01
		c-0.07,0-0.18,0-0.31-0.01c-0.13-0.02-0.28-0.02-0.46-0.03v0.23l0.07,0.03l0.05,0.01c0.1,0.04,0.18,0.07,0.2,0.11l0.03,0.05l0,0.07
		c0,0.05-0.03,0.17-0.09,0.37c-0.07,0.2-0.16,0.46-0.28,0.79l-0.44,1.25c-0.14-0.3-0.29-0.61-0.43-0.95
		c-0.15-0.33-0.3-0.68-0.45-1.06c-0.05-0.11-0.08-0.2-0.1-0.27c-0.02-0.07-0.04-0.12-0.04-0.15l0.02-0.07l0.04-0.05
		c0.03-0.02,0.07-0.05,0.15-0.07c0.08-0.02,0.18-0.04,0.3-0.07v-0.23c-0.24,0.01-0.44,0.02-0.6,0.03c-0.15,0.01-0.27,0.01-0.34,0.01
		c-0.1,0-0.22,0-0.38-0.01c-0.16-0.02-0.35-0.02-0.56-0.03v0.23c0.1,0.03,0.18,0.06,0.25,0.08C109.35,32.4,109.4,32.42,109.43,32.45
		z M100.92,30.42c0.18,0.03,0.34,0.05,0.45,0.08c0.12,0.03,0.2,0.05,0.26,0.07l0.08,0.05l0.05,0.06c0.02,0.03,0.02,0.07,0.03,0.14
		c0.01,0.06,0.01,0.15,0.01,0.25v0.51c0,0.4,0,0.81,0,1.23c0,0.42-0.01,0.83-0.02,1.26l-0.02,0.95c0,0.15-0.02,0.28-0.03,0.37
		c-0.02,0.09-0.04,0.15-0.08,0.2c-0.02,0.03-0.08,0.06-0.18,0.09c-0.1,0.03-0.25,0.07-0.43,0.1l-0.08,0.02
		c-0.03,0.01-0.06,0.01-0.1,0.03v0.25c0.24-0.02,0.46-0.03,0.66-0.03c0.2-0.01,0.37-0.02,0.52-0.02c0.15,0,0.32,0.01,0.52,0.02
		c0.2,0,0.42,0.02,0.66,0.03v-0.25c-0.05-0.01-0.09-0.02-0.12-0.03c-0.03-0.01-0.05-0.01-0.07-0.02c-0.19-0.03-0.34-0.06-0.44-0.09
		c-0.11-0.02-0.17-0.05-0.2-0.07c-0.03-0.02-0.04-0.08-0.05-0.17c-0.02-0.09-0.02-0.21-0.02-0.36l-0.05-3.91
		c0.45,0.92,0.87,1.79,1.26,2.59c0.38,0.8,0.73,1.56,1.04,2.25h0.24c0.12-0.28,0.3-0.69,0.54-1.21c0.45-0.96,0.82-1.75,1.1-2.35
		c0.28-0.6,0.49-1.03,0.62-1.28v3.66c0,0.19,0,0.33-0.01,0.45c0,0.11-0.01,0.19-0.02,0.23l-0.04,0.07l-0.06,0.04
		c-0.02,0.01-0.08,0.03-0.18,0.06c-0.1,0.02-0.23,0.05-0.4,0.08c-0.03,0-0.07,0.01-0.1,0.02c-0.04,0.01-0.08,0.02-0.14,0.04v0.25
		c0.26-0.02,0.51-0.03,0.75-0.03c0.23-0.01,0.43-0.02,0.63-0.02c0.2,0,0.4,0.01,0.62,0.02c0.22,0,0.45,0.02,0.71,0.03v-0.25
		c-0.04-0.01-0.07-0.02-0.1-0.03l-0.06-0.01c-0.22-0.04-0.39-0.08-0.51-0.11c-0.12-0.03-0.18-0.05-0.2-0.07l-0.05-0.08
		c-0.01-0.02-0.02-0.05-0.02-0.1c0-0.18-0.01-0.52-0.02-1.03c0-0.5,0-1.17,0-2l0.02-1.33v-0.05c0-0.12,0.01-0.21,0.02-0.28
		c0.02-0.07,0.05-0.12,0.09-0.15c0.02-0.01,0.08-0.04,0.19-0.07c0.1-0.03,0.25-0.07,0.45-0.1c0.02,0,0.05-0.01,0.08-0.02
		c0.03,0,0.07-0.02,0.11-0.03v-0.25c-0.22,0.02-0.4,0.03-0.56,0.04c-0.15,0-0.28,0-0.37,0c-0.1,0-0.22,0-0.36,0
		c-0.14-0.01-0.3-0.02-0.49-0.04c-0.07,0.2-0.15,0.39-0.22,0.55c-0.07,0.16-0.12,0.3-0.18,0.41l-1.79,3.75
		c-0.14-0.28-0.28-0.55-0.41-0.83c-0.13-0.28-0.27-0.56-0.4-0.86c-0.32-0.68-0.56-1.21-0.75-1.6c-0.18-0.39-0.29-0.63-0.33-0.74
		c-0.03-0.08-0.07-0.17-0.12-0.28c-0.05-0.11-0.1-0.24-0.15-0.39c-0.17,0.02-0.32,0.03-0.47,0.04c-0.15,0-0.29,0-0.43,0
		c-0.12,0-0.27,0-0.45,0c-0.18-0.01-0.39-0.02-0.62-0.04v0.25C100.79,30.4,100.87,30.41,100.92,30.42z"/>
	<path id="XMLID_157_" class="st1" d="M142.54,8.88c0-0.15,0.03-0.28,0.09-0.41c0.05-0.13,0.14-0.24,0.26-0.37
		c0.12-0.1,0.23-0.19,0.37-0.24c0.13-0.06,0.28-0.08,0.45-0.08c0.17,0,0.32,0.02,0.45,0.08c0.14,0.05,0.27,0.14,0.37,0.24
		c0.1,0.12,0.19,0.25,0.24,0.37c0.05,0.13,0.08,0.28,0.08,0.43v9.8l5.79-4.47c0.07-0.05,0.14-0.1,0.22-0.15
		c0.08-0.05,0.16-0.1,0.23-0.13c0.07-0.04,0.16-0.07,0.23-0.09c0.08-0.03,0.17-0.04,0.27-0.04c0.28,0,0.52,0.1,0.73,0.31
		c0.1,0.11,0.17,0.22,0.22,0.34c0.05,0.11,0.08,0.23,0.08,0.34c0,0.09-0.02,0.18-0.03,0.27c-0.03,0.08-0.06,0.17-0.1,0.25
		c-0.05,0.07-0.12,0.15-0.18,0.2c-0.07,0.07-0.13,0.12-0.19,0.17l-5.68,4.14l7.18,6.66l-1.77,1.29l-7.01-6.7v6.5l-2.29-0.03V8.88z
		 M129.34,14.9c0-0.15,0.02-0.3,0.08-0.43c0.05-0.13,0.15-0.25,0.27-0.36c0.12-0.11,0.26-0.18,0.39-0.23
		c0.14-0.05,0.29-0.07,0.45-0.07c0.15,0,0.28,0.01,0.39,0.04c0.11,0.03,0.2,0.07,0.29,0.14c0.06,0.06,0.13,0.13,0.18,0.19
		c0.05,0.07,0.1,0.15,0.14,0.24c0.06,0.18,0.08,0.38,0.08,0.61c0,0.23,0,0.43,0,0.61c0.2-0.28,0.45-0.54,0.73-0.77
		c0.29-0.21,0.61-0.4,0.96-0.55c0.34-0.15,0.69-0.27,1.06-0.35c0.36-0.08,0.72-0.12,1.1-0.12c0.81,0,1.54,0.13,2.2,0.38
		c0.32,0.12,0.63,0.28,0.91,0.45c0.28,0.18,0.53,0.38,0.77,0.61c0.23,0.23,0.43,0.48,0.61,0.75c0.18,0.27,0.33,0.56,0.45,0.88
		c0.12,0.32,0.21,0.64,0.27,0.98c0.06,0.34,0.08,0.7,0.08,1.06v7.81c0,0.3-0.11,0.56-0.33,0.76c-0.12,0.11-0.26,0.2-0.39,0.25
		c-0.14,0.06-0.29,0.08-0.45,0.08c-0.15,0-0.29-0.02-0.43-0.08c-0.12-0.05-0.25-0.14-0.36-0.25c-0.1-0.1-0.18-0.21-0.24-0.33
		c-0.06-0.13-0.08-0.27-0.08-0.4v-7.79c0-0.22-0.03-0.43-0.07-0.65c-0.04-0.22-0.12-0.43-0.21-0.63c-0.1-0.19-0.2-0.37-0.33-0.55
		c-0.12-0.17-0.25-0.33-0.41-0.49c-0.16-0.14-0.34-0.27-0.52-0.4c-0.19-0.12-0.38-0.23-0.59-0.32c-0.2-0.09-0.42-0.15-0.64-0.19
		c-0.23-0.04-0.46-0.07-0.69-0.07c-0.23,0-0.46,0.03-0.68,0.07c-0.23,0.04-0.45,0.1-0.65,0.19c-0.2,0.09-0.39,0.2-0.58,0.31
		c-0.18,0.12-0.35,0.24-0.5,0.38c-0.15,0.15-0.28,0.32-0.41,0.49c-0.12,0.18-0.22,0.36-0.3,0.55c-0.09,0.19-0.17,0.39-0.21,0.6
		c-0.04,0.21-0.07,0.43-0.07,0.64v8.67h-2.28V14.9z M117.51,22.57c0.14,0.63,0.35,1.19,0.65,1.68c0.15,0.25,0.33,0.48,0.55,0.69
		c0.22,0.2,0.45,0.39,0.71,0.56c0.25,0.16,0.54,0.28,0.85,0.36c0.31,0.08,0.65,0.12,1.02,0.12c0.41,0,0.77-0.04,1.11-0.12
		c0.34-0.08,0.63-0.2,0.9-0.36c0.26-0.17,0.49-0.35,0.7-0.56c0.21-0.21,0.4-0.43,0.54-0.69c0.15-0.25,0.28-0.53,0.38-0.82
		c0.09-0.29,0.17-0.6,0.23-0.91c0.11-0.64,0.17-1.27,0.17-1.91c0-0.58-0.05-1.16-0.17-1.76c-0.07-0.28-0.15-0.56-0.25-0.83
		c-0.1-0.28-0.23-0.53-0.38-0.76c-0.14-0.23-0.32-0.45-0.52-0.63c-0.2-0.19-0.42-0.36-0.67-0.51c-0.26-0.15-0.55-0.25-0.86-0.32
		c-0.32-0.08-0.66-0.12-1.05-0.12c-0.36,0-0.71,0.04-1.03,0.12c-0.32,0.08-0.61,0.19-0.87,0.34c-0.26,0.15-0.49,0.33-0.71,0.53
		c-0.21,0.21-0.4,0.43-0.57,0.67c-0.17,0.24-0.3,0.5-0.43,0.77c-0.12,0.28-0.22,0.56-0.28,0.85c-0.08,0.31-0.14,0.61-0.18,0.91
		c-0.04,0.31-0.07,0.6-0.07,0.9c0,0.29,0.02,0.59,0.06,0.89C117.39,21.97,117.44,22.27,117.51,22.57z M125.28,14.97
		c0-0.1,0.01-0.2,0.02-0.29c0.02-0.1,0.04-0.18,0.08-0.27c0.03-0.09,0.07-0.17,0.12-0.24c0.06-0.06,0.12-0.13,0.2-0.19
		c0.16-0.1,0.4-0.15,0.74-0.15c0.15,0,0.28,0.02,0.42,0.08c0.13,0.04,0.25,0.13,0.37,0.25c0.09,0.12,0.17,0.23,0.22,0.34
		c0.05,0.13,0.08,0.25,0.08,0.4V27.7h-2.31v-1.94c-0.22,0.34-0.47,0.65-0.76,0.9c-0.28,0.26-0.61,0.47-0.96,0.65
		c-0.73,0.35-1.52,0.53-2.37,0.53c-0.51,0-1-0.05-1.45-0.16c-0.45-0.1-0.88-0.25-1.27-0.45c-0.39-0.2-0.76-0.44-1.09-0.71
		c-0.33-0.26-0.63-0.56-0.9-0.89c-0.25-0.33-0.48-0.68-0.69-1.06c-0.2-0.37-0.37-0.78-0.51-1.2c-0.12-0.42-0.22-0.84-0.3-1.26
		c-0.07-0.43-0.11-0.86-0.11-1.3c0-0.43,0.04-0.86,0.11-1.27c0.08-0.43,0.18-0.85,0.33-1.27c0.14-0.42,0.31-0.81,0.51-1.18
		c0.2-0.37,0.43-0.72,0.71-1.05c0.26-0.32,0.55-0.61,0.88-0.87c0.33-0.27,0.68-0.5,1.08-0.7c0.79-0.41,1.68-0.61,2.69-0.61
		c0.79,0,1.56,0.15,2.29,0.46c0.35,0.15,0.67,0.35,0.98,0.56c0.3,0.23,0.58,0.5,0.84,0.78c0-0.11,0-0.23,0-0.33
		C125.26,15.2,125.27,15.09,125.28,14.97z M106.88,25.64c0.26,0,0.51-0.02,0.75-0.06c0.24-0.04,0.48-0.1,0.71-0.19
		c0.23-0.09,0.45-0.19,0.64-0.31c0.19-0.12,0.38-0.25,0.56-0.4c0.17-0.15,0.33-0.32,0.47-0.5c0.14-0.18,0.26-0.38,0.37-0.59
		c0.1-0.2,0.17-0.42,0.22-0.64c0.06-0.23,0.08-0.47,0.08-0.71c0-0.24-0.02-0.48-0.08-0.7c-0.05-0.23-0.12-0.45-0.22-0.66
		c-0.11-0.21-0.23-0.4-0.37-0.57c-0.13-0.18-0.3-0.34-0.47-0.5c-0.18-0.15-0.37-0.28-0.56-0.4c-0.2-0.12-0.41-0.22-0.64-0.31
		c-0.23-0.09-0.47-0.15-0.71-0.2c-0.24-0.04-0.5-0.05-0.75-0.05h-3.76v6.8H106.88z M105.57,17.08c0.44,0,0.87-0.08,1.31-0.23
		c0.22-0.07,0.42-0.15,0.61-0.25c0.19-0.1,0.37-0.21,0.55-0.33c0.16-0.13,0.32-0.27,0.45-0.43c0.13-0.15,0.26-0.32,0.37-0.51
		c0.1-0.18,0.17-0.37,0.23-0.58c0.05-0.2,0.07-0.4,0.07-0.62c0-0.2-0.02-0.4-0.06-0.6c-0.04-0.18-0.11-0.37-0.21-0.55
		c-0.09-0.16-0.2-0.32-0.33-0.47c-0.12-0.15-0.25-0.29-0.4-0.41c-0.16-0.13-0.32-0.25-0.49-0.34c-0.18-0.1-0.36-0.19-0.55-0.27
		c-0.2-0.07-0.41-0.11-0.61-0.15c-0.21-0.03-0.42-0.05-0.64-0.05h-2.71v5.8H105.57z M100.78,10.37c0-0.17,0.03-0.33,0.09-0.47
		c0.05-0.14,0.14-0.25,0.27-0.34c0.12-0.09,0.26-0.15,0.42-0.2c0.15-0.04,0.31-0.06,0.48-0.06h4.15c0.37,0,0.73,0.03,1.08,0.08
		c0.35,0.05,0.69,0.14,1.02,0.25c0.33,0.12,0.64,0.25,0.91,0.41c0.29,0.15,0.55,0.33,0.8,0.53c0.23,0.22,0.45,0.44,0.63,0.69
		c0.19,0.26,0.36,0.51,0.51,0.81c0.13,0.29,0.24,0.6,0.31,0.93c0.07,0.32,0.1,0.66,0.1,1.02c0,0.43-0.05,0.83-0.17,1.2
		c-0.1,0.37-0.28,0.71-0.51,1.04c-0.24,0.31-0.52,0.59-0.86,0.83c-0.34,0.25-0.73,0.45-1.16,0.61c0.32,0.02,0.62,0.07,0.91,0.15
		c0.3,0.07,0.57,0.17,0.83,0.3c0.26,0.12,0.5,0.27,0.73,0.43c0.23,0.17,0.44,0.34,0.63,0.54c0.18,0.2,0.34,0.42,0.48,0.65
		c0.15,0.23,0.28,0.48,0.39,0.74c0.09,0.27,0.17,0.54,0.22,0.81c0.05,0.28,0.08,0.55,0.08,0.85c0,0.39-0.04,0.77-0.12,1.14
		c-0.08,0.37-0.2,0.71-0.35,1.04c-0.15,0.33-0.33,0.64-0.54,0.92c-0.22,0.28-0.45,0.55-0.71,0.78c-0.26,0.25-0.54,0.47-0.85,0.65
		c-0.31,0.19-0.65,0.35-1.02,0.47c-0.37,0.15-0.75,0.24-1.13,0.31c-0.38,0.06-0.79,0.1-1.21,0.1h-6.42V10.37z M59.92,10.98
		c0-0.14,0.03-0.28,0.09-0.42c0.05-0.14,0.13-0.27,0.24-0.39c0.09-0.12,0.22-0.21,0.35-0.27c0.13-0.06,0.29-0.08,0.46-0.08
		c0.17,0,0.32,0.02,0.46,0.08c0.13,0.06,0.27,0.15,0.38,0.27c0.11,0.13,0.2,0.25,0.25,0.39c0.06,0.14,0.08,0.28,0.08,0.42
		l-0.03,3.05c0.09,0,0.2,0,0.3,0c0.12,0,0.24-0.01,0.37-0.02c0.13,0,0.27,0,0.41,0.02c0.13,0,0.26,0.02,0.38,0.03
		c0.12,0.02,0.23,0.06,0.34,0.11c0.1,0.05,0.2,0.1,0.29,0.17c0.08,0.06,0.14,0.15,0.18,0.27c0.04,0.11,0.05,0.25,0.05,0.4
		c0,0.15-0.02,0.27-0.05,0.38c-0.04,0.11-0.11,0.2-0.18,0.26c-0.1,0.06-0.19,0.12-0.29,0.17c-0.1,0.05-0.22,0.08-0.34,0.09
		c-0.12,0.03-0.24,0.04-0.37,0.06c-0.12,0.01-0.25,0.01-0.39,0c-0.14,0-0.26,0-0.38,0c-0.11,0-0.21,0-0.3,0V27.6h-2.28V15.94
		c-0.1,0-0.2,0-0.32,0c-0.12,0-0.24,0-0.37,0c-0.12,0.01-0.24,0.01-0.36,0c-0.12-0.02-0.23-0.03-0.35-0.06
		c-0.12-0.01-0.23-0.04-0.33-0.09c-0.1-0.05-0.19-0.1-0.27-0.17c-0.08-0.06-0.15-0.15-0.18-0.26c-0.04-0.11-0.07-0.23-0.07-0.38
		c0-0.14,0.03-0.27,0.07-0.37c0.03-0.11,0.1-0.2,0.18-0.27c0.07-0.06,0.15-0.12,0.24-0.17c0.1-0.05,0.21-0.08,0.33-0.1
		c0.1-0.02,0.23-0.05,0.34-0.06c0.12-0.02,0.24-0.02,0.37-0.02c0.12,0.02,0.24,0.02,0.36,0.02c0.11,0,0.22,0,0.32,0V10.98z
		 M54,10.17c0.09-0.09,0.2-0.15,0.32-0.2c0.11-0.03,0.24-0.06,0.39-0.06c0.13,0,0.25,0.03,0.36,0.06c0.11,0.05,0.22,0.11,0.32,0.2
		c0.09,0.08,0.17,0.18,0.22,0.28c0.06,0.11,0.08,0.22,0.08,0.35c0,0.13-0.02,0.24-0.05,0.34c-0.05,0.11-0.12,0.2-0.22,0.29
		c-0.1,0.08-0.2,0.16-0.32,0.2c-0.12,0.05-0.25,0.08-0.39,0.08c-0.12,0-0.25-0.03-0.36-0.08c-0.12-0.05-0.22-0.12-0.32-0.2
		c-0.09-0.09-0.17-0.18-0.22-0.29c-0.05-0.1-0.07-0.2-0.07-0.32c0-0.13,0.02-0.24,0.06-0.36C53.83,10.36,53.9,10.26,54,10.17z
		 M53.59,14.9c0-0.17,0.03-0.32,0.09-0.44c0.05-0.13,0.15-0.25,0.27-0.35c0.12-0.09,0.25-0.17,0.39-0.22
		c0.15-0.05,0.3-0.07,0.46-0.07c0.15,0,0.29,0.02,0.42,0.08c0.13,0.04,0.25,0.13,0.37,0.25c0.09,0.12,0.16,0.23,0.22,0.34
		c0.05,0.13,0.08,0.25,0.08,0.4v12.73h-2.29V14.9z M47.28,25.39c0.26-0.14,0.49-0.3,0.7-0.48c0.21-0.18,0.4-0.38,0.56-0.59
		c0.16-0.22,0.31-0.45,0.43-0.69c0.12-0.25,0.22-0.51,0.3-0.79c0.07-0.28,0.12-0.56,0.15-0.85c0.05-0.3,0.06-0.58,0.06-0.87
		c0-0.59-0.05-1.2-0.17-1.83c-0.05-0.32-0.12-0.61-0.22-0.9c-0.1-0.28-0.21-0.55-0.35-0.8c-0.15-0.25-0.32-0.49-0.52-0.7
		c-0.19-0.22-0.42-0.41-0.67-0.57c-0.27-0.17-0.56-0.29-0.88-0.36c-0.32-0.08-0.68-0.12-1.08-0.12c-0.35,0-0.68,0.04-0.98,0.11
		c-0.3,0.08-0.58,0.18-0.84,0.33c-0.26,0.15-0.5,0.32-0.71,0.51c-0.22,0.2-0.41,0.42-0.57,0.65c-0.18,0.24-0.33,0.49-0.45,0.75
		c-0.12,0.26-0.22,0.54-0.28,0.83c-0.17,0.58-0.25,1.16-0.25,1.75c0,0.28,0.02,0.56,0.05,0.85c0.04,0.29,0.09,0.58,0.16,0.87
		c0.07,0.31,0.16,0.59,0.27,0.86c0.12,0.27,0.25,0.52,0.42,0.76c0.15,0.24,0.33,0.46,0.53,0.66c0.2,0.2,0.43,0.38,0.69,0.53
		c0.25,0.17,0.51,0.29,0.82,0.37c0.3,0.08,0.63,0.12,1,0.12c0.35,0,0.68-0.03,0.98-0.1C46.75,25.64,47.02,25.53,47.28,25.39z
		 M49.48,8.16h2.31v18.6c0,0.14-0.03,0.27-0.08,0.39c-0.05,0.13-0.14,0.24-0.25,0.34c-0.12,0.12-0.25,0.2-0.38,0.26
		c-0.13,0.05-0.28,0.08-0.43,0.08c-0.17,0-0.32-0.02-0.45-0.06c-0.12-0.03-0.22-0.1-0.31-0.17c-0.16-0.12-0.27-0.3-0.32-0.53
		c-0.04-0.1-0.07-0.21-0.09-0.33c-0.01-0.12-0.02-0.23-0.02-0.36c0-0.13,0-0.25,0-0.37c0-0.11,0-0.23,0-0.34
		c-0.23,0.34-0.5,0.65-0.81,0.91c-0.31,0.27-0.65,0.49-1.02,0.66c-0.36,0.19-0.75,0.33-1.16,0.43c-0.4,0.08-0.82,0.13-1.26,0.13
		c-0.49,0-0.95-0.05-1.39-0.15c-0.44-0.1-0.85-0.26-1.22-0.47c-0.38-0.21-0.73-0.44-1.05-0.71c-0.32-0.26-0.6-0.55-0.86-0.89
		c-0.26-0.33-0.49-0.68-0.69-1.05c-0.2-0.37-0.37-0.77-0.51-1.18c-0.13-0.43-0.23-0.84-0.3-1.24c-0.07-0.42-0.11-0.82-0.11-1.22
		c0-0.45,0.04-0.88,0.11-1.32c0.07-0.43,0.18-0.86,0.33-1.28c0.13-0.42,0.32-0.81,0.51-1.2c0.21-0.37,0.44-0.73,0.71-1.06
		c0.25-0.33,0.56-0.63,0.89-0.9c0.33-0.27,0.7-0.5,1.1-0.7c0.39-0.18,0.82-0.33,1.28-0.44c0.45-0.1,0.95-0.15,1.46-0.15
		c0.42,0,0.83,0.04,1.21,0.13c0.38,0.09,0.75,0.22,1.11,0.38c0.35,0.18,0.66,0.4,0.96,0.65c0.28,0.25,0.52,0.55,0.73,0.9V8.16z
		 M34.86,20c-0.02-0.25-0.04-0.51-0.09-0.76c-0.05-0.26-0.12-0.52-0.21-0.79c-0.1-0.25-0.2-0.5-0.33-0.73
		c-0.12-0.23-0.26-0.46-0.43-0.67c-0.16-0.2-0.35-0.39-0.55-0.56c-0.2-0.17-0.42-0.32-0.65-0.46c-0.23-0.12-0.48-0.22-0.75-0.29
		c-0.27-0.06-0.55-0.09-0.85-0.09c-0.34,0-0.66,0.03-0.95,0.09c-0.3,0.07-0.56,0.17-0.79,0.29c-0.23,0.13-0.45,0.27-0.64,0.44
		c-0.2,0.16-0.37,0.35-0.53,0.55c-0.15,0.2-0.29,0.42-0.41,0.65c-0.12,0.23-0.23,0.48-0.32,0.75c-0.1,0.26-0.18,0.53-0.23,0.78
		c-0.06,0.26-0.11,0.53-0.15,0.79H34.86z M27.36,23.28c0.11,0.27,0.23,0.51,0.39,0.73c0.15,0.22,0.32,0.42,0.51,0.61
		c0.19,0.19,0.4,0.37,0.63,0.51c0.22,0.15,0.47,0.28,0.73,0.4c0.25,0.11,0.52,0.21,0.81,0.27c0.28,0.05,0.58,0.1,0.9,0.1
		c0.26,0,0.51-0.02,0.76-0.05c0.25-0.02,0.5-0.07,0.76-0.13c0.27-0.05,0.52-0.11,0.76-0.18c0.25-0.05,0.48-0.12,0.71-0.18l0.52,1.71
		c-0.32,0.11-0.61,0.22-0.91,0.32c-0.28,0.1-0.56,0.17-0.83,0.25c-0.29,0.07-0.58,0.13-0.88,0.17c-0.3,0.04-0.63,0.06-0.96,0.06
		c-0.55,0-1.05-0.06-1.53-0.15c-0.48-0.1-0.93-0.24-1.35-0.43c-0.84-0.38-1.55-0.89-2.12-1.52c-0.29-0.33-0.53-0.67-0.76-1.05
		c-0.22-0.37-0.4-0.78-0.55-1.21c-0.15-0.42-0.27-0.85-0.34-1.3c-0.08-0.46-0.12-0.92-0.12-1.39c0-0.44,0.04-0.88,0.12-1.31
		c0.08-0.43,0.2-0.85,0.34-1.27c0.15-0.42,0.33-0.81,0.57-1.19c0.22-0.37,0.48-0.71,0.76-1.03c0.28-0.31,0.6-0.61,0.94-0.87
		c0.35-0.26,0.72-0.48,1.13-0.68c0.39-0.2,0.82-0.33,1.28-0.43c0.45-0.1,0.93-0.15,1.44-0.15c0.48,0,0.94,0.05,1.38,0.14
		c0.43,0.1,0.84,0.24,1.24,0.42c0.38,0.19,0.73,0.41,1.06,0.67c0.33,0.25,0.63,0.52,0.9,0.83c0.52,0.63,0.93,1.35,1.23,2.13
		c0.15,0.4,0.26,0.8,0.33,1.21c0.07,0.41,0.11,0.83,0.11,1.24c0,0.24-0.02,0.45-0.08,0.61c-0.06,0.17-0.15,0.28-0.27,0.36
		c-0.13,0.07-0.28,0.13-0.45,0.17c-0.18,0.04-0.39,0.06-0.64,0.06h-8.81C27.03,22.24,27.14,22.77,27.36,23.28z M18.68,14.95
		c0-0.16,0.03-0.3,0.08-0.42c0.05-0.13,0.15-0.24,0.27-0.35c0.24-0.2,0.52-0.3,0.81-0.3c0.14,0,0.28,0.02,0.41,0.06
		c0.14,0.04,0.26,0.1,0.38,0.2c0.13,0.09,0.22,0.19,0.28,0.3c0.07,0.11,0.1,0.25,0.1,0.38c0,0.12,0,0.23-0.01,0.33
		c0,0.1-0.01,0.21-0.02,0.31c-0.02,0.12-0.03,0.23-0.03,0.33c-0.01,0.1-0.02,0.21-0.03,0.33c0.04-0.13,0.1-0.26,0.17-0.39
		c0.07-0.13,0.15-0.27,0.25-0.4c0.1-0.14,0.19-0.28,0.3-0.41c0.1-0.13,0.2-0.24,0.33-0.36c0.12-0.12,0.24-0.22,0.37-0.31
		c0.13-0.08,0.26-0.17,0.41-0.25c0.15-0.07,0.3-0.12,0.45-0.15c0.15-0.04,0.3-0.05,0.45-0.05c0.18,0,0.34,0.02,0.51,0.07
		c0.16,0.05,0.3,0.14,0.45,0.26c0.12,0.11,0.22,0.24,0.28,0.38c0.07,0.13,0.1,0.29,0.1,0.46c0,0.14-0.03,0.26-0.08,0.37
		c-0.05,0.12-0.12,0.21-0.22,0.28c-0.1,0.08-0.21,0.15-0.33,0.21c-0.12,0.07-0.26,0.13-0.4,0.2c-0.15,0.07-0.3,0.13-0.45,0.21
		c-0.15,0.08-0.33,0.17-0.5,0.25c-0.18,0.09-0.35,0.19-0.51,0.32c-0.17,0.12-0.32,0.26-0.47,0.42c-0.15,0.17-0.28,0.35-0.4,0.56
		c-0.13,0.21-0.23,0.45-0.33,0.71c-0.1,0.27-0.17,0.58-0.22,0.94C21.02,19.79,21,20.18,21,20.61v7.02l-2.32,0.02V14.95z M2.72,15.02
		c0.18-0.57,0.41-1.11,0.68-1.64c0.27-0.51,0.59-0.99,0.95-1.44c0.71-0.89,1.61-1.6,2.69-2.13c0.54-0.27,1.14-0.47,1.78-0.6
		c0.64-0.14,1.32-0.2,2.06-0.2c0.27,0,0.55,0.02,0.83,0.05c0.28,0.03,0.57,0.09,0.85,0.15c0.28,0.06,0.57,0.15,0.84,0.25
		c0.28,0.1,0.54,0.21,0.8,0.34c0.25,0.12,0.5,0.27,0.75,0.42c0.24,0.16,0.47,0.33,0.69,0.52c0.2,0.19,0.39,0.39,0.56,0.6
		c0.17,0.21,0.32,0.43,0.43,0.67l-1.36,1.14c-0.18-0.17-0.35-0.32-0.51-0.47c-0.18-0.15-0.34-0.28-0.49-0.43
		c-0.16-0.12-0.33-0.24-0.5-0.34c-0.16-0.11-0.33-0.2-0.5-0.29c-0.18-0.09-0.36-0.17-0.55-0.23c-0.19-0.06-0.39-0.12-0.59-0.17
		c-0.2-0.03-0.43-0.07-0.66-0.09c-0.24-0.03-0.49-0.04-0.75-0.04c-0.53,0-1.03,0.05-1.49,0.17c-0.46,0.11-0.88,0.28-1.26,0.5
		c-0.38,0.21-0.72,0.47-1.04,0.75c-0.31,0.29-0.59,0.6-0.84,0.95c-0.24,0.36-0.46,0.73-0.63,1.12c-0.18,0.4-0.33,0.81-0.45,1.24
		c-0.12,0.45-0.22,0.88-0.27,1.32c-0.05,0.44-0.09,0.87-0.09,1.3c0,0.44,0.03,0.88,0.1,1.33c0.06,0.45,0.15,0.89,0.28,1.34
		c0.24,0.89,0.62,1.68,1.14,2.36c0.52,0.68,1.16,1.25,1.95,1.68c0.4,0.22,0.83,0.37,1.3,0.48c0.48,0.11,0.98,0.15,1.52,0.15
		c0.36,0,0.69-0.03,1.01-0.06c0.31-0.04,0.6-0.1,0.87-0.2c0.26-0.09,0.51-0.18,0.73-0.27c0.24-0.09,0.45-0.18,0.65-0.29
		c0.2-0.1,0.37-0.2,0.53-0.29c0.17-0.1,0.31-0.19,0.45-0.27c0.14-0.09,0.26-0.15,0.39-0.2c0.12-0.03,0.23-0.06,0.32-0.06
		c0.15,0,0.29,0.03,0.42,0.08c0.13,0.06,0.25,0.14,0.34,0.25c0.09,0.11,0.17,0.23,0.22,0.36c0.05,0.13,0.08,0.27,0.08,0.4
		c0,0.17-0.03,0.32-0.1,0.46c-0.07,0.14-0.16,0.26-0.29,0.35c-0.13,0.12-0.27,0.23-0.4,0.31c-0.13,0.1-0.26,0.19-0.38,0.28
		c-0.34,0.22-0.71,0.4-1.09,0.55c-0.39,0.15-0.81,0.27-1.25,0.36c-0.44,0.09-0.88,0.16-1.31,0.21c-0.42,0.05-0.83,0.08-1.24,0.08
		c-0.7,0-1.36-0.07-1.98-0.2c-0.62-0.12-1.21-0.32-1.75-0.57c-0.55-0.24-1.05-0.53-1.51-0.87c-0.46-0.33-0.87-0.72-1.24-1.13
		c-0.37-0.43-0.7-0.88-0.98-1.37c-0.29-0.49-0.52-1.02-0.71-1.58c-0.38-1.12-0.57-2.29-0.57-3.51c0-0.63,0.05-1.23,0.14-1.83
		C2.41,16.2,2.55,15.6,2.72,15.02z"/>
	<path id="XMLID_156_" class="st2" d="M97.72,25.42c0.25,0.91-0.3,1.84-1.21,2.09l-21.46,5.73c-0.91,0.25-1.84-0.29-2.09-1.2
		l-5.74-21.47c-0.25-0.91,0.29-1.84,1.2-2.09L89.9,2.76c0.91-0.25,1.84,0.29,2.09,1.2L97.72,25.42z"/>
	<path id="XMLID_155_" class="st3" d="M79.22,5.39l1.77,6.35c0,0,0.18,0.66,0.83,0.39c0,0,3.07-1.01,4.9-0.51
		c0,0,2.57,0.25,4.19,2.73c0,0,1.9,3.27,0.76,6.28c0,0-0.81,2.73-3.88,3.59l-5.78,1.43c0,0-1.48,0.41-2.02-0.82l-0.15-0.55l0-0.01
		l-0.13-0.46c-0.15-1.41,1.35-1.63,1.35-1.63l5.47-1.27c0,0,2.38-0.27,1.66-3.49c0,0-0.65-3.12-3.82-2.41l-5.4,1.33
		c0,0-1.05,0.24-1.24-0.83l-2.48-9.06L79.22,5.39z"/>
	<path id="XMLID_154_" class="st3" d="M88.47,28.93l-5.75,1.53c-1.45,0.35-2.69,0.11-3.62-0.25c-0.89-0.27-2.31-0.93-3.36-2.49
		c0,0-1.96-3.25-0.86-6.26c0,0,0.77-2.75,3.83-3.64l5.75-1.5c0,0,1.48-0.42,2.05,0.8l0.15,0.55l0.01,0.01l0.13,0.46
		c0.17,1.41-1.33,1.64-1.33,1.64l-5.45,1.33c0,0-2.38,0.3-1.61,3.51c0,0,0.64,2.89,3.54,2.42l0.01,0h0l5.39-1.53
		c0,0,1.41-0.53,2.06,0.75l0.15,0.46l0.01,0.01l0.17,0.54C89.97,28.58,88.47,28.93,88.47,28.93z"/>
	<path id="XMLID_153_" class="st1" d="M97.97,25.53l-0.26,0.07c0.03,0.13,0.05,0.26,0.05,0.38c0,0.64-0.43,1.23-1.09,1.41
		l-21.8,5.83c-0.13,0.04-0.26,0.05-0.38,0.05c-0.64,0-1.23-0.43-1.41-1.08l-5.84-21.8c-0.03-0.14-0.05-0.26-0.05-0.39
		c0-0.65,0.43-1.23,1.09-1.41l21.8-5.84c0.13-0.03,0.25-0.05,0.38-0.05c0.64,0,1.23,0.43,1.4,1.08l5.83,21.8L97.97,25.53l0.27-0.07
		L92.4,3.66c-0.24-0.9-1.05-1.48-1.93-1.48c-0.17,0-0.35,0.03-0.52,0.07l-21.8,5.83c-0.9,0.25-1.49,1.05-1.49,1.93
		c0,0.17,0.02,0.35,0.07,0.52l5.83,21.8c0.24,0.89,1.05,1.48,1.93,1.48c0.17,0,0.35-0.03,0.52-0.07l21.8-5.83
		c0.9-0.24,1.49-1.05,1.49-1.93c0-0.17-0.02-0.34-0.07-0.52L97.97,25.53z"/>
</g>
</svg>
