<svg xmlns="http://www.w3.org/2000/svg" xmlns:xlink="http://www.w3.org/1999/xlink" width="209.009" height="199.341" viewBox="0 0 209.009 199.341">
  <defs>
    <linearGradient id="linear-gradient" x1="0.5" x2="0.5" y2="1" gradientUnits="objectBoundingBox">
      <stop offset="0" stop-color="#00abfb"/>
      <stop offset="1" stop-color="#00ffbf"/>
    </linearGradient>
  </defs>
  <g id="Data_Analyst-icon" data-name="Data Analyst-icon" transform="translate(-1463 -5917.167)">
    <path id="Path_10233" data-name="Path 10233" d="M106.587,6.857c72.478,8.943,82.635,37.377,99.026,97.409s-27.574,106.056-109.9,100.371S0,163.132,0,104.265,34.11-2.087,106.587,6.857Z" transform="translate(1463 5911.397)" fill="#f6f9fd"/>
    <g id="data-analysis" transform="translate(1517.302 5961)">
      <path id="Path_10260" data-name="Path 10260" d="M60.566,13.65a1.594,1.594,0,0,1-1.175-.517A29.464,29.464,0,0,0,56.2,10.124a1.595,1.595,0,1,1,2.005-2.48,32.919,32.919,0,0,1,3.531,3.328,1.594,1.594,0,0,1-1.173,2.672Z" transform="translate(19.885 1.123)" fill="url(#linear-gradient)"/>
      <path id="Path_10261" data-name="Path 10261" d="M55.226,113.588a1.594,1.594,0,0,1-.8-.212,40.61,40.61,0,0,1-11.509-10.45,11.247,11.247,0,0,0-8.448-4.691,67.631,67.631,0,0,1-10.659-1.516,6.311,6.311,0,0,1-4.733-7.846l1.532-5.587-.767-.22a3.593,3.593,0,0,1-1.753-5.761l.041-.051a6.8,6.8,0,0,1-1.817-3.792,7.516,7.516,0,0,1,.579-3.834,66.6,66.6,0,0,1-6.454-3.08,4.2,4.2,0,0,1-1.549-5.93l8-12.884C16.519,32.17,20.5,20.259,28.742,12.327,39.938,1.548,54.918,2.011,56.6,2.1A48.03,48.03,0,0,1,75.779,4.85a1.594,1.594,0,1,1-1.1,2.99A45.149,45.149,0,0,0,56.788,5.285a1.447,1.447,0,0,1-.263,0c-.148,0-15.015-.85-25.593,9.36C23.3,22.01,19.655,33.272,20.093,48.118a1.594,1.594,0,0,1-.241.889L11.6,62.3a1.025,1.025,0,0,0-.126.816.984.984,0,0,0,.478.623A59.951,59.951,0,0,0,19.7,67.3a1.594,1.594,0,0,1,.712,2.477,4.081,4.081,0,0,0,.877,6.057,1.594,1.594,0,0,1,.258,2.283l-1.02,1.227a.4.4,0,0,0-.081.387.378.378,0,0,0,.266.266L23,80.646a1.594,1.594,0,0,1,1.1,1.953l-1.945,7.109A3.123,3.123,0,0,0,24.488,93.6a64.449,64.449,0,0,0,10.155,1.447A14.464,14.464,0,0,1,45.5,101.069a37.887,37.887,0,0,0,10.068,9.266c12.682-1.635,23.137-6.26,31.1-13.753l-3.548-8.4c-4.219-10.857,1.889-16.718,2.15-16.962,10.579-9.774,11.016-18.406,11.019-18.49a84.463,84.463,0,0,0,.429-8.885A1.594,1.594,0,0,1,98.3,42.249h.01a1.594,1.594,0,0,1,1.594,1.594,87.3,87.3,0,0,1-.437,9.108c0,.285-.386,9.862-12.03,20.62-.183.175-4.755,4.705-1.366,13.426l3.967,9.36a1.594,1.594,0,0,1-.349,1.753c-8.681,8.55-20.212,13.751-34.271,15.462a1.6,1.6,0,0,1-.194.016Z" transform="translate(-8.248 -2.012)" fill="url(#linear-gradient)"/>
      <path id="Path_10262" data-name="Path 10262" d="M64.848,23.528a1.594,1.594,0,0,1-1.538-1.181,36.65,36.65,0,0,0-1.634-4.782,1.594,1.594,0,0,1,2.936-1.243,40.033,40.033,0,0,1,1.777,5.2,1.594,1.594,0,0,1-1.127,1.953,1.618,1.618,0,0,1-.414.056Z" transform="translate(23.413 5.91)" fill="url(#linear-gradient)"/>
      <path id="Path_10263" data-name="Path 10263" d="M62.341,34.416H41.913a1.594,1.594,0,0,1-1.594-1.594V12.6a1.594,1.594,0,0,1,1.835-1.576A25.915,25.915,0,0,1,63.915,32.568a1.594,1.594,0,0,1-1.573,1.847ZM43.507,31.228H60.39a22.716,22.716,0,0,0-16.883-16.7Z" transform="translate(10.802 3.332)" fill="url(#linear-gradient)"/>
      <path id="Path_10264" data-name="Path 10264" d="M48.689,62.833a26.055,26.055,0,0,1-3.943-51.8,1.594,1.594,0,0,1,1.83,1.576V36.527a2.1,2.1,0,0,0,.615,1.5l17.242,17.24a1.594,1.594,0,0,1-.174,2.405,25.864,25.864,0,0,1-15.57,5.163Zm-5.3-48.3A22.867,22.867,0,1,0,60.823,56.162L44.939,40.278a5.26,5.26,0,0,1-1.549-3.749Z" transform="translate(0.32 3.334)" fill="url(#linear-gradient)"/>
      <path id="Path_10265" data-name="Path 10265" d="M56.075,42.4a1.594,1.594,0,0,1-1.127-.467L44.074,31.065A1.594,1.594,0,0,1,45.2,28.344H60.457a1.594,1.594,0,0,1,1.578,1.814A25.886,25.886,0,0,1,57.358,41.74a1.594,1.594,0,0,1-1.164.654ZM49.061,31.532l6.77,6.768a22.765,22.765,0,0,0,2.727-6.768Z" transform="translate(12.755 13.629)" fill="url(#linear-gradient)"/>
    </g>
  </g>
</svg>
