<svg xmlns="http://www.w3.org/2000/svg" xmlns:xlink="http://www.w3.org/1999/xlink" width="209.009" height="199.341" viewBox="0 0 209.009 199.341">
  <defs>
    <linearGradient id="linear-gradient" x1="0.92" y1="0.868" x2="0.172" y2="0.121" gradientUnits="objectBoundingBox">
      <stop offset="0" stop-color="#00abfb"/>
      <stop offset="1" stop-color="#00ffbf"/>
    </linearGradient>
  </defs>
  <g id="Data_Scientist-icon" data-name="Data Scientist-icon" transform="translate(-1463 -5410.167)">
    <path id="Path_10230" data-name="Path 10230" d="M106.587,6.857c72.478,8.943,82.635,37.377,99.026,97.409s-27.574,106.056-109.9,100.371S0,163.132,0,104.265,34.11-2.087,106.587,6.857Z" transform="translate(1463 5404.397)" fill="#f6f9fd"/>
    <path id="ai" d="M19.843,33.816A10.986,10.986,0,0,0,8.872,44.79a1.2,1.2,0,1,1-2.407,0A13.4,13.4,0,0,1,19.843,31.409a1.2,1.2,0,0,1,0,2.407ZM2.407,44.79a17.351,17.351,0,0,1,8.217-14.8,1.2,1.2,0,0,0,.444-1.55,9.443,9.443,0,0,1,8-13.595,1.2,1.2,0,0,0,1.14-1.2v-.055A11.306,11.306,0,0,1,40.756,7.109a1.2,1.2,0,0,0,1.967-1.388,13.714,13.714,0,0,0-24.885,6.834A11.87,11.87,0,0,0,7.693,24.3a11.709,11.709,0,0,0,.787,4.231A19.73,19.73,0,0,0,0,44.79a1.2,1.2,0,1,0,2.407,0Zm1.016,5.878a1.2,1.2,0,0,0-2.266.816c.206.579.445,1.156.706,1.714a1.2,1.2,0,0,0,2.18-1.026c-.23-.488-.438-.994-.62-1.5ZM38.494,13.882a6.985,6.985,0,1,0-13.97,0,1.2,1.2,0,1,0,2.407,0,4.578,4.578,0,0,1,9.156,0,1.2,1.2,0,1,0,2.407,0Zm-13.3,26.342a1.2,1.2,0,1,0,0,2.407A8.338,8.338,0,0,0,33.519,34.3V30.414a8.338,8.338,0,0,0-8.328-8.328h-.516a1.2,1.2,0,1,0,0,2.407h.516a5.927,5.927,0,0,1,5.921,5.921V34.3a5.927,5.927,0,0,1-5.921,5.921Zm7.134,14.531a1.2,1.2,0,0,0,0-2.407H25.448a6.971,6.971,0,0,1-6.964-6.964,1.2,1.2,0,1,0-2.407,0,9.382,9.382,0,0,0,9.371,9.371ZM37.912,70.23a1.2,1.2,0,0,0-1.2-1.2,8.607,8.607,0,0,1-8.6-8.6,1.2,1.2,0,0,0-2.407,0,11.017,11.017,0,0,0,11,11,1.2,1.2,0,0,0,1.206-1.2ZM19.273,68.9a1.259,1.259,0,0,0,.18.013,1.2,1.2,0,0,0,.177-2.394,3.684,3.684,0,0,1-3.095-4.184,1.2,1.2,0,1,0-2.38-.357A6.1,6.1,0,0,0,19.276,68.9ZM31.81,81.639a1.2,1.2,0,1,0,0-2.407,5.164,5.164,0,0,1-5.158-5.158,1.2,1.2,0,1,0-2.407,0A7.574,7.574,0,0,0,31.81,81.639ZM88.035,53.165a4.772,4.772,0,1,1-8.883-2.407L63.894,35.5H45.221v7.222H52.4a4.77,4.77,0,1,1,.059,2.407H45.221v7.222H65.5a4.772,4.772,0,1,1,0,2.407H45.221v7.222H57.933a4.772,4.772,0,1,1,0,2.407H45.221v7.222H58.977a1.2,1.2,0,0,1,.946.459l5.447,6.923a4.784,4.784,0,1,1-1.848,1.544l-5.129-6.519H45.221v.215a13.713,13.713,0,0,1-27.384,1.063,11.857,11.857,0,0,1-9.8-14.553,19.954,19.954,0,0,1-2.257-1.955,1.2,1.2,0,1,1,1.706-1.7A17.522,17.522,0,0,0,10.1,59.25a1.2,1.2,0,0,1,.471,1.37A9.453,9.453,0,0,0,19.065,73a1.2,1.2,0,0,1,1.14,1.2v.056a11.306,11.306,0,1,0,22.611-.027V13.618a1.2,1.2,0,0,1,2.407,0v1.82H63.894l4.722-4.722A4.784,4.784,0,1,1,70.4,12.331l-5.158,5.158a1.2,1.2,0,0,1-.851.353H45.221v5.387H78.652a4.772,4.772,0,1,1,0,2.407H45.221V33.09H64.393a1.2,1.2,0,0,1,.851.353L80.856,49.055a4.762,4.762,0,0,1,7.179,4.109ZM80.9,24.436a2.365,2.365,0,1,0,2.364-2.364A2.365,2.365,0,0,0,80.9,24.436ZM70.239,8.1A2.365,2.365,0,1,0,72.6,5.737,2.365,2.365,0,0,0,70.239,8.1ZM67.4,80.934A2.365,2.365,0,1,0,69.766,83.3,2.365,2.365,0,0,0,67.4,80.934ZM60.18,63.18a2.365,2.365,0,1,0,2.364-2.364A2.365,2.365,0,0,0,60.18,63.18Zm7.566-9.629a2.364,2.364,0,1,0,2.364-2.364,2.364,2.364,0,0,0-2.364,2.364ZM54.674,43.808a2.365,2.365,0,1,0,2.364-2.366,2.365,2.365,0,0,0-2.364,2.366Zm30.954,9.354a2.365,2.365,0,1,0-2.365,2.365,2.365,2.365,0,0,0,2.365-2.365ZM84.467,35.8A4.771,4.771,0,1,1,79.7,31.025,4.771,4.771,0,0,1,84.467,35.8Zm-2.407,0A2.364,2.364,0,1,0,79.7,38.16,2.364,2.364,0,0,0,82.06,35.8Zm2.407,32.7A4.771,4.771,0,1,1,79.7,63.729,4.771,4.771,0,0,1,84.467,68.5Zm-2.407,0A2.364,2.364,0,1,0,79.7,70.864,2.364,2.364,0,0,0,82.06,68.5Z" transform="translate(1519.974 5466.116)" fill="url(#linear-gradient)"/>
  </g>
</svg>
