<svg xmlns="http://www.w3.org/2000/svg" viewBox="0 0 162.2 64.5">
  <g>
    <path d="M479.35,518.91v2.46h-.24a.93.93,0,0,1-.69-.25l-.05,0a1.31,1.31,0,0,1-.89.29,1.56,1.56,0,1,1,0-3.12,2.06,2.06,0,0,1,1,.28,2.21,2.21,0,0,0,.93.3m-1.08.44a.87.87,0,0,0-.58-.2.74.74,0,0,0,0,1.49.87.87,0,0,0,.57-.17Zm-3-1.32a1,1,0,0,1-.45.87l-.08.06.1,0a1.15,1.15,0,0,1,.82,1.12c0,.68-.54,1.26-1.67,1.26h-2.05v-4.51h1.79c1.06,0,1.55.53,1.55,1.16m-.69,1.94c0-.31-.24-.54-.66-.54h-1v1.09h1c.42,0,.66-.22.66-.55m-.38-1.8c0-.28-.2-.45-.54-.45H473v.9h.7c.34,0,.54-.17.54-.45m6.67,3.21h-1.08v-2.46a3.39,3.39,0,0,0,1.15-.33,3.72,3.72,0,0,1,1-.25c.88,0,1.14.43,1.14,1v2H482v-1.72c0-.35-.2-.46-.5-.46a1.67,1.67,0,0,0-.64.18Zm3.8,0h-1.06V517l1.06-.34v2.78c.47,0,.65-.1.74-.28a1,1,0,0,0,0-.72h1.08a1.24,1.24,0,0,1-.6,1.54l-.05,0,1,1.36h-1.2l-.81-1.11h-.14Zm-27.95-3.67h-1.08v-.83h1.08Zm-5.49,1.65a.87.87,0,0,0-.58-.2.74.74,0,0,0,0,1.49.86.86,0,0,0,.56-.17Zm1.09-.44v2.46h-.24a.94.94,0,0,1-.69-.25l-.05,0a1.3,1.3,0,0,1-.89.29,1.56,1.56,0,1,1,0-3.12,2.06,2.06,0,0,1,.95.28,2.22,2.22,0,0,0,.93.3M469,521.38v-4.44l1.08-.34v4.78Zm-6.76,0h-1.08v-2.46a3.37,3.37,0,0,0,1.15-.33,3.75,3.75,0,0,1,1-.25c.88,0,1.14.43,1.14,1v2h-1.08v-1.72c0-.35-.21-.46-.5-.46a1.64,1.64,0,0,0-.64.18Zm-5.59-3.1v3.1H455.6v-2.77Zm2.31.88a.74.74,0,1,0,.71.74.66.66,0,0,0-.71-.74m0,2.3c-1.24,0-1.8-.63-1.8-1.56s.55-1.56,1.8-1.56,1.8.63,1.8,1.56-.56,1.56-1.8,1.56m-5.15-2.22v.59c0,.71.16.82.66.82a1.71,1.71,0,0,0,.5-.12v.74a2.68,2.68,0,0,1-.91.19c-1.19,0-1.34-.55-1.34-1.48v-2.32l1.08-.34v1.09H455v.83Zm-5.7,2.15a1,1,0,0,1-.72-.3l-1.41-1.4-.71-.71a4,4,0,0,1-.33-.38l0,0v2.77h-1v-4.51h.34a1,1,0,0,1,.73.3l1.41,1.4.7.7a4.19,4.19,0,0,1,.33.38l0-2.78h1v4.51Zm19.19-2a.87.87,0,0,0-.58-.2.74.74,0,0,0,0,1.49.87.87,0,0,0,.57-.17Zm1.08-.44v2.46h-.24a.94.94,0,0,1-.69-.25l-.05,0a1.3,1.3,0,0,1-.89.29,1.56,1.56,0,1,1,0-3.12,2.05,2.05,0,0,1,.95.28,2.22,2.22,0,0,0,.93.3m-39.29,2.46H428V518c0-.63.49-1.16,1.55-1.16h2v.85h-2a.47.47,0,0,0-.52.31v.64h2.35v.94h-2.35Zm7-2a3.37,3.37,0,0,0-1.1.26l0,1.77h-1.07v-2.46a1.85,1.85,0,0,0,1.1-.13,4.82,4.82,0,0,1,1.09-.45Zm.3,1.15a5.18,5.18,0,0,0,1.34.25c.29,0,.48-.08.48-.22s-.09-.13-.16-.17l-.27-.09-.51-.12a3.17,3.17,0,0,1-.48-.17.76.76,0,0,1-.46-.71c0-.58.66-1,1.57-1a5.84,5.84,0,0,1,1.27.17v.7a6.36,6.36,0,0,0-1.11-.15c-.27,0-.46.06-.46.23s.07.12.13.15a1.22,1.22,0,0,0,.26.07c.78.17,1.48.39,1.48,1s-.6,1-1.62,1a5,5,0,0,1-1.46-.24Zm4.55-1.27v.59c0,.71.16.82.65.82a1.7,1.7,0,0,0,.5-.12v.74a2.66,2.66,0,0,1-.9.19c-1.19,0-1.34-.55-1.34-1.48v-2.32l1.09-.34v1.09h1.11v.83Zm-7.67-1v3.1h-1.08v-2.77Zm0-.57h-1.08v-.83h1.08Z" transform="translate(-339.7 -463.21)" fill="#0b999a"/>
    <path d="M480.76,497.11c0-1.26-.9-2.06-2.45-2.06h-3.43v4.12h3.43c1.55,0,2.45-.79,2.45-2.06m1.76,8.28c0-1.43-1.1-2.47-3-2.47h-4.63v5h4.63c1.9,0,3-1,3-2.51m3.14-8.89a4.74,4.74,0,0,1-2.07,4l-.38.27.45.18a5.27,5.27,0,0,1,3.76,5.12c0,3.12-2.49,5.77-7.67,5.77h-9.64V491.17h8.43c4.87,0,7.11,2.44,7.11,5.33M433,511.82h-5V496.5c0-2.88,2.24-5.33,7.11-5.33h9.79l0,3.89h-9.54A2.18,2.18,0,0,0,433,496.5v2.92h10.91v4.3H433Zm32.77,0a4.73,4.73,0,0,1-3.32-1.36L456,504l-3.23-3.23a17.07,17.07,0,0,1-1.49-1.72l-.23.07v12.69h-4.59V491.17H448a4.71,4.71,0,0,1,3.32,1.37l6.45,6.44,3.24,3.23a17.93,17.93,0,0,1,1.5,1.72l.17-.05.05-12.7h4.59v20.65Z" transform="translate(-339.7 -463.21)" fill="#0b999a"/>
    <path d="M383.87,463.21a33.61,33.61,0,1,1-33.61,33.61,33.61,33.61,0,0,1,33.61-33.61" transform="translate(-339.7 -463.21)" fill="#fff"/>
    <path d="M355.69,496.84a28.19,28.19,0,1,1,56.37,0,24.91,24.91,0,0,1-.14,2.88,29,29,0,0,1-56.09,0,24.89,24.89,0,0,1-.14-2.88" transform="translate(-339.7 -463.21)" fill="#f59c25"/>
    <path d="M381.51,504.08l-1.33-1.33a30.48,30.48,0,0,0-8.4-1.33l9.45,9.45.28-6.79m-6.71-6.7-6-6a43,43,0,0,0-5.06-.31,39.37,39.37,0,0,0-9.2,1c.09-.57.2-1.13.31-1.67A40.44,40.44,0,0,1,370.93,486l1.5,1.53,2,2a33,33,0,0,1,14.28-3.23c-.28-.37-.57-.76-.85-1.13-1-.06-1.92-.11-2.91-.11a32.48,32.48,0,0,0-9.59,1.42l-1.84-1.84c-1.28-.11-2.58-.2-3.9-.2A40.62,40.62,0,0,0,356,486.54c.23-.59.45-1.13.68-1.7A40.62,40.62,0,0,1,368,479.07l-.85-.88a37.33,37.33,0,0,1,27.07-2.55,42.82,42.82,0,0,1,3.37,3.79c.34-.26.7-.48,1.1-.74a40.67,40.67,0,0,1,12.41,6.14c.23.57.45,1.1.68,1.7a40.9,40.9,0,0,0-10.86-2.07c.4.74.79,1.44,1.13,2.21a39.6,39.6,0,0,1,10.86,3.76c.12.54.23,1.1.31,1.67a39.49,39.49,0,0,0-9.19-1h-.17c.25.71.48,1.42.71,2.15a39.86,39.86,0,0,1,9,2.66c0,.31,0,.59,0,.91v.28a39.19,39.19,0,0,0-4.5-.25,40.87,40.87,0,0,0-8.57.9c-.9-.59-1.84-1.19-2.8-1.73l-5.6,5.63-5.66,5.66.54,13.92a27.81,27.81,0,0,1-3.11.17,27.21,27.21,0,0,1-3.05-.17l.26-5.88.08-2.23-11.65-11.66-.23,0a33.7,33.7,0,0,0-6.17.91,12.56,12.56,0,0,1-.59-1.39,31.33,31.33,0,0,1,4.56-2l-1.61-1.61c-.51-.08-1-.17-1.53-.23s-1.16-.14-1.73-.2c-1.16-.08-2.32-.14-3.51-.14a39.21,39.21,0,0,0-4.5.25v-.28c0-.31,0-.6,0-.91a40,40,0,0,1,13.19-3.14l4.95,4.95c.82-.14,1.64-.25,2.46-.31m12.79-4.53,5.49,5.46,3.11-3.11a29.17,29.17,0,0,0-9-2.71Zm4.33,6.62-8-8-.43-.4a29.36,29.36,0,0,0-8.94,3.73l2.57,2.57a19.68,19.68,0,0,1,3.65.06,29.73,29.73,0,0,1,1,4.53l3.82,3.88Z" transform="translate(-339.7 -463.21)" fill="#000100" fill-rule="evenodd"/>
    <path d="M355.91,499.61a28.85,28.85,0,0,0,55.92,0c.57-.09,1.13-.14,1.67-.2a29.74,29.74,0,0,1-59.26,0c.54.06,1.1.11,1.67.2" transform="translate(-339.7 -463.21)" fill="#0b999a"/>
  </g>
</svg>
