<svg xmlns="http://www.w3.org/2000/svg" width="239.404" height="91.236" viewBox="0 0 239.404 91.236">
  <g id="Group_198" data-name="Group 198" transform="translate(0)">
    <path id="Path_7132" data-name="Path 7132" d="M908.182,541.97H905.69c-1.665,0-2.357-1.064-2.357-2.6v-11h4.849v-3.1h-4.849v-5.851h-3.494V539.32c0,4.2,2.1,5.99,5.845,5.99h2.5v-3.34Z" transform="translate(-861.241 -502.353)" fill="#00619b" fill-rule="evenodd"/>
    <path id="Path_7133" data-name="Path 7133" d="M881.284,536.445v.144c0,7.126,5.822,9.68,11.272,9.68,5.325,0,10.684-2.549,10.684-8.188,0-5.479-4.5-6.961-8.721-7.92l-1.473-.32c-3.784-.827-7.06-1.523-7.06-4.34,0-4.013,4.125-4.469,5.893-4.469,3.9,0,6.163,1.878,6.541,5.389l.014.129h3.681l0-.151c-.212-5.518-3.885-8.67-10.082-8.67-4.937,0-9.922,2.477-9.922,8.037,0,4.954,4.144,6.269,8.76,7.277l.91.2c3.9.828,7.582,1.617,7.582,4.949,0,4.134-4.19,4.75-6.693,4.75a9.234,9.234,0,0,1-5.366-1.515,5.7,5.7,0,0,1-2.331-4.839v-.144Z" transform="translate(-867.962 -502.963)" fill="#00619b" fill-rule="evenodd"/>
    <path id="Path_7134" data-name="Path 7134" d="M926.354,540.664l-.193.071a2.539,2.539,0,0,1-.93.18c-.842,0-.88-.456-.88-2.036V528.841c0-3.715-2.437-5.514-7.461-5.514-3.046,0-8.187.861-8.413,6.675l0,.151h3.486l.008-.138c.128-2.423,1.637-3.573,4.734-3.573,2.855,0,4.2.982,4.2,3.114,0,1.771-1.8,2.023-4.272,2.372-.707.1-1.425.2-2.188.349-3.4.653-6.725,1.667-6.725,6.15,0,3.508,2.472,5.626,6.6,5.626a8.828,8.828,0,0,0,6.758-2.846c.136,2.3,1.588,2.846,2.829,2.846a4.485,4.485,0,0,0,2.381-.569l.068-.044v-2.776Zm-11.321.251c-1.087,0-3.63-.263-3.63-2.715,0-2.363,1.932-3.047,3.807-3.381.572-.1,1.185-.18,1.767-.252a10.874,10.874,0,0,0,3.884-.948h0v3.038c0,1.647-1.586,4.258-5.828,4.258Z" transform="translate(-858.389 -500.935)" fill="#00619b" fill-rule="evenodd"/>
    <path id="Path_7135" data-name="Path 7135" d="M923.666,523.828v19.8h3.5v-11.16c0-3.727,2.1-5.975,5.626-5.975a3.54,3.54,0,0,1,3.818,3.791v13.344h3.5V530.66c0-4.907-2.25-7.284-6.868-7.284a6.9,6.9,0,0,0-6.277,3.288v-2.836Z" transform="translate(-852.611 -500.917)" fill="#00619b" fill-rule="evenodd"/>
    <path id="Path_7136" data-name="Path 7136" d="M953.438,518.246v9.85a7.685,7.685,0,0,0-6.225-2.862c-5.51,0-9.063,4.032-9.063,10.294a11.7,11.7,0,0,0,2.278,7.295,8.448,8.448,0,0,0,6.861,3.136c2.861,0,5.073-1.056,6.149-2.858v2.384h3.505V518.246Zm-5.7,24.574c-4.07,0-5.9-3.536-5.9-7.066,0-2.22.556-7.4,5.716-7.4,5.563,0,6,5.558,6,7.254,0,3.5-1.523,7.217-5.814,7.217Z" transform="translate(-847.365 -502.776)" fill="#00619b" fill-rule="evenodd"/>
    <path id="Path_7137" data-name="Path 7137" d="M973.17,540.711l-.191.072a2.585,2.585,0,0,1-.932.178c-.857,0-.894-.454-.894-2.035V528.89c0-3.715-2.436-5.514-7.444-5.514-3.058,0-8.192.861-8.421,6.674l-.007.153h3.5l.007-.138c.128-2.425,1.627-3.573,4.73-3.573,2.856,0,4.185,1.007,4.185,3.113,0,1.772-1.785,2.024-4.257,2.373-.715.1-1.433.2-2.193.347-3.392.655-6.716,1.667-6.716,6.152,0,3.508,2.459,5.625,6.594,5.625a8.785,8.785,0,0,0,6.75-2.846c.136,2.3,1.588,2.846,2.828,2.846a4.463,4.463,0,0,0,2.392-.569l.07-.042v-2.777Zm-11.324.251c-1.09,0-3.617-.263-3.617-2.714,0-2.363,1.914-3.047,3.79-3.382.572-.1,1.172-.18,1.774-.251a10.807,10.807,0,0,0,3.871-.948h0V536.7c0,1.648-1.573,4.258-5.818,4.258Z" transform="translate(-841.43 -500.917)" fill="#00619b" fill-rule="evenodd"/>
    <path id="Path_7138" data-name="Path 7138" d="M981,523.381l-.139,0c-3.269-.106-5.465,1.2-7.11,4.272V523.83h-3.3v19.8h3.487V534.8c0-5.269,2.215-7.745,6.917-7.745H981v-3.674Z" transform="translate(-835.664 -500.919)" fill="#00619b" fill-rule="evenodd"/>
    <path id="Path_7139" data-name="Path 7139" d="M993.845,518.246v9.85a7.69,7.69,0,0,0-6.246-2.862c-5.483,0-9.05,4.032-9.05,10.294a11.56,11.56,0,0,0,2.292,7.295,8.425,8.425,0,0,0,6.851,3.136c2.87,0,5.08-1.058,6.153-2.859v2.385h3.512V518.246Zm-5.693,24.574c-4.083,0-5.9-3.536-5.9-7.066,0-2.22.555-7.4,5.717-7.4,5.555,0,5.988,5.558,5.988,7.254,0,3.5-1.524,7.217-5.8,7.217Z" transform="translate(-832.732 -502.776)" fill="#00619b" fill-rule="evenodd"/>
    <path id="Path_7140" data-name="Path 7140" d="M892.049,563.081l-.012.132c-.358,4.7-3.275,7.642-7.62,7.642a7.959,7.959,0,0,1-6.893-3.29,13.311,13.311,0,0,1-2.147-7.863,12.847,12.847,0,0,1,2.14-7.481,8.126,8.126,0,0,1,6.86-3.276c3.942,0,6.7,2.1,7.4,5.627l.022.117h3.878l-.027-.164a9.734,9.734,0,0,0-3.8-6.633,12.282,12.282,0,0,0-7.427-2.252,12.1,12.1,0,0,0-9.616,4.208,15.755,15.755,0,0,0-3.3,10.117c0,8.752,4.836,14.194,12.61,14.194a11.775,11.775,0,0,0,8.224-2.91,12.458,12.458,0,0,0,3.574-8.014l.016-.157Z" transform="translate(-871.504 -492.853)" fill="#00619b" fill-rule="evenodd"/>
    <path id="Path_7141" data-name="Path 7141" d="M891.9,546.092v27.285h3.5V562.2c0-3.751,2.114-5.977,5.627-5.977a3.519,3.519,0,0,1,3.82,3.772v13.385h3.5v-13.01c0-4.885-2.241-7.26-6.857-7.26-2.079,0-4.843.787-6.092,3V546.092Z" transform="translate(-864.118 -492.69)" fill="#00619b" fill-rule="evenodd"/>
    <path id="Path_7142" data-name="Path 7142" d="M910.477,558.045l0-.14c.128-2.421,1.626-3.55,4.725-3.55,2.868,0,4.193.984,4.193,3.095,0,1.791-1.785,2.046-4.268,2.393-.7.1-1.417.2-2.174.349-3.405.652-6.729,1.666-6.729,6.127,0,3.527,2.471,5.625,6.6,5.625a8.778,8.778,0,0,0,6.744-2.821,2.634,2.634,0,0,0,2.843,2.821,4.439,4.439,0,0,0,2.37-.548l.07-.041V568.58l-.195.068a2.5,2.5,0,0,1-.928.178c-.835,0-.872-.452-.872-2.057V556.732c0-3.694-2.446-5.491-7.472-5.491-3.046,0-8.185.865-8.413,6.653v.151Zm3.072,10.782c-1.1,0-3.63-.263-3.63-2.737,0-2.362,1.917-3.024,3.809-3.355.569-.1,1.167-.178,1.745-.252a10.71,10.71,0,0,0,3.89-.952h0v3.016c0,1.648-1.575,4.28-5.814,4.28Z" transform="translate(-858.927 -490.825)" fill="#00619b" fill-rule="evenodd"/>
    <path id="Path_7143" data-name="Path 7143" d="M997.357,573.353V546.112h-3.512v9.849A7.686,7.686,0,0,0,987.6,553.1c-5.483,0-9.05,4.032-9.05,10.3a11.611,11.611,0,0,0,2.292,7.293,8.412,8.412,0,0,0,6.851,3.114c2.87,0,5.08-1.035,6.153-2.839v2.391Zm-9.2-2.669c-4.083,0-5.9-3.558-5.9-7.062,0-2.222.555-7.41,5.717-7.41,5.555,0,5.988,5.561,5.988,7.255,0,3.48-1.524,7.217-5.8,7.217Z" transform="translate(-832.732 -492.682)" fill="#00619b" fill-rule="evenodd"/>
    <path id="Path_7144" data-name="Path 7144" d="M953.932,565.349c-.6,2.249-2.294,3.478-4.843,3.478a5.871,5.871,0,0,1-4.35-1.635,6.277,6.277,0,0,1-1.576-4.5h14.592l.011-.14a12.309,12.309,0,0,0-2.892-8.891,8.109,8.109,0,0,0-6.085-2.425c-5.4,0-9.319,4.321-9.319,10.3.211,6.624,3.679,10.407,9.507,10.407,4.461,0,7.53-2.4,8.443-6.594ZM948.6,554.355a5.476,5.476,0,0,1,5.457,5.23H943.18c.258-2.641,2.009-5.23,5.419-5.23Z" transform="translate(-846.886 -490.825)" fill="#00619b" fill-rule="evenodd"/>
    <path id="Path_7145" data-name="Path 7145" d="M977.9,565.4c-.608,2.22-2.323,3.431-4.844,3.431a5.843,5.843,0,0,1-4.336-1.635,6.2,6.2,0,0,1-1.6-4.5h14.607l.008-.14a12.316,12.316,0,0,0-2.895-8.891,8.1,8.1,0,0,0-6.082-2.425c-5.412,0-9.312,4.321-9.312,10.3.2,6.624,3.663,10.407,9.5,10.407,4.457,0,7.507-2.379,8.433-6.548Zm-5.333-11.041a5.5,5.5,0,0,1,5.468,5.23h-10.9c.26-2.641,2.036-5.23,5.432-5.23Z" transform="translate(-838.202 -490.825)" fill="#00619b" fill-rule="evenodd"/>
    <path id="Path_7146" data-name="Path 7146" d="M925.665,571.512v-8.846c0-5.292,2.2-7.744,6.916-7.744h.146v-3.675l-.14,0c-3.282-.106-5.488,1.2-7.111,4.249V551.67h-3.31v19.842Z" transform="translate(-853.154 -490.826)" fill="#00619b" fill-rule="evenodd"/>
    <path id="Path_7147" data-name="Path 7147" d="M958.93,571.5v-8.831c0-5.292,2.19-7.744,6.915-7.744h.146v-3.675l-.139,0c-3.292-.106-5.488,1.2-7.111,4.249V551.68h-3.309V571.5Z" transform="translate(-841.105 -490.826)" fill="#00619b" fill-rule="evenodd"/>
    <path id="Path_7148" data-name="Path 7148" d="M940.395,569.836h-2.482c-1.677,0-2.367-1.065-2.367-2.624V556.233h4.849v-3.1h-4.849v-5.849h-3.494v19.884c0,4.219,2.115,6.014,5.856,6.014h2.487v-3.341Z" transform="translate(-849.574 -492.26)" fill="#00619b" fill-rule="evenodd"/>
    <path id="Path_7149" data-name="Path 7149" d="M1021.707,575.612a13.359,13.359,0,0,1-6.835,2.272,11.267,11.267,0,0,1-11.1-10.624l11.479-6.84,17.843,7.977-11.388,7.214Z" transform="translate(-823.596 -487.5)" fill="#5aa2c8" fill-rule="evenodd"/>
    <path id="Path_7150" data-name="Path 7150" d="M1026.182,554.13l-8.523-3.754c-3.81-1.7-7.406-3.121-7.406-7.312a5.825,5.825,0,0,1,1.7-4.446l18.033,7.95-4.472,2.58c-1.231.756-2.084,1.419-2.084,2.369,0,1.026,1.172,1.9,2.752,2.614Z" transform="translate(-821.249 -495.397)" fill="#9cc88e" fill-rule="evenodd"/>
    <path id="Path_7151" data-name="Path 7151" d="M1034.506,526.28l-8.741,5.3c-.775.469-1.813,1.225-1.813,2.388,0,1.324,2.017,2.339,3.811,3.192l-10.937-4.825c-3.222-1.418-6.436-3.03-6.436-6.913a7.124,7.124,0,0,1,1.231-4.087l23.64-14.449a10.739,10.739,0,0,1,5.584,9.213c0,4.663-2.363,7.786-6.338,10.178Z" transform="translate(-821.2 -506.889)" fill="#5aa2c8" fill-rule="evenodd"/>
    <path id="Path_7152" data-name="Path 7152" d="M1047.124,538.818l-2.173,1.229-18.06-7.973,20.993-12.636a10.79,10.79,0,0,1,5.61,9.206c0,4.663-2.3,7.878-6.37,10.174Z" transform="translate(-815.223 -502.344)" fill="#9cc88e" fill-rule="evenodd"/>
    <path id="Path_7153" data-name="Path 7153" d="M1031.65,544.92l10.682,4.693c4,1.794,5.232,3.9,5.232,6.556a5.574,5.574,0,0,1-2.08,4.07l-17.963-7.978,3.041-1.7c2.57-1.419,3.422-2.273,3.422-3.218,0-.983-.6-1.632-2.333-2.419Z" transform="translate(-814.995 -493.114)" fill="#5aa2c8" fill-rule="evenodd"/>
    <path id="Path_7154" data-name="Path 7154" d="M1058.862,586.633c-4.545-3.5-9.392-5.867-15.287-8.541l-27.239-12.051c-6.844-3.05-11.383-7.116-11.383-13.958,0-6.65,3.22-9.871,7.4-12.517l1.513-.948a5.825,5.825,0,0,0-1.7,4.446c0,4.191,3.6,5.61,7.406,7.312l31.689,13.965c5.513,2.366,10.557,6.438,10.557,13.37a14.222,14.222,0,0,1-2.962,8.922Z" transform="translate(-823.168 -495.397)" fill="#379b34" fill-rule="evenodd"/>
    <path id="Path_7155" data-name="Path 7155" d="M1055.494,568.937l-1.986,1.236a5.575,5.575,0,0,0,2.08-4.073c0-2.654-1.234-4.76-5.232-6.554l-33.886-14.916c-6.841-3.024-11.1-6.929-11.1-13.742,0-6.273,3.122-10.369,8.07-13.392a7.124,7.124,0,0,0-1.231,4.087c0,3.884,3.215,5.5,6.436,6.913l32.939,14.529c5.988,2.649,10.838,6.65,10.838,13.963,0,5.7-2.667,9.3-6.928,11.949Z" transform="translate(-823.018 -503.047)" fill="#00619b" fill-rule="evenodd"/>
  </g>
</svg>
