<svg id="Group_196" data-name="Group 196" xmlns="http://www.w3.org/2000/svg" width="330.994" height="54.204" viewBox="0 0 330.994 54.204">
  <path id="Path_7101" data-name="Path 7101" d="M111.607,209.894l.07-39.7,15.465-.067.07,52.889H100.285L67.973,183.1,67.9,222.873l-15.535.141-.138-52.822.207-.067H79.365l32.242,39.769Z" transform="translate(-52.231 -169.431)" fill="#003089" fill-rule="evenodd"/>
  <path id="Path_7102" data-name="Path 7102" d="M197.486,170.2l.137,52.823h-16.5l-.07-52.753.139-.137c5.454,0,10.911-.07,16.3.067Z" transform="translate(51.071 -169.439)" fill="#003089" fill-rule="evenodd"/>
  <path id="Path_7103" data-name="Path 7103" d="M156.476,195.639l.07.069,2-1.656,26.443-23.889h21.957l-30.242,25.616.07.276,34.038,26.789-23.96.141-30.237-27.069-.143.209v26.86h-16.5V170.162h16.5v25.477Z" transform="translate(18.133 -169.402)" fill="#003089" fill-rule="evenodd"/>
  <path id="Path_7104" data-name="Path 7104" d="M148.268,169.877c6.835.277,14.222.76,17.882,7.528a13.759,13.759,0,0,1,1.173,6.145l-.069,28.723c-.207,3.867-2.9,7.249-6.213,9.114-7.181,3.108-15.88,2.348-24.236,2.551-9.873-.137-20.021.487-29.205-1.171-4.074-.623-8.424-4.006-9.527-8.078l-.553-3.314.139-30.447c.137-3.867,3.521-7.249,6.764-8.977,5.317-2.211,11.739-1.933,17.884-2.211l25.96.137Zm-32.38,13.055c-1.382.274-3.108.827-3.317,2.413,0,7.873-.205,15.882.141,23.683.483,1.314,1.933,1.175,2.968,1.517l29.827.07c2.555-.207,5.593.414,6.973-2.141l.07-22.3-.209-1.728c-.413-1.036-1.449-1.175-2.346-1.449l-34.107-.067Z" transform="translate(-15.912 -169.74)" fill="#003089" fill-rule="evenodd"/>
  <path id="Path_7105" data-name="Path 7105" d="M271.164,222.772v.213H252.937c-1.656-3.045-3.314-5.941-4.835-8.979l-.344-.137H215.376l-4.971,8.974-18.432.142,29.063-52.823h21.336l28.791,52.61ZM231.6,183.42l-10.15,18.85h20.3c-3.382-6.283-6.77-12.635-10.152-18.85Z" transform="translate(59.83 -169.402)" fill="#003089" fill-rule="evenodd"/>
</svg>
