<svg xmlns="http://www.w3.org/2000/svg" width="330.358" height="67.675" viewBox="0 0 330.358 67.675">
  <g id="Group_197" data-name="Group 197" transform="translate(-24.396 -27.288)">
    <g id="Group_127" data-name="Group 127" transform="translate(24.397 27.288)">
      <path id="Path_7106" data-name="Path 7106" d="M455.161,445.062a9.393,9.393,0,0,0,2.458-1.705c1.489-1.313,1.727-3.045,3.062-4.719a58.273,58.273,0,0,1,4.631-4.776,39.881,39.881,0,0,1-1.87,5.9,8.409,8.409,0,0,1-2.8,3.564,1.814,1.814,0,0,0,1.721.07,6.429,6.429,0,0,1,3.514-.823,8.018,8.018,0,0,0,5.2-.877c1.861-1.1,3.517-2.177,3.517-2.177a10.266,10.266,0,0,1-5.823,5.559c-3,1.287-6.51,1.253-7.607.653a4.766,4.766,0,0,0-3.346-.613,7.441,7.441,0,0,1-2.654-.05" transform="translate(-151.605 -385.966)" fill="#00a1ed"/>
      <path id="Path_7107" data-name="Path 7107" d="M470.571,425.72a45.519,45.519,0,0,0,.255,4.666,7.063,7.063,0,0,1-.54,3.842c-.49,1.157-1.329,2.8-.726,3.13s.821-.987,2.144-1.929,3.719-2.162,5.023-2.947a14.132,14.132,0,0,0,3.706-3.636,14.279,14.279,0,0,1-5.451,8.509c-2.99,2.062-8.932,2.585-8.932,2.585a3.928,3.928,0,0,0,.956-1.988c.326-1.423.48-4.441,1.078-6.362a63.659,63.659,0,0,1,2.487-5.868" transform="translate(-151.979 -385.686)" fill="#00a1ed"/>
      <path id="Path_7108" data-name="Path 7108" d="M473.245,417.615a57.973,57.973,0,0,1,1.928,5.5,30.648,30.648,0,0,1-.124,4.811,18.341,18.341,0,0,0,2.792-3.444c1.079-1.713,2.627-2.311,3.514-3.688s1.213-1.924,1.213-1.924a44.324,44.324,0,0,1-1.824,6.045c-1.594,3.719-7.958,7.645-7.958,7.645a16.353,16.353,0,0,0,.5-3.229,35.707,35.707,0,0,0-.536-6.221,34.318,34.318,0,0,1,.494-5.5" transform="translate(-152.209 -385.407)" fill="#00a1ed"/>
      <path id="Path_7109" data-name="Path 7109" d="M473.156,408.45A24.552,24.552,0,0,1,474.7,410.7c1.043,1.644,2.412,3.4,2.468,4.391s.547,2.2.878,2.147.324-1.178.821-2.888,1.96-3.382,2.2-4.635c.2-1.022.6-2.477.6-2.477a21.381,21.381,0,0,1-.155,7.853,12.541,12.541,0,0,1-3.344,5.656c-.337.433-.944,1.045-.944,1.045s.325.323-.652-1.869-1.675-3.554-2.541-5.172c-.667-1.24-.866-6.3-.866-6.3" transform="translate(-152.224 -385.05)" fill="#00a1ed"/>
      <path id="Path_7110" data-name="Path 7110" d="M470.881,400.807a19.061,19.061,0,0,1,3.488,2.572c1.229,1.335,2.609,3.814,3.048,3.7s-.026-2.2.087-3.023a34.455,34.455,0,0,0,.267-5.514c-.162-.984-.464-2.39-.464-2.39s2.729,3.993,2.673,6.843.084,3.49-1.2,5.714a13.463,13.463,0,0,0-1.1,2.8,11.036,11.036,0,0,0-1.334-1.987c-.933-1.16-2.949-3.134-3.664-4.893s-1.8-3.826-1.8-3.826" transform="translate(-152.146 -384.669)" fill="#00a1ed"/>
      <path id="Path_7111" data-name="Path 7111" d="M467.128,393.61A18.49,18.49,0,0,0,468.909,395a28.492,28.492,0,0,1,3.25,2.056c.759.765,1.725,1.662,2.112,1.439s-.111-.9-.709-2.557-.617-3.279-1.1-4a10.483,10.483,0,0,1-.935-2.114s3.016,2.348,3.57,4.271.479,7.966.479,7.966a7.734,7.734,0,0,0-1.582-1.532c-1.046-.764-3.667-2.67-4.555-3.369a7.9,7.9,0,0,1-2.308-3.553" transform="translate(-152.016 -384.452)" fill="#00a1ed"/>
      <g id="Group_126" data-name="Group 126" transform="translate(265.969 2.71)">
        <path id="Path_7112" data-name="Path 7112" d="M464.592,387.067a11.923,11.923,0,0,1,3.958,1.968c1.533,1.323,2.8,4.953,2.8,4.953a19.762,19.762,0,0,1-3.571-2.261,33.845,33.845,0,0,1-3.188-4.659" transform="translate(-417.898 -387.067)" fill="#00a1ed"/>
        <path id="Path_7113" data-name="Path 7113" d="M416.235,447.456a11.469,11.469,0,0,0,4.927,1.272c2.147-.161,4.135-.871,7.673-1.791a20.474,20.474,0,0,1,7.845-.828c1.586.27,4.376.635,4.376.635s3.617-.564,6.437-.718a16.646,16.646,0,0,1,5.446,1c2.048.649,5.774,1.834,7.837,1.865a12.443,12.443,0,0,0,5.372-1.156s-.3,2.238-7.634,2.944c-4.362.4-6.158.08-8.073-1.152s-4.026-2.259-4.971-2.3a22.268,22.268,0,0,0-2.4.075,18.017,18.017,0,0,1,3.943,1.987c1.307,1.038,4.7,3.814,4.7,3.814l-.842.961a15.96,15.96,0,0,0-3.458-3.466c-2.149-1.546-5.159-3.1-6.279-3.1s-4.768,1.669-7.12,3.856a15.2,15.2,0,0,0-2.51,2.625l-.874-.874a28.955,28.955,0,0,1,4.017-3.215,48.344,48.344,0,0,1,4.733-2.71s-.078-.237-1.471-.116a9.371,9.371,0,0,0-4.886,1.747c-2.394,1.472-3.312,1.825-5.373,2.062a20.457,20.457,0,0,1-8.473-1.184c-2.428-1.032-2.94-2.226-2.94-2.226" transform="translate(-416.235 -389.094)" fill="#00a1ed"/>
      </g>
      <path id="Path_7114" data-name="Path 7114" d="M408.612,439.167a39.584,39.584,0,0,0,3.255,2.345c2.315,1.312,4.344.714,5.806.913a14.5,14.5,0,0,1,3.226.759c.444.2,1.745.32,1.875.084.136-.282-1.192-.828-2.187-2.59a28.5,28.5,0,0,1-2.312-6.8,21.43,21.43,0,0,1,4.171,4.175c1.99,2.629,1.719,3.922,3.106,5.093a16.374,16.374,0,0,0,2.825,1.9,19.791,19.791,0,0,0-3.131-.073c-1.312.116-3.519,1.019-5.529.98a11.237,11.237,0,0,1-8.754-3.657,12.027,12.027,0,0,1-2.352-3.138" transform="translate(-150.004 -385.967)" fill="#00a1ed"/>
      <path id="Path_7115" data-name="Path 7115" d="M402.846,429.038a20.8,20.8,0,0,0,3.23,3.3c1.908,1.545,4.806,2.465,5.807,3.584s1.422,2.031,1.979,1.756-.342-1.249-.706-2.709a23.665,23.665,0,0,1-.369-6.924,8.814,8.814,0,0,0,.089-1.985,41.591,41.591,0,0,1,1.915,3.816c.941,2.147.881,5.842,1.306,7.482a8.1,8.1,0,0,0,1.351,2.849,19.865,19.865,0,0,1-4.416-.707c-1.468-.563-5.605-2.069-7.158-4.617a62.77,62.77,0,0,1-3.027-5.842" transform="translate(-149.805 -385.698)" fill="#00a1ed"/>
      <path id="Path_7116" data-name="Path 7116" d="M400.975,418.936a7.912,7.912,0,0,0,1.548,2.432,26.953,26.953,0,0,1,2.66,2.659c.783.921,2.632,4.475,3.227,4.376.475-.081-.238-1.908-.051-3.7a22.581,22.581,0,0,1,2.232-6.668,46.391,46.391,0,0,1,.322,5.994c-.107,2.232-.875,4.734-.6,6.008s.435,2.858.435,2.858a51.966,51.966,0,0,1-4.977-3.8c-2.055-1.881-3.932-5.969-4.287-7.243a19.878,19.878,0,0,1-.512-2.91" transform="translate(-149.741 -385.422)" fill="#00a1ed"/>
      <path id="Path_7117" data-name="Path 7117" d="M401.777,407.444s-.372,5.517.324,8.033a14.56,14.56,0,0,0,4.209,6.641,13.59,13.59,0,0,1,.953-2.829c.68-1.427,1.755-2.851,2.187-4a27.331,27.331,0,0,0,1.036-6.325s-.749,1.142-1.429,2.063a16.961,16.961,0,0,0-2.148,3.539c-.637,1.517-.718,2.912-1.434,2.986-1.006.089-.157-1.347-.995-3.305s-2.026-3.935-2.148-4.885a7.544,7.544,0,0,0-.555-1.913" transform="translate(-149.765 -385.057)" fill="#00a1ed"/>
      <path id="Path_7118" data-name="Path 7118" d="M406.2,396.392a14.722,14.722,0,0,0-2.511,5.718c-.313,2.749-.108,4.954.956,6.765a9.6,9.6,0,0,1,.948,3.062,7.051,7.051,0,0,1,1.277-1.951,24.431,24.431,0,0,0,3.615-4.329,37.645,37.645,0,0,0,2.111-4.419,19,19,0,0,0-2.786,1.92,20.18,20.18,0,0,0-3.742,4.45,1.667,1.667,0,0,1-.476-1.555,11.3,11.3,0,0,0,.289-3.345,9.586,9.586,0,0,1-.218-2.9c.218-1.275.536-3.417.536-3.417" transform="translate(-149.83 -384.677)" fill="#00a1ed"/>
      <path id="Path_7119" data-name="Path 7119" d="M412.3,390s-2.935,1.79-3.733,4.018c-.6,1.7-.361,3.494-.639,5.29a7.737,7.737,0,0,0,.08,3.02,9,9,0,0,1,1.279-1.549c1.033-1.114,2.663-1.786,3.807-2.6a11.11,11.11,0,0,0,3.586-4.488,17.911,17.911,0,0,1-2.156,1.715,28.44,28.44,0,0,0-3.044,1.752,5.446,5.446,0,0,0-1.311,2.012,1.961,1.961,0,0,1-.608-1.817,22.582,22.582,0,0,0,.989-2.624,13.252,13.252,0,0,1,.88-3.062c.381-.662.871-1.67.871-1.67" transform="translate(-149.977 -384.457)" fill="#00a1ed"/>
      <path id="Path_7120" data-name="Path 7120" d="M414.589,389.763a18.048,18.048,0,0,1,4.528-2.377,25.569,25.569,0,0,1-2.98,3.977,16.312,16.312,0,0,1-4.06,2.938,9.133,9.133,0,0,1,2.513-4.538" transform="translate(-150.123 -384.368)" fill="#00a1ed"/>
      <path id="Path_7121" data-name="Path 7121" d="M430.357,393.924c3.08,0,9.257,3.326,9.257,7.761a6.763,6.763,0,0,1-2.156,4.653,7.1,7.1,0,0,1-.129,2.017c-.4.894-.811.631-1.343,1.436s-.758,2.057-3,2.057-2.2-.717-3.271-.717a2.487,2.487,0,0,0-1.79,1.029v8.019s.225,1.023,2.238,2.1a13.96,13.96,0,0,0,4.211,1.748c.623,0,.621-.716,1.384-.716s3.853,0,3.853,1.435-1.521,2.412-7.076,2.412a58.774,58.774,0,0,1-7.88-.444c-.63,0-.717.136-.717.983s-.041,2.058-.041,2.058a6.7,6.7,0,0,0,2.055,2.063,5.61,5.61,0,0,0,3,.894,12.809,12.809,0,0,0,4.656-1.078,11.362,11.362,0,0,1,4.751-1.069c1.745,0,4.831-.4,4.831-2.193s-.667-2.42-.667-3.806.218-2.607-.448-3.274-3.628-2.815-3.628-4.024,1.079-1.747,1.212-2.418.043-1.073.492-1.21a5.412,5.412,0,0,0,.805-.315l.221-1.117a4.861,4.861,0,0,0,.9-.542,6.845,6.845,0,0,1,.576-.442,1.573,1.573,0,0,1,.23-1.391,1.96,1.96,0,0,1,1.657-.4c.489,0,2.007-.179,2.007-.179a4.878,4.878,0,0,1,1.04-1.294c.9-.677,3.351-1.029,3.982-1.523s1.3-1.7,2.956-1.7c6.8,0,11.37,6.139,11.37,9.448,0,5.731-3.716,12.667-8.906,12.667-4.079,0-3.806,1.208-3.806,2.553a3.8,3.8,0,0,0,3.047,3.716s-6.409,4.836-13.842,4.836a25.536,25.536,0,0,1-19.146-8.176,22.769,22.769,0,0,1-6.134-15.889c0-2.746.007-3.2.007-3.2a25.352,25.352,0,0,1,2.97-2.014c1.127-.565,3.625-2.022,3.625-3.222s-.467-1.653-.467-4.185a8.643,8.643,0,0,1,1.354-4.733,7.1,7.1,0,0,1,5.762-2.6" transform="translate(-150.296 -384.592)" fill="#00a1ed"/>
      <path id="Path_7122" data-name="Path 7122" d="M441.254,386.3A27.048,27.048,0,1,0,468.3,413.347,27.045,27.045,0,0,0,441.254,386.3Zm20.192,10.275a17.688,17.688,0,0,1,2.032,2.857,8.24,8.24,0,0,1-2.017,1.469c-1.085.507-3.111,1.274-3.111,1.274a36.005,36.005,0,0,0-1.338-3.533c-.6-1.222-1.215-2.671-1.215-2.671s.6-.4,1.479-1.03a16.776,16.776,0,0,0,1.474-1.166,36.057,36.057,0,0,1,2.7,2.8Zm-8.927-6.956a18.73,18.73,0,0,1,3.065,1.716c1.227.908,2.647,2.022,2.647,2.022a3.525,3.525,0,0,1-.9.9,10.317,10.317,0,0,1-1.692.969s-.906-1.275-1.672-2.246-2.2-2.623-2.2-2.623.323-.311.49-.512.263-.227.263-.227Zm-3.538,5.635a9.545,9.545,0,0,0-.979-2.418s1.124-.548,1.863-1.027,1.337-.97,1.337-.97,1.287,1.287,2.222,2.451a22.636,22.636,0,0,1,1.593,2.285s-1.2.54-2.561,1.163a13.468,13.468,0,0,1-3.079.883,21.9,21.9,0,0,0-.4-2.366Zm.685,9.231a15.085,15.085,0,0,1-2.733.262c-2.108.084-3.972-.035-3.972-.035v-5.983s1.633.109,2.832.109a24.23,24.23,0,0,0,3.216-.362s.116.938.367,2.448a28.507,28.507,0,0,1,.289,3.561Zm.673-15.8a7.7,7.7,0,0,1,1.613.727l-.779.606s-.566-.511-1.053-1a4.855,4.855,0,0,0-1.7-.9s1.18.371,1.921.568Zm-2.131-.206a10.121,10.121,0,0,1,2.429,1.956s-.516.342-1.228.857a5.138,5.138,0,0,1-1.717.729s-.627-1.5-1.077-2.35a16.634,16.634,0,0,0-1.817-2.282,12.8,12.8,0,0,1,3.41,1.089Zm-5.365-1.246s1.48-.392,2.83,2.167c.7,1.324,1.342,2.831,1.342,2.831a13.327,13.327,0,0,1-2.1.435,8.924,8.924,0,0,1-2.076-.056v-5.376Zm-.012,6.147a15.989,15.989,0,0,0,2.191,0,17.307,17.307,0,0,0,2.3-.33,5.077,5.077,0,0,1,.781,2.126c.343,1.544.521,2.649.521,2.649a16.785,16.785,0,0,1-3.006.454,12.115,12.115,0,0,1-2.791-.089v-4.81Zm-.8-6.147.1,5.456a7.8,7.8,0,0,1-2.454-.243,7.446,7.446,0,0,1-1.875-.728,20.252,20.252,0,0,1,1.567-2.57c1.949-2.676,2.662-1.914,2.662-1.914Zm-1.653-.138a10.519,10.519,0,0,0-1.81,2.261,18.582,18.582,0,0,1-1.318,2.118,8.657,8.657,0,0,1-2.646-1.738,7.784,7.784,0,0,1,2.988-1.914,10.766,10.766,0,0,1,2.787-.727Zm-5.074.629a13.479,13.479,0,0,1,1.808-.311,13.2,13.2,0,0,0-1.739,1.036c-.628.487-1.183.839-1.183.839a1.882,1.882,0,0,1-.451-.457,2.236,2.236,0,0,1-.21-.554,13.451,13.451,0,0,1,1.775-.553Zm6,51.848c-13.291,0-26.323-10.595-26.323-26.168,0-19.523,17.752-24.881,17.752-24.881l1.076,1.006a10.76,10.76,0,0,0-1.709,1.422,12.258,12.258,0,0,0-1.215,1.494l.457.42a11.187,11.187,0,0,1,1.176-1.429c.628-.623,1.532-1.352,1.532-1.352a10.381,10.381,0,0,0,1.495,1.283c.586.35,1.421.729,1.421.729a4.386,4.386,0,0,1-.311,1.01c-.24.555-.487,1.283-.487,1.283l.555.312s.389-1.074.59-1.493.38-.832.38-.832a16.664,16.664,0,0,0,2.472.8,8.856,8.856,0,0,0,1.979.211v4.655h-1.7v.794H442.2v5.841h-1.475v.661h1.439v2.148h.711V405.4s.934.04,3.372-.066,4-.35,4-.35-.068-2.225-.279-3.857a23.288,23.288,0,0,0-.558-2.885,12.915,12.915,0,0,0,2.918-.8c1.535-.625,2.846-1.216,2.846-1.216a14.452,14.452,0,0,1,1.429,2.85c.621,1.671,1.212,3.364,1.212,3.364l-1.035.455.174.522,1.2-.358.347.726.46-.2-.34-.735a17.3,17.3,0,0,0,2.854-1.2,28.036,28.036,0,0,0,2.468-1.493,26.077,26.077,0,0,1,3.579,13.185c0,11.892-9.189,26.223-26.219,26.223" transform="translate(-150.196 -384.33)" fill="#00a1ed"/>
      <path id="Path_7123" data-name="Path 7123" d="M416.92,409.314" transform="translate(-150.29 -385.122)" fill="none" stroke="#000" stroke-width="0.817"/>
      <path id="Path_7124" data-name="Path 7124" d="M421.959,398.363" transform="translate(-150.463 -384.745)" fill="none" stroke="#000" stroke-width="0.817"/>
      <path id="Path_7125" data-name="Path 7125" d="M171.169,450.338v-6.83l-.181-.183c-3.326,5.487-7.369,8.357-14.919,8.357-6.919,0-15.278-3.323-15.278-14.557v-33.79H148.7v31.187c0,7.726,3.956,10.33,9.079,10.33,9.974,0,12.94-8.805,12.94-15.635V403.336h7.908v47h-7.459" transform="translate(-140.792 -384.916)" fill="#00a1ed"/>
      <path id="Path_7126" data-name="Path 7126" d="M230.544,450.29h-7.905V421.352c0-8.178-2.336-12.31-10.068-12.31-4.492,0-12.4,2.873-12.4,15.635V450.29h-7.908v-47h7.458v6.652h.179c1.71-2.518,6.112-8,14.2-8,7.275,0,16.442,2.965,16.442,16.358V450.29" transform="translate(-142.562 -384.868)" fill="#00a1ed"/>
      <path id="Path_7127" data-name="Path 7127" d="M244.194,394.174V385.19H252.1v8.984Zm7.908,55.54h-7.908v-47H252.1v47" transform="translate(-144.349 -384.292)" fill="#00a1ed"/>
      <path id="Path_7128" data-name="Path 7128" d="M293.946,419.106c-.988-6.29-4.5-10.064-11.144-10.064-9.8,0-12.942,9.342-12.942,17.7,0,8.088,1.979,18.061,12.848,18.061,5.308,0,9.891-3.952,11.238-11.141h7.638c-.811,7.459-5.395,17.971-19.143,17.971-13.211,0-21.027-9.973-21.027-23.543,0-14.557,7.007-26.151,22.556-26.151,12.31,0,16.989,8.988,17.615,17.166h-7.638" transform="translate(-144.941 -384.868)" fill="#00a1ed"/>
      <path id="Path_7129" data-name="Path 7129" d="M351.025,435.553a20.3,20.3,0,0,1-8.357,12.849c-2.155,1.437-5.209,3.233-12.759,3.233-13.21,0-21.03-9.973-21.03-23.543,0-14.557,7.009-26.151,22.558-26.151,13.57,0,20.224,10.783,20.224,27.411H317.328c0,9.8,4.58,15.454,13.658,15.454,7.463,0,11.866-5.752,12.132-9.252Zm-7.547-12.5c-.45-7.276-3.506-14.015-13.12-14.015-7.279,0-13.03,6.739-13.03,14.015h26.15" transform="translate(-146.573 -384.868)" fill="#00a1ed"/>
      <path id="Path_7130" data-name="Path 7130" d="M372.585,409.238v40.443h-7.91V409.238h-6.469V402.68h6.469v-8.091c0-7.1,4.495-10.329,12.224-10.329,1.167,0,2.338.084,3.6.178v7.1c-.993-.094-2.252-.183-3.24-.183-3.412,0-4.672,1.707-4.672,5.481v5.843H380.5v6.558h-7.911" transform="translate(-148.27 -384.26)" fill="#00a1ed"/>
    </g>
  </g>
</svg>
