<svg id="icon-4" xmlns="http://www.w3.org/2000/svg" xmlns:xlink="http://www.w3.org/1999/xlink" width="89.108" height="89.108" viewBox="0 0 89.108 89.108">
  <defs>
    <linearGradient id="linear-gradient" x1="0.5" x2="0.5" y2="1" gradientUnits="objectBoundingBox">
      <stop offset="0" stop-color="#00abfb"/>
      <stop offset="1" stop-color="#00ffbf"/>
    </linearGradient>
  </defs>
  <path id="Path_7156" data-name="Path 7156" d="M114.022,144.166a12.678,12.678,0,0,1-4.645,1.375,1.305,1.305,0,0,0-1.16,1.5,8.4,8.4,0,0,1,.11,1.279c0,5.435-5.163,9.856-11.509,9.856-4.623,0-8.782-2.357-10.6-6.006a2.365,2.365,0,0,0-.913-.981V134.69l.3-.01c2.551-.09,5.723-.2,7.491,1.5a6.164,6.164,0,0,1,1.584,4.077,3.921,3.921,0,1,0,2.616-.027,8.751,8.751,0,0,0-2.388-5.929c-2.566-2.476-6.514-2.334-9.4-2.231l-.206.007v-8.206c13.315.027,20.036.573,20.618,7.747a3.921,3.921,0,1,0,2.614-.027c-.322-4.627-2.742-7.58-7.374-9.008-4.018-1.239-9.5-1.318-15.858-1.323v-8.156c6.353-.005,11.839-.084,15.858-1.323,4.632-1.428,7.053-4.381,7.374-9.008a3.918,3.918,0,1,0-2.614-.027c-.582,7.174-7.3,7.72-20.618,7.747v-7.947l.206.007c.611.022,1.269.045,1.953.045,2.542,0,5.422-.326,7.444-2.277A8.75,8.75,0,0,0,97.3,94.394a3.918,3.918,0,1,0-2.616-.027A6.163,6.163,0,0,1,93.1,98.444c-1.767,1.705-4.941,1.591-7.491,1.5l-.3-.01V94.28a1.305,1.305,0,0,0-2.611,0v56.9a2.366,2.366,0,0,0-.913.981c-1.814,3.648-5.973,6.005-10.6,6.005-6.346,0-11.509-4.421-11.509-9.856a8.4,8.4,0,0,1,.11-1.279,7,7,0,0,1,1.808-3.62,1.305,1.305,0,1,0-1.812-1.879,9.107,9.107,0,0,0-2.276,3.838,11.714,11.714,0,0,1-7.378-4.518A1.305,1.305,0,1,0,48,142.369a14.151,14.151,0,0,0,9.074,5.587c0,.121-.007.24-.007.359,0,6.874,6.334,12.466,14.12,12.466,5.509,0,10.507-2.826,12.815-7.221,2.307,4.395,7.305,7.22,12.814,7.22,7.785,0,14.12-5.592,14.12-12.466,0-.119,0-.238-.007-.359a15.125,15.125,0,0,0,4.3-1.477,1.305,1.305,0,0,0-1.212-2.312ZM96.029,142.63a1.3,1.3,0,1,1-1.309,1.3A1.308,1.308,0,0,1,96.029,142.63Zm11.244-8.639a1.3,1.3,0,1,1-1.309,1.3A1.308,1.308,0,0,1,107.273,133.991Zm0-36.226a1.3,1.3,0,1,1-1.309,1.3A1.308,1.308,0,0,1,107.273,97.765Zm-11.244-8.38a1.3,1.3,0,1,1-1.309,1.3A1.308,1.308,0,0,1,96.029,89.385Z" transform="translate(-39.448 -71.673)" fill="url(#linear-gradient)"/>
  <path id="Path_7157" data-name="Path 7157" d="M9.018,118.831a9.251,9.251,0,0,1,2.722-6.453,1.305,1.305,0,0,0-.63-2.192c-5-1.162-8.5-5.066-8.5-9.492a9.706,9.706,0,0,1,3.611-7.368A1.306,1.306,0,0,0,6.28,91.4a6.486,6.486,0,0,1-2.068-4.655c0-3.835,3.533-6.933,8.044-7.053a5.852,5.852,0,0,1,3.41,1.27A1.305,1.305,0,1,0,17.4,79a8.272,8.272,0,0,0-4.4-1.868,6.162,6.162,0,0,1-.773-2.95,6.707,6.707,0,0,1,3.129-5.522,1.305,1.305,0,0,0-1.468-2.158,9.276,9.276,0,0,0-4.272,7.681,8.653,8.653,0,0,0,.581,3.106c-4.95.937-8.59,4.8-8.59,9.45a8.909,8.909,0,0,0,1.947,5.516A12.047,12.047,0,0,0,0,100.694c0,5.029,3.43,9.5,8.555,11.44a11.763,11.763,0,0,0-2.147,6.7,1.305,1.305,0,1,0,2.611,0Z" transform="translate(0 -54.745)" fill="url(#linear-gradient)"/>
  <path id="Path_7158" data-name="Path 7158" d="M180.331,45.949a12.045,12.045,0,0,0-3.549-8.435A8.91,8.91,0,0,0,178.729,32c0-4.654-3.64-8.513-8.59-9.45a8.65,8.65,0,0,0,.582-3.106c0-5.335-4.9-9.676-10.916-9.676-.12,0-.249,0-.384.008a10.614,10.614,0,0,0-3.692-6.563A13.283,13.283,0,0,0,147.168,0h-.174a12.809,12.809,0,0,0-11.216,6.14A12.808,12.808,0,0,0,124.561,0h-.174a13.284,13.284,0,0,0-8.561,3.21,10.615,10.615,0,0,0-3.692,6.563c-.135,0-.264-.008-.384-.008a1.305,1.305,0,0,0,0,2.611,12.117,12.117,0,0,1,1.45.106,1.305,1.305,0,0,0,1.472-1.4L114.664,11c0-.023,0-.047-.006-.058.079-4.45,4.549-8.264,9.76-8.328a10.176,10.176,0,0,1,9.169,4.965,2.373,2.373,0,0,0,.884.922v8.082a1.305,1.305,0,0,0,2.611,0V8.5a2.372,2.372,0,0,0,.884-.922,10.137,10.137,0,0,1,9.026-4.966h.143c5.211.064,9.681,3.877,9.76,8.315a8.021,8.021,0,0,1-1.44,4.294,1.305,1.305,0,1,0,2,1.675,9.445,9.445,0,0,0,1.911-4.506c.157-.008.305-.013.436-.013,4.579,0,8.306,3.17,8.306,7.065a6.254,6.254,0,0,1-1.085,3.473,1.305,1.305,0,0,0,1.051,2.03c4.51.12,8.044,3.218,8.044,7.053a6.486,6.486,0,0,1-2.068,4.655,5.807,5.807,0,0,1-3.23,1.548,1.305,1.305,0,0,0,.1,2.606q.052,0,.1,0a7.917,7.917,0,0,0,3.871-1.478,9.482,9.482,0,0,1,2.821,6.624c0,4.427-3.5,8.33-8.5,9.492a1.305,1.305,0,0,0-.63,2.192,9.252,9.252,0,0,1,2.722,6.453,8.754,8.754,0,0,1-1.41,4.724,1.305,1.305,0,1,0,2.2,1.409,11.356,11.356,0,0,0,1.824-6.133,11.764,11.764,0,0,0-2.148-6.7c5.125-1.935,8.555-6.411,8.555-11.44Z" transform="translate(-91.223 0)" fill="url(#linear-gradient)"/>
  <path id="Path_7159" data-name="Path 7159" d="M84.7,206.279a1.305,1.305,0,0,0,1.23,1.376l.074,0a1.305,1.305,0,0,0,1.3-1.232,9.289,9.289,0,0,1,7.028-8.173,1.305,1.305,0,0,0-.617-2.537A11.334,11.334,0,0,0,86,201.778,12.635,12.635,0,0,0,84.7,206.279Z" transform="translate(-69.96 -161.623)" fill="url(#linear-gradient)"/>
  <path id="Path_7160" data-name="Path 7160" d="M167.127,83.1a1.308,1.308,0,0,0-1.422,1.177c-.387,4.1-4.629,5.666-4.815,5.732a1.305,1.305,0,0,0,.867,2.462c.245-.086,6-2.167,6.546-7.95A1.305,1.305,0,0,0,167.127,83.1Z" transform="translate(-132.17 -68.631)" fill="url(#linear-gradient)"/>
  <path id="Path_7161" data-name="Path 7161" d="M165.975,359.922a1.305,1.305,0,1,0,1.122-2.357c-5.023-2.39-4.593-8.072-4.572-8.318a1.305,1.305,0,0,0-2.6-.239C159.9,349.321,159.282,356.737,165.975,359.922Z" transform="translate(-132.07 -287.288)" fill="url(#linear-gradient)"/>
  <path id="Path_7162" data-name="Path 7162" d="M173.509,251.055a1.305,1.305,0,1,0,1.121,2.357c4.226-2.01,3.839-6.681,3.821-6.879a1.305,1.305,0,0,0-2.6.243A4.479,4.479,0,0,1,173.509,251.055Z" transform="translate(-142.696 -202.649)" fill="url(#linear-gradient)"/>
  <path id="Path_7163" data-name="Path 7163" d="M355.338,256.045a1.305,1.305,0,1,0,1.305-1.305A1.305,1.305,0,0,0,355.338,256.045Z" transform="translate(-293.495 -210.405)" fill="url(#linear-gradient)"/>
  <path id="Path_7164" data-name="Path 7164" d="M407.633,257.351a1.305,1.305,0,1,0-1.305-1.305A1.305,1.305,0,0,0,407.633,257.351Z" transform="translate(-335.611 -210.405)" fill="url(#linear-gradient)"/>
  <path id="Path_7165" data-name="Path 7165" d="M317.608,462.545a1.305,1.305,0,1,0,1.305-1.305A1.305,1.305,0,0,0,317.608,462.545Z" transform="translate(-262.332 -380.966)" fill="url(#linear-gradient)"/>
  <path id="Path_7166" data-name="Path 7166" d="M320.218,49.545a1.305,1.305,0,1,0-1.305,1.305A1.305,1.305,0,0,0,320.218,49.545Z" transform="translate(-262.331 -39.844)" fill="url(#linear-gradient)"/>
</svg>
