<svg id="icon-5" xmlns="http://www.w3.org/2000/svg" xmlns:xlink="http://www.w3.org/1999/xlink" width="83.515" height="91.62" viewBox="0 0 83.515 91.62">
  <defs>
    <linearGradient id="linear-gradient" x1="0.5" x2="0.5" y2="1" gradientUnits="objectBoundingBox">
      <stop offset="0" stop-color="#00abfb"/>
      <stop offset="1" stop-color="#00ffbf"/>
    </linearGradient>
  </defs>
  <g id="Group_131" data-name="Group 131" transform="translate(0 0)">
    <path id="Path_7190" data-name="Path 7190" d="M115.606,61.206a30.561,30.561,0,0,0,30.409-27.141,1.37,1.37,0,0,0-2.723-.307,27.715,27.715,0,0,1-5.447,13.658,9.685,9.685,0,0,0-4.117-3.46c-2.843-1.252-7.974-2.029-10.779-2.381a.332.332,0,0,1-.291-.327l-.016-3.781c.269-.2.535-.413.795-.639a11.088,11.088,0,0,0,3.674-6.977,3.281,3.281,0,0,0,2.717-3.245l-.009-2.115a3.266,3.266,0,0,0-1.039-2.38l-.022-5.213a9.407,9.407,0,0,0-9.408-9.369h-.041l-8.291.035a4.841,4.841,0,0,0-4.525,3.184,4.87,4.87,0,0,0-4.775,4.884l.028,6.594a3.264,3.264,0,0,0-1.019,2.389l.009,2.115a3.279,3.279,0,0,0,2.744,3.222,11.089,11.089,0,0,0,3.733,6.946c.262.223.529.433.8.632l.016,3.781a.332.332,0,0,1-.288.329c-2.8.376-7.926,1.2-10.758,2.471a9.619,9.619,0,0,0-3.779,3.042,27.859,27.859,0,1,1,50.107-19.512,1.37,1.37,0,1,0,2.725-.288,30.6,30.6,0,1,0-30.433,33.852Zm-2.357-2.841.876-3.774,2.549-.011.92,3.815a27.937,27.937,0,0,1-4.344-.031Zm3.681-6.526-3.083.013-.814-1.494,2.344-1.207,2.355,1.194Zm-6.168-12.767a12.3,12.3,0,0,0,4.563.889h.031a12.3,12.3,0,0,0,4.555-.927l.009,2.227a3.053,3.053,0,0,0,.447,1.578l-5,3.157-5.028-3.115a3.054,3.054,0,0,0,.434-1.582Zm21.863,7.393a6.942,6.942,0,0,1,3.355,3.169,27.83,27.83,0,0,1-15.648,8.432l-1.126-4.672,1.077-2.008a4.331,4.331,0,0,0,3.869-1.392l4.264-4.749a23.053,23.053,0,0,1,4.209,1.22Zm-9.531-2.107c.594.078,1.338.182,2.156.312l-3.137,3.494a1.6,1.6,0,0,1-1.895.369l0,0-.036-.017-2.035-1.031Zm-16.519-30.87a2.637,2.637,0,0,0,2.484-1.771,2.1,2.1,0,0,1,1.973-1.412l8.291-.035h.029a6.665,6.665,0,0,1,6.668,6.641l.02,4.708a4.975,4.975,0,0,0-1.9.922h-.04l-.016-3.762a4.378,4.378,0,0,0-4.4-4.362h-.035c-1.654.006-2.4.687-4.223.694l-.372,0h-.027c-1.879,0-2.41-.65-4.2-.659h-.035a4.386,4.386,0,0,0-4.363,4.4l.013,3.1a9.882,9.882,0,0,0-1.95-.359l-.025-5.973a2.126,2.126,0,0,1,2.114-2.133Zm-.458,15.1a1.37,1.37,0,0,0-1.369-1.335h-.006l-.722,0h0a.539.539,0,0,1-.539-.536l-.009-2.115a.522.522,0,0,1,.1-.318,5.82,5.82,0,0,1,2.7.574,1.715,1.715,0,0,0,2.914-1.231l-.02-4.789a1.643,1.643,0,0,1,1.635-1.648h.035c1.165.005,2.036.677,4.228.659l.372,0c2.229-.009,3.093-.69,4.223-.694h.043a1.641,1.641,0,0,1,1.64,1.633l.02,4.789c.007,1.942,3.5,2.071,4.38,1.2a2.369,2.369,0,0,1,1.255-.561.522.522,0,0,1,.086.288l.009,2.115c0,.771-1.064.49-1.259.544a1.37,1.37,0,0,0-1.364,1.347,8.442,8.442,0,0,1-2.825,6.251,9.432,9.432,0,0,1-12.647.054,8.445,8.445,0,0,1-2.877-6.227Zm1.506,15.836,4.97,3.079-2.026,1.043-.034.016h0a1.605,1.605,0,0,1-1.894-.352l-3.166-3.458c.816-.136,1.557-.246,2.151-.329ZM98.11,46.61a23.018,23.018,0,0,1,4.2-1.255l4.307,4.706a4.334,4.334,0,0,0,3.873,1.356l1.094,2.008L110.521,58a27.855,27.855,0,0,1-15.5-8.636A6.886,6.886,0,0,1,98.11,46.61Z" transform="translate(-73.845 0)" fill="url(#linear-gradient)"/>
    <path id="Path_7191" data-name="Path 7191" d="M97.761,320.874l-21.074,9.279v-.064a1.314,1.314,0,0,0-.007-.152,8.041,8.041,0,0,0-6.892-7.183l-.035,0-14.012-1.613c-6.379-.909-9.241-6.645-20.547-6.645h-.873v-1.417a3.79,3.79,0,0,0-3.785-3.785h-4.1a3.79,3.79,0,0,0-3.785,3.785v26.2a3.79,3.79,0,0,0,3.785,3.786h4.1a3.787,3.787,0,0,0,3.774-3.564c12.916,4.548,14.557,6.068,19.061,6.068h18.9a15.3,15.3,0,0,0,8.172-2.361l23.634-13.334c1.641-.928,3.112-4.5,1.136-7.407-1.644-2.416-4.428-3.009-7.452-1.587Zm4.83,6.686L79.067,340.831l-.06.036a12.566,12.566,0,0,1-6.736,1.954h-18.9c-3.779,0-4.876-1.2-19.05-6.247v-9.937a1.37,1.37,0,0,0-2.74,0v12.636a1.046,1.046,0,0,1-1.045,1.045h-4.1a1.046,1.046,0,0,1-1.045-1.045v-26.2a1.046,1.046,0,0,1,1.045-1.045h4.1a1.046,1.046,0,0,1,1.045,1.045v7.159a1.37,1.37,0,0,0,2.74,0v-3h.873c10.723,0,12.724,5.565,20.181,6.62l.035,0,14.012,1.613a5.307,5.307,0,0,1,4.525,4.667l-.009.759H64.225a46.749,46.749,0,0,1-6.734-.489l-2.425-.354a1.37,1.37,0,1,0-.4,2.711l2.425.354a49.49,49.49,0,0,0,7.131.518H75.29a1.414,1.414,0,0,0,.547-.114l23.044-10.146c1.6-.711,3.072-.832,4.065.627A2.791,2.791,0,0,1,102.591,327.559Z" transform="translate(-22.647 -253.941)" fill="url(#linear-gradient)"/>
  </g>
</svg>
