<svg id="icon-1" xmlns="http://www.w3.org/2000/svg" xmlns:xlink="http://www.w3.org/1999/xlink" width="97.207" height="70.057" viewBox="0 0 97.207 70.057">
  <defs>
    <linearGradient id="linear-gradient" x1="0.5" x2="0.5" y2="1" gradientUnits="objectBoundingBox">
      <stop offset="0" stop-color="#00abfb"/>
      <stop offset="1" stop-color="#00ffbf"/>
    </linearGradient>
  </defs>
  <g id="Group_130" data-name="Group 130" transform="translate(0 0)">
    <path id="Path_7179" data-name="Path 7179" d="M90.087,71.5H85.1a1.424,1.424,0,0,0,0,2.848h4.986a4.277,4.277,0,0,1,4.272,4.272v6.55H2.848V78.62A4.277,4.277,0,0,1,7.12,74.348h71.73a1.424,1.424,0,0,0,0-2.848H7.12A7.128,7.128,0,0,0,0,78.62v15.7a1.424,1.424,0,0,0,2.848,0v-6.3H94.359v36.712a1.424,1.424,0,1,0,2.848,0V78.62A7.128,7.128,0,0,0,90.087,71.5Z" transform="translate(0 -71.5)" fill="url(#linear-gradient)"/>
    <path id="Path_7180" data-name="Path 7180" d="M95.783,246.673a1.424,1.424,0,0,0-1.424,1.424v3.7a4.277,4.277,0,0,1-4.272,4.272H7.12A4.277,4.277,0,0,1,2.848,251.8v-34.01a1.424,1.424,0,1,0-2.848,0V251.8a7.128,7.128,0,0,0,7.12,7.12H90.087a7.128,7.128,0,0,0,7.12-7.12v-3.7A1.424,1.424,0,0,0,95.783,246.673Z" transform="translate(0 -188.863)" fill="url(#linear-gradient)"/>
    <path id="Path_7181" data-name="Path 7181" d="M61.6,232.678a1.424,1.424,0,0,0-2.014,0l-8.557,8.557a1.424,1.424,0,0,0,0,2.014l8.444,8.444a1.424,1.424,0,0,0,2.014-2.014l-7.437-7.437,7.55-7.55A1.424,1.424,0,0,0,61.6,232.678Z" transform="translate(-41.001 -201.739)" fill="url(#linear-gradient)"/>
    <path id="Path_7182" data-name="Path 7182" d="M207.081,251.691a1.424,1.424,0,0,0,2.014,0l8.444-8.444a1.425,1.425,0,0,0,0-2.014l-8.557-8.557a1.424,1.424,0,0,0-2.014,2.014l7.55,7.55-7.437,7.437a1.424,1.424,0,0,0,0,2.014Z" transform="translate(-167.336 -201.739)" fill="url(#linear-gradient)"/>
    <path id="Path_7183" data-name="Path 7183" d="M125.914,236.335a1.424,1.424,0,0,0,1.331-.919l10.118-26.656a1.424,1.424,0,1,0-2.662-1.011l-10.118,26.656a1.425,1.425,0,0,0,1.331,1.93Z" transform="translate(-100.855 -181.137)" fill="url(#linear-gradient)"/>
    <path id="Path_7184" data-name="Path 7184" d="M33.006,97.143a4.272,4.272,0,1,0,4.272-4.272A4.277,4.277,0,0,0,33.006,97.143Zm5.7,0a1.424,1.424,0,1,1-1.424-1.424A1.425,1.425,0,0,1,38.7,97.143Z" transform="translate(-26.74 -88.814)" fill="url(#linear-gradient)"/>
    <path id="Path_7185" data-name="Path 7185" d="M91.166,97.143a4.272,4.272,0,1,0,4.272-4.272A4.277,4.277,0,0,0,91.166,97.143Zm5.7,0a1.424,1.424,0,1,1-1.424-1.424A1.425,1.425,0,0,1,96.862,97.143Z" transform="translate(-73.857 -88.814)" fill="url(#linear-gradient)"/>
    <path id="Path_7186" data-name="Path 7186" d="M149.325,97.143a4.272,4.272,0,1,0,4.272-4.272A4.277,4.277,0,0,0,149.325,97.143Zm5.7,0a1.424,1.424,0,1,1-1.424-1.424A1.425,1.425,0,0,1,155.021,97.143Z" transform="translate(-120.975 -88.814)" fill="url(#linear-gradient)"/>
    <path id="Path_7187" data-name="Path 7187" d="M317.272,205.912H326.2a4.272,4.272,0,0,0,0-8.544h-8.923a4.272,4.272,0,0,0,0,8.544Zm0-5.7H326.2a1.424,1.424,0,1,1,0,2.848h-8.923a1.424,1.424,0,1,1,0-2.848Z" transform="translate(-253.575 -173.471)" fill="url(#linear-gradient)"/>
    <path id="Path_7188" data-name="Path 7188" d="M317.272,265.912h23.542a4.272,4.272,0,1,0,0-8.544H317.272a4.272,4.272,0,0,0,0,8.544Zm0-5.7h23.542a1.424,1.424,0,1,1,0,2.848H317.272a1.424,1.424,0,0,1,0-2.848Z" transform="translate(-253.575 -222.08)" fill="url(#linear-gradient)"/>
    <path id="Path_7189" data-name="Path 7189" d="M317.272,325.912h16.549a4.272,4.272,0,1,0,0-8.544H317.272a4.272,4.272,0,0,0,0,8.544Zm0-5.7h16.549a1.424,1.424,0,0,1,0,2.848H317.272a1.424,1.424,0,0,1,0-2.848Z" transform="translate(-253.575 -270.688)" fill="url(#linear-gradient)"/>
  </g>
</svg>
