<svg id="icon-3" xmlns="http://www.w3.org/2000/svg" xmlns:xlink="http://www.w3.org/1999/xlink" width="85.093" height="85.093" viewBox="0 0 85.093 85.093">
  <defs>
    <linearGradient id="linear-gradient" x1="0.5" x2="0.5" y2="1" gradientUnits="objectBoundingBox">
      <stop offset="0" stop-color="#00abfb"/>
      <stop offset="1" stop-color="#00ffbf"/>
    </linearGradient>
  </defs>
  <g id="Group_188" data-name="Group 188" transform="translate(40.612 13.967)">
    <g id="Group_187" data-name="Group 187">
      <path id="Path_10168" data-name="Path 10168" d="M278.373,84.512a1.247,1.247,0,0,0-1.956,1.545,21.4,21.4,0,0,1-3.564,30.057V106.106a3.914,3.914,0,0,0-2.323-3.574l-6.286-2.794a.086.086,0,0,1-.051-.078V97.1a6.555,6.555,0,0,0,2-4.714V91.052a6.575,6.575,0,1,0-13.151,0v1.332a6.555,6.555,0,0,0,2,4.715V99.66a.086.086,0,0,1-.051.078l-6.286,2.794a3.914,3.914,0,0,0-2.323,3.574v9.99h0a1.247,1.247,0,1,0-1.545,1.956,23.881,23.881,0,0,0,33.54-33.54Zm-22.839,6.54a4.082,4.082,0,1,1,8.165,0v1.332a4.082,4.082,0,1,1-8.165,0Zm7.055,10.555-2.973,2.477-2.973-2.477a2.581,2.581,0,0,0,.889-1.947V98.619a6.548,6.548,0,0,0,4.168,0V99.66A2.581,2.581,0,0,0,262.589,101.607Zm7.771,16.2a21.279,21.279,0,0,1-2.836,1.376V109.7a1.246,1.246,0,1,0-2.493,0V120a21.455,21.455,0,0,1-10.83,0V109.7a1.246,1.246,0,0,0-2.493,0v9.474a21.234,21.234,0,0,1-2.836-1.382v-11.69a1.419,1.419,0,0,1,.842-1.3l4.486-1.994,4.617,3.848a1.246,1.246,0,0,0,1.6,0l4.618-3.848,4.486,1.994a1.419,1.419,0,0,1,.842,1.3Z" transform="translate(-244.359 -84.038)" fill="url(#linear-gradient)"/>
    </g>
  </g>
  <g id="Group_190" data-name="Group 190" transform="translate(31.977 5.332)">
    <g id="Group_189" data-name="Group 189">
      <path id="Path_10169" data-name="Path 10169" d="M231.08,37.218a23.88,23.88,0,0,0-33.54,33.54,1.246,1.246,0,1,0,1.956-1.545,21.387,21.387,0,0,1,30.038-30.038,1.247,1.247,0,1,0,1.545-1.956Z" transform="translate(-192.405 -32.082)" fill="url(#linear-gradient)"/>
    </g>
  </g>
  <g id="Group_192" data-name="Group 192">
    <g id="Group_191" data-name="Group 191">
      <path id="Path_10170" data-name="Path 10170" d="M55.869,0A29.208,29.208,0,0,0,34.353,48.978L29.89,53.44l-1-1a3.911,3.911,0,0,0-5.531,0L1.926,73.868a6.576,6.576,0,1,0,9.3,9.3l21.431-21.43a3.911,3.911,0,0,0,0-5.531l-1-1,4.463-4.463A29.218,29.218,0,1,0,55.869,0ZM9.462,81.4a4.083,4.083,0,1,1-5.774-5.774L22.125,57.194,27.9,62.968ZM30.893,59.974l-1.231,1.231-5.774-5.774L25.119,54.2a1.418,1.418,0,0,1,2.005,0l3.768,3.768a1.418,1.418,0,0,1,0,2.006Zm24.976-4.019A26.731,26.731,0,1,1,82.6,29.224,26.761,26.761,0,0,1,55.869,55.955Z" fill="url(#linear-gradient)"/>
    </g>
  </g>
</svg>
