<svg id="KENYA" xmlns="http://www.w3.org/2000/svg" xmlns:xlink="http://www.w3.org/1999/xlink" width="165.782" height="96.716" viewBox="0 0 165.782 96.716">
  <defs>
    <clipPath id="clip-path">
      <rect id="Rectangle_11" data-name="Rectangle 11" width="165.782" height="96.716" fill="none"/>
    </clipPath>
  </defs>
  <g id="Group_33" data-name="Group 33">
    <g id="Group_32" data-name="Group 32">
      <g id="Group_31" data-name="Group 31" clip-path="url(#clip-path)">
        <rect id="Rectangle_7" data-name="Rectangle 7" width="165.782" height="96.716" fill="#fff"/>
        <rect id="Rectangle_8" data-name="Rectangle 8" width="165.782" height="29.017"/>
        <rect id="Rectangle_9" data-name="Rectangle 9" width="165.782" height="29.017" transform="translate(0 67.699)" fill="#2a680b"/>
        <g id="Group_30" data-name="Group 30">
          <g id="Group_29" data-name="Group 29" clip-path="url(#clip-path)">
            <path id="Path_3453" data-name="Path 3453" d="M577.935,671.04l1.052.6,28.2-48.886c1.66-.445,2.559-2.025,3.468-3.591a35.231,35.231,0,0,0,4.07-10.668,35.63,35.63,0,0,0-7.216,8.855c-.9,1.566-1.8,3.147-1.353,4.786Z" transform="translate(-513.02 -593.965)"/>
            <g id="Group_27" data-name="Group 27" transform="translate(64.87 14.467)">
              <path id="Path_3454" data-name="Path 3454" d="M579.042,671.8l-1.116-.657,28.189-49.005c-.464-1.6.464-3.24,1.358-4.766a35.007,35.007,0,0,1,7.226-8.9,30.617,30.617,0,0,1-3.937,10.767c-.9,1.566-1.832,3.166-3.522,3.61l-28.2,48.945Zm35.629-63.284a39.46,39.46,0,0,0-7.049,8.915c-.889,1.526-1.8,3.127-1.353,4.727l-28.229,48.985.948.445,28.17-48.832c1.67-.484,2.584-2.064,3.463-3.586a34.633,34.633,0,0,0,4.05-10.654Z" transform="translate(-577.926 -608.48)"/>
            </g>
            <path id="Path_3455" data-name="Path 3455" d="M577.935,671.04l1.052.6,28.2-48.886c1.66-.445,2.559-2.025,3.468-3.591a35.231,35.231,0,0,0,4.07-10.668,35.63,35.63,0,0,0-7.216,8.855c-.9,1.566-1.8,3.147-1.353,4.786Z" transform="translate(-513.02 -593.965)" fill="#fff"/>
            <path id="Path_3456" data-name="Path 3456" d="M614.262,671.04l-1.062.6-28.19-48.886c-1.659-.445-2.559-2.025-3.453-3.591a34.624,34.624,0,0,1-4.08-10.668,35.746,35.746,0,0,1,7.217,8.855c.884,1.566,1.793,3.147,1.349,4.786Z" transform="translate(-514.824 -593.965)"/>
            <g id="Group_28" data-name="Group 28" transform="translate(62.573 14.546)">
              <path id="Path_3457" data-name="Path 3457" d="M613.233,671.74l-.03-.079-28.219-48.867c-1.62-.444-2.544-2.045-3.443-3.591a34.938,34.938,0,0,1-4.08-10.708,30.616,30.616,0,0,1,7.36,8.817c.9,1.526,1.813,3.146,1.374,4.825l28.2,48.847-1.161.755Zm-35.742-63.185a40.883,40.883,0,0,0,4.179,10.554c.894,1.521,1.813,3.1,3.423,3.547l28.21,48.872.973-.578-28.239-48.773c.435-1.679-.479-3.279-1.359-4.806a34.5,34.5,0,0,0-7.187-8.816Z" transform="translate(-577.461 -608.496)"/>
            </g>
            <path id="Path_3458" data-name="Path 3458" d="M614.262,671.04l-1.062.6-28.19-48.886c-1.659-.445-2.559-2.025-3.453-3.591a34.624,34.624,0,0,1-4.08-10.668,35.746,35.746,0,0,1,7.217,8.855c.884,1.566,1.793,3.147,1.349,4.786Z" transform="translate(-514.824 -593.965)" fill="#fff"/>
            <path id="Path_3459" data-name="Path 3459" d="M564.793,623.975v29.017h70.7c1.818,4.825,7.844,14.511,11.475,14.511s9.667-9.685,11.46-14.511h72.141V623.975H658.431c-1.793-4.84-7.834-14.506-11.46-14.506s-9.657,9.666-11.475,14.506Z" transform="translate(-564.793 -590.117)" fill="#aa0017"/>
            <path id="Path_3460" data-name="Path 3460" d="M586.149,641.423a36.273,36.273,0,0,0,0-29.017,36.491,36.491,0,0,0,0,29.017Z" transform="translate(-492.511 -578.548)"/>
            <path id="Path_3461" data-name="Path 3461" d="M581.514,641.423a36.38,36.38,0,0,1,0-29.017,36.327,36.327,0,0,1,0,29.017Z" transform="translate(-510.81 -578.548)"/>
            <path id="Path_3462" data-name="Path 3462" d="M583.357,614.609c1.329,0,2.42,1.625,2.42,3.611,0,2.025-1.092,3.645-2.42,3.645s-2.415-1.62-2.415-3.645c0-1.986,1.072-3.611,2.415-3.611Z" transform="translate(-501.178 -569.87)" fill="#fff"/>
            <path id="Path_3463" data-name="Path 3463" d="M581.553,616.059a34.757,34.757,0,0,1,0,25.387Z" transform="translate(-498.767 -564.158)" fill="#fff"/>
            <path id="Path_3464" data-name="Path 3464" d="M583.234,634.88a34.572,34.572,0,0,1,0-25.392Z" transform="translate(-501.663 -590.042)" fill="#fff"/>
            <path id="Path_3465" data-name="Path 3465" d="M583.234,616.059a34.559,34.559,0,0,0,0,25.387Z" transform="translate(-501.663 -564.158)" fill="#fff"/>
            <path id="Path_3466" data-name="Path 3466" d="M581.553,634.88a34.77,34.77,0,0,0,0-25.392Z" transform="translate(-498.767 -590.042)" fill="#fff"/>
          </g>
        </g>
      </g>
    </g>
  </g>
</svg>
