<svg xmlns="http://www.w3.org/2000/svg" width="278.792" height="53.561" viewBox="0 0 278.792 53.561">
  <g id="logo-3" transform="translate(-1159.558 -4704.983)">
    <g id="Group_280" data-name="Group 280" transform="translate(1159.558 4704.982)">
      <path id="Path_10273" data-name="Path 10273" d="M243.128,237.18,250.359,233l7.128,4.183-7.128,4.116-7.231-4.018Z" transform="translate(-221.429 -208.35)" fill="#f6bd3a"/>
      <path id="Path_10274" data-name="Path 10274" d="M180,177.727,208.931,161.3l21.527,12.237L223.3,185.942l-14.371-8.215-21.695,12.315Z" transform="translate(-180 -161.295)" fill="#f6bd3a"/>
      <path id="Path_10275" data-name="Path 10275" d="M215.515,222.239v-8.191l7.132-4.125,7.227-4.116v8.241l-7.128,4.094v8.2l-7.231,4.2Zm0-16.432-7.228-4.1-7.235,4.012v-8.208l21.694-12.324v16.432Zm21.5-8.291v-4.107l7.255-4.195.073,8.215-7.228,4.194Z" transform="translate(-193.815 -176.978)" fill="#eb8c23"/>
      <path id="Path_10276" data-name="Path 10276" d="M194.471,226.188V201.712l7.13-4.01.1,8.106,7.231,4.042v8.293l-7.231-3.849v16.245Zm-10.906-22.6L180,201.453v-8.042l7.236,4.107v8.208Zm25.365-10.178v-8.217L223.2,193.41l.1,8.215Z" transform="translate(-180 -176.978)" fill="#e35a2b"/>
    </g>
    <path id="Path_10277" data-name="Path 10277" d="M98.335,339.52v29.6H93.126v-29.6H83v-5.112h25.462v5.112Z" transform="translate(1137.088 4383.42)" fill="#ef6639"/>
    <path id="Path_10278" data-name="Path 10278" d="M137.028,354.516a13.642,13.642,0,0,1,.422,3.908l-16.817,5.015a2.657,2.657,0,0,0,.495,1.615,6.764,6.764,0,0,0,1.492,2.24,6.909,6.909,0,0,0,1.988,1.3,6.241,6.241,0,0,0,2.275.42,7.351,7.351,0,0,0,2.994-.565,10.98,10.98,0,0,0,2.656-1.5l3.043,3.221a12.574,12.574,0,0,1-3.887,2.542,12.333,12.333,0,0,1-5.112.889,10.156,10.156,0,0,1-4.332-.889,10.608,10.608,0,0,1-3.588-2.6,12.7,12.7,0,0,1-2.431-4.271,16.7,16.7,0,0,1-.9-5.759,18.276,18.276,0,0,1,.841-5.9,12.885,12.885,0,0,1,2.328-4.231,9.831,9.831,0,0,1,3.6-2.587,11.628,11.628,0,0,1,4.656-.911,10.682,10.682,0,0,1,4.828,1.048,9.534,9.534,0,0,1,3.416,2.838A11.6,11.6,0,0,1,137.028,354.516Zm-4.883,1.142a5.713,5.713,0,0,0-1.2-2.63,4.131,4.131,0,0,0-1.838-1.423,6.994,6.994,0,0,0-2.722-.382,5.9,5.9,0,0,0-4.558,1.97c-.959,1.334-1.231,3.525-1.194,5.905Zm23.78,17.432V358.333c0-2.676-.481-4.51-1.427-5.566a5,5,0,0,0-3.948-1.587,4.865,4.865,0,0,0-3.95,1.71,7.67,7.67,0,0,0-1.388,4.919V373.09H140.1V347.007h5.116V349.5a6.345,6.345,0,0,1,2.756-2.232,9.137,9.137,0,0,1,3.781-.815q4.582,0,6.923,2.95c1.569,1.937,2.363,4.85,2.363,8.735v14.95Zm26.111-6.863a7.659,7.659,0,0,1-.8,3.659,7.31,7.31,0,0,1-2.17,2.364,10.239,10.239,0,0,1-3.108,1.295,19.236,19.236,0,0,1-3.684.386,15.917,15.917,0,0,1-5.339-.981,17.815,17.815,0,0,1-4.665-2.371l2.344-3.836a14.441,14.441,0,0,0,3.809,1.914,12.243,12.243,0,0,0,3.781.643c3.177,0,4.773-.959,4.773-2.88a2.72,2.72,0,0,0-1.6-2.4,38.092,38.092,0,0,0-4.472-1.969,25.1,25.1,0,0,1-3.523-1.619,9.307,9.307,0,0,1-2.394-1.786,5.647,5.647,0,0,1-1.33-2.1,8.826,8.826,0,0,1-.385-2.679,6.781,6.781,0,0,1,.648-3.072,5.62,5.62,0,0,1,1.847-2.232,7.76,7.76,0,0,1,2.81-1.365,14.146,14.146,0,0,1,3.6-.443,14.839,14.839,0,0,1,4.787.8,15.27,15.27,0,0,1,4.044,2.077l-2.232,3.9a13.851,13.851,0,0,0-3.238-1.677,11.837,11.837,0,0,0-3.528-.517,4.27,4.27,0,0,0-2.713.672,2.059,2.059,0,0,0-.847,1.722,1.716,1.716,0,0,0,.2.866,1.89,1.89,0,0,0,.744.876,7.248,7.248,0,0,0,1.452.945c.6.3,1.426.683,2.4,1.068,1.473.531,2.745,1.115,3.836,1.578a13.757,13.757,0,0,1,2.759,1.748,6.2,6.2,0,0,1,1.645,2.3A7.706,7.706,0,0,1,182.036,366.227Zm23.783-6.023a16.838,16.838,0,0,1-.91,5.794,12.63,12.63,0,0,1-2.463,4.342,11.031,11.031,0,0,1-3.733,2.643,11.878,11.878,0,0,1-4.675.946,10.788,10.788,0,0,1-4.56-1.011,9.98,9.98,0,0,1-3.624-2.752,12.165,12.165,0,0,1-2.39-4.272,16,16,0,0,1-.875-5.548,16.973,16.973,0,0,1,.886-5.709,12.846,12.846,0,0,1,2.449-4.263,10.467,10.467,0,0,1,3.685-2.687,11.386,11.386,0,0,1,4.595-.933,11.2,11.2,0,0,1,4.618.961,11.582,11.582,0,0,1,3.7,2.72,12.593,12.593,0,0,1,2.424,4.236,16.587,16.587,0,0,1,.876,5.532Zm-5.182.142a10.557,10.557,0,0,0-1.742-6.391,5.9,5.9,0,0,0-4.884-2.336,5.394,5.394,0,0,0-4.6,2.336,10.588,10.588,0,0,0-1.678,6.249c0,2.909.61,5.053,1.808,6.565a5.714,5.714,0,0,0,4.69,2.31,5.131,5.131,0,0,0,2.655-.716,7.571,7.571,0,0,0,2.035-1.84,10.382,10.382,0,0,0,1.279-2.767A12.124,12.124,0,0,0,200.637,360.346Zm21.676-7.651a18.5,18.5,0,0,0-1.751-.663,7.709,7.709,0,0,0-2.192-.253,4.487,4.487,0,0,0-3.776,1.7,7.963,7.963,0,0,0-1.336,4.971v14.891h-5.112V347.294h5.112v2.5a7.217,7.217,0,0,1,5.951-3.034,10.78,10.78,0,0,1,2.626.285,5.368,5.368,0,0,1,1.773.8Z" transform="translate(1125.762 4379.199)" fill="#ef6639"/>
    <path id="Path_10279" data-name="Path 10279" d="M290.386,338.731v9.094H300.4v5.112H290.386v15.4h-5.164V333.619h22.39v5.112Zm18.07,29.6v-33.49l5.112-2.687v36.176h-5.112Zm31.176-13.141a16.768,16.768,0,0,1-.871,5.794,13.509,13.509,0,0,1-2.489,4.342,10.917,10.917,0,0,1-3.686,2.642,12.119,12.119,0,0,1-4.689.947,10.526,10.526,0,0,1-4.561-1.011,9.676,9.676,0,0,1-3.624-2.752,12.9,12.9,0,0,1-2.434-4.272,17.094,17.094,0,0,1-.874-5.547,17.46,17.46,0,0,1,.909-5.709,12.037,12.037,0,0,1,2.484-4.263,10.529,10.529,0,0,1,3.625-2.687,11.788,11.788,0,0,1,4.639-.933,10.941,10.941,0,0,1,4.585.961,11.173,11.173,0,0,1,3.729,2.72,12.163,12.163,0,0,1,2.386,4.236A15.464,15.464,0,0,1,339.632,355.194Zm-5.134.142a10.858,10.858,0,0,0-1.746-6.391,5.958,5.958,0,0,0-4.883-2.336,5.514,5.514,0,0,0-4.639,2.336,10.815,10.815,0,0,0-1.647,6.249c0,2.91.579,5.053,1.821,6.565a5.691,5.691,0,0,0,4.7,2.31,4.879,4.879,0,0,0,2.6-.716,7.906,7.906,0,0,0,2.082-1.84,10.879,10.879,0,0,0,1.285-2.767A14.487,14.487,0,0,0,334.5,355.337Zm30.377,13H360.5l-3.523-13.141c-.294-.992-.522-1.99-.741-3.059-.257-1.054-.438-1.883-.624-2.507q-.252,1.265-.542,2.521c-.253,1.056-.527,2.112-.746,3.116l-3.49,13.07h-4.4l-7.118-26.051h5.043l3.115,12.648c.239,1.04.475,2.109.7,3.171s.409,1.922.6,2.558l.647-2.558c.22-1.062.485-2.131.771-3.171l3.494-12.648h4.069L361.323,355c.253,1.017.474,2.041.735,3.1s.467,1.922.613,2.558c.183-.636.391-1.5.609-2.578.207-1.042.426-2.111.687-3.151l3.116-12.648h5.04Z" transform="translate(1066.227 4384.208)" fill="#a6a7a9"/>
  </g>
</svg>
