<svg xmlns="http://www.w3.org/2000/svg" width="265.164" height="36.923" viewBox="0 0 265.164 36.923">
  <g id="logo-1" transform="translate(-0.5 -0.497)">
    <path id="Path_10280" data-name="Path 10280" d="M.5,5.578,15.642,3.5V18.108H.5Zm15.142,14.4V34.423L.5,32.345V19.978h15.14ZM17.316,3.267,37.464.5V18.108H17.316ZM37.464,19.977V37.42L17.316,34.653V19.977H37.464Z" fill="#0dadea"/>
    <g id="Group_279" data-name="Group 279" transform="translate(48.831 7.429)">
      <path id="Path_10281" data-name="Path 10281" d="M162.013,42.832h-3.5V29.3q0-1.664.208-4.07h-.059a14.208,14.208,0,0,1-.579,1.97l-6.347,15.633H149.3l-6.363-15.516a14.394,14.394,0,0,1-.563-2.085h-.059q.12,1.255.119,4.1v13.5h-3.263V21.919h4.968l5.591,13.927a20.3,20.3,0,0,1,.83,2.392h.074q.549-1.648.89-2.451l5.7-13.868h4.79V42.832Zm6.57-18.069a2.084,2.084,0,0,1-1.446-.539,1.762,1.762,0,0,1-.6-1.371,1.808,1.808,0,0,1,.6-1.386,2.061,2.061,0,0,1,1.446-.554,2.126,2.126,0,0,1,1.483.554,1.8,1.8,0,0,1,.609,1.386,1.775,1.775,0,0,1-.609,1.349A2.107,2.107,0,0,1,168.583,24.763Zm1.7,18.069h-3.44V27.9h3.44V42.832Zm15.38-.686a8.6,8.6,0,0,1-4.316,1.035,7.379,7.379,0,0,1-5.458-2.078,7.294,7.294,0,0,1-2.076-5.389,7.69,7.69,0,0,1,8.2-8.167,8.826,8.826,0,0,1,3.663.716v3.15a5.614,5.614,0,0,0-3.381-1.167,4.74,4.74,0,0,0-3.574,1.451,5.254,5.254,0,0,0-1.395,3.8,5.008,5.008,0,0,0,1.312,3.66,4.7,4.7,0,0,0,3.522,1.342,5.559,5.559,0,0,0,3.5-1.3ZM197.9,31.121a2.886,2.886,0,0,0-1.795-.481A3.085,3.085,0,0,0,193.555,32a5.987,5.987,0,0,0-1.024,3.689v7.146H189.09V27.9h3.441v3.077h.059a5.187,5.187,0,0,1,1.55-2.457,3.535,3.535,0,0,1,2.336-.882,2.958,2.958,0,0,1,1.425.277v3.209Zm9.195,12.06a7.6,7.6,0,0,1-5.614-2.092,7.488,7.488,0,0,1-2.1-5.548,7.79,7.79,0,0,1,2.188-5.878,8.123,8.123,0,0,1,5.9-2.115,7.352,7.352,0,0,1,5.546,2.057,7.86,7.86,0,0,1,1.987,5.7,7.393,7.393,0,0,1-7.9,7.875Zm.163-12.935a3.957,3.957,0,0,0-3.188,1.385,5.732,5.732,0,0,0-1.172,3.82,5.4,5.4,0,0,0,1.187,3.7,4.017,4.017,0,0,0,3.174,1.349,3.809,3.809,0,0,0,3.122-1.326,5.815,5.815,0,0,0,1.09-3.778,5.889,5.889,0,0,0-1.09-3.806A3.8,3.8,0,0,0,207.259,30.246Zm10.308,12.119V39.231a6.939,6.939,0,0,0,4.255,1.444q3.116,0,3.114-1.808a1.411,1.411,0,0,0-.266-.868,2.5,2.5,0,0,0-.72-.634,5.865,5.865,0,0,0-1.068-.5q-.617-.22-1.372-.5a14.578,14.578,0,0,1-1.683-.773,5.075,5.075,0,0,1-1.246-.925,3.464,3.464,0,0,1-.748-1.174,4.242,4.242,0,0,1-.252-1.531,3.493,3.493,0,0,1,.519-1.9,4.464,4.464,0,0,1,1.393-1.385,6.736,6.736,0,0,1,1.988-.846,9.238,9.238,0,0,1,2.3-.284,10.62,10.62,0,0,1,3.766.626v2.96a6.425,6.425,0,0,0-3.678-1.08,4.969,4.969,0,0,0-1.179.13,3.077,3.077,0,0,0-.9.365,1.809,1.809,0,0,0-.578.561,1.322,1.322,0,0,0-.208.721,1.525,1.525,0,0,0,.208.817,1.874,1.874,0,0,0,.616.591,5.273,5.273,0,0,0,.979.466c.381.141.818.295,1.313.459a19.266,19.266,0,0,1,1.757.8,5.936,5.936,0,0,1,1.328.925,3.611,3.611,0,0,1,.845,1.2,4,4,0,0,1,.3,1.611,3.63,3.63,0,0,1-.535,1.983,4.408,4.408,0,0,1-1.423,1.4,6.7,6.7,0,0,1-2.054.823,10.8,10.8,0,0,1-2.455.27,10.461,10.461,0,0,1-4.316-.814Zm20.792.816a7.6,7.6,0,0,1-5.614-2.092,7.488,7.488,0,0,1-2.1-5.548,7.79,7.79,0,0,1,2.188-5.878,8.119,8.119,0,0,1,5.894-2.115,7.352,7.352,0,0,1,5.546,2.057,7.862,7.862,0,0,1,1.988,5.7,7.392,7.392,0,0,1-7.9,7.875Zm.163-12.935a3.962,3.962,0,0,0-3.19,1.385,5.732,5.732,0,0,0-1.172,3.82,5.4,5.4,0,0,0,1.187,3.7,4.018,4.018,0,0,0,3.175,1.349,3.813,3.813,0,0,0,3.122-1.326,5.805,5.805,0,0,0,1.09-3.778,5.889,5.889,0,0,0-1.09-3.806A3.8,3.8,0,0,0,238.522,30.246Zm19.843-6.766a3.171,3.171,0,0,0-1.587-.394q-2.507,0-2.506,2.785V27.9h3.53v2.654h-3.515V42.832h-3.441V30.553h-2.595V27.9h2.595V25.478a4.675,4.675,0,0,1,1.572-3.726,5.782,5.782,0,0,1,3.931-1.364,5.91,5.91,0,0,1,2.016.277Zm9.921,19.192a6.05,6.05,0,0,1-2.655.5q-4.418,0-4.418-4.17V30.554h-2.536V27.9h2.536V24.444l3.441-.962V27.9h3.634v2.654h-3.634V38.02a2.9,2.9,0,0,0,.489,1.9,2.052,2.052,0,0,0,1.631.569,2.382,2.382,0,0,0,1.512-.5Zm29.186.16H293.6l-1.913-5.324h-8.364l-1.839,5.324h-3.857l7.963-20.912h3.974l7.9,20.912Zm-6.718-8.152-2.95-8.342a9.614,9.614,0,0,1-.282-1.312h-.059a8.37,8.37,0,0,1-.3,1.312l-2.921,8.342Zm20.48-5.367-8.2,10.878H311.2v2.64H298.213V41.563l8.379-11.025h-7.578V27.9h12.22v1.416Zm16.15,13.519h-3.44V40.468h-.059a4.965,4.965,0,0,1-4.656,2.713q-5.384,0-5.384-6.359V27.9h3.441v8.576q0,4.025,3.16,4.025a3.216,3.216,0,0,0,2.513-1.108,4.2,4.2,0,0,0,.986-2.9V27.9h3.441Zm13.3-11.711a2.885,2.885,0,0,0-1.795-.481A3.085,3.085,0,0,0,336.342,32a5.989,5.989,0,0,0-1.024,3.689v7.146h-3.44V27.9h3.44v3.077h.059a5.187,5.187,0,0,1,1.549-2.457,3.536,3.536,0,0,1,2.336-.882,2.95,2.95,0,0,1,1.423.277l0,3.209Zm15.32,5.162H345.655a4.263,4.263,0,0,0,1.3,3.194,4.881,4.881,0,0,0,3.4,1.123,7.592,7.592,0,0,0,4.463-1.429V41.9a10.331,10.331,0,0,1-5.487,1.284,6.852,6.852,0,0,1-5.257-2.035,8.048,8.048,0,0,1-1.9-5.723,7.875,7.875,0,0,1,2.1-5.681,6.92,6.92,0,0,1,5.213-2.195,6.034,6.034,0,0,1,4.819,1.968,8.082,8.082,0,0,1,1.706,5.469v1.3Zm-3.322-2.392a4.334,4.334,0,0,0-.875-2.836,2.948,2.948,0,0,0-2.373-1.013,3.367,3.367,0,0,0-2.513,1.065,4.829,4.829,0,0,0-1.268,2.785h7.03Z" transform="translate(-139.175 -20.388)" fill="#00adef"/>
    </g>
  </g>
</svg>
