<svg xmlns="http://www.w3.org/2000/svg" xmlns:xlink="http://www.w3.org/1999/xlink" width="215.602" height="62.574" viewBox="0 0 215.602 62.574">
  <defs>
    <linearGradient id="linear-gradient" x1="1.337" y1="-0.878" x2="2.662" y2="-2.007" gradientUnits="objectBoundingBox">
      <stop offset="0" stop-color="#5a9fd4"/>
      <stop offset="1" stop-color="#306998"/>
    </linearGradient>
    <linearGradient id="linear-gradient-2" x1="2.82" y1="-3.011" x2="2.348" y2="-2.354" gradientUnits="objectBoundingBox">
      <stop offset="0" stop-color="#ffd43b"/>
      <stop offset="1" stop-color="#ffe873"/>
    </linearGradient>
    <radialGradient id="radial-gradient" cx="0.5" cy="0.5" r="0.5" gradientTransform="matrix(0, -1, -0.852, 0, -17.497, -17.849)" gradientUnits="objectBoundingBox">
      <stop offset="0" stop-color="#b8b8b8" stop-opacity="0.498"/>
      <stop offset="1" stop-color="#7f7f7f" stop-opacity="0"/>
    </radialGradient>
  </defs>
  <g id="logo-4" transform="translate(-183.544 -228.739)">
    <path id="path46" d="M342.852,271.89q0-9.919-5.657-10.193a10.63,10.63,0,0,0-4.391.722,6.452,6.452,0,0,0-2.306,1.217v15.783a11.2,11.2,0,0,0,6.422,2.107Q342.849,281.134,342.852,271.89Zm4.652.274a14.028,14.028,0,0,1-2.372,8.365,8.748,8.748,0,0,1-7.343,3.873,13.022,13.022,0,0,1-7.29-2.213v14.345l-4.046-1.443V263.25a9.043,9.043,0,0,1,2.554-2.107,17.527,17.527,0,0,1,8.777-2.16l.057.057a8.053,8.053,0,0,1,7.277,3.873A16.461,16.461,0,0,1,347.5,272.164Z" transform="translate(-78.016 -16.511)" fill="#646464"/>
    <path id="path48" d="M402.813,281.579q0,6.76-1.355,9.361a9.543,9.543,0,0,1-5.183,4.152,19.828,19.828,0,0,1-6.7,1.332l-.668-2.549a32.193,32.193,0,0,0,5.152-1,6.805,6.805,0,0,0,4.045-3.046q.89-1.665.885-6.369V282.41a20.771,20.771,0,0,1-8.7,1.881,7.992,7.992,0,0,1-5.263-1.881,6.4,6.4,0,0,1-2.549-5.2V260.369l4.045-1.385v16.947a5.152,5.152,0,0,0,1.752,4.183,6.624,6.624,0,0,0,4.537,1.412,11.349,11.349,0,0,0,5.954-2.16V259.595h4.045Z" transform="translate(-108.601 -16.511)" fill="#646464"/>
    <path id="path50" d="M448.381,275.061c-.482.04-.925.057-1.332.057a7.962,7.962,0,0,1-5.347-1.637,5.657,5.657,0,0,1-1.907-4.528V253.019h-2.771v-2.545H439.8v-6.759l4.041-1.439v8.2h4.545v2.545h-4.545v15.823a3.833,3.833,0,0,0,1.221,3.222,6.178,6.178,0,0,0,3.324.89Z" transform="translate(-138.378 -7.391)" fill="#646464"/>
    <path id="path52" d="M492.266,267.338H488.22V251.723a7.383,7.383,0,0,0-1.111-4.1,4.043,4.043,0,0,0-3.563-1.939q-2.782,0-6.958,2.934v18.718h-4.045V230.013l4.045-1.274v17a14.1,14.1,0,0,1,8.476-2.824,6.755,6.755,0,0,1,5.205,2.16,7.607,7.607,0,0,1,2,5.373v16.889Z" transform="translate(-157.768 0)" fill="#646464"/>
    <path id="path54" d="M541.948,271.253a12.428,12.428,0,0,0-1.443-6.3,6.041,6.041,0,0,0-5.316-3.2q-6.652.386-6.648,9.525a15.667,15.667,0,0,0,1.39,7q1.781,3.579,5.338,3.523Q541.948,281.747,541.948,271.253Zm4.43.027a14.388,14.388,0,0,1-2.771,9.029,9.964,9.964,0,0,1-8.418,4.041,9.765,9.765,0,0,1-8.312-4.041,14.58,14.58,0,0,1-2.713-9.029,12.891,12.891,0,0,1,2.934-8.586,10.109,10.109,0,0,1,8.144-3.709,10.279,10.279,0,0,1,8.2,3.709A12.89,12.89,0,0,1,546.378,271.279Z" transform="translate(-185.948 -16.511)" fill="#646464"/>
    <path id="path56" d="M600.645,283.849H596.6v-16.5a5.52,5.52,0,0,0-1.633-4.24,5.93,5.93,0,0,0-4.351-1.465,9.721,9.721,0,0,0-5.484,1.881v20.324h-4.046V263.025a19.926,19.926,0,0,1,6.427-3.319,19.6,19.6,0,0,1,4.877-.722,12.645,12.645,0,0,1,2.713.279,7.806,7.806,0,0,1,3.877,2.049,5.42,5.42,0,0,1,1.664,3.988Z" transform="translate(-217.023 -16.511)" fill="#646464"/>
    <path id="path1948" d="M208.482,231.874a34.829,34.829,0,0,0-5.818.5c-5.152.91-6.088,2.815-6.088,6.329v4.64h12.175v1.547H192.007a7.6,7.6,0,0,0-7.606,6.172,22.754,22.754,0,0,0,0,12.374c.865,3.6,2.932,6.173,6.471,6.173h4.186v-5.563a7.738,7.738,0,0,1,7.606-7.564h12.161a6.134,6.134,0,0,0,6.088-6.187V238.7c0-3.3-2.784-5.778-6.088-6.329A38.026,38.026,0,0,0,208.482,231.874Zm-6.584,3.732a2.32,2.32,0,1,1-2.285,2.327A2.31,2.31,0,0,1,201.9,235.606Z" transform="translate(0 -1.711)" fill="url(#linear-gradient)"/>
    <path id="path1950" d="M238.1,260.531v5.406a7.809,7.809,0,0,1-7.606,7.72H218.332a6.211,6.211,0,0,0-6.088,6.187v11.593c0,3.3,2.869,5.241,6.088,6.187a20.369,20.369,0,0,0,12.161,0c3.065-.888,6.088-2.674,6.088-6.187V286.8H224.419v-1.547h18.248c3.539,0,4.857-2.468,6.088-6.173,1.271-3.814,1.217-7.482,0-12.374-.874-3.522-2.544-6.172-6.088-6.172Zm-6.84,29.36a2.32,2.32,0,1,1-2.285,2.313A2.3,2.3,0,0,1,231.259,289.891Z" transform="translate(-15.668 -17.356)" fill="url(#linear-gradient-2)"/>
    <path id="text3004" d="M639.488,246.4h.709v-4.448h1.68v-.53h-4.07v.53h1.681V246.4m3.018,0h.606v-4.063l1.316,4.062h.675l1.37-4.049V246.4h.662v-4.979h-.875l-1.5,4.265-1.277-4.265h-.979V246.4" transform="translate(-247.987 -6.924)" fill="#646464"/>
    <path id="path1894" d="M236.062,355.771c0,1.747-7.3,3.164-16.316,3.164s-16.316-1.416-16.316-3.164,7.3-3.164,16.316-3.164,16.316,1.417,16.316,3.164Z" transform="translate(-10.856 -67.621)" opacity="0.444" fill="url(#radial-gradient)" style="isolation: isolate"/>
  </g>
</svg>
