<svg xmlns="http://www.w3.org/2000/svg" xmlns:xlink="http://www.w3.org/1999/xlink" width="209.009" height="199.341" viewBox="0 0 209.009 199.341">
  <defs>
    <linearGradient id="linear-gradient" x1="0.5" x2="0.5" y2="1" gradientUnits="objectBoundingBox">
      <stop offset="0" stop-color="#00abfb"/>
      <stop offset="1" stop-color="#00ffbf"/>
    </linearGradient>
  </defs>
  <g id="Machine_Learning_Engineer_-icon" data-name="Machine Learning Engineer -icon" transform="translate(-855.5 -6195.167)">
    <path id="Path_10232" data-name="Path 10232" d="M106.587,6.857c72.478,8.943,82.635,37.377,99.026,97.409s-27.574,106.056-109.9,100.371S0,163.132,0,104.265,34.11-2.087,106.587,6.857Z" transform="translate(855.5 6189.397)" fill="#f6f9fd"/>
    <g id="machine-learning" transform="translate(912.616 6247.789)">
      <path id="Path_10266" data-name="Path 10266" d="M33.839,34.816H19.352a1.573,1.573,0,0,0-1.115.462l-5.848,5.848H11.174a4.732,4.732,0,1,0,0,3.155h1.868a1.573,1.573,0,0,0,1.115-.462L20,37.971H33.839A4.685,4.685,0,0,0,41.4,39.927L47.825,43.5a4.674,4.674,0,0,0-.079.778,4.732,4.732,0,1,0,9.465,0,4.673,4.673,0,0,0-.079-.778l6.428-3.576a4.691,4.691,0,0,0,3.115,1.2,4.721,4.721,0,0,0,1.577-9.174V25.06a4.718,4.718,0,1,0-4.693-7.976l-6.428-3.576a4.637,4.637,0,0,0,.079-.776,4.732,4.732,0,1,0-9.465,0,4.674,4.674,0,0,0,.079.778L41.4,17.086a4.685,4.685,0,0,0-7.558,1.956H20l-5.848-5.848a1.573,1.573,0,0,0-1.115-.462H11.174a4.732,4.732,0,1,0,0,3.155h1.215l5.848,5.848a1.573,1.573,0,0,0,1.115.462H33.839A4.728,4.728,0,0,0,36.7,25.062v1.868H11.174a4.732,4.732,0,1,0,0,3.155H36.7v1.868A4.728,4.728,0,0,0,33.839,34.816ZM6.732,44.281A1.577,1.577,0,1,1,8.31,42.7,1.58,1.58,0,0,1,6.732,44.281Zm0-28.394A1.577,1.577,0,1,1,8.31,14.31,1.58,1.58,0,0,1,6.732,15.887Zm0,14.2A1.577,1.577,0,1,1,8.31,28.507,1.58,1.58,0,0,1,6.732,30.084Zm31.549,7.887a1.577,1.577,0,1,1,1.577-1.577A1.58,1.58,0,0,1,38.281,37.971ZM41.4,24.153l6.428,3.576a3.874,3.874,0,0,0,0,1.555L41.4,32.86a4.741,4.741,0,0,0-1.538-.909V25.06a4.666,4.666,0,0,0,1.538-.907ZM63.56,32.86l-6.428-3.576a3.873,3.873,0,0,0,0-1.555l6.428-3.576a4.741,4.741,0,0,0,1.538.909v6.892A4.666,4.666,0,0,0,63.56,32.86ZM42.935,35.616l6.428-3.576a4.741,4.741,0,0,0,1.538.909v6.892a4.7,4.7,0,0,0-1.538.909l-6.428-3.576a3.881,3.881,0,0,0,0-1.557Zm9.544-8.687A1.577,1.577,0,1,1,50.9,28.507,1.58,1.58,0,0,1,52.478,26.929Zm1.577,6.02a4.7,4.7,0,0,0,1.538-.909l6.428,3.576a3.873,3.873,0,0,0,0,1.555l-6.428,3.576a4.741,4.741,0,0,0-1.538-.909ZM62.022,21.4l-6.428,3.576a4.741,4.741,0,0,0-1.538-.909V17.173a4.7,4.7,0,0,0,1.538-.909l6.428,3.576a3.881,3.881,0,0,0,0,1.557ZM50.9,24.065a4.7,4.7,0,0,0-1.538.909L42.935,21.4a3.873,3.873,0,0,0,0-1.555l6.428-3.576a4.741,4.741,0,0,0,1.538.909Zm1.577,21.794a1.577,1.577,0,1,1,1.577-1.577A1.58,1.58,0,0,1,52.478,45.859Zm14.2-7.887a1.577,1.577,0,1,1,1.577-1.577A1.58,1.58,0,0,1,66.675,37.971Zm0-18.929A1.577,1.577,0,1,1,65.1,20.62,1.58,1.58,0,0,1,66.675,19.042Zm-14.2-7.887A1.577,1.577,0,1,1,50.9,12.732,1.58,1.58,0,0,1,52.478,11.155Zm-14.2,7.887A1.577,1.577,0,1,1,36.7,20.62,1.58,1.58,0,0,1,38.281,19.042Z" transform="translate(-2 1.464)" fill="url(#linear-gradient)"/>
      <path id="Path_10267" data-name="Path 10267" d="M28.922,96.646H54.161a1.578,1.578,0,0,0,1.577-1.577V84.027H76.245a1.578,1.578,0,0,0,1.577-1.577V63.52H88.864a1.579,1.579,0,0,0,1.506-2.049L82.506,36.3A35.471,35.471,0,0,0,44.931,2.063,35.634,35.634,0,0,0,17.182,18.5l2.656,1.7A32.472,32.472,0,0,1,45.117,5.211,32.318,32.318,0,0,1,79.362,36.781a1.509,1.509,0,0,0,.222.752l7.135,22.832H76.245a1.578,1.578,0,0,0-1.577,1.577v6.31H69.935A4.738,4.738,0,0,1,65.2,63.52H62.048a7.9,7.9,0,0,0,7.887,7.887h4.732v9.465H54.161a1.578,1.578,0,0,0-1.577,1.577V93.491H30.5V91.966a72.948,72.948,0,0,0-11.1-37.74A32.046,32.046,0,0,1,15.8,45.764l-3.051.808a35.2,35.2,0,0,0,3.963,9.294,69.805,69.805,0,0,1,10.637,36.1v3.1a1.578,1.578,0,0,0,1.577,1.577Z" transform="translate(4.205 -2.001)" fill="url(#linear-gradient)"/>
    </g>
  </g>
</svg>
