<svg xmlns="http://www.w3.org/2000/svg" xmlns:xlink="http://www.w3.org/1999/xlink" width="209.009" height="199.341" viewBox="0 0 209.009 199.341">
  <defs>
    <linearGradient id="linear-gradient" x1="0.5" x2="0.5" y2="1" gradientUnits="objectBoundingBox">
      <stop offset="0" stop-color="#00abfb"/>
      <stop offset="1" stop-color="#00ffbf"/>
    </linearGradient>
  </defs>
  <g id="NLP_Engineer-icon" data-name="NLP Engineer-icon" transform="translate(-248 -5917.167)">
    <path id="Path_10234" data-name="Path 10234" d="M106.587,6.857c72.478,8.943,82.635,37.377,99.026,97.409s-27.574,106.056-109.9,100.371S0,163.132,0,104.265,34.11-2.087,106.587,6.857Z" transform="translate(248 5911.397)" fill="#f6f9fd"/>
    <path id="learning" d="M95.763,57.641a10.722,10.722,0,0,0-13.436,4.7l-8.994-3.7a5.183,5.183,0,0,0-9.309-3.834l-9.346-3.85,9.331-3.887A5.186,5.186,0,0,0,73.3,43.2l8.976-3.739a10.718,10.718,0,1,0-.953-2.3L72.346,40.9a5.186,5.186,0,0,0-9.3,3.872l-9.328,3.885L57.57,39.32a5.1,5.1,0,0,0,.769.058,5.184,5.184,0,0,0,3.066-9.367l3.707-9a10.709,10.709,0,1,0-2.3-.947l-3.7,8.994a5.184,5.184,0,0,0-3.834,9.31l-3.849,9.346-3.887-9.33a5.186,5.186,0,0,0-3.872-9.294l-3.741-8.979a10.737,10.737,0,1,0-2.294.956l3.741,8.981a5.187,5.187,0,0,0,3.872,9.3l3.885,9.327L39.79,44.823a5.184,5.184,0,0,0-9.31-3.834l-9-3.707a10.692,10.692,0,1,0-.944,2.3l8.991,3.7a5.184,5.184,0,0,0,9.31,3.834l9.346,3.85-9.33,3.887a5.186,5.186,0,0,0-9.294,3.872l-8.978,3.74a10.708,10.708,0,1,0,.956,2.3l8.981-3.741a5.185,5.185,0,0,0,9.295-3.872l9.327-3.885-3.848,9.342a5.184,5.184,0,0,0-3.834,9.31l-3.706,9a10.709,10.709,0,1,0,2.3.947l3.7-8.994a5.11,5.11,0,0,0,.77.058,5.183,5.183,0,0,0,3.065-9.367l3.85-9.346,3.887,9.33A5.182,5.182,0,0,0,59.2,72.835l3.741,8.979a10.705,10.705,0,1,0,2.3-.957l-3.741-8.98a5.186,5.186,0,0,0-3.872-9.3l-3.885-9.328L63.074,57.1a5.183,5.183,0,0,0,9.309,3.834l9,3.707a10.707,10.707,0,1,0,14.383-7ZM88.458,26.632A8.167,8.167,0,1,1,84,31.082,8.221,8.221,0,0,1,88.458,26.632ZM65.679,42.958a2.7,2.7,0,1,1,0,2.067,2.7,2.7,0,0,1,0-2.067Zm-5.257-29.09a8.221,8.221,0,1,1,4.458,4.441A8.221,8.221,0,0,1,60.422,13.868ZM55.843,33.161a2.7,2.7,0,1,1,1.469,3.526,2.7,2.7,0,0,1-1.469-3.526ZM27.1,13.935A8.167,8.167,0,1,1,31.551,18.4,8.223,8.223,0,0,1,27.1,13.935ZM43.427,36.714a2.7,2.7,0,1,1,2.067,0A2.7,2.7,0,0,1,43.427,36.714Zm-29.09,5.257a8.221,8.221,0,1,1,4.441-4.458A8.223,8.223,0,0,1,14.337,41.971Zm19.292,4.578a2.7,2.7,0,1,1,3.525-1.469,2.7,2.7,0,0,1-3.525,1.469ZM14.4,75.291a8.164,8.164,0,1,1,4.462-4.449A8.221,8.221,0,0,1,14.4,75.291ZM37.182,58.965a2.7,2.7,0,1,1,0-2.067,2.7,2.7,0,0,1,0,2.067Zm5.257,29.092a8.241,8.241,0,1,1-4.458-4.441A8.241,8.241,0,0,1,42.439,88.057Zm4.579-19.292a2.7,2.7,0,1,1-1.469-3.526,2.7,2.7,0,0,1,1.469,3.526ZM75.759,87.989a8.221,8.221,0,1,1-7.6-5.06,8.221,8.221,0,0,1,7.6,5.06ZM59.435,65.211a2.684,2.684,0,1,1-1.029-.2A2.683,2.683,0,0,1,59.435,65.211Zm9.808-4.848A2.7,2.7,0,1,1,70.7,58.9a2.7,2.7,0,0,1-1.458,1.465Zm30.046,10.31a8.222,8.222,0,1,1-.013-6.292A8.222,8.222,0,0,1,99.289,70.673Zm0,0" transform="translate(301.359 5965.783)" fill="url(#linear-gradient)"/>
  </g>
</svg>
