<svg xmlns="http://www.w3.org/2000/svg" width="249" height="249" viewBox="0 0 249 249">
  <g id="quote" transform="translate(-1296 -4887)">
    <g id="Ellipse_19" data-name="Ellipse 19" transform="translate(1296 4887)" fill="none" stroke="#06aef4" stroke-width="1">
      <circle cx="124.5" cy="124.5" r="124.5" stroke="none"/>
      <circle cx="124.5" cy="124.5" r="124" fill="none"/>
    </g>
    <path id="Icon_awesome-quote-right" data-name="Icon awesome-quote-right" d="M118.091,0H85.514A12.219,12.219,0,0,0,73.3,12.216V44.793A12.219,12.219,0,0,0,85.514,57.01h20.361V73.3A16.3,16.3,0,0,1,89.587,89.586H87.55a6.094,6.094,0,0,0-6.108,6.108v12.216a6.094,6.094,0,0,0,6.108,6.108h2.036A40.71,40.71,0,0,0,130.308,73.3V12.216A12.219,12.219,0,0,0,118.091,0Zm-73.3,0H12.216A12.219,12.219,0,0,0,0,12.216V44.793A12.219,12.219,0,0,0,12.216,57.01H32.577V73.3A16.3,16.3,0,0,1,16.288,89.586H14.252a6.094,6.094,0,0,0-6.108,6.108v12.216a6.094,6.094,0,0,0,6.108,6.108h2.036A40.71,40.71,0,0,0,57.01,73.3V12.216A12.219,12.219,0,0,0,44.793,0Z" transform="translate(1355.503 4955.16)" fill="#06aef4"/>
  </g>
</svg>
