<svg id="reskill" xmlns="http://www.w3.org/2000/svg" xmlns:xlink="http://www.w3.org/1999/xlink" width="89.624" height="94.35" viewBox="0 0 89.624 94.35">
  <defs>
    <linearGradient id="linear-gradient" x1="0.5" x2="0.5" y2="1" gradientUnits="objectBoundingBox">
      <stop offset="0" stop-color="#00abfb"/>
      <stop offset="1" stop-color="#00ffbf"/>
    </linearGradient>
  </defs>
  <path id="Path_10365" data-name="Path 10365" d="M18.723,94.775A1.572,1.572,0,0,0,20.3,96.348H59.606a1.572,1.572,0,0,0,1.572-1.572v-6.29H80.048a1.572,1.572,0,0,0,1.572-1.572V68.044h9.435a1.572,1.572,0,0,0,1.537-1.9L87.91,44.289A42.458,42.458,0,1,0,10.816,69,44.146,44.146,0,0,1,18.723,94.775ZM6.346,40.413a39.314,39.314,0,0,1,78.419,4.044,1.585,1.585,0,0,0,.035.329L89.109,64.9H80.048a1.572,1.572,0,0,0-1.572,1.572V85.341H53.316v3.145h4.717V93.2H21.845A47.011,47.011,0,0,0,13.38,67.178,39.419,39.419,0,0,1,6.346,40.413Z" transform="translate(-3.003 -1.997)" fill="url(#linear-gradient)"/>
  <path id="Path_10366" data-name="Path 10366" d="M47.177,40.3l-1.169-2.792a14.288,14.288,0,0,0,.665-1.61l2.805-1.151a1.575,1.575,0,0,0,.963-1.257,15.857,15.857,0,0,0,0-4.381,1.575,1.575,0,0,0-.963-1.257L46.673,26.7a14.4,14.4,0,0,0-.663-1.61L47.177,22.3a1.573,1.573,0,0,0-.209-1.569,17.36,17.36,0,0,0-3.1-3.1,1.572,1.572,0,0,0-1.569-.208l-2.793,1.168a14.366,14.366,0,0,0-1.609-.663l-1.152-2.806a1.571,1.571,0,0,0-1.256-.964,15.519,15.519,0,0,0-4.383,0,1.571,1.571,0,0,0-1.256.964L28.7,17.922a14.365,14.365,0,0,0-1.609.663L24.3,17.418a1.571,1.571,0,0,0-1.569.208,17.427,17.427,0,0,0-3.1,3.1,1.574,1.574,0,0,0-.209,1.57l1.169,2.792A14.362,14.362,0,0,0,19.92,26.7l-2.806,1.151a1.575,1.575,0,0,0-.963,1.257,15.859,15.859,0,0,0,0,4.381,1.575,1.575,0,0,0,.963,1.257L19.92,35.9a14.4,14.4,0,0,0,.663,1.61L19.417,40.3a1.573,1.573,0,0,0,.209,1.569,17.36,17.36,0,0,0,3.1,3.1,1.575,1.575,0,0,0,1.569.208l2.793-1.168a14.365,14.365,0,0,0,1.609.663l1.152,2.806a1.571,1.571,0,0,0,1.256.964,15.869,15.869,0,0,0,4.383,0,1.571,1.571,0,0,0,1.256-.964L37.9,44.674a14.129,14.129,0,0,0,1.609-.663L42.3,45.178a1.576,1.576,0,0,0,1.569-.208,17.36,17.36,0,0,0,3.1-3.1,1.573,1.573,0,0,0,.209-1.569ZM44.8,33.267a1.569,1.569,0,0,0-.915,1.027,10.986,10.986,0,0,1-.978,2.369,1.578,1.578,0,0,0-.08,1.377l1.087,2.6a14.339,14.339,0,0,1-1.273,1.274l-2.6-1.086a1.574,1.574,0,0,0-1.376.08,10.961,10.961,0,0,1-2.369.977,1.568,1.568,0,0,0-1.026.916l-1.075,2.618a11.615,11.615,0,0,1-1.79,0L31.327,42.8a1.568,1.568,0,0,0-1.026-.916A11.059,11.059,0,0,1,27.93,40.9a1.578,1.578,0,0,0-1.374-.079l-2.6,1.086a14.443,14.443,0,0,1-1.273-1.274l1.086-2.6a1.578,1.578,0,0,0-.078-1.374,10.931,10.931,0,0,1-.978-2.372,1.569,1.569,0,0,0-.915-1.027L19.18,32.193c-.025-.315-.035-.609-.035-.894s.011-.58.035-.894L21.8,29.329a1.569,1.569,0,0,0,.915-1.027,10.986,10.986,0,0,1,.978-2.369,1.578,1.578,0,0,0,.08-1.377l-1.087-2.6a14.434,14.434,0,0,1,1.273-1.273l2.6,1.086a1.578,1.578,0,0,0,1.374-.079,11.059,11.059,0,0,1,2.371-.978,1.568,1.568,0,0,0,1.026-.916L32.4,17.181a11.615,11.615,0,0,1,1.79,0L35.267,19.8a1.568,1.568,0,0,0,1.026.916,11.059,11.059,0,0,1,2.371.978,1.577,1.577,0,0,0,1.374.079l2.6-1.086a14.443,14.443,0,0,1,1.273,1.274l-1.086,2.6a1.578,1.578,0,0,0,.078,1.374A10.93,10.93,0,0,1,43.88,28.3a1.569,1.569,0,0,0,.915,1.027L47.413,30.4c.025.315.035.609.035.894s-.011.58-.035.894Z" transform="translate(4.437 4.872)" fill="url(#linear-gradient)"/>
  <path id="Path_10367" data-name="Path 10367" d="M29.862,20a7.862,7.862,0,1,0,7.862,7.862A7.871,7.871,0,0,0,29.862,20Zm0,12.58a4.717,4.717,0,1,1,4.717-4.717A4.722,4.722,0,0,1,29.862,32.58Z" transform="translate(7.872 8.308)" fill="url(#linear-gradient)"/>
  <path id="Path_10368" data-name="Path 10368" d="M35.3,37.758l1.867,2.531a25.291,25.291,0,0,0,4.808-4.643l-2.463-1.955A22.176,22.176,0,0,1,35.3,37.758Z" transform="translate(15.485 16.145)" fill="url(#linear-gradient)"/>
  <path id="Path_10369" data-name="Path 10369" d="M13.753,47.16l2.8-1.434A22.022,22.022,0,0,1,36.159,13.694H48.087l-2.033,2.033,2.224,2.224,4.717-4.717a1.572,1.572,0,0,0,0-2.224L48.278,6.293,46.054,8.516l2.033,2.033H36.159A25.152,25.152,0,0,0,13.753,47.16Z" transform="translate(1.575 0.461)" fill="url(#linear-gradient)"/>
  <path id="Path_10370" data-name="Path 10370" d="M44.365,29.571l-3.031-.837a21.882,21.882,0,0,1-2.3,5.38l2.7,1.611A24.963,24.963,0,0,0,44.365,29.571Z" transform="translate(17.624 13.307)" fill="url(#linear-gradient)"/>
  <path id="Path_10371" data-name="Path 10371" d="M16.431,32.97l-2.586,1.792a25.278,25.278,0,0,0,4.5,4.942L20.372,37.3A22.036,22.036,0,0,1,16.431,32.97Z" transform="translate(3.204 15.732)" fill="url(#linear-gradient)"/>
  <path id="Path_10372" data-name="Path 10372" d="M30.256,39.386l.728,3.059a24.986,24.986,0,0,0,6.244-2.407l-1.514-2.756a21.86,21.86,0,0,1-5.457,2.1Z" transform="translate(12.598 18.2)" fill="url(#linear-gradient)"/>
  <path id="Path_10373" data-name="Path 10373" d="M18.429,39.478a25.044,25.044,0,0,0,6.075,2.8l.924-3.007a21.844,21.844,0,0,1-5.31-2.452Z" transform="translate(5.828 17.939)" fill="url(#linear-gradient)"/>
  <path id="Path_10374" data-name="Path 10374" d="M31.05,42.126,30.734,39a22.082,22.082,0,0,1-2.208.111,17.424,17.424,0,0,1-3.642-.3l-.513,3.1a28.442,28.442,0,0,0,4.157.339c.838,0,1.686-.043,2.523-.127Z" transform="translate(9.229 19.076)" fill="url(#linear-gradient)"/>
  <path id="Path_10375" data-name="Path 10375" d="M23,55h3.145v3.145H23Z" transform="translate(8.444 28.343)" fill="url(#linear-gradient)"/>
  <path id="Path_10376" data-name="Path 10376" d="M27,55h3.145v3.145H27Z" transform="translate(10.734 28.343)" fill="url(#linear-gradient)"/>
  <path id="Path_10377" data-name="Path 10377" d="M31,55h3.145v3.145H31Z" transform="translate(13.024 28.343)" fill="url(#linear-gradient)"/>
</svg>
