<svg id="RWANDA" xmlns="http://www.w3.org/2000/svg" xmlns:xlink="http://www.w3.org/1999/xlink" width="165.782" height="96.716" viewBox="0 0 165.782 96.716">
  <defs>
    <clipPath id="clip-path">
      <rect id="Rectangle_57" data-name="Rectangle 57" width="165.782" height="96.716" fill="none"/>
    </clipPath>
  </defs>
  <g id="Group_80" data-name="Group 80" transform="translate(0)">
    <g id="Group_79" data-name="Group 79">
      <g id="Group_78" data-name="Group 78" clip-path="url(#clip-path)">
        <rect id="Rectangle_53" data-name="Rectangle 53" width="165.782" height="48.339" fill="#3e81c5"/>
        <rect id="Rectangle_54" data-name="Rectangle 54" width="165.782" height="24.179" transform="translate(0 48.339)" fill="#f1d62f"/>
        <rect id="Rectangle_55" data-name="Rectangle 55" width="165.782" height="24.199" transform="translate(0 72.517)" fill="#347d59"/>
        <path id="Path_3541" data-name="Path 3541" d="M621.918,594.083l-7.506-5.769,3.618,8.741-5.75-7.506,1.216,9.378-3.608-8.722-1.235,9.359-1.245-9.359-3.617,8.722,1.235-9.378-5.74,7.506,3.579-8.741-7.487,5.769,5.75-7.525-8.741,3.628,7.506-5.77-9.368,1.235,8.721-3.609-9.368-1.216,9.368-1.254-8.721-3.627,9.368,1.235-7.506-5.77,8.741,3.628-5.75-7.507,7.487,5.77-3.579-8.741,5.74,7.487-1.235-9.378,3.617,8.722,1.245-9.359,1.235,9.359,3.608-8.722-1.216,9.378,5.75-7.487-3.618,8.741,7.506-5.77-5.75,7.507,8.721-3.628-7.487,5.77,9.368-1.235-8.722,3.627,9.359,1.254-9.359,1.216,8.722,3.609-9.368-1.235,7.487,5.77-8.721-3.628Z" transform="translate(-465.967 -558.866)" fill="#dfad29"/>
        <g id="Group_77" data-name="Group 77">
          <g id="Group_76" data-name="Group 76" clip-path="url(#clip-path)">
            <path id="Path_3542" data-name="Path 3542" d="M605.959,571.3a6.831,6.831,0,1,1-6.831-6.852,6.841,6.841,0,0,1,6.831,6.852Z" transform="translate(-456.441 -549.341)" fill="#dfad29"/>
            <g id="Group_75" data-name="Group 75" transform="translate(135.52 14.743)">
              <path id="Path_3543" data-name="Path 3543" d="M599.4,578.73a7.178,7.178,0,1,1,7.158-7.138,7.164,7.164,0,0,1-7.158,7.138Zm0-13.639a6.484,6.484,0,1,0,6.491,6.5,6.491,6.491,0,0,0-6.491-6.5Z" transform="translate(-592.229 -564.375)" fill="#3e81c5"/>
            </g>
          </g>
        </g>
      </g>
    </g>
  </g>
</svg>
