<svg xmlns="http://www.w3.org/2000/svg" xmlns:xlink="http://www.w3.org/1999/xlink" width="108.231" height="91.319" viewBox="0 0 108.231 91.319">
  <defs>
    <linearGradient id="linear-gradient" x1="0.5" x2="0.5" y2="1" gradientUnits="objectBoundingBox">
      <stop offset="0" stop-color="#00abfb"/>
      <stop offset="1" stop-color="#00ffbf"/>
    </linearGradient>
  </defs>
  <g id="s3-icon-2" transform="translate(0 -40.001)">
    <g id="XMLID_1641_" transform="translate(0 40.001)">
      <path id="XMLID_1647_" d="M106.663,64.037,96.815,61.4V53.319A2.114,2.114,0,0,0,94.7,51.2H58.775L17.231,40.073a2.114,2.114,0,0,0-2.589,1.495L12.06,51.2H2.114A2.114,2.114,0,0,0,0,53.319v45.66a2.114,2.114,0,0,0,2.114,2.114H14.158a2.114,2.114,0,0,0,0-4.228H4.228V55.433h88.36V96.865H67.405a12.221,12.221,0,0,0-2.393-4.228H81.864a2.114,2.114,0,0,0,2.114-2.114,2.271,2.271,0,0,1,2.268-2.268,2.114,2.114,0,0,0,2.114-2.114V66.156a2.114,2.114,0,0,0-2.114-2.114,2.271,2.271,0,0,1-2.268-2.268,2.114,2.114,0,0,0-2.114-2.114H14.951a2.114,2.114,0,0,0-2.114,2.114,2.271,2.271,0,0,1-2.268,2.268,2.114,2.114,0,0,0-2.114,2.114V86.141a2.114,2.114,0,0,0,2.114,2.114,2.271,2.271,0,0,1,2.268,2.268,2.114,2.114,0,0,0,2.114,2.114H46.543a12.221,12.221,0,0,0-2.393,4.228H33.183a2.114,2.114,0,1,0,0,4.228H43.565A12.221,12.221,0,0,0,67.155,105.1l26.6,7.126a2.114,2.114,0,0,0,2.589-1.495l11.818-44.1a2.113,2.113,0,0,0-1.495-2.589ZM18.178,44.7,42.44,51.2h-26Zm-5.5,39.676V67.917a6.527,6.527,0,0,0,4.029-4.029H80.1a6.527,6.527,0,0,0,4.029,4.029V84.38A6.527,6.527,0,0,0,80.1,88.409H16.712A6.527,6.527,0,0,0,12.683,84.38Zm43.095,24.251a8,8,0,1,1,8-8A8.006,8.006,0,0,1,55.778,108.631ZM92.8,107.594l-24.262-6.5h26Zm4.011-14.971V65.775l6.712,1.8Z" transform="translate(0 -40.001)" fill="url(#linear-gradient)"/>
      <path id="XMLID_1667_" d="M200.61,175a7.61,7.61,0,1,0,7.61,7.61A7.618,7.618,0,0,0,200.61,175Zm0,10.992a3.382,3.382,0,1,1,3.382-3.382A3.386,3.386,0,0,1,200.61,186Z" transform="translate(-152.202 -146.466)" fill="url(#linear-gradient)"/>
      <path id="XMLID_1668_" d="M303.614,205.232h4.016a2.114,2.114,0,0,0,0-4.228h-4.016a2.114,2.114,0,1,0,0,4.228Z" transform="translate(-237.767 -166.97)" fill="url(#linear-gradient)"/>
      <path id="XMLID_1670_" d="M123.63,201h-4.016a2.114,2.114,0,1,0,0,4.228h4.016a2.114,2.114,0,1,0,0-4.228Z" transform="translate(-92.662 -166.97)" fill="url(#linear-gradient)"/>
      <path id="XMLID_1673_" d="M87.06,356.338a12.225,12.225,0,1,0,12.225,12.225A12.239,12.239,0,0,0,87.06,356.338Zm0,20.222a8,8,0,1,1,8-8A8.006,8.006,0,0,1,87.06,376.56Z" transform="translate(-59.016 -289.468)" fill="url(#linear-gradient)"/>
      <path id="XMLID_1674_" d="M105.588,312.609a2.113,2.113,0,1,0-1.495.619A2.126,2.126,0,0,0,105.588,312.609Z" transform="translate(-80.423 -252.138)" fill="url(#linear-gradient)"/>
    </g>
  </g>
</svg>
