<svg id="s3-icon-1" xmlns="http://www.w3.org/2000/svg" xmlns:xlink="http://www.w3.org/1999/xlink" width="103.444" height="103.444" viewBox="0 0 103.444 103.444">
  <defs>
    <linearGradient id="linear-gradient" x1="0.5" x2="0.5" y2="1" gradientUnits="objectBoundingBox">
      <stop offset="0" stop-color="#00abfb"/>
      <stop offset="1" stop-color="#00ffbf"/>
    </linearGradient>
  </defs>
  <g id="XMLID_971_">
    <g id="XMLID_977_">
      <path id="XMLID_1030_" d="M92.407,19.787h3.2a2.019,2.019,0,0,0,0-4.038H87.931a2.019,2.019,0,0,0-2.019,2.019V25.44a2.019,2.019,0,1,0,4.038,0V23.219A47.684,47.684,0,1,1,51.722,4.038a48.4,48.4,0,0,1,5.817.351A2.019,2.019,0,1,0,58.027.38a52.457,52.457,0,0,0-6.3-.38A51.722,51.722,0,0,0,15.149,88.3,51.722,51.722,0,0,0,92.407,19.787Z" fill="url(#linear-gradient)"/>
      <path id="XMLID_1029_" d="M73.92,82.51a2.02,2.02,0,0,0-2.786.626A38.553,38.553,0,1,0,83.2,71.093a2.019,2.019,0,1,0,2.153,3.416,34.53,34.53,0,1,1-6.027,53.646A34.748,34.748,0,0,1,74.546,85.3,2.02,2.02,0,0,0,73.92,82.51Z" transform="translate(-52.019 -52.019)" fill="url(#linear-gradient)"/>
      <path id="XMLID_1028_" d="M378.188,250.368h2.49a2.019,2.019,0,1,0,0-4.038h-2.49a2.019,2.019,0,0,0,0,4.038Z" transform="translate(-300.218 -196.594)" fill="url(#linear-gradient)"/>
      <path id="XMLID_1004_" d="M103.835,248.025a2.019,2.019,0,0,0,2.019,2.019h2.49a2.019,2.019,0,0,0,0-4.038h-2.49A2.019,2.019,0,0,0,103.835,248.025Z" transform="translate(-82.87 -196.336)" fill="url(#linear-gradient)"/>
      <path id="XMLID_1001_" d="M250.368,108.344v-2.49a2.019,2.019,0,1,0-4.038,0v2.49a2.019,2.019,0,1,0,4.038,0Z" transform="translate(-196.594 -82.87)" fill="url(#linear-gradient)"/>
      <path id="XMLID_1415_" d="M246.006,378.188v2.49a2.019,2.019,0,0,0,4.038,0v-2.49a2.019,2.019,0,0,0-4.038,0Z" transform="translate(-196.336 -300.218)" fill="url(#linear-gradient)"/>
      <path id="XMLID_996_" d="M192.419,162.036a2.019,2.019,0,1,0-2.856,2.856l6.843,6.843a6.956,6.956,0,1,0,12.266,0l13.807-13.807a2.019,2.019,0,0,0-2.856-2.856l-13.807,13.807a6.941,6.941,0,0,0-6.555,0Zm13.038,12.976a2.918,2.918,0,1,1-2.918-2.918A2.921,2.921,0,0,1,205.457,175.012Z" transform="translate(-150.817 -123.29)" fill="url(#linear-gradient)"/>
      <path id="XMLID_980_" d="M121.625,121.625a2.018,2.018,0,1,0-1.427.592A2.028,2.028,0,0,0,121.625,121.625Z" transform="translate(-94.317 -94.317)" fill="url(#linear-gradient)"/>
      <path id="XMLID_979_" d="M317.457,13.916a2.02,2.02,0,1,0-1.427-.592A2.027,2.027,0,0,0,317.457,13.916Z" transform="translate(-251.749 -7.884)" fill="url(#linear-gradient)"/>
    </g>
  </g>
</svg>
