<svg xmlns="http://www.w3.org/2000/svg" xmlns:xlink="http://www.w3.org/1999/xlink" width="99.466" height="70.984" viewBox="0 0 99.466 70.984">
  <defs>
    <linearGradient id="linear-gradient" x1="0.5" x2="0.5" y2="1" gradientUnits="objectBoundingBox">
      <stop offset="0" stop-color="#00abfb"/>
      <stop offset="1" stop-color="#00ffbf"/>
    </linearGradient>
  </defs>
  <g id="s3-icon-3" transform="translate(0 -73.304)">
    <path id="Path_10177" data-name="Path 10177" d="M137.474,146.254a1.943,1.943,0,0,0,1.943-1.943v-2.426h2.427a1.943,1.943,0,0,0,0-3.885h-3.184a3.132,3.132,0,0,0-3.128,3.128v3.184A1.943,1.943,0,0,0,137.474,146.254Z" transform="translate(-109.202 -52.128)" fill="url(#linear-gradient)"/>
    <path id="Path_10178" data-name="Path 10178" d="M215.118,141.885h2.427v2.426a1.943,1.943,0,0,0,3.885,0v-3.184A3.132,3.132,0,0,0,218.3,138h-3.184a1.943,1.943,0,0,0,0,3.885Z" transform="translate(-171.762 -52.128)" fill="url(#linear-gradient)"/>
    <path id="Path_10179" data-name="Path 10179" d="M215.118,231.439H218.3a3.132,3.132,0,0,0,3.128-3.128v-3.184a1.943,1.943,0,0,0-3.885,0v2.426h-2.427a1.943,1.943,0,1,0,0,3.885Z" transform="translate(-171.762 -120.763)" fill="url(#linear-gradient)"/>
    <path id="Path_10180" data-name="Path 10180" d="M138.659,231.438h3.184a1.943,1.943,0,0,0,0-3.885h-2.427v-2.426a1.943,1.943,0,1,0-3.885,0v3.184A3.132,3.132,0,0,0,138.659,231.438Z" transform="translate(-109.202 -120.763)" fill="url(#linear-gradient)"/>
    <path id="Path_10181" data-name="Path 10181" d="M433.542,263.012a1.944,1.944,0,1,0,1.943,1.945v0A1.941,1.941,0,0,0,433.542,263.012Z" transform="translate(-347.753 -152.854)" fill="url(#linear-gradient)"/>
    <path id="Path_10182" data-name="Path 10182" d="M91.673,94.348H87.731V91.619a7.8,7.8,0,0,0-7.793-7.793H76V81.1A7.8,7.8,0,0,0,68.2,73.3H7.793A7.8,7.8,0,0,0,0,81.1v34.355a7.8,7.8,0,0,0,7.793,7.793h3.942v2.729a7.8,7.8,0,0,0,7.793,7.793h3.942v2.73a7.8,7.8,0,0,0,7.793,7.793H91.673a7.8,7.8,0,0,0,7.793-7.793V102.141a7.8,7.8,0,0,0-7.793-7.793Zm-87.788,21.1V81.1a3.912,3.912,0,0,1,3.907-3.907H68.2A3.912,3.912,0,0,1,72.112,81.1v34.355a3.912,3.912,0,0,1-3.907,3.907H7.793a3.911,3.911,0,0,1-3.907-3.907ZM95.58,136.5a3.912,3.912,0,0,1-3.907,3.907H31.261a3.912,3.912,0,0,1-3.907-3.907v-2.73H79.939a7.8,7.8,0,0,0,7.793-7.793v-6.1a1.943,1.943,0,1,0-3.885,0v6.1a3.912,3.912,0,0,1-3.907,3.907H19.527a3.912,3.912,0,0,1-3.907-3.907v-2.729H68.2A7.789,7.789,0,0,0,76,115.451V87.712h3.942a3.912,3.912,0,0,1,3.907,3.907v12.709a1.943,1.943,0,0,0,3.885,0V98.234h3.942a3.912,3.912,0,0,1,3.907,3.907Z" fill="url(#linear-gradient)"/>
  </g>
</svg>
