<svg xmlns="http://www.w3.org/2000/svg" xmlns:xlink="http://www.w3.org/1999/xlink" width="209.009" height="199.341" viewBox="0 0 209.009 199.341">
  <defs>
    <linearGradient id="linear-gradient" x1="0.5" x2="0.5" y2="1" gradientUnits="objectBoundingBox">
      <stop offset="0" stop-color="#00abfb"/>
      <stop offset="1" stop-color="#00ffbf"/>
    </linearGradient>
  </defs>
  <g id="s4-icon-3" transform="translate(-140 -3432.167)">
    <path id="Path_10226" data-name="Path 10226" d="M106.587,6.857c72.478,8.943,82.635,37.377,99.026,97.409s-27.574,106.056-109.9,100.371S0,163.132,0,104.265,34.11-2.087,106.587,6.857Z" transform="translate(140 3426.398)" fill="#f6f9fd"/>
    <g id="machine-learning" transform="translate(193.979 3489.989)">
      <path id="Path_10222" data-name="Path 10222" d="M32.956,34.073H18.871a1.53,1.53,0,0,0-1.084.449L12.1,40.207H10.92a4.6,4.6,0,1,0,0,3.067h1.816a1.53,1.53,0,0,0,1.084-.449l5.685-5.685h13.45a4.555,4.555,0,0,0,7.348,1.9l6.25,3.477a4.544,4.544,0,0,0-.077.756,4.6,4.6,0,0,0,9.2,0,4.544,4.544,0,0,0-.077-.756l6.25-3.477a4.561,4.561,0,0,0,3.029,1.166,4.59,4.59,0,0,0,1.534-8.92v-6.7a4.587,4.587,0,1,0-4.563-7.754L55.6,13.356a4.509,4.509,0,0,0,.077-.755,4.6,4.6,0,1,0-9.2,0,4.545,4.545,0,0,0,.077.756L40.3,16.834a4.555,4.555,0,0,0-7.348,1.9H19.505L13.82,13.05a1.53,1.53,0,0,0-1.084-.449H10.92a4.6,4.6,0,1,0,0,3.067H12.1l5.685,5.685a1.53,1.53,0,0,0,1.084.449H32.956a4.6,4.6,0,0,0,2.785,2.785V26.4H10.92a4.6,4.6,0,1,0,0,3.067H35.741v1.816a4.6,4.6,0,0,0-2.785,2.785ZM6.6,43.275a1.534,1.534,0,1,1,1.534-1.534A1.536,1.536,0,0,1,6.6,43.275Zm0-27.606a1.534,1.534,0,1,1,1.534-1.534A1.536,1.536,0,0,1,6.6,15.668Zm0,13.8a1.534,1.534,0,1,1,1.534-1.534A1.536,1.536,0,0,1,6.6,29.472ZM37.275,37.14a1.534,1.534,0,1,1,1.534-1.534A1.536,1.536,0,0,1,37.275,37.14ZM40.3,23.7l6.25,3.477a3.766,3.766,0,0,0,0,1.512L40.3,32.171a4.61,4.61,0,0,0-1.5-.883v-6.7a4.537,4.537,0,0,0,1.5-.882Zm21.548,8.466L55.6,28.694a3.766,3.766,0,0,0,0-1.512l6.25-3.477a4.61,4.61,0,0,0,1.5.883v6.7A4.537,4.537,0,0,0,61.852,32.171ZM41.8,34.85l6.25-3.477a4.61,4.61,0,0,0,1.5.883v6.7a4.567,4.567,0,0,0-1.5.883L41.8,36.364a3.774,3.774,0,0,0,0-1.514ZM51.078,26.4a1.534,1.534,0,1,1-1.534,1.534A1.536,1.536,0,0,1,51.078,26.4Zm1.534,5.853a4.567,4.567,0,0,0,1.5-.883l6.25,3.477a3.766,3.766,0,0,0,0,1.512l-6.25,3.477a4.61,4.61,0,0,0-1.5-.883Zm7.745-11.231L54.107,24.5a4.61,4.61,0,0,0-1.5-.883v-6.7a4.567,4.567,0,0,0,1.5-.883l6.25,3.477a3.774,3.774,0,0,0,0,1.514ZM49.544,23.619a4.567,4.567,0,0,0-1.5.883L41.8,21.026a3.766,3.766,0,0,0,0-1.512l6.25-3.477a4.61,4.61,0,0,0,1.5.883Zm1.534,21.189a1.534,1.534,0,1,1,1.534-1.534A1.536,1.536,0,0,1,51.078,44.808Zm13.8-7.668a1.534,1.534,0,1,1,1.534-1.534A1.536,1.536,0,0,1,64.881,37.14Zm0-18.4a1.534,1.534,0,1,1-1.534,1.534A1.536,1.536,0,0,1,64.881,18.736Zm-13.8-7.668A1.534,1.534,0,1,1,49.544,12.6,1.536,1.536,0,0,1,51.078,11.067Zm-13.8,7.668a1.534,1.534,0,1,1-1.534,1.534A1.536,1.536,0,0,1,37.275,18.736Z" transform="translate(0 3.202)" fill="url(#linear-gradient)"/>
      <path id="Path_10223" data-name="Path 10223" d="M28.473,94.021H53.012a1.534,1.534,0,0,0,1.534-1.534V81.751H74.484a1.534,1.534,0,0,0,1.534-1.534v-18.4H86.753a1.535,1.535,0,0,0,1.465-1.992L80.571,35.353A34.487,34.487,0,0,0,44.038,2.061,34.645,34.645,0,0,0,17.059,18.042L19.642,19.7A31.572,31.572,0,0,1,44.219,5.122,31.422,31.422,0,0,1,77.514,35.816a1.467,1.467,0,0,0,.216.732l6.937,22.2H74.484A1.534,1.534,0,0,0,72.95,60.28v6.135h-4.6a4.607,4.607,0,0,1-4.6-4.6H60.68a7.677,7.677,0,0,0,7.668,7.668h4.6v9.2H53.012a1.534,1.534,0,0,0-1.534,1.534V90.953H30.007V89.47A70.924,70.924,0,0,0,19.219,52.777a31.157,31.157,0,0,1-3.508-8.227l-2.966.785A34.227,34.227,0,0,0,16.6,54.372a67.869,67.869,0,0,1,10.342,35.1v3.017a1.534,1.534,0,0,0,1.534,1.534Z" transform="translate(5.734 0)" fill="url(#linear-gradient)"/>
    </g>
  </g>
</svg>
