<svg xmlns="http://www.w3.org/2000/svg" xmlns:xlink="http://www.w3.org/1999/xlink" width="1920" height="542" viewBox="0 0 1920 542">
  <defs>
    <clipPath id="clip-path">
      <rect id="Rectangle_984" data-name="Rectangle 984" width="1920" height="542" transform="translate(3002 1824)" fill="#fff" stroke="#707070" stroke-width="1"/>
    </clipPath>
    <linearGradient id="linear-gradient" x1="0.5" x2="0.5" y2="1" gradientUnits="objectBoundingBox">
      <stop offset="0" stop-color="aqua"/>
      <stop offset="1" stop-color="blue"/>
    </linearGradient>
  </defs>
  <g id="section-1" transform="translate(-3002 -1824)" clip-path="url(#clip-path)">
    <g id="Where_Our_Graduates_Work_" data-name="Where Our Graduates Work " transform="translate(3027 689)">
      <g id="Group_149" data-name="Group 149" transform="translate(1668.99 1162.495)" opacity="0.395">
        <path id="Path_10137" data-name="Path 10137" d="M190.452,180.505a10.014,10.014,0,1,1,10.015-10.012A10.025,10.025,0,0,1,190.452,180.505Zm0-16.337a6.323,6.323,0,1,0,6.325,6.325A6.332,6.332,0,0,0,190.452,164.168Z" transform="translate(-180.437 -160.478)" fill="url(#linear-gradient)"/>
      </g>
      <g id="Group_163" data-name="Group 163" transform="translate(1197.99 1600.495)" opacity="0.395">
        <path id="Path_10137-2" data-name="Path 10137" d="M190.452,180.505a10.014,10.014,0,1,1,10.015-10.012A10.025,10.025,0,0,1,190.452,180.505Zm0-16.337a6.323,6.323,0,1,0,6.325,6.325A6.332,6.332,0,0,0,190.452,164.168Z" transform="translate(-180.437 -160.478)" fill="url(#linear-gradient)"/>
      </g>
      <g id="Group_164" data-name="Group 164" transform="translate(85.99 1285.495)" opacity="0.395">
        <path id="Path_10137-3" data-name="Path 10137" d="M190.452,180.505a10.014,10.014,0,1,1,10.015-10.012A10.025,10.025,0,0,1,190.452,180.505Zm0-16.337a6.323,6.323,0,1,0,6.325,6.325A6.332,6.332,0,0,0,190.452,164.168Z" transform="translate(-180.437 -160.478)" fill="url(#linear-gradient)"/>
      </g>
    </g>
  </g>
</svg>
