<svg id="Tailored_programs" data-name="Tailored programs" xmlns="http://www.w3.org/2000/svg" xmlns:xlink="http://www.w3.org/1999/xlink" width="96.665" height="96.668" viewBox="0 0 96.665 96.668">
  <defs>
    <linearGradient id="linear-gradient" x1="0.5" x2="0.5" y2="1" gradientUnits="objectBoundingBox">
      <stop offset="0" stop-color="#00abfb"/>
      <stop offset="1" stop-color="#00ffbf"/>
    </linearGradient>
  </defs>
  <path id="Path_10360" data-name="Path 10360" d="M36.443,63.492H29.062a2.254,2.254,0,0,1-2.21-1.8l-.735-3.668A25.686,25.686,0,0,1,19.566,55.3l-3.109,2.071a2.25,2.25,0,0,1-2.834-.276L8.4,51.876a2.25,2.25,0,0,1-.276-2.834L10.2,45.935a25.987,25.987,0,0,1-2.722-6.56l-3.66-.733a2.251,2.251,0,0,1-1.8-2.2V29.064a2.252,2.252,0,0,1,1.8-2.21l3.661-.733A25.8,25.8,0,0,1,10.2,19.557l-2.071-3.1A2.251,2.251,0,0,1,8.4,13.621L13.624,8.4a2.25,2.25,0,0,1,2.83-.276l3.117,2.071a25.928,25.928,0,0,1,6.553-2.719l.729-3.662a2.252,2.252,0,0,1,2.21-1.8h7.384a2.251,2.251,0,0,1,2.2,1.8l.733,3.661a25.886,25.886,0,0,1,6.553,2.719L49.05,8.119a2.251,2.251,0,0,1,2.83.276L57.1,13.622a2.25,2.25,0,0,1,.276,2.834l-2.071,3.1a25.756,25.756,0,0,1,2.725,6.564l3.66.733a2.254,2.254,0,0,1,1.809,2.208v7.384a2.252,2.252,0,0,1-1.8,2.2l-3.661.733a25.95,25.95,0,0,1-2.718,6.553l2.071,3.117a2.248,2.248,0,0,1-.276,2.831L51.877,57.1a2.252,2.252,0,0,1-2.828.276L45.937,55.3a25.764,25.764,0,0,1-6.558,2.716l-.735,3.666a2.252,2.252,0,0,1-2.2,1.806Zm-6.96-2.762h6.538l.818-4.084a1.381,1.381,0,0,1,1.059-1.1A23.04,23.04,0,0,0,45.232,52.5a1.381,1.381,0,0,1,1.5.017l3.491,2.32,4.623-4.618-2.265-3.405a1.466,1.466,0,0,1-.12-.181,1.381,1.381,0,0,1,.04-1.406,23.2,23.2,0,0,0,3.038-7.338,1.381,1.381,0,0,1,1.077-1.05l4.106-.829V29.478l-4.106-.829A1.381,1.381,0,0,1,55.542,27.6,23.043,23.043,0,0,0,52.5,20.264a1.381,1.381,0,0,1-.217-.742,1.407,1.407,0,0,1,.233-.776l2.326-3.48-4.622-4.614-3.407,2.263a1.468,1.468,0,0,1-.181.12A1.381,1.381,0,0,1,45.23,13,23.21,23.21,0,0,0,37.9,9.951a1.381,1.381,0,0,1-1.051-1.076L36.021,4.77H29.483l-.829,4.106A1.381,1.381,0,0,1,27.6,9.951,23.224,23.224,0,0,0,20.267,13a1.381,1.381,0,0,1-1.4.048,1.505,1.505,0,0,1-.217-.149L15.28,10.653l-4.625,4.622,2.327,3.48A1.4,1.4,0,0,1,13,20.273a23.043,23.043,0,0,0-3.038,7.334,1.381,1.381,0,0,1-1.076,1.051l-4.106.829v6.538l4.106.829A1.381,1.381,0,0,1,9.959,37.9,23.239,23.239,0,0,0,13,45.241a1.381,1.381,0,0,1-.022,1.5l-2.327,3.483,4.623,4.623,3.488-2.328a1.381,1.381,0,0,1,1.505-.017,23.062,23.062,0,0,0,7.334,3.038,1.381,1.381,0,0,1,1.066,1.146Z" transform="translate(-2.013 -2.008)" fill="url(#linear-gradient)"/>
  <path id="Path_10361" data-name="Path 10361" d="M29.541,47.111a1.381,1.381,0,0,1-.025-2.762A15.144,15.144,0,1,0,14.062,29.214a1.421,1.421,0,0,1-1.167,1.6,1.355,1.355,0,0,1-1.567-1.128,3.255,3.255,0,0,1-.028-.476,17.911,17.911,0,1,1,18.267,17.9Z" transform="translate(1.525 1.529)" fill="url(#linear-gradient)"/>
  <path id="Path_10362" data-name="Path 10362" d="M18.209,36.342a1.381,1.381,0,0,1-.829-.276,17.472,17.472,0,0,1-3.149-3.074A1.381,1.381,0,1,1,16.4,31.276a14.7,14.7,0,0,0,2.646,2.58,1.381,1.381,0,0,1-.829,2.486Z" transform="translate(2.528 8.943)" fill="url(#linear-gradient)"/>
  <path id="Path_10363" data-name="Path 10363" d="M64.489,84.583H59.1a2.019,2.019,0,0,1-1.972-1.614l-.49-2.448A19.1,19.1,0,0,1,52.2,78.679L50.124,80.06a2.013,2.013,0,0,1-2.538-.253l-3.81-3.8a2.013,2.013,0,0,1-.251-2.537L44.905,71.4a19.286,19.286,0,0,1-1.845-4.447l-2.442-.49A2.016,2.016,0,0,1,39,64.484V59.1a2.019,2.019,0,0,1,1.613-1.972l2.443-.489A19.173,19.173,0,0,1,44.9,52.187l-1.381-2.071a2.016,2.016,0,0,1,.25-2.54l3.809-3.807a2.015,2.015,0,0,1,2.534-.254L52.2,44.9a19.235,19.235,0,0,1,4.443-1.842l.489-2.442A2.018,2.018,0,0,1,59.1,39h5.386a2.016,2.016,0,0,1,1.971,1.613l.49,2.444A19.262,19.262,0,0,1,71.392,44.9l2.08-1.381a2.02,2.02,0,0,1,2.535.254l3.809,3.807a2.016,2.016,0,0,1,.249,2.541l-1.381,2.071a19.169,19.169,0,0,1,1.846,4.451l2.442.489A2.018,2.018,0,0,1,84.587,59.1V64.49a2.016,2.016,0,0,1-1.614,1.971l-2.443.49a19.31,19.31,0,0,1-1.844,4.443l1.381,2.08a2.015,2.015,0,0,1-.253,2.535l-3.8,3.8a2.013,2.013,0,0,1-2.534.251L71.4,78.677a19.134,19.134,0,0,1-4.447,1.844l-.49,2.446a2.016,2.016,0,0,1-1.979,1.617Zm-4.77-2.762h4.154l.536-2.672a1.381,1.381,0,0,1,1.059-1.1A16.4,16.4,0,0,0,70.7,75.879a1.381,1.381,0,0,1,1.5.017l2.29,1.519,2.939-2.935-1.475-2.219a1.266,1.266,0,0,1-.11-.169,1.381,1.381,0,0,1,.04-1.406,16.572,16.572,0,0,0,2.174-5.232,1.381,1.381,0,0,1,1.076-1.05l2.693-.54v-4.15l-2.693-.54a1.381,1.381,0,0,1-1.077-1.05,16.421,16.421,0,0,0-2.171-5.231,1.381,1.381,0,0,1-.215-.742,1.4,1.4,0,0,1,.232-.775L77.42,49.1l-2.929-2.937-2.219,1.475a1.416,1.416,0,0,1-.168.11A1.381,1.381,0,0,1,70.7,47.7a16.521,16.521,0,0,0-5.232-2.172,1.381,1.381,0,0,1-1.05-1.076l-.543-2.693H59.715l-.54,2.693a1.381,1.381,0,0,1-1.05,1.076A16.541,16.541,0,0,0,52.891,47.7a1.381,1.381,0,0,1-1.4.044,1.406,1.406,0,0,1-.2-.138L49.1,46.155,46.16,49.092l1.519,2.281a1.381,1.381,0,0,1,.233.768,1.408,1.408,0,0,1-.215.748,16.456,16.456,0,0,0-2.172,5.231,1.381,1.381,0,0,1-1.076,1.05l-2.687.544v4.154l2.693.54a1.381,1.381,0,0,1,1.076,1.05A16.6,16.6,0,0,0,47.7,70.691a1.381,1.381,0,0,1-.017,1.507l-1.519,2.288L49.1,77.423l2.29-1.519a1.381,1.381,0,0,1,1.505-.017,16.4,16.4,0,0,0,5.23,2.164,1.381,1.381,0,0,1,1.065,1.138ZM49.535,77.858ZM45.821,48.581Z" transform="translate(12.078 12.085)" fill="url(#linear-gradient)"/>
  <path id="Path_10364" data-name="Path 10364" d="M58.986,71.6A12.612,12.612,0,1,1,71.6,58.978,12.612,12.612,0,0,1,58.986,71.6Zm0-22.463a9.85,9.85,0,1,0,9.85,9.845,9.85,9.85,0,0,0-9.85-9.845Z" transform="translate(14.887 14.893)" fill="url(#linear-gradient)"/>
</svg>
