<svg id="UGANDA" xmlns="http://www.w3.org/2000/svg" xmlns:xlink="http://www.w3.org/1999/xlink" width="165.783" height="96.713" viewBox="0 0 165.783 96.713">
  <defs>
    <clipPath id="clip-path">
      <rect id="Rectangle_52" data-name="Rectangle 52" width="165.783" height="96.713" fill="none"/>
    </clipPath>
  </defs>
  <g id="Group_74" data-name="Group 74" transform="translate(0 0)">
    <g id="Group_73" data-name="Group 73">
      <g id="Group_72" data-name="Group 72" clip-path="url(#clip-path)">
        <rect id="Rectangle_46" data-name="Rectangle 46" width="165.783" height="96.713"/>
        <rect id="Rectangle_47" data-name="Rectangle 47" width="165.783" height="16.093" transform="translate(0 16.132)" fill="#f8e82a"/>
        <rect id="Rectangle_48" data-name="Rectangle 48" width="165.783" height="16.132" transform="translate(0 32.225)" fill="#cc3220"/>
        <rect id="Rectangle_49" data-name="Rectangle 49" width="165.783" height="16.112" transform="translate(0 64.488)" fill="#f8e82a"/>
        <rect id="Rectangle_50" data-name="Rectangle 50" width="165.783" height="16.113" transform="translate(0 80.6)" fill="#cc3220"/>
        <g id="Group_71" data-name="Group 71">
          <g id="Group_70" data-name="Group 70" clip-path="url(#clip-path)">
            <path id="Path_3512" data-name="Path 3512" d="M660.838,544.943a15.062,15.062,0,1,1-15.081-15.052,15.069,15.069,0,0,1,15.081,15.052Z" transform="translate(-562.869 -496.584)" fill="#fffcff"/>
            <g id="Group_56" data-name="Group 56" transform="translate(67.747 33.208)">
              <path id="Path_3513" data-name="Path 3513" d="M645.836,560.147a15.138,15.138,0,1,1,15.126-15.126,15.155,15.155,0,0,1-15.126,15.126Zm0-30.123a14.995,14.995,0,1,0,14.983,15,15.006,15.006,0,0,0-14.983-15Z" transform="translate(-630.695 -529.871)"/>
            </g>
            <path id="Path_3514" data-name="Path 3514" d="M634,532.572l-.968-1.8a2.659,2.659,0,0,1,2.011-.672c0,.054-.1,1.986-.1,1.986Z" transform="translate(-553.76 -495.752)" fill="#cc2920"/>
            <g id="Group_57" data-name="Group 57" transform="translate(79.173 34.271)">
              <path id="Path_3515" data-name="Path 3515" d="M634.031,532.729l-1.023-1.852a2.623,2.623,0,0,1,2.1-.79,16.683,16.683,0,0,1-.02,2.065l-1.062.578Zm1-2.564a2.9,2.9,0,0,0-1.882.731l.953,1.62.88-.445c-.04-.019.049-1.852.049-1.907Z" transform="translate(-633.008 -530.086)"/>
            </g>
            <path id="Path_3516" data-name="Path 3516" d="M633.414,532.11l.129-2.006a4.184,4.184,0,0,1,3.132,1.2c.02-.02-1.087,1.561-1.087,1.561Z" transform="translate(-552.235 -495.754)" fill="#f8e82a"/>
            <g id="Group_58" data-name="Group 58" transform="translate(81.149 34.271)">
              <path id="Path_3517" data-name="Path 3517" d="M635.646,533l-2.238-.771.089-2.144h.213a4.18,4.18,0,0,1,3.048,1.215c.04.079.04.079-1.082,1.64l-.03.059Zm-1.936-2.761-.193,1.931,2.075.637c.163-.252,1-1.428,1.038-1.487a4.164,4.164,0,0,0-2.919-1.082Z" transform="translate(-633.408 -530.086)"/>
            </g>
            <path id="Path_3518" data-name="Path 3518" d="M633.861,531.9l1-1.561a3.242,3.242,0,0,1,1.037,1.966l-1.571.37-.464-.775Z" transform="translate(-550.474 -494.814)" fill="#cc2920"/>
            <g id="Group_59" data-name="Group 59" transform="translate(83.332 35.486)">
              <path id="Path_3519" data-name="Path 3519" d="M634.369,532.782l-.07-.059c-.015-.034-.415-.711-.45-.751l.983-1.64a2.975,2.975,0,0,1,1.205,1.986,8.175,8.175,0,0,1-1.67.464Zm-.4-.83a4.423,4.423,0,0,1,.445.677c.252-.059,1.417-.331,1.487-.365a3.407,3.407,0,0,0-1.052-1.818l-.879,1.507Z" transform="translate(-633.85 -530.332)"/>
            </g>
            <path id="Path_3520" data-name="Path 3520" d="M636.449,556.771a6.361,6.361,0,0,1,5.5-1.66c-.543-.889-2.317-.79-2.317-.79s-.553-4.169-.128-4.362a7.746,7.746,0,0,1,2.258.02.758.758,0,0,0,.331-1.062c-.331-.425-1.294-2.006-.9-2.317s2.549.173,2.549.173l-6.061-7.735s-.627-2.934.608-4.322a2.885,2.885,0,0,0,1.294-2.569,2.236,2.236,0,0,0-3.655-1.082,1.434,1.434,0,0,0-.272,1.759s-2.159.578-2.258.963c-.084.351,2.46-.074,2.46-.074l-.252,1.714s-4.91,4.481-1.146,8.339a1.582,1.582,0,0,0,.124-.173,6.515,6.515,0,0,0,2.7,1.986c1.294,1.333,1.186,1.136,1.186,1.136a8.841,8.841,0,0,1,.02,2.51,19.967,19.967,0,0,0-4.155-.04c-.454.138-2.174.059-1.739,2.86.336-.775.627-1.428.627-1.428s-.06,1,.356,1.388a3.238,3.238,0,0,1,.4-1.8s.089,1.161.341,1.314c.267.193.267-1.872,1.684-1.7a16.668,16.668,0,0,0,2.45.138,34.113,34.113,0,0,1,.321,4.4c-1.032-.247-3.472.118-3.635.716a6.928,6.928,0,0,1,2.119.094s-1.165,1.022-.81,1.605Z" transform="translate(-555.715 -494.229)"/>
            <g id="Group_60" data-name="Group 60" transform="translate(76.831 36.223)">
              <path id="Path_3521" data-name="Path 3521" d="M636.417,556.953l-.035-.1c-.361-.578.479-1.408.731-1.66-.133.02-.549-.035-1.215-.035-.213,0-.484,0-.771.015.094-.845,2.707-1.1,3.655-.865.02-.212-.213-2.663-.415-4.268a10.015,10.015,0,0,1-2.4-.094h0c-.934,0-1.205.81-1.358,1.294-.1.267-.163.4-.272.4-.287-.158-.415-.889-.45-1.254a5.146,5.146,0,0,0-.232,1.62c-.569-.311-.544-1.334-.524-1.369l-.479,1.443c-.533-2.544.791-2.8,1.437-2.91.084-.02.163-.02.193-.059a9.95,9.95,0,0,1,1.522-.079,18.293,18.293,0,0,1,2.692.138,15.617,15.617,0,0,0-.114-2.4h0a7.443,7.443,0,0,1-1.161-1.116,6.732,6.732,0,0,1-2.712-1.991l.108-.113a6.467,6.467,0,0,0,2.672,1.966c1,1.023,1.166,1.141,1.206,1.141a7.211,7.211,0,0,1,.049,2.623,33.771,33.771,0,0,0-4.189,0c-.074.02-.143.02-.242.039-.633.133-1.823.346-1.462,2.722l.479-1.448c.143.054.119,1.023.484,1.349a2.658,2.658,0,0,1,.272-1.773,5.463,5.463,0,0,0,.469,1.329,1.109,1.109,0,0,1,.089-.326c.173-.539.464-1.408,1.378-1.408a14.633,14.633,0,0,0,2.613.113,24,24,0,0,1,.4,4.535c-.286,0-.578-.04-.894-.04-1.186,0-2.633.331-2.722.736A1.3,1.3,0,0,1,635.9,555a7.139,7.139,0,0,1,1.358.1c-.257.405-.9,1.116-.8,1.581a6.527,6.527,0,0,1,5.5-1.62,3.32,3.32,0,0,0-2.169-.617l-.232-.079c-.143-1-.519-4.243-.084-4.456a9.947,9.947,0,0,1,2.283,0c.059,0,.2-.114.291-.292a.6.6,0,0,0-.039-.632,5.058,5.058,0,0,1-.983-2.184.393.393,0,0,1,.1-.252c.38-.267,2.549.158,2.618.178l-6.145-7.642c-.03-.138-.617-2.994.637-4.421a2.782,2.782,0,0,0,1.26-2.45,2.218,2.218,0,0,0-3.522-1.062,1.384,1.384,0,0,0-.266,1.66c-1.082.385-2.184.791-2.219,1.023h0s.045.04.386.04a16.348,16.348,0,0,0,1.956-.213l-.163,1.813c-.059.079-2.47,2.317-2.549,4.94a4.357,4.357,0,0,0,1.393,3.3l0-.02a.446.446,0,0,1-.025.158,4.342,4.342,0,0,1-1.527-3.438c.069-2.7,2.549-5,2.579-5.014l.222-1.66a5.751,5.751,0,0,1-1.892.286c-.371,0-.484-.054-.534-.113.069-.524,1.823-1.042,2.257-1.122-.123-.074-.5-.83.252-1.753,1.3-1.181,3.581-.331,3.794,1.116a2.928,2.928,0,0,1-1.3,2.642c-1.185,1.334-.588,4.209-.588,4.249l6.027,7.716a19.211,19.211,0,0,1-2.05-.153c-.331,0-.455.059-.484.1a3.962,3.962,0,0,0,.889,2.159.739.739,0,0,1,.054.81c-.094.193-.267.405-.434.405a14.974,14.974,0,0,0-1.531-.113,2.654,2.654,0,0,0-.687.074c-.232.119-.084,2.3.163,4.307a2.544,2.544,0,0,1,2.307.731,4.468,4.468,0,0,1-1.072.079,6.173,6.173,0,0,0-4.436,1.695l-.079.1Z" transform="translate(-632.534 -530.481)"/>
            </g>
            <path id="Path_3522" data-name="Path 3522" d="M635.36,531.363s-3.562,3.937-2.021,6.931c.069-.425.029-.677.089-.677-.089-.02.445.385.415.292a2.828,2.828,0,0,0-.182-.677c.182.039.336.074.5.113-.1-.173-.2-.345-.287-.5.242,0,.449.034.682.054,0,0-.232-.637-.163-.637.089,0,.568.04.568.04-1.013-1.813-.064-3.334.4-4.94Z" transform="translate(-554.053 -490.784)" fill="#9ba49a"/>
            <g id="Group_61" data-name="Group 61" transform="translate(78.808 40.524)">
              <path id="Path_3523" data-name="Path 3523" d="M633.442,538.584l-.123-.212c-1.536-3.009,2.025-6.985,2.045-7.02a2.052,2.052,0,0,1-.183,1.057c-.444,1.274-.879,2.47-.069,3.9-.089.119-.558.079-.647.079.059,0,.163.292.252.538l-.78.02.366.425-.425.02v-.02a3.477,3.477,0,0,1,.109.6c-.187.1-.544-.227-.544-.227a.953.953,0,0,1,.04.618l-.04.227Zm1.9-7.158c-.272.484-3.117,3.917-1.986,6.659a2.277,2.277,0,0,0,.034-.252l.089-.232c.124.059.4.272.455.292a1.491,1.491,0,0,1-.252-.6l-.06-.158.628.178-.376-.405.771-.02c-.326-.524-.287-.6-.252-.637a2.972,2.972,0,0,1,.637.02c-.884-1.373-.44-2.643,0-3.917.119-.311.222-.617.311-.929Z" transform="translate(-632.934 -531.352)" fill="#9ba49a"/>
            </g>
            <path id="Path_3524" data-name="Path 3524" d="M634.541,530.68s.193,1.368-.539,1.734c-.123.1-.6.252-.519.524.084.385.286.306.568.232.79-.119,1.69-1.779.489-2.49Z" transform="translate(-551.994 -493.475)" fill="#9ba49a"/>
            <g id="Group_62" data-name="Group 62" transform="translate(81.401 37.205)">
              <path id="Path_3525" data-name="Path 3525" d="M633.834,533.323c-.2,0-.306-.133-.365-.366-.069-.272.252-.444.435-.563.8-.4.627-1.694.627-1.714a1,1,0,0,1,.691,1.275,1.6,1.6,0,0,1-1.087,1.289,1.711,1.711,0,0,1-.3.079Zm.771-2.549a1.558,1.558,0,0,1-.5,1.719c-.331.173-.524.286-.494.425.059.213.148.232.222.232h0a1.484,1.484,0,0,0,.232-.039,1.51,1.51,0,0,0,1-1.2,1.034,1.034,0,0,0-.464-1.141Z" transform="translate(-633.459 -530.68)" fill="#9ba49a"/>
            </g>
            <path id="Path_3526" data-name="Path 3526" d="M633.895,531.147a.282.282,0,0,1-.312.272.26.26,0,0,1-.276-.272.289.289,0,0,1,.276-.292.31.31,0,0,1,.312.292Z" transform="translate(-552.657 -492.786)" fill="#fff"/>
            <path id="Path_3527" data-name="Path 3527" d="M633.68,531.145c-.178.153-1.161,1.176-.2,1.561,1.008-.291.736-.484.948-.7.02-.459-.5-.578-.751-.864Z" transform="translate(-553.608 -491.643)" fill="#cc2920"/>
            <g id="Group_63" data-name="Group 63" transform="translate(79.37 39.443)">
              <path id="Path_3528" data-name="Path 3528" d="M633.553,532.832l-.034-.019a.7.7,0,0,1-.464-.484c-.069-.484.5-1.062.647-1.2a2.489,2.489,0,0,1,.405.232c.232.173.479.346.479.692l-.114.212c-.079.193-.183.351-.9.544l-.02.019Zm.148-1.585c-.079.138-.544.677-.464,1.062.01.153.114.252.316.346.687-.193.736-.306.785-.44a.32.32,0,0,1,.114-.193c-.02-.232-.2-.371-.434-.524a1.966,1.966,0,0,1-.316-.252Z" transform="translate(-633.048 -531.133)"/>
            </g>
            <path id="Path_3529" data-name="Path 3529" d="M633.73,533.113a2.528,2.528,0,0,0,.04,1.66c.854-.346,1.254-.252,1.531-.054a7.258,7.258,0,0,1-1.571-1.606Z" transform="translate(-551.489 -483.89)" fill="#9ba49a"/>
            <g id="Group_64" data-name="Group 64" transform="translate(82.029 49.263)">
              <path id="Path_3530" data-name="Path 3530" d="M633.8,534.86l-.04-.079a2.573,2.573,0,0,1-.059-1.66l.02.02a6,6,0,0,0,.148,1.507,1.7,1.7,0,0,1,1.378-.119,4.407,4.407,0,0,1-1.527-1.388,20.2,20.2,0,0,0,1.709,1.487,5.328,5.328,0,0,1-.627-.04,2.582,2.582,0,0,0-.933.232l-.069.04Z" transform="translate(-633.586 -533.121)" fill="#9ba49a"/>
            </g>
            <path id="Path_3531" data-name="Path 3531" d="M633.926,533.9,634,535.83a2.515,2.515,0,0,0,.968,0c.3-.133-.02-1.329-1.042-1.932Z" transform="translate(-550.218 -480.797)" fill="#fff"/>
            <g id="Group_65" data-name="Group 65" transform="translate(83.639 53.101)">
              <path id="Path_3532" data-name="Path 3532" d="M634.628,535.963a3.442,3.442,0,0,1-.588-.054l-.128-2.01a2.085,2.085,0,0,1,1.3,1.739.285.285,0,0,1-.153.252.945.945,0,0,1-.435.074Zm-.415-.173a2.5,2.5,0,0,0,.771-.04,1.969,1.969,0,0,0-1.042-1.773l.183,1.813Z" transform="translate(-633.912 -533.898)" fill="#fff"/>
            </g>
            <path id="Path_3533" data-name="Path 3533" d="M640.541,540.761A6.879,6.879,0,0,0,636.135,537a3.323,3.323,0,0,1-2.47-4.308c.123-.286.227-.731,1.146-.286.9.405,5.083,2.529,5.671,2.623.607.1.1,5.809.059,5.73Z" transform="translate(-551.962 -487.408)" fill="#9ba49a"/>
            <g id="Group_66" data-name="Group 66" transform="translate(81.441 44.738)">
              <path id="Path_3534" data-name="Path 3534" d="M640.6,540.9l-.084-.059a6.942,6.942,0,0,0-4.342-3.685,3.253,3.253,0,0,1-2.608-2.6,2.69,2.69,0,0,1,.1-1.872c.133-.351.415-.7,1.225-.292l1.052.484c1.561.771,4.179,2.065,4.619,2.139.563.079.341,3.458.222,4.905-.094.983-.094.983-.183.983Zm-6.358-8.551c-.271,0-.336.193-.425.371a2.912,2.912,0,0,0-.079,1.907,3.1,3.1,0,0,0,2.47,2.376,6.783,6.783,0,0,1,4.332,3.552c.128-1.008.395-4.767.04-5.33-.484-.133-2.574-1.156-4.708-2.2l-1.042-.484a1.348,1.348,0,0,0-.588-.193Z" transform="translate(-633.467 -532.205)"/>
            </g>
            <path id="Path_3535" data-name="Path 3535" d="M634.3,534.882c-.049.015,4.2,2.524,2.924,4.668a2.063,2.063,0,0,0,.84-2.218,3.131,3.131,0,0,1-1.442,3.878c.272.193.435.133.435.133l-.415.445s-.173.292,1.438-.5c-.45.371-.469.637-.469.637s.114.351,1.166-.618a7.589,7.589,0,0,0-1.032,1.408c2.327-.193,7.35-7.716-1.6-9.954a4.828,4.828,0,0,0,.415.425Z" transform="translate(-548.733 -485.288)" fill="#cc2920"/>
            <g id="Group_67" data-name="Group 67" transform="translate(85.501 47.529)">
              <path id="Path_3536" data-name="Path 3536" d="M637.658,542.763l.064-.134.079.035-.059-.054a5.228,5.228,0,0,1,.608-.87.9.9,0,0,1-.548.272h-.059l-.143-.119c0-.074.039-.346.5-.711a3.03,3.03,0,0,1-1.339.691l-.124-.193.356-.365c-.089.059-.212,0-.356-.114a3.026,3.026,0,0,0,1.571-3.073,1.963,1.963,0,0,1-.879,1.433c.375-.929.311-2.356-2.845-4.52-.193-.173-.193-.173-.193-.207l2.287-1.778-.425-.286c4.836,1.022,5.335,3.665,5.241,5.133-.193,2.47-2.336,4.727-3.581,4.861Zm1.126-1.547c-.306.563-.647,1.028-.83,1.334,1.2-.272,3.1-2.371,3.28-4.668.173-2.43-1.61-4.248-5.053-5.1.538.331.538.331.5.39l-2.2,1.66.1.054c2.6,1.813,3.557,3.379,2.766,4.634a2.222,2.222,0,0,0,.686-2.218h.03a.3.3,0,0,1,.074.134,2.931,2.931,0,0,1-1.418,3.779c.182,0,.292.02.351.02v.02h-.02l-.292.524c.1-.059.4-.138,1.363-.617a2.077,2.077,0,0,0-.38.711c.158-.02.405-.113,1.042-.657Z" transform="translate(-634.289 -532.77)"/>
            </g>
            <path id="Path_3537" data-name="Path 3537" d="M636.689,535.021c.588.425.78.558.859.736a3.3,3.3,0,0,0-1.008-.059,12.786,12.786,0,0,0-1.358-1.2,6.012,6.012,0,0,1-1.042-.563c-.444-.232-.859-1.754.791-1.329a20.138,20.138,0,0,0,1.932.869c.686.227,1.349.44,2.025.652.376.425.771.85,1.161,1.314a25.46,25.46,0,0,0-2.327-1.042,3.883,3.883,0,0,1,.894,1.082,13.02,13.02,0,0,0-1.926-.465Z" transform="translate(-550.936 -486.163)" fill="#fff"/>
            <g id="Group_68" data-name="Group 68" transform="translate(82.719 46.307)">
              <path id="Path_3538" data-name="Path 3538" d="M637.743,535.943l-.143-.04a3.374,3.374,0,0,0-.8-.094l-.242-.02a14.942,14.942,0,0,0-1.344-1.161h0a4.88,4.88,0,0,1-1.057-.578,1.047,1.047,0,0,1-.41-1.042c.069-.252.4-.637,1.274-.425,1.64.79,1.932.889,1.932.889l2.025.618,1.2,1.348c-.884-.267-2.218-.9-2.381-.924a2.378,2.378,0,0,1,.953,1l.089.133-.3-.074a14.172,14.172,0,0,0-1.724-.405l-.03-.178a13.155,13.155,0,0,1,1.764.425,4.126,4.126,0,0,0-.8-.9,8.326,8.326,0,0,1,2.41.9l-.672-.539-.6-.637-1.951-.637a14.972,14.972,0,0,1-1.986-.85c-.553-.153-.949-.074-1.042.272a.939.939,0,0,0,.346.889,4.49,4.49,0,0,0,1,.578,11,11,0,0,1,1.408,1.176,2.649,2.649,0,0,1,.79.04,4.69,4.69,0,0,0-.642-.5v-.015c.627.267.82.405.874.6l.059.153Z" transform="translate(-633.726 -532.523)"/>
            </g>
            <path id="Path_3539" data-name="Path 3539" d="M632.7,531.506a13.984,13.984,0,0,1,2.238-.405Z" transform="translate(-555.037 -491.851)"/>
            <g id="Group_69" data-name="Group 69" transform="translate(77.656 39.146)">
              <path id="Path_3540" data-name="Path 3540" d="M632.731,531.641l-.03-.138a15.694,15.694,0,0,1,2.267-.425,17.312,17.312,0,0,1-2.238.563Z" transform="translate(-632.701 -531.073)" fill="#fff"/>
            </g>
          </g>
        </g>
      </g>
    </g>
  </g>
</svg>
