<svg id="upskill" xmlns="http://www.w3.org/2000/svg" xmlns:xlink="http://www.w3.org/1999/xlink" width="78.563" height="78.563" viewBox="0 0 78.563 78.563">
  <defs>
    <linearGradient id="linear-gradient" x1="0.5" x2="0.5" y2="1" gradientUnits="objectBoundingBox">
      <stop offset="0" stop-color="#00abfb"/>
      <stop offset="1" stop-color="#00ffbf"/>
    </linearGradient>
  </defs>
  <path id="Path_10378" data-name="Path 10378" d="M43,39.625l2.487-4.189-6.77-6.77-4.189,2.487a20.118,20.118,0,0,0-3.459-1.429L29.862,25H20.288l-1.2,4.725a20.118,20.118,0,0,0-3.459,1.429l-4.189-2.487-6.77,6.77,2.487,4.189a20.118,20.118,0,0,0-1.429,3.459L1,44.29v9.573l4.725,1.2a20.118,20.118,0,0,0,1.429,3.459L4.667,62.715l6.77,6.77L15.627,67a20.118,20.118,0,0,0,3.459,1.429l1.2,4.724h9.573l1.2-4.725A20.119,20.119,0,0,0,34.526,67l4.189,2.487,6.77-6.77L43,58.525a20.118,20.118,0,0,0,1.429-3.459l4.724-1.2V44.288l-4.725-1.2A20.113,20.113,0,0,0,43,39.625Zm3.619,12.267L42.38,52.973l-.193.715a17.555,17.555,0,0,1-1.747,4.228l-.37.642,2.23,3.758L38.316,66.3l-3.758-2.23-.642.37a17.606,17.606,0,0,1-4.228,1.747l-.715.193-1.08,4.236H22.26L21.179,66.38l-.715-.193a17.555,17.555,0,0,1-4.228-1.747l-.642-.37L11.835,66.3,7.851,62.316l2.23-3.758-.37-.642a17.606,17.606,0,0,1-1.747-4.228l-.193-.715-4.237-1.08V46.26l4.237-1.081.193-.715a17.555,17.555,0,0,1,1.747-4.228l.37-.642-2.23-3.758,3.984-3.984,3.758,2.23.642-.37a17.606,17.606,0,0,1,4.228-1.747l.715-.193,1.08-4.237h5.632l1.081,4.237.715.193a17.555,17.555,0,0,1,4.228,1.747l.642.37,3.758-2.23L42.3,35.835l-2.23,3.758.37.642a17.606,17.606,0,0,1,1.747,4.228l.193.715,4.237,1.08Z" transform="translate(-1 5.411)" fill="url(#linear-gradient)"/>
  <path id="Path_10379" data-name="Path 10379" d="M23.206,32A15.206,15.206,0,1,0,38.411,47.206,15.223,15.223,0,0,0,23.206,32Zm0,27.877A12.671,12.671,0,1,1,35.877,47.206,12.686,12.686,0,0,1,23.206,59.877Z" transform="translate(0.87 7.281)" fill="url(#linear-gradient)"/>
  <path id="Path_10380" data-name="Path 10380" d="M21.6,38a7.6,7.6,0,1,0,7.6,7.6A7.61,7.61,0,0,0,21.6,38Zm0,12.671A5.069,5.069,0,1,1,26.671,45.6,5.074,5.074,0,0,1,21.6,50.671Z" transform="translate(2.473 8.884)" fill="url(#linear-gradient)"/>
  <path id="Path_10381" data-name="Path 10381" d="M67.213,9H36.8A3.806,3.806,0,0,0,33,12.8v17.74a3.806,3.806,0,0,0,3.8,3.8h2.534v5.852l11.7-5.852H67.213a3.806,3.806,0,0,0,3.8-3.8V12.8A3.806,3.806,0,0,0,67.213,9ZM68.48,30.541a1.268,1.268,0,0,1-1.267,1.267H50.441L41.87,36.094V31.809H36.8a1.268,1.268,0,0,1-1.267-1.267V12.8A1.268,1.268,0,0,1,36.8,11.534H67.213A1.268,1.268,0,0,1,68.48,12.8Z" transform="translate(7.548 1.137)" fill="url(#linear-gradient)"/>
  <path id="Path_10382" data-name="Path 10382" d="M4.8,23.809h12.32l7.954,4.773V23.809H35.213a3.806,3.806,0,0,0,3.8-3.8V4.8a3.806,3.806,0,0,0-3.8-3.8H4.8A3.806,3.806,0,0,0,1,4.8V20.007A3.806,3.806,0,0,0,4.8,23.809ZM3.534,4.8A1.268,1.268,0,0,1,4.8,3.534H35.213A1.268,1.268,0,0,1,36.48,4.8V20.007a1.268,1.268,0,0,1-1.267,1.267H22.541V24.1l-4.718-2.83H4.8a1.268,1.268,0,0,1-1.267-1.267Z" transform="translate(-1 -1)" fill="url(#linear-gradient)"/>
  <path id="Path_10383" data-name="Path 10383" d="M61.808,25.671H59.274V15.534H56.74V25.671H54.206V13H51.671V25.671H49.137v-7.6H46.6v7.6H44.069V20.6H41.534v5.069H39v2.534H64.343V13H61.808Z" transform="translate(9.151 2.206)" fill="url(#linear-gradient)"/>
  <path id="Path_10384" data-name="Path 10384" d="M8.8,14.6A3.8,3.8,0,1,0,5,10.8,3.806,3.806,0,0,0,8.8,14.6Zm0-5.069A1.267,1.267,0,1,1,7.534,10.8,1.268,1.268,0,0,1,8.8,9.534Z" transform="translate(0.069 0.603)" fill="url(#linear-gradient)"/>
  <path id="Path_10385" data-name="Path 10385" d="M16.8,14.6A3.8,3.8,0,1,0,13,10.8,3.806,3.806,0,0,0,16.8,14.6Zm0-5.069A1.267,1.267,0,1,1,15.534,10.8,1.268,1.268,0,0,1,16.8,9.534Z" transform="translate(2.206 0.603)" fill="url(#linear-gradient)"/>
  <path id="Path_10386" data-name="Path 10386" d="M24.8,14.6A3.8,3.8,0,1,0,21,10.8,3.806,3.806,0,0,0,24.8,14.6Zm0-5.069A1.267,1.267,0,1,1,23.534,10.8,1.268,1.268,0,0,1,24.8,9.534Z" transform="translate(4.343 0.603)" fill="url(#linear-gradient)"/>
  <path id="Path_10387" data-name="Path 10387" d="M55.1,41a13.878,13.878,0,0,0-7.049,1.926l-7.641-.907,2.57,6.057A13.931,13.931,0,1,0,55.1,41ZM47.944,63.809h14.3a11.36,11.36,0,0,1-14.3,0Zm5.468-8.263a2.5,2.5,0,0,1-.849-1.874V51.353a2.685,2.685,0,0,1,2.4-2.746,2.535,2.535,0,0,1,2.672,2.53v2.534a2.5,2.5,0,0,1-.849,1.874l-.418.378v2.333l3.5,1.751a2.821,2.821,0,0,1,1.271,1.267H49.058a2.828,2.828,0,0,1,1.271-1.267l3.5-1.751V55.923ZM63.938,62.13A5.325,5.325,0,0,0,61,57.74l-1.917-.958a5.051,5.051,0,0,0,1.083-3.111V51.137a5.07,5.07,0,0,0-5.34-5.062,5.182,5.182,0,0,0-4.8,5.278v2.319a5.058,5.058,0,0,0,1.082,3.111l-1.917.958a5.325,5.325,0,0,0-2.938,4.389,11.358,11.358,0,0,1-.791-13.277l.355-.561L44.444,45.05l4.185.5.381-.241A11.392,11.392,0,0,1,63.938,62.13Z" transform="translate(9.527 9.686)" fill="url(#linear-gradient)"/>
</svg>
