<svg id="ZIMBABWE" xmlns="http://www.w3.org/2000/svg" xmlns:xlink="http://www.w3.org/1999/xlink" width="165.782" height="96.716" viewBox="0 0 165.782 96.716">
  <defs>
    <clipPath id="clip-path">
      <rect id="Rectangle_63" data-name="Rectangle 63" width="165.782" height="96.716" fill="none"/>
    </clipPath>
  </defs>
  <g id="Group_85" data-name="Group 85" transform="translate(0 0)">
    <g id="Group_84" data-name="Group 84">
      <g id="Group_83" data-name="Group 83" clip-path="url(#clip-path)">
        <rect id="Rectangle_58" data-name="Rectangle 58" width="165.782" height="96.716" fill="#4a9318"/>
        <rect id="Rectangle_59" data-name="Rectangle 59" width="165.782" height="69.102" transform="translate(0 13.817)" fill="#f6d128"/>
        <rect id="Rectangle_60" data-name="Rectangle 60" width="165.782" height="41.43" transform="translate(0 27.653)" fill="#cb0423"/>
        <rect id="Rectangle_61" data-name="Rectangle 61" width="165.782" height="13.835" transform="translate(0 41.45)"/>
        <path id="Path_3544" data-name="Path 3544" d="M512.732,523.148v96.716h3.521l64.422-48.377-64.422-48.339Z" transform="translate(-512.732 -523.148)"/>
        <path id="Path_3545" data-name="Path 3545" d="M512.732,523.148v96.716l64.422-48.377Z" transform="translate(-512.732 -523.148)" fill="#fff"/>
        <path id="Path_3546" data-name="Path 3546" d="M526.667,527.965,515.814,550l16.506,8.163Z" transform="translate(-500.591 -504.172)" fill="#cb0423"/>
        <path id="Path_3547" data-name="Path 3547" d="M522.513,527.965,533.385,550l-16.516,8.163Z" transform="translate(-496.437 -504.172)" fill="#cb0423"/>
        <path id="Path_3548" data-name="Path 3548" d="M524.567,527.965l-8.219,23.156,17.345,6.156Z" transform="translate(-498.491 -504.172)" fill="#cb0423"/>
        <path id="Path_3549" data-name="Path 3549" d="M525.274,527.965l8.229,23.156-17.335,6.156Z" transform="translate(-499.199 -504.172)" fill="#cb0423"/>
        <path id="Path_3550" data-name="Path 3550" d="M544.219,534.218l-24.281-3.531-2.653,18.235Z" transform="translate(-494.798 -493.444)" fill="#cb0423"/>
        <path id="Path_3551" data-name="Path 3551" d="M513.287,534.218l24.281-3.531,2.643,18.235Z" transform="translate(-510.547 -493.444)" fill="#cb0423"/>
        <path id="Path_3552" data-name="Path 3552" d="M542.711,531.941l-24.532-.675-.511,18.409Z" transform="translate(-493.29 -491.166)" fill="#cb0423"/>
        <path id="Path_3553" data-name="Path 3553" d="M513.287,531.941l24.542-.675.5,18.409Z" transform="translate(-510.547 -491.166)" fill="#cb0423"/>
        <path id="Path_3554" data-name="Path 3554" d="M532.185,552.882l-4.3-20.667-10.322,2.142Z" transform="translate(-493.714 -487.427)" fill="#cb0423"/>
        <path id="Path_3555" data-name="Path 3555" d="M535.117,552.066l-18.3-10.5,5.238-9.146Z" transform="translate(-496.645 -486.611)" fill="#cb0423"/>
        <path id="Path_3556" data-name="Path 3556" d="M515.5,552.066l18.309-10.5-5.238-9.146Z" transform="translate(-501.822 -486.611)" fill="#cb0423"/>
        <path id="Path_3557" data-name="Path 3557" d="M515.5,552.882l4.312-20.667,10.322,2.142Z" transform="translate(-501.822 -487.427)" fill="#cb0423"/>
        <g id="Group_82" data-name="Group 82">
          <g id="Group_81" data-name="Group 81" clip-path="url(#clip-path)">
            <path id="Path_3558" data-name="Path 3558" d="M535.078,565.595a26.966,26.966,0,0,1,1.64-9.2,31.63,31.63,0,0,1,2.218-4.807,4.69,4.69,0,0,1,1.274.252c1.339.385,1.714.326,1.714-.331,0-.346-1.388-1.581-8.149-7.272-4.574-3.784-8.313-6.812-8.5-6.812a.487.487,0,0,1-.405-.213c-.034-.133-.247-1.62-.479-3.3a27.627,27.627,0,0,0-.686-3.705,2.861,2.861,0,0,0-2.741-1.64,2.828,2.828,0,0,0-2.035.385,3.327,3.327,0,0,1-1.487.484,1.409,1.409,0,0,0-1.447,1.388v.519l1.171-.035c.647-.02.993,0,.731.054-.839.173-.5,1.373.494,1.7,1.062.405,1.022.173,1.022,5.192,0,4.07-.039,4.668-.336,5.6a9.494,9.494,0,0,0,0,4.822,9.592,9.592,0,0,1,.336,1.141,13.788,13.788,0,0,1-1.131,1.5,6.764,6.764,0,0,0-1.813,3.784,1.855,1.855,0,0,1-.316.869,1.7,1.7,0,0,0-.04,1.966c.435.425,2.144,7.509,2.154,8.877,0,.484.074.484,2.687-.094a39.845,39.845,0,0,1,9.636-.2c1.151.178,2.519.445,3.023.583,1.541.425,1.457.5,1.467-1.507" transform="translate(-500.57 -501.895)"/>
            <path id="Path_3559" data-name="Path 3559" d="M529.148,538.9a29.359,29.359,0,0,0-7.824-.637c-1.487.079-3.037.193-3.452.272l-.751.133-.183-1.255a8.048,8.048,0,0,1-.148-1.309,10.393,10.393,0,0,1,1.6-.292,48.342,48.342,0,0,1,12.032.326l.519.1v1.527c0,1.116-.045,1.5-.2,1.5-.1-.02-.82-.173-1.59-.365" transform="translate(-496.774 -474.176)" fill="#fcff2c"/>
            <path id="Path_3560" data-name="Path 3560" d="M517.829,542.925c0-.346-.919-4.728-1.314-6.269-.257-1.042-.5-1.971-.5-2.045s.267.02.559.232a2.052,2.052,0,0,0,.859.366c.84,0,1.3,1.274,2.015,5.537.1.6.2,1.275.252,1.487.054.346-.03.425-.746.578-.924.232-1.126.252-1.126.114" transform="translate(-499.798 -478.09)" fill="#fcff2c"/>
            <path id="Path_3561" data-name="Path 3561" d="M519.617,536c-.05-.1.015-.252.153-.385.2-.178.247-.158.247.074,0,.311-.267.558-.4.311" transform="translate(-485.677 -474.499)" fill="#fcff2c"/>
            <path id="Path_3562" data-name="Path 3562" d="M517.3,535.761c.445-.484.455-.484.79-.133.321.326.331.346.039.479a2.683,2.683,0,0,1-.781.138l-.484.02Z" transform="translate(-496.469 -474.957)" fill="#fcff2c"/>
            <path id="Path_3563" data-name="Path 3563" d="M519.133,535.972a1.2,1.2,0,0,1,.385-.444c.292-.213.356-.173.608.212l.3.445h-.677c-.445,0-.657-.079-.617-.213" transform="translate(-487.539 -474.877)" fill="#fcff2c"/>
            <path id="Path_3564" data-name="Path 3564" d="M519.652,535.906c-.183-.272-.321-.538-.282-.558a4.165,4.165,0,0,1,.746.074l.7.138-.4.425-.4.425Z" transform="translate(-486.61 -475.082)" fill="#fcff2c"/>
            <path id="Path_3565" data-name="Path 3565" d="M516.755,535.977c-.138-.366.143-.637.618-.637.375,0,.366.039-.118.519-.376.385-.405.4-.5.118" transform="translate(-497.025 -475.114)" fill="#fcff2c"/>
            <path id="Path_3566" data-name="Path 3566" d="M517.85,535.78l.425-.479.415.385a5.064,5.064,0,0,0,.474.444,3.793,3.793,0,0,1-.84.114l-.919.039Z" transform="translate(-494.322 -475.267)" fill="#fcff2c"/>
            <path id="Path_3567" data-name="Path 3567" d="M519.093,536.225l-.538-.113.4-.425.4-.385.469.519c.514.618.454.657-.721.405" transform="translate(-489.796 -475.267)" fill="#fcff2c"/>
            <path id="Path_3568" data-name="Path 3568" d="M517.5,535.875l-.375-.444h.6a2.485,2.485,0,0,0,.859-.119c.232-.113.212-.02-.089.425a2.159,2.159,0,0,1-.5.6,2.073,2.073,0,0,1-.494-.46" transform="translate(-495.413 -475.397)" fill="#fcff2c"/>
            <path id="Path_3569" data-name="Path 3569" d="M518.437,535.8l.464-.538.459.479a3.06,3.06,0,0,1,.455.563,3.77,3.77,0,0,1-.934.054h-.928Z" transform="translate(-492.168 -475.421)" fill="#fcff2c"/>
            <path id="Path_3570" data-name="Path 3570" d="M519.231,535.745l-.385-.444h.761c.83,0,.938.133.474.6-.375.385-.4.385-.849-.153" transform="translate(-488.65 -475.267)" fill="#fcff2c"/>
            <path id="Path_3571" data-name="Path 3571" d="M518.071,535.706l-.38-.444h1.749l-.4.444c-.474.578-.494.578-.973,0" transform="translate(-493.2 -475.421)" fill="#fcff2c"/>
            <path id="Path_3572" data-name="Path 3572" d="M518.67,535.706l-.385-.444h1.739l-.366.444c-.484.578-.514.578-.988,0" transform="translate(-490.86 -475.421)" fill="#fcff2c"/>
            <path id="Path_3573" data-name="Path 3573" d="M530.231,536.046c-.405-.079-2.025-.252-3.611-.366a44.745,44.745,0,0,0-9.162.306c-.627.1-.78.06-.78-.173,0-.445,3.279-.751,8.323-.751,2.46,0,4.979.074,5.586.153,1.032.133,1.1.173,1.1.558,0,.5-.133.524-1.457.272" transform="translate(-497.19 -476.205)" fill="#fcff2c"/>
            <path id="Path_3574" data-name="Path 3574" d="M517.186,535.437a3.032,3.032,0,0,1,.751-.617,1.706,1.706,0,0,1,.5.425l.37.464-.781.114c-.444.079-.948.138-1.121.2-.242.054-.173-.1.282-.583" transform="translate(-496.839 -477.162)" fill="#fcff2c"/>
            <path id="Path_3575" data-name="Path 3575" d="M516.672,535.5c-.124-.346-.084-.445.183-.578a1.21,1.21,0,0,1,.637-.079c.282.04.252.1-.173.558l-.509.524Z" transform="translate(-497.476 -477.127)" fill="#fcff2c"/>
            <path id="Path_3576" data-name="Path 3576" d="M519.685,535.242c0-.079.109-.193.232-.272.158-.059.2,0,.148.173-.1.292-.381.37-.381.1" transform="translate(-485.345 -476.656)" fill="#fcff2c"/>
            <path id="Path_3577" data-name="Path 3577" d="M517.812,535.344c.242-.311.444-.559.444-.578a2.928,2.928,0,0,1,.518.479l.5.5-.958.059-.943.074Z" transform="translate(-494.436 -477.394)" fill="#fcff2c"/>
            <path id="Path_3578" data-name="Path 3578" d="M519.776,535.765l-.686-.059.494-.465.5-.464.4.425c.435.425.5.716.193.657-.114-.02-.508-.039-.9-.094" transform="translate(-487.688 -477.332)" fill="#fcff2c"/>
            <path id="Path_3579" data-name="Path 3579" d="M517.566,535.4l-.474-.425.79-.134a2.491,2.491,0,0,1,.83-.079c.039.059-.109.311-.321.578l-.365.464Z" transform="translate(-495.559 -477.45)" fill="#fcff2c"/>
            <path id="Path_3580" data-name="Path 3580" d="M518.932,535.639l-.375-.138.415-.405c.346-.385.449-.425.672-.193a1.938,1.938,0,0,1,.415.558c.148.271.109.331-.287.311a5.749,5.749,0,0,1-.839-.134" transform="translate(-489.788 -477.399)" fill="#fcff2c"/>
            <path id="Path_3581" data-name="Path 3581" d="M519.855,535.3l-.484-.563.415.119a5.274,5.274,0,0,0,1.062.113h.647l-.484.465a6.1,6.1,0,0,1-.588.444,2.783,2.783,0,0,1-.568-.578" transform="translate(-486.582 -477.485)" fill="#fcff2c"/>
            <path id="Path_3582" data-name="Path 3582" d="M518.044,535.384a1.9,1.9,0,0,1-.341-.524c0-.074.415-.153.919-.153h.924l-.316.405c-.544.657-.8.736-1.186.272" transform="translate(-493.152 -477.608)" fill="#fcff2c"/>
            <path id="Path_3583" data-name="Path 3583" d="M518.438,535.148c.534-.524.716-.524,1.052.059.252.385.232.405-.617.385h-.889Z" transform="translate(-492.045 -477.391)" fill="#fcff2c"/>
            <path id="Path_3584" data-name="Path 3584" d="M519.208,535.265l-.39-.558h.415a4.08,4.08,0,0,1,.889.134l.509.1-.469.444a2.429,2.429,0,0,1-.514.425,3.142,3.142,0,0,1-.44-.543" transform="translate(-488.76 -477.608)" fill="#fcff2c"/>
            <path id="Path_3585" data-name="Path 3585" d="M518.67,535.171l-.385-.465h1.739l-.366.465c-.484.558-.514.558-.988,0" transform="translate(-490.86 -477.608)" fill="#fcff2c"/>
            <path id="Path_3586" data-name="Path 3586" d="M516.627,539.024c.064-.2.2-.736.306-1.235l.193-.929,1.808-1a18.625,18.625,0,0,0,2.42-1.546c.356-.306.731-.617.839-.692a47.036,47.036,0,0,1,7.068.539c1.61.271,4.421.81,4.534.889a17.254,17.254,0,0,1-.558,1.833c-.316,1-.617,1.912-.657,2.065-.05.173-.242.193-.79.094a67.413,67.413,0,0,0-13.381.079c-1.689.292-1.931.272-1.783-.094" transform="translate(-497.534 -482.018)" fill="#fcff2c"/>
            <path id="Path_3587" data-name="Path 3587" d="M521.578,536.935a1.84,1.84,0,0,0-1.156-3.107,1.671,1.671,0,0,0-1.63,1.832,1.608,1.608,0,0,0,2.786,1.274" transform="translate(-488.858 -481.071)"/>
            <path id="Path_3588" data-name="Path 3588" d="M519.5,536.555a1.5,1.5,0,0,1,.109-2.509,1.275,1.275,0,0,1,1.8,1.294,1.338,1.338,0,0,1-1.912,1.215" transform="translate(-488.541 -480.73)" fill="#fcff2c"/>
            <path id="Path_3589" data-name="Path 3589" d="M520.223,537.043a1.905,1.905,0,0,0-.415-3.107,1.512,1.512,0,0,0-2.035.711,1.687,1.687,0,0,0,.252,2.218,1.38,1.38,0,0,0,2.2.178" transform="translate(-494.063 -481.272)"/>
            <path id="Path_3590" data-name="Path 3590" d="M518.277,536.589c-1.2-.538-.78-2.722.529-2.722,1.274,0,1.7,1.971.563,2.643-.534.311-.6.311-1.092.079" transform="translate(-493.677 -480.917)" fill="#fcff2c"/>
            <path id="Path_3591" data-name="Path 3591" d="M518.663,550.994c.232-.676.192-1.541-.054-1.541-.128,0-.212.227-.212.632a1.545,1.545,0,0,1-.222.869c-.173.193-.2.059-.128-.83.059-.578.03-1.023-.044-1.023-.148,0-.425.87-.534,1.62-.059.464-.059.464-.192-.094a1.48,1.48,0,0,1,.212-1.215,3.4,3.4,0,0,0,.356-1.2c0-.445.3-.889,1.8-2.509,1.008-1.082,2.163-2.416,2.6-2.974.721-.963.761-1.062.721-2.045a4.566,4.566,0,0,0-.114-1.136c-.2-.212-.454.864-.346,1.467.084.559-.01.731-1.062,2.045-.637.81-1.719,2.006-2.4,2.717-1.254,1.255-1.694,1.912-1.694,2.549a4.073,4.073,0,0,1-.331,1.136,1.968,1.968,0,0,0-.2.968c.05.114.01.114-.1,0-.148-.138-.158-.405-.039-.983a2.94,2.94,0,0,0,.089-.949c-.178-.306-.39.079-.484.949-.069.5-.183.864-.252.81-.242-.178-.163-1.062.123-1.507a4.568,4.568,0,0,0,.4-1.275,7.46,7.46,0,0,1,1.877-3.665c.573-.7,1.042-1.275,1.042-1.314s-.163-.558-.346-1.155a9.212,9.212,0,0,1-.069-4.688,10.558,10.558,0,0,1,2.608-4.056c1.368-1.428,2.692-2.277,3.324-2.178.544.1,16.334,13.333,16.334,13.684a.254.254,0,0,1-.281.247c-.153,0-4.174-1.215-8.93-2.682-7.6-2.371-8.693-2.776-9.009-3.181a1.892,1.892,0,0,1-.05-2.144,1.638,1.638,0,0,0,.336-.711c0-.385-.81.637-.973,1.215a2.655,2.655,0,0,0,.657,2.258,26.385,26.385,0,0,0,3.211,1.2c2.682.83,2.875.924,3.028,1.408.331,1.141-.8,2.47-2.43,2.855a4.935,4.935,0,0,0-1.66.81,21.773,21.773,0,0,1-4.193,2.875,7.026,7.026,0,0,0-1.363.736,3.716,3.716,0,0,0-.355,1.176c-.193,1.121-.282,1.294-.578,1.294-.192,0-.2-.1-.069-.465" transform="translate(-500.306 -494.512)" fill="#fcff2c"/>
            <path id="Path_3592" data-name="Path 3592" d="M527.479,537.105a52.625,52.625,0,0,0-7.034-1.023l-2.593-.232.983-.42a11.688,11.688,0,0,0,1.709-.815,2.535,2.535,0,0,1,1.877-.365c1.447.118,2.435-.153,2.8-.81a4.815,4.815,0,0,1,.326-.558,20.311,20.311,0,0,1,2.559.711l2.534.776-.489.943c-.282.484-.617,1.156-.761,1.487-.291.677-.39.7-1.911.306" transform="translate(-492.565 -484.812)" fill="#fcff2c"/>
            <path id="Path_3593" data-name="Path 3593" d="M518.712,533.581c-.138-.113-.119-.212.029-.459.133-.193.257-.232.336-.138.133.272-.133.756-.365.6" transform="translate(-489.547 -484.588)" fill="#fcff2c"/>
            <path id="Path_3594" data-name="Path 3594" d="M518.76,533.2c0-.232.114-.232.247,0,.039.094.015.173-.074.173a.172.172,0,0,1-.173-.173" transform="translate(-488.988 -484.239)" fill="#fcff2c"/>
            <path id="Path_3595" data-name="Path 3595" d="M518.924,533.182c0-.153.079-.232.163-.153.213.133.213.445,0,.445-.084,0-.163-.119-.163-.292" transform="translate(-488.343 -484.342)" fill="#fcff2c"/>
            <path id="Path_3596" data-name="Path 3596" d="M519.171,533.493a.713.713,0,0,1-.114-.425c0-.173.039-.193.183-.074a.5.5,0,0,1,.114.425c-.03.114-.114.153-.183.074" transform="translate(-487.819 -484.653)" fill="#fcff2c"/>
            <path id="Path_3597" data-name="Path 3597" d="M518.906,533.427a.759.759,0,0,1-.113-.4c0-.213.049-.232.183-.079a.551.551,0,0,1,.118.405c-.04.118-.118.158-.188.079" transform="translate(-488.858 -484.953)" fill="#fcff2c"/>
            <path id="Path_3598" data-name="Path 3598" d="M519.255,533.161c-.173-.326.029-.366.252-.074.123.153.143.247.04.247a.4.4,0,0,1-.292-.173" transform="translate(-487.295 -484.766)" fill="#fcff2c"/>
            <path id="Path_3599" data-name="Path 3599" d="M518.955,533.112a.231.231,0,0,1,.079-.272c.089-.074.163.02.163.173,0,.331-.1.351-.242.1" transform="translate(-488.29 -485.063)" fill="#fcff2c"/>
            <path id="Path_3600" data-name="Path 3600" d="M519.09,532.963c0-.153.074-.212.163-.173.213.158.213.464,0,.464-.089,0-.163-.133-.163-.292" transform="translate(-487.688 -485.205)" fill="#fcff2c"/>
            <path id="Path_3601" data-name="Path 3601" d="M518.693,532.981c0-.306.109-.326.242-.094a.266.266,0,0,1-.074.287c-.079.059-.168-.02-.168-.193" transform="translate(-489.252 -485.396)" fill="#fcff2c"/>
            <path id="Path_3602" data-name="Path 3602" d="M518.826,532.886c0-.133.069-.232.153-.153.222.133.222.445,0,.445-.084,0-.153-.139-.153-.292" transform="translate(-488.729 -485.494)" fill="#fcff2c"/>
            <path id="Path_3603" data-name="Path 3603" d="M519.349,540.272c-.044-.776-.044-2.589,0-4.056.1-2.989.03-3.3-.9-3.626-.736-.272-1.013-.5-1.013-.85,0-.232.153-.252.983-.173.879.114.993.079.943-.173-.084-.465-1.235-.83-2.44-.771-.953.074-1.067.035-.993-.213a1.463,1.463,0,0,1,1.457-1.022,3.773,3.773,0,0,0,1.4-.445,2.628,2.628,0,0,1,1.833-.311c2.134.139,2.549.756,3.107,4.826.213,1.561.385,3.028.4,3.26,0,.252-.3.578-1.042,1.116a15.282,15.282,0,0,0-3.23,3.285l-.415.6Z" transform="translate(-500.222 -501.618)" fill="#fcff2c"/>
            <path id="Path_3604" data-name="Path 3604" d="M518.023,530a.625.625,0,0,0,.113-.81c-.232-.578-.5-.445-.4.193.069.346.02.444-.252.444-.3,0-.346-.118-.346-.583s-.04-.519-.252-.326a.765.765,0,0,0,.02,1.122c.36.44.756.44,1.121-.039" transform="translate(-497.31 -500.841)"/>
          </g>
        </g>
      </g>
    </g>
  </g>
</svg>
