<svg id="_2-2" data-name="2-2" xmlns="http://www.w3.org/2000/svg" xmlns:xlink="http://www.w3.org/1999/xlink" width="64.939" height="79.896" viewBox="0 0 64.939 79.896">
  <defs>
    <linearGradient id="linear-gradient" x1="0.5" x2="0.5" y2="1" gradientUnits="objectBoundingBox">
      <stop offset="0" stop-color="#00abfb"/>
      <stop offset="1" stop-color="#00ffbf"/>
    </linearGradient>
  </defs>
  <g id="Group_1353" data-name="Group 1353" transform="translate(19.322 18.272)">
    <g id="Group_1352" data-name="Group 1352">
      <g id="Group_1351" data-name="Group 1351">
        <path id="Path_12561" data-name="Path 12561" d="M316.209,117.176h.093S316.23,116.994,316.209,117.176Z" transform="translate(-293.666 -117.095)" fill="url(#linear-gradient)"/>
        <path id="Path_12562" data-name="Path 12562" d="M171.747,117.176h.093C171.82,116.994,171.747,117.176,171.747,117.176Z" transform="translate(-171.747 -117.095)" fill="url(#linear-gradient)"/>
      </g>
    </g>
  </g>
  <g id="Group_1355" data-name="Group 1355" transform="translate(0 0)">
    <g id="Group_1354" data-name="Group 1354">
      <path id="Path_12563" data-name="Path 12563" d="M112.3,24.1a3.67,3.67,0,0,0-2.3-1.639L104.936,21.3l2.339-.655a3.694,3.694,0,1,0-1.991-7.115l-10.9,3.052a3.719,3.719,0,0,0-1.174-1.288c2.213-4.118,5.4-11.107,5.4-14.113A1.191,1.191,0,0,0,97.194.024,58.479,58.479,0,0,1,84.864,1.258,71.117,71.117,0,0,1,72.522.027a1.189,1.189,0,0,0-1.257,1.76A12.226,12.226,0,0,1,72.78,5.831c-4,.123-8.153-.362-11.295-1.933a1.19,1.19,0,0,0-1.69,1.248,25.547,25.547,0,0,0,4.98,12.029H64.73a3.694,3.694,0,0,0-.483,7.356,44.173,44.173,0,0,1-5.182,6.505c-4.209,4.678-8.98,9.98-10.585,18.54a27.443,27.443,0,0,0,.076,11.392,21.1,21.1,0,0,0,4.327,8.7A26.64,26.64,0,0,0,64.3,77.436a42.565,42.565,0,0,0,28.523,0,26.641,26.641,0,0,0,11.418-7.771,21.1,21.1,0,0,0,4.327-8.7,27.445,27.445,0,0,0,.076-11.392c-1.605-8.56-6.376-13.862-10.585-18.54-1.429-1.588-2.788-3.1-3.928-4.639l14.213,3.265A3.694,3.694,0,0,0,112.3,24.1ZM84.838,3.616a59.543,59.543,0,0,0,11.185-.969,61.077,61.077,0,0,1-5.164,12.025,3.7,3.7,0,0,0-3.22,2.5H84.366c-.074-.159-.156-.334-.247-.528C83.107,14.5,81,10.019,81,6.21a1.191,1.191,0,0,0-1.41-1.156,41.6,41.6,0,0,1-4.452.636,15.2,15.2,0,0,0-.791-2.938A79.4,79.4,0,0,0,84.838,3.616Zm7.637,14.738v5.03a1.336,1.336,0,0,1-2.672,0v-5.03a1.336,1.336,0,0,1,2.672,0ZM62.543,6.883A29.812,29.812,0,0,0,73.032,8.2l2.337-.148c1.1-.1,2.22-.247,3.347-.437a31.5,31.5,0,0,0,3.046,9.562H67.784a1.2,1.2,0,0,0-.087-.121A22.562,22.562,0,0,1,62.543,6.883Zm33.766,25.73c4,4.447,8.537,9.487,10.02,17.4,1.365,7.28.053,13.386-3.9,18.149-4.874,5.873-13.8,9.379-23.865,9.379S59.572,74.032,54.7,68.159C50.745,63.4,49.433,57.29,50.8,50.011c1.483-7.91,6.019-12.95,10.02-17.4a38.655,38.655,0,0,0,6.1-8.05H69.8a1.179,1.179,0,1,0,0-2.358H64.73a1.336,1.336,0,1,1,0-2.672H87.445v2.672H75.419a1.179,1.179,0,1,0,0,2.358h12.22a3.694,3.694,0,0,0,4.052,2.474A57.333,57.333,0,0,0,96.309,32.613ZM94.833,18.9l11.085-3.1a1.336,1.336,0,1,1,.72,2.573L100.3,20.146a1.171,1.171,0,0,0-.149.054l-5.321-1.223V18.9Zm15.642,7.459a1.337,1.337,0,0,1-1.6,1L94.759,24.121a3.7,3.7,0,0,0,.074-.737V21.4l14.639,3.363A1.349,1.349,0,0,1,110.475,26.361Z" transform="translate(-47.923 -0.001)" fill="url(#linear-gradient)"/>
    </g>
  </g>
  <g id="Group_1357" data-name="Group 1357" transform="translate(20.029 29.75)">
    <g id="Group_1356" data-name="Group 1356">
      <path id="Path_12564" data-name="Path 12564" d="M194.434,209.355a3.069,3.069,0,0,0,3.065-3.065V204.4a8.737,8.737,0,0,0-7.546-8.645v-2.044a3.065,3.065,0,1,0-6.131,0v2.2a9.668,9.668,0,0,0,2.122,19.1h1.886a3.537,3.537,0,1,1,0,7.074H185a2.6,2.6,0,0,1-2.594-2.594,3.065,3.065,0,1,0-6.131,0,8.737,8.737,0,0,0,7.546,8.645v2.044a3.065,3.065,0,1,0,6.131,0v-2.2a9.668,9.668,0,0,0-2.122-19.1h-1.886a3.537,3.537,0,1,1,0-7.074h2.83a2.6,2.6,0,0,1,2.594,2.594v1.886A3.069,3.069,0,0,0,194.434,209.355Zm-5.659-9.9h-2.83a5.895,5.895,0,1,0,0,11.79h1.886a7.309,7.309,0,0,1,.813,14.573,1.179,1.179,0,0,0-1.049,1.172v3.2a.707.707,0,0,1-1.415,0V227.04A1.179,1.179,0,0,0,185,225.861a6.374,6.374,0,0,1-6.366-6.366.707.707,0,0,1,1.415,0A4.957,4.957,0,0,0,185,224.446h2.83a5.895,5.895,0,0,0,0-11.79h-1.886a7.309,7.309,0,0,1-.813-14.573,1.179,1.179,0,0,0,1.049-1.172v-3.2a.707.707,0,0,1,1.415,0v3.144a1.179,1.179,0,0,0,1.179,1.179,6.374,6.374,0,0,1,6.366,6.366v1.886a.707.707,0,1,1-1.415,0V204.4A4.957,4.957,0,0,0,188.775,199.452Z" transform="translate(-176.277 -190.649)" fill="url(#linear-gradient)"/>
    </g>
  </g>
</svg>
