<svg xmlns="http://www.w3.org/2000/svg" xmlns:xlink="http://www.w3.org/1999/xlink" width="100.3" height="103.163" viewBox="0 0 100.3 103.163">
  <defs>
    <linearGradient id="linear-gradient" x1="0.5" x2="0.5" y2="1" gradientUnits="objectBoundingBox">
      <stop offset="0" stop-color="#00abfb"/>
      <stop offset="1" stop-color="#00ffbf"/>
    </linearGradient>
  </defs>
  <path id="_2" data-name="2" d="M101.462,37.2a1.413,1.413,0,0,0,.736-1.24V24.153a1.43,1.43,0,0,0-2.091-1.24L88.974,28.989,80.421,24.32l-.362-.2,9.618-5.507a1.413,1.413,0,1,0-1.405-2.453l-11.81,6.764a1.454,1.454,0,0,0-.711,1.227v2.879L65.243,20.451a1.383,1.383,0,0,0,.029-.215V8.425A1.448,1.448,0,0,0,64.561,7.2L52.751.434a1.414,1.414,0,0,0-1.405,0L39.531,7.2a1.448,1.448,0,0,0-.711,1.227V20.236a1.384,1.384,0,0,0,.029.216l-10.5,6.579V24.153a1.446,1.446,0,0,0-.711-1.227l-11.81-6.764a1.414,1.414,0,0,0-1.405,0L2.609,22.926A1.454,1.454,0,0,0,1.9,24.153v11.81a1.413,1.413,0,0,0,.736,1.24l11.073,6.048V59.433L2.609,65.79A1.447,1.447,0,0,0,1.9,67.017v4.361a1.413,1.413,0,0,0,2.826,0V69.4l8.984,4.9v8.59l-9.72-5.306a1.413,1.413,0,1,0-1.354,2.481l11.81,6.447a1.436,1.436,0,0,0,1.355,0L25.828,81.04l13,8.656v5.857a1.413,1.413,0,0,0,.736,1.241l11.81,6.447a1.436,1.436,0,0,0,1.355,0l11.806-6.448a1.413,1.413,0,0,0,.736-1.24V89.694l13-8.656L88.3,86.513a1.436,1.436,0,0,0,1.355,0l11.806-6.445a1.413,1.413,0,0,0,.736-1.24V67.017a1.454,1.454,0,0,0-.711-1.227l-11.1-6.357V43.252ZM60.6,83.911,52.048,88.58l-8.554-4.669-.362-.2,8.915-5.105,8.915,5.1ZM6.206,66.987l8.915-5.105,8.915,5.105-.362.2-8.554,4.668L6.568,67.184ZM25.519,35.125l-8.984,4.9v-8.59l8.984-4.9Zm1.292,30.2L16.532,59.433V43.252L25.9,38.141l12.93,8.411V56.863ZM41.651,19.4v-8.59l8.984,4.907V24.3Zm20.794,0-8.984,4.9V15.714l8.984-4.905ZM52.048,40.65l8.915,5.105-.362.2-8.554,4.669-8.554-4.669-.362-.2Zm-10.4,7.517,8.984,4.9v8.592l-8.984-4.906Zm11.81,4.9,8.984-4.9v8.591l-8.984,4.906Zm11.81-6.519L78.2,38.138l9.363,5.113V59.433L77.284,65.32,65.272,56.863ZM87.56,31.439v8.59l-8.982-4.9v-8.59Zm-8.982,46.55V69.4l8.984,4.9v8.59ZM97.529,67.184l-8.554,4.669-8.554-4.669-.362-.2,8.915-5.105,8.915,5.105Zm-7.14-27.155v-8.59l8.982-4.9v8.59ZM75.8,36.326l-11.989,7.8L53.462,38.2V27.522l9.481-5.176,12.809,8.021v5.6a1.409,1.409,0,0,0,.05.363ZM52.048,3.29,60.963,8.4l-8.524,4.653-.391.213-.391-.213L43.134,8.4ZM41.155,22.348l9.481,5.176V38.2l-10.35,5.927L28.3,36.326a1.41,1.41,0,0,0,.049-.363v-5.6ZM15.122,19.017l8.915,5.105-.362.2-8.554,4.669L6.568,24.32l-.362-.2Zm-10.4,7.518,8.984,4.9v8.589l-8.984-4.9ZM16.535,74.3l8.984-4.9v8.591l-8.984,4.9Zm11.732,4.966a1.4,1.4,0,0,0,.081-.442V67.7l11.985-8.441,10.3,5.624V76.16l-11.1,6.357a1.454,1.454,0,0,0-.711,1.227V86.3Zm13.384,9.664V86.124l8.984,4.9v8.59l-8.984-4.9Zm11.81,10.686V91.029l8.984-4.9v8.591Zm11.81-15.876a1.446,1.446,0,0,0-.711-1.227l-11.1-6.356V64.882l10.3-5.624L75.752,67.7V78.827a1.4,1.4,0,0,0,.081.442L65.274,86.3Zm25.115-.851V74.3l8.984-4.9v8.591Zm2.46-63.286a1.412,1.412,0,0,1,1.929-.523l1.615.923a1.413,1.413,0,0,1-1.405,2.453l-1.615-.923a1.414,1.414,0,0,1-.523-1.928Z" transform="translate(-1.898 -0.248)" fill="url(#linear-gradient)"/>
</svg>
