<svg id="_3-3" data-name="3-3" xmlns="http://www.w3.org/2000/svg" xmlns:xlink="http://www.w3.org/1999/xlink" width="75.399" height="58.77" viewBox="0 0 75.399 58.77">
  <defs>
    <linearGradient id="linear-gradient" x1="0.5" x2="0.5" y2="1" gradientUnits="objectBoundingBox">
      <stop offset="0" stop-color="#00abfb"/>
      <stop offset="1" stop-color="#00ffbf"/>
    </linearGradient>
  </defs>
  <path id="Path_12574" data-name="Path 12574" d="M5.081,115.232H70.318a5.107,5.107,0,0,0,5.081-5.12v-2.977a1.968,1.968,0,0,0-1.961-1.97H69.661a6.221,6.221,0,0,0,1.445-3.964V87.23a1.1,1.1,0,0,0-2.209,0V101.2a4.064,4.064,0,0,1-3.313,3.964H9.815A4.064,4.064,0,0,1,6.5,101.2V62.7a4.033,4.033,0,0,1,4.028-4.029H64.868A4.033,4.033,0,0,1,68.9,62.7V82.076a1.1,1.1,0,0,0,2.209,0V62.7a6.245,6.245,0,0,0-6.237-6.237H10.531A6.245,6.245,0,0,0,4.294,62.7v38.5a6.22,6.22,0,0,0,1.445,3.964H1.962A1.968,1.968,0,0,0,0,107.135v2.977a5.107,5.107,0,0,0,5.081,5.12Zm23.047-7.858H47.271v.893a.681.681,0,0,1-.663.68H28.791a.681.681,0,0,1-.663-.68Zm-25.92,0H25.92v.893a2.884,2.884,0,0,0,2.872,2.889H46.608a2.884,2.884,0,0,0,2.872-2.889v-.893H73.19v2.738a2.9,2.9,0,0,1-2.872,2.911H5.081a2.9,2.9,0,0,1-2.873-2.911Z" transform="translate(0 -56.463)" fill="url(#linear-gradient)"/>
  <path id="Path_12575" data-name="Path 12575" d="M86.686,89.749a1.1,1.1,0,1,0,0-2.209H62.493a2.028,2.028,0,0,0-2.025,2.025V127.28a2.028,2.028,0,0,0,2.025,2.025h53.539a2.028,2.028,0,0,0,2.025-2.025V89.565a2.028,2.028,0,0,0-2.025-2.025H91.84a1.1,1.1,0,0,0,0,2.209h24.009V93H68.663V89.749H86.686ZM108.5,127.1H97.714v-1.328A2.772,2.772,0,0,1,100.483,123h5.251a2.772,2.772,0,0,1,2.768,2.768V127.1Zm-7.587-8.5a2.193,2.193,0,1,1,.642,1.55A2.192,2.192,0,0,1,100.915,118.6ZM90.367,95.211h25.481v14.838h-5.138v-1.328a4.985,4.985,0,0,0-3.863-4.85,4.409,4.409,0,0,0-.627-5.432h0a4.4,4.4,0,0,0-6.853,5.433,4.985,4.985,0,0,0-3.862,4.85v1.328H90.367V95.211Zm15.366,10.743a2.772,2.772,0,0,1,2.768,2.768v1.328H97.714v-1.328a2.772,2.772,0,0,1,2.768-2.768Zm-4.818-4.4a2.193,2.193,0,1,1,.642,1.55A2.192,2.192,0,0,1,100.915,101.552ZM90.367,112.258h25.481V127.1h-5.138v-1.328a4.985,4.985,0,0,0-3.863-4.85,4.409,4.409,0,0,0-.627-5.432h0a4.4,4.4,0,0,0-6.853,5.433,4.985,4.985,0,0,0-3.862,4.85V127.1H90.367ZM62.677,89.749h3.777V93H62.677ZM80.812,127.1H70.024v-1.328A2.771,2.771,0,0,1,72.792,123h5.252a2.772,2.772,0,0,1,2.768,2.768Zm-5.394-10.69a2.193,2.193,0,1,1-1.551,3.743A2.2,2.2,0,0,1,75.418,116.406ZM88.158,127.1H83.021v-1.328a4.985,4.985,0,0,0-3.863-4.85,4.409,4.409,0,0,0-.627-5.432h0a4.4,4.4,0,0,0-6.853,5.433,4.985,4.985,0,0,0-3.862,4.85V127.1H62.677V112.258H88.158ZM78.043,105.953a2.772,2.772,0,0,1,2.768,2.768v1.328H70.024v-1.328a2.771,2.771,0,0,1,2.768-2.768Zm-2.626-6.594a2.193,2.193,0,1,1-1.551,3.743A2.2,2.2,0,0,1,75.418,99.359Zm12.741-4.148v14.838H83.021v-1.328a4.985,4.985,0,0,0-3.863-4.85,4.409,4.409,0,0,0-.627-5.432h0a4.4,4.4,0,0,0-6.853,5.433,4.985,4.985,0,0,0-3.862,4.85v1.328H62.677V95.211Z" transform="translate(-51.563 -82.963)" fill="url(#linear-gradient)"/>
</svg>
