<svg xmlns="http://www.w3.org/2000/svg" xmlns:xlink="http://www.w3.org/1999/xlink" width="83.783" height="101.381" viewBox="0 0 83.783 101.381">
  <defs>
    <linearGradient id="linear-gradient" x1="0.5" x2="0.5" y2="1" gradientUnits="objectBoundingBox">
      <stop offset="0" stop-color="#00abfb"/>
      <stop offset="1" stop-color="#00ffbf"/>
    </linearGradient>
  </defs>
  <g id="_3" data-name="3" transform="translate(-44.532)">
    <g id="XMLID_484_" transform="translate(44.532)">
      <path id="XMLID_581_" d="M118.435,128.246H80.668a11.428,11.428,0,1,0-17.24,0H54.412a9.891,9.891,0,0,0-9.88,9.88v11.658a1.976,1.976,0,0,0,3.952,0V138.126a5.935,5.935,0,0,1,5.928-5.928H109.74a5.935,5.935,0,0,1,5.928,5.928V148.8H95.118a9.88,9.88,0,1,0,0,19.76h20.55v10.67a5.935,5.935,0,0,1-5.928,5.928H54.412a5.935,5.935,0,0,1-5.928-5.928V167.553a1.976,1.976,0,0,0-3.952,0v11.674a9.891,9.891,0,0,0,9.88,9.88h64.023a9.891,9.891,0,0,0,9.88-9.88v-41.1a9.891,9.891,0,0,0-9.88-9.88ZM72.048,113.281a7.476,7.476,0,1,1-7.476,7.476A7.484,7.484,0,0,1,72.048,113.281ZM117.639,132.2h.8a5.935,5.935,0,0,1,5.928,5.928V148.8H119.62v-10.67A9.829,9.829,0,0,0,117.639,132.2ZM89.19,158.677a5.935,5.935,0,0,1,5.928-5.928h29.245V164.6H95.118A5.935,5.935,0,0,1,89.19,158.677Zm29.245,26.478h-.8a9.828,9.828,0,0,0,1.981-5.928v-10.67h4.742v10.67A5.935,5.935,0,0,1,118.435,185.155Z" transform="translate(-44.532 -87.726)" fill="url(#linear-gradient)"/>
      <path id="XMLID_1260_" d="M289.948,349.062a1.977,1.977,0,1,0,1.4.579A1.992,1.992,0,0,0,289.948,349.062Z" transform="translate(-239.868 -280.087)" fill="url(#linear-gradient)"/>
      <path id="XMLID_1711_" d="M282.879,44.851a11.428,11.428,0,1,0-11.428-11.428A11.44,11.44,0,0,0,282.879,44.851Zm0-18.9a7.476,7.476,0,1,1-7.476,7.476A7.484,7.484,0,0,1,282.879,25.948Z" transform="translate(-226.612 -17.65)" fill="url(#linear-gradient)"/>
      <path id="XMLID_1712_" d="M223.589,19.48a1.976,1.976,0,0,0,1.976-1.976V1.976a1.976,1.976,0,0,0-3.952,0V17.5A1.976,1.976,0,0,0,223.589,19.48Z" transform="translate(-186.622)" fill="url(#linear-gradient)"/>
      <path id="XMLID_1757_" d="M175.589,12.646a1.976,1.976,0,0,0,1.976-1.976V1.976a1.976,1.976,0,1,0-3.952,0V10.67A1.976,1.976,0,0,0,175.589,12.646Z" transform="translate(-148.107)" fill="url(#linear-gradient)"/>
      <path id="XMLID_1760_" d="M46.508,353.014a1.977,1.977,0,1,0-1.4-.579A1.991,1.991,0,0,0,46.508,353.014Z" transform="translate(-44.532 -280.087)" fill="url(#linear-gradient)"/>
    </g>
  </g>
</svg>
