<svg id="_4-4" data-name="4-4" xmlns="http://www.w3.org/2000/svg" xmlns:xlink="http://www.w3.org/1999/xlink" width="82.965" height="81.336" viewBox="0 0 82.965 81.336">
  <defs>
    <linearGradient id="linear-gradient" x1="0.5" x2="0.5" y2="1" gradientUnits="objectBoundingBox">
      <stop offset="0" stop-color="#00abfb"/>
      <stop offset="1" stop-color="#00ffbf"/>
    </linearGradient>
  </defs>
  <path id="Path_12540" data-name="Path 12540" d="M304.53,147.656a4.516,4.516,0,0,0-2.31-.022l-2.522-4.407-2.112,1.208,2.522,4.408a4.545,4.545,0,0,0-.711,5.449l1.265,2.212a4.513,4.513,0,0,0,2.749,2.127,4.577,4.577,0,0,0,1.2.161,4.5,4.5,0,0,0,1.11-.14l.5.867a4.549,4.549,0,0,0-.713,5.449l1.265,2.212a4.538,4.538,0,0,0,5.059,2.148l2.54,4.44,2.113-1.208-2.541-4.442a4.548,4.548,0,0,0,.713-5.448l-1.265-2.212a4.549,4.549,0,0,0-5.058-2.147l-.5-.867a4.546,4.546,0,0,0,.711-5.45l-1.265-2.212A4.508,4.508,0,0,0,304.53,147.656Zm6.744,14.01,1.266,2.212a2.107,2.107,0,0,1,.081,1.934l-.708-1.236-2.112,1.208.708,1.237a2.121,2.121,0,0,1-.352-.065,2.093,2.093,0,0,1-1.276-.987l-1.265-2.212a2.107,2.107,0,0,1-.081-1.935l.725,1.268,2.113-1.208-.726-1.268A2.107,2.107,0,0,1,311.274,161.666Zm-5.468-7.765-2.112,1.208.708,1.237a2.121,2.121,0,0,1-.352-.065,2.093,2.093,0,0,1-1.275-.987l-1.265-2.212a2.092,2.092,0,0,1-.2-1.6,2.173,2.173,0,0,1,.122-.336l.727,1.27,2.112-1.209-.725-1.268a2.105,2.105,0,0,1,1.627,1.05l1.265,2.212a2.091,2.091,0,0,1,.2,1.6,2.172,2.172,0,0,1-.122.336Zm0,0" transform="translate(-249.365 -120.018)" fill="url(#linear-gradient)"/>
  <path id="Path_12541" data-name="Path 12541" d="M100.323,173.768l2.541-4.442a4.549,4.549,0,0,0,5.057-2.147l1.266-2.212a4.547,4.547,0,0,0-.712-5.45l.5-.867a4.55,4.55,0,0,0,5.058-2.147l1.265-2.212a4.548,4.548,0,0,0-.713-5.448l2.523-4.409-2.112-1.208-2.523,4.409a4.549,4.549,0,0,0-5.058,2.146l-1.265,2.212a4.548,4.548,0,0,0,.713,5.448l-.5.867a4.546,4.546,0,0,0-5.059,2.148l-1.265,2.212a4.55,4.55,0,0,0,.712,5.449l-2.541,4.441Zm7.732-18.965a2.094,2.094,0,0,1,.2-1.6l1.265-2.212a2.107,2.107,0,0,1,1.627-1.05l-.725,1.268,2.112,1.208.725-1.268a2.1,2.1,0,0,1-.081,1.935l-1.265,2.212a2.106,2.106,0,0,1-1.627,1.05l.707-1.236-2.112-1.209-.708,1.237A2.108,2.108,0,0,1,108.055,154.8Zm-5.9,9.076,1.265-2.212a2.092,2.092,0,0,1,1.275-.987,2.124,2.124,0,0,1,.352-.065l-.726,1.269,2.112,1.208.725-1.268a2.106,2.106,0,0,1-.08,1.935l-1.266,2.212a2.106,2.106,0,0,1-1.627,1.051l.707-1.236-2.112-1.208-.707,1.236A2.1,2.1,0,0,1,102.152,163.879Zm0,0" transform="translate(-82.297 -120.018)" fill="url(#linear-gradient)"/>
  <path id="Path_12542" data-name="Path 12542" d="M183.048,381.015l5.078-.015-.007-2.434-5.08.015a4.549,4.549,0,0,0-4.371-3.312h-.013l-2.548.008a4.549,4.549,0,0,0-4.366,3.336l-1,0a4.547,4.547,0,0,0-4.373-3.312h-.013l-2.548.007a4.547,4.547,0,0,0-4.367,3.337l-5.116.015.007,2.433,5.117-.015a4.549,4.549,0,0,0,4.372,3.312h.013l2.548-.008a4.546,4.546,0,0,0,4.368-3.336l1,0a4.545,4.545,0,0,0,4.373,3.312h.013l2.548-.007a4.547,4.547,0,0,0,4.368-3.336Zm-15.185.316a2.094,2.094,0,0,1-1.488.622l-2.548.007h-.006a2.105,2.105,0,0,1-1.716-.886l1.424,0-.007-2.434-1.426,0a2.115,2.115,0,0,1,1.719-.9l2.548-.008h.006a2.092,2.092,0,0,1,1.486.613,2.056,2.056,0,0,1,.232.273l-1.463,0,.007,2.434,1.463,0A2.146,2.146,0,0,1,167.863,381.332Zm10.811.586-2.548.008h-.006a2.094,2.094,0,0,1-1.486-.613,2.143,2.143,0,0,1-.232-.273l1.425,0-.007-2.433-1.424,0a2.109,2.109,0,0,1,1.717-.9l2.548-.007h.006a2.106,2.106,0,0,1,1.716.886l-1.461,0,.007,2.433,1.462,0a2.139,2.139,0,0,1-.23.274A2.093,2.093,0,0,1,178.674,381.918Zm0,0" transform="translate(-129.317 -314.46)" fill="url(#linear-gradient)"/>
  <path id="Path_12543" data-name="Path 12543" d="M190.769,91.369V77.893l11.671-6.739-1.217-2.107-11.671,6.738-11.671-6.738-1.217,2.107,11.671,6.739V91.369Zm0,0" transform="translate(-148.037 -57.858)" fill="url(#linear-gradient)"/>
  <path id="Path_12544" data-name="Path 12544" d="M353.657,332.359,341.989,339.1l-11.676-6.734-1.216,2.108,11.676,6.734.006,13.477h2.433l-.006-13.477,11.668-6.745Zm0,0" transform="translate(-275.77 -278.503)" fill="url(#linear-gradient)"/>
  <path id="Path_12545" data-name="Path 12545" d="M37.883,354.186V340.709l11.671-6.738-1.217-2.107L36.667,338.6l-11.673-6.739-1.217,2.108,11.672,6.738v13.477Zm0,0" transform="translate(-19.924 -278.088)" fill="url(#linear-gradient)"/>
  <path id="Path_12546" data-name="Path 12546" d="M155.32,11.071,169.628,2.81l14.308,8.261V26.213h2.434V9.666L169.628,0,152.887,9.666V26.213h2.433Zm0,0" transform="translate(-128.113)" fill="url(#linear-gradient)"/>
  <path id="Path_12547" data-name="Path 12547" d="M221.437,207.625l6.721-3.88-1.217-2.107-5.5,3.178-5.506-3.179-1.217,2.107Zm0,0" transform="translate(-179.922 -168.963)" fill="url(#linear-gradient)"/>
  <path id="Path_12548" data-name="Path 12548" d="M16.742,305.337,2.434,297.076V280.555l13.291-7.674-1.217-2.108L0,279.15v19.331l16.742,9.666,15.451-8.921-1.217-2.108Zm0,0" transform="translate(0 -226.897)" fill="url(#linear-gradient)"/>
  <path id="Path_12549" data-name="Path 12549" d="M166.561,309.926v-6.96l-6.532-3.771-1.217,2.108,5.315,3.068v5.555Zm0,0" transform="translate(-133.078 -250.713)" fill="url(#linear-gradient)"/>
  <path id="Path_12550" data-name="Path 12550" d="M346.815,279.9l-14.436-8.326-1.216,2.108,13.22,7.624.008,16.521-14.3,8.268L316.1,298.024l-1.216,2.108,15.2,8.769,16.736-9.674Zm0,0" transform="translate(-263.859 -227.565)" fill="url(#linear-gradient)"/>
  <path id="Path_12551" data-name="Path 12551" d="M311.947,299.383l-6.635,3.835,0,6.573h2.434l0-5.168,5.419-3.133Zm0,0" transform="translate(-255.839 -250.87)" fill="url(#linear-gradient)"/>
  <path id="Path_12552" data-name="Path 12552" d="M202.763,36.137l-1.22-2.106,2.105-1.22,1.22,2.105Zm14.441-.5-6.8-3.928-.62.36-1.22-2.106L210.4,28.9l8.023,4.631ZM206.272,34.1,205.052,32l2.105-1.22,1.22,2.105Zm0,0" transform="translate(-168.885 -24.216)" fill="url(#linear-gradient)"/>
  <path id="Path_12553" data-name="Path 12553" d="M431.179,379.508l-1.218-2.107,6.8-3.931v-.716l2.433-.005,0,2.124Zm5.578-8.377-.005-2.433,2.433-.006.006,2.434Zm-.009-4.055-.005-2.434,2.434-.005.005,2.433Zm0,0" transform="translate(-360.289 -305.55)" fill="url(#linear-gradient)"/>
  <path id="Path_12554" data-name="Path 12554" d="M33.9,377.311l-8.873-5.1v-2.545h2.433V370.8l7.653,4.4Zm-8.873-9.271v-2.434h2.433v2.433Zm2.433-4.056H25.031v-2.434h2.433Zm0,0" transform="translate(-20.975 -302.965)" fill="url(#linear-gradient)"/>
</svg>
