<svg id="_4" data-name="4" xmlns="http://www.w3.org/2000/svg" xmlns:xlink="http://www.w3.org/1999/xlink" width="92.641" height="92.641" viewBox="0 0 92.641 92.641">
  <defs>
    <linearGradient id="linear-gradient" x1="0.5" x2="0.5" y2="1" gradientUnits="objectBoundingBox">
      <stop offset="0" stop-color="#00abfb"/>
      <stop offset="1" stop-color="#00ffbf"/>
    </linearGradient>
  </defs>
  <g id="Group_1239" data-name="Group 1239" transform="translate(46.32 46.32)">
    <g id="Group_1238" data-name="Group 1238">
      <path id="Path_12059" data-name="Path 12059" d="M260.072,240a20.072,20.072,0,1,0,20.072,20.072A20.072,20.072,0,0,0,260.072,240Zm0,37.056a16.984,16.984,0,1,1,16.984-16.984A16.984,16.984,0,0,1,260.072,277.056Z" transform="translate(-240 -240)" fill="url(#linear-gradient)"/>
    </g>
  </g>
  <g id="Group_1241" data-name="Group 1241" transform="translate(57.128 52.484)">
    <g id="Group_1240" data-name="Group 1240">
      <path id="Path_12060" data-name="Path 12060" d="M314.528,279.668a4.632,4.632,0,0,0-4.632-4.632h-1.544v-3.088h-3.088v3.088h-1.532l.025-3.076-3.088-.025-.025,3.1H296v3.088h3.088v15.44H296v3.088h4.644l.025,3.1,3.088-.025-.025-3.076h1.532v3.088h3.088v-3.088H309.9a4.632,4.632,0,0,0,4.632-4.632v-3.088a4.6,4.6,0,0,0-1.2-3.088,4.6,4.6,0,0,0,1.2-3.088Zm-3.088,12.352a1.544,1.544,0,0,1-1.544,1.544h-7.72v-6.176h7.72a1.544,1.544,0,0,1,1.544,1.544Zm0-9.264A1.544,1.544,0,0,1,309.9,284.3h-7.72v-6.176h7.72a1.544,1.544,0,0,1,1.544,1.544Z" transform="translate(-296 -271.936)" fill="url(#linear-gradient)"/>
    </g>
  </g>
  <g id="Group_1243" data-name="Group 1243" transform="translate(40.144 40.144)">
    <g id="Group_1242" data-name="Group 1242">
      <path id="Path_12061" data-name="Path 12061" d="M234.248,208A26.248,26.248,0,1,0,260.5,234.248,26.248,26.248,0,0,0,234.248,208Zm0,49.408a23.16,23.16,0,1,1,23.16-23.16A23.16,23.16,0,0,1,234.248,257.408Z" transform="translate(-208 -208)" fill="url(#linear-gradient)"/>
    </g>
  </g>
  <g id="Group_1245" data-name="Group 1245" transform="translate(6.176 6.176)">
    <g id="Group_1244" data-name="Group 1244">
      <path id="Path_12062" data-name="Path 12062" d="M52.072,32A20.072,20.072,0,1,0,72.144,52.072,20.072,20.072,0,0,0,52.072,32Zm0,37.056A16.984,16.984,0,1,1,69.056,52.072,17,17,0,0,1,52.072,69.056Z" transform="translate(-32 -32)" fill="url(#linear-gradient)"/>
    </g>
  </g>
  <g id="Group_1247" data-name="Group 1247">
    <g id="Group_1246" data-name="Group 1246">
      <path id="Path_12063" data-name="Path 12063" d="M26.248,0A26.248,26.248,0,1,0,52.5,26.248,26.248,26.248,0,0,0,26.248,0Zm0,49.408a23.16,23.16,0,1,1,23.16-23.16A23.186,23.186,0,0,1,26.248,49.408Z" fill="url(#linear-gradient)"/>
    </g>
  </g>
  <g id="Group_1249" data-name="Group 1249" transform="translate(18.528 12.352)">
    <g id="Group_1248" data-name="Group 1248">
      <path id="Path_12064" data-name="Path 12064" d="M103.72,76.352c-2.511,0-4.632-1.414-4.632-3.088s2.121-3.088,4.632-3.088,4.632,1.414,4.632,3.088a1.544,1.544,0,0,0,3.088,0c0-2.983-2.657-5.477-6.176-6.051V64h-3.088v3.213C98.657,67.787,96,70.281,96,73.264c0,3.406,3.463,6.176,7.72,6.176,2.511,0,4.632,1.414,4.632,3.088s-2.121,3.088-4.632,3.088-4.632-1.414-4.632-3.088a1.544,1.544,0,0,0-3.088,0c0,2.983,2.657,5.477,6.176,6.051v3.213h3.088V88.579c3.519-.574,6.176-3.068,6.176-6.051C111.44,79.122,107.977,76.352,103.72,76.352Z" transform="translate(-96 -64)" fill="url(#linear-gradient)"/>
    </g>
  </g>
  <g id="Group_1251" data-name="Group 1251" transform="translate(53.401 9.341)">
    <g id="Group_1250" data-name="Group 1250">
      <path id="Path_12065" data-name="Path 12065" d="M289.679,54.5H282.6l3.914-3.916L284.329,48.4l-7.641,7.643,7.641,7.643,2.183-2.183L282.6,57.587h7.081a13.912,13.912,0,0,1,13.9,13.9V79.2h3.088v-7.72A17,17,0,0,0,289.679,54.5Z" transform="translate(-276.688 -48.4)" fill="url(#linear-gradient)"/>
    </g>
  </g>
  <g id="Group_1253" data-name="Group 1253" transform="translate(9.264 52.496)">
    <g id="Group_1252" data-name="Group 1252">
      <path id="Path_12066" data-name="Path 12066" d="M68.79,287.517,66.607,289.7l3.914,3.916H64.984a13.912,13.912,0,0,1-13.9-13.9V272H48v7.72A17,17,0,0,0,64.984,296.7h5.537l-3.914,3.916L68.79,302.8l7.641-7.643Z" transform="translate(-48 -272)" fill="url(#linear-gradient)"/>
    </g>
  </g>
</svg>
