<svg id="_5-5" data-name="5-5" xmlns="http://www.w3.org/2000/svg" xmlns:xlink="http://www.w3.org/1999/xlink" width="82.964" height="70.208" viewBox="0 0 82.964 70.208">
  <defs>
    <linearGradient id="linear-gradient" x1="0.5" x2="0.5" y2="1" gradientUnits="objectBoundingBox">
      <stop offset="0" stop-color="#00abfb"/>
      <stop offset="1" stop-color="#00ffbf"/>
    </linearGradient>
  </defs>
  <path id="Path_12555" data-name="Path 12555" d="M79.127,71.328a13.021,13.021,0,0,0-9.264-3.836H68.632c.012-.324.018-.646.018-.964A27.171,27.171,0,0,0,15.462,58.7a17.387,17.387,0,0,0-5.027,1.384,1.215,1.215,0,1,0,.989,2.22,15,15,0,0,1,5.066-1.261,1.215,1.215,0,0,0,1.089-.9,24.74,24.74,0,0,1,48.64,6.387c0,.679-.03,1.378-.088,2.078a1.215,1.215,0,0,0,1.211,1.316h2.521a10.671,10.671,0,0,1,0,21.342H61.222q.055-.739.056-1.491A19.827,19.827,0,0,0,48.855,71.4V65.625l3.154-3.154a4.688,4.688,0,1,0-1.719-1.718l-3.51,3.51a1.215,1.215,0,0,0-.356.859V70.6a19.7,19.7,0,0,0-3.727-.586V57.494a4.682,4.682,0,1,0-2.431,0V70.016a19.7,19.7,0,0,0-3.727.586V65.121a1.215,1.215,0,0,0-.356-.859l-3.51-3.51a4.689,4.689,0,1,0-1.719,1.718l3.154,3.154V71.4a19.827,19.827,0,0,0-12.423,18.37q0,.753.056,1.491h-4.18A15.129,15.129,0,0,1,7.638,64.713a1.215,1.215,0,1,0-1.594-1.835A17.56,17.56,0,0,0,17.562,93.7h4.516a19.8,19.8,0,0,0,38.809,0h8.977a13.1,13.1,0,0,0,9.264-22.367ZM54.344,56.164a2.252,2.252,0,1,1-2.252,2.252A2.254,2.254,0,0,1,54.344,56.164ZM26.368,58.415a2.252,2.252,0,1,1,2.252,2.252A2.254,2.254,0,0,1,26.368,58.415ZM39.23,52.973a2.252,2.252,0,1,1,2.252,2.252,2.254,2.254,0,0,1-2.252-2.252Zm2.252,54.165A17.365,17.365,0,1,1,58.847,89.773,17.384,17.384,0,0,1,41.482,107.138Z" transform="translate(0 -39.36)" fill="url(#linear-gradient)"/>
  <path id="Path_12556" data-name="Path 12556" d="M178.338,257.79a15.019,15.019,0,1,0,8.352,27.5,1.215,1.215,0,1,0-1.353-2.019,12.594,12.594,0,1,1,3.164-3.037,1.215,1.215,0,0,0,1.961,1.436,15.019,15.019,0,0,0-12.124-23.882Z" transform="translate(-136.856 -222.396)" fill="url(#linear-gradient)"/>
  <path id="Path_12557" data-name="Path 12557" d="M222.04,307.146a1.215,1.215,0,0,0,1.215-1.215v-1.865h.018a4.6,4.6,0,0,0,2.13-8.672,3.921,3.921,0,0,0-2.148-5.75v-2.058a1.215,1.215,0,1,0-2.431,0v1.865h-1.138v-1.865a1.215,1.215,0,1,0-2.431,0v1.865h-2.282a1.215,1.215,0,0,0,0,2.431h.895v9.754h-.895a1.215,1.215,0,0,0,0,2.431h2.282v1.865a1.215,1.215,0,0,0,2.431,0v-1.865h1.138v1.865A1.215,1.215,0,0,0,222.04,307.146Zm1.233-5.511H218.3V297.3h4.974a2.168,2.168,0,0,1,0,4.336Zm-1.233-6.767H218.3v-2.988h3.74a1.494,1.494,0,1,1,0,2.988Z" transform="translate(-179.122 -246.345)" fill="url(#linear-gradient)"/>
</svg>
