<svg id="_6" data-name="6" xmlns="http://www.w3.org/2000/svg" xmlns:xlink="http://www.w3.org/1999/xlink" width="112.826" height="112.826" viewBox="0 0 112.826 112.826">
  <defs>
    <linearGradient id="linear-gradient" x1="0.5" x2="0.5" y2="1" gradientUnits="objectBoundingBox">
      <stop offset="0" stop-color="#00abfb"/>
      <stop offset="1" stop-color="#00ffbf"/>
    </linearGradient>
  </defs>
  <path id="Path_12050" data-name="Path 12050" d="M200.436,180.172a1.653,1.653,0,0,0,1.653-1.653V166.584a1.653,1.653,0,0,0-1.072-1.547l-19.589-7.346a1.653,1.653,0,0,0-1.161,0l-19.589,7.346a1.653,1.653,0,0,0-1.072,1.547v5.306a1.653,1.653,0,1,0,3.305,0v-2.921l16.284,6.106v21.847l-16.284-6.106V179.621a1.653,1.653,0,1,0-3.305,0v12.339a1.652,1.652,0,0,0,1.072,1.547l19.589,7.346v0a1.618,1.618,0,0,0,1.16,0l19.589-7.346a1.653,1.653,0,0,0,1.072-1.547v-5.738a1.653,1.653,0,0,0-3.305,0v4.592L182.5,196.922V175.075l16.284-6.106v9.551A1.652,1.652,0,0,0,200.436,180.172Zm-19.589-8.007-14.882-5.581L180.847,161l14.882,5.581Z" transform="translate(-124.434 -122.859)" fill="url(#linear-gradient)"/>
  <path id="Path_12051" data-name="Path 12051" d="M224.873,16.5V28.365a1.653,1.653,0,0,0,3.305,0V16.5a8.331,8.331,0,1,0-3.305,0Zm1.653-13.191A5.025,5.025,0,1,1,221.5,8.331,5.031,5.031,0,0,1,226.526,3.305Z" transform="translate(-170.113)" fill="url(#linear-gradient)"/>
  <path id="Path_12052" data-name="Path 12052" d="M352.117,340.669a11.386,11.386,0,0,0-6.838,2.272l-3.956-3.956a1.653,1.653,0,0,0-2.337,2.337l3.956,3.956a11.444,11.444,0,1,0,9.175-4.609Zm0,19.589a8.142,8.142,0,1,1,8.142-8.142A8.151,8.151,0,0,1,352.117,360.258Z" transform="translate(-263.908 -263.908)" fill="url(#linear-gradient)"/>
  <path id="Path_12053" data-name="Path 12053" d="M71.214,82.661a11.386,11.386,0,0,0,6.838-2.272l3.956,3.956a1.653,1.653,0,0,0,2.338-2.337l-3.956-3.956a11.444,11.444,0,1,0-9.175,4.609Zm0-19.589a8.142,8.142,0,1,1-8.142,8.142A8.151,8.151,0,0,1,71.214,63.072Z" transform="translate(-46.597 -46.597)" fill="url(#linear-gradient)"/>
  <path id="Path_12054" data-name="Path 12054" d="M228.179,389.3V377.433a1.653,1.653,0,1,0-3.305,0V389.3a8.331,8.331,0,1,0,3.305,0Zm-1.653,13.191a5.025,5.025,0,1,1,5.025-5.025A5.031,5.031,0,0,1,226.526,402.492Z" transform="translate(-170.113 -292.972)" fill="url(#linear-gradient)"/>
  <path id="Path_12055" data-name="Path 12055" d="M397.467,218.2a8.345,8.345,0,0,0-8.166,6.678H377.433a1.653,1.653,0,1,0,0,3.305H389.3a8.331,8.331,0,1,0,8.166-9.984Zm0,13.356a5.025,5.025,0,1,1,5.025-5.025A5.031,5.031,0,0,1,397.467,231.551Z" transform="translate(-292.972 -170.113)" fill="url(#linear-gradient)"/>
  <path id="Path_12056" data-name="Path 12056" d="M16.5,228.179H28.365a1.653,1.653,0,0,0,0-3.305H16.5a8.331,8.331,0,1,0,0,3.305Zm-8.166,3.373a5.025,5.025,0,1,1,5.025-5.025A5.031,5.031,0,0,1,8.331,231.551Z" transform="translate(0 -170.113)" fill="url(#linear-gradient)"/>
  <path id="Path_12057" data-name="Path 12057" d="M340.153,84.829a1.648,1.648,0,0,0,1.169-.484l3.956-3.956a11.459,11.459,0,1,0-2.337-2.337l-3.956,3.956a1.653,1.653,0,0,0,1.169,2.822Zm11.963-21.757a8.142,8.142,0,1,1-8.142,8.142A8.151,8.151,0,0,1,352.116,63.071Z" transform="translate(-263.907 -46.596)" fill="url(#linear-gradient)"/>
  <path id="Path_12058" data-name="Path 12058" d="M82.007,338.985l-3.956,3.956a11.459,11.459,0,1,0,2.337,2.337l3.956-3.956a1.653,1.653,0,0,0-2.337-2.337ZM71.213,360.258a8.142,8.142,0,1,1,8.142-8.142A8.151,8.151,0,0,1,71.213,360.258Z" transform="translate(-46.596 -263.908)" fill="url(#linear-gradient)"/>
</svg>
