<svg id="_7-7" data-name="7-7" xmlns="http://www.w3.org/2000/svg" xmlns:xlink="http://www.w3.org/1999/xlink" width="81.093" height="81.093" viewBox="0 0 81.093 81.093">
  <defs>
    <linearGradient id="linear-gradient" x1="0.5" x2="0.5" y2="1" gradientUnits="objectBoundingBox">
      <stop offset="0" stop-color="#00abfb"/>
      <stop offset="1" stop-color="#00ffbf"/>
    </linearGradient>
  </defs>
  <g id="Group_1346" data-name="Group 1346" transform="translate(0 0)">
    <path id="Path_12558" data-name="Path 12558" d="M40.547,81.093a3.568,3.568,0,0,1-3.564-3.564q0-.095,0-.188L17.043,69.08a3.562,3.562,0,1,1,.916-2.383q0,.095,0,.188L37.9,75.147a3.559,3.559,0,0,1,5.3,0l19.944-8.261c0-.063,0-.125,0-.188a3.568,3.568,0,1,1,.916,2.383L44.105,77.341c0,.063,0,.125,0,.188A3.568,3.568,0,0,1,40.547,81.093Zm0-4.752a1.188,1.188,0,1,0,1.188,1.188A1.189,1.189,0,0,0,40.547,76.342ZM66.7,65.509A1.188,1.188,0,1,0,67.885,66.7,1.189,1.189,0,0,0,66.7,65.509Zm-52.3,0A1.188,1.188,0,1,0,15.584,66.7,1.189,1.189,0,0,0,14.4,65.509Zm26.151,1.329a26.292,26.292,0,1,1,14.4-48.295,1.188,1.188,0,1,1-1.3,1.987,23.818,23.818,0,0,0-4.233-2.2,21.142,21.142,0,0,1,2.96,3.851A27.265,27.265,0,0,1,53.909,25.1h4.905a24.6,24.6,0,0,0-1.9-1.992,1.188,1.188,0,1,1,1.627-1.731,26.292,26.292,0,0,1-18,45.458Zm1.188-10.849v8.388c3.213-.463,6.233-2.8,8.605-6.7q.5-.814.938-1.691Zm-11.918,0q.442.876.938,1.691c2.372,3.9,5.392,6.234,8.605,6.7V55.989Zm24.093,0a27.28,27.28,0,0,1-1.541,2.926,21.161,21.161,0,0,1-2.95,3.841A24.036,24.036,0,0,0,58.8,55.989H53.909Zm-31.611,0a24.033,24.033,0,0,0,9.377,6.768,21.162,21.162,0,0,1-2.95-3.841,27.264,27.264,0,0,1-1.541-2.926H22.3Zm32.57-2.376h5.7a23.769,23.769,0,0,0,3.864-11.879H57A38.724,38.724,0,0,1,54.868,53.613Zm-13.133,0h10.6a35.782,35.782,0,0,0,2.292-11.879H41.734Zm-12.975,0h10.6V41.734H26.467a35.783,35.783,0,0,0,2.292,11.879Zm-8.236,0h5.7a38.719,38.719,0,0,1-2.135-11.879H16.66A23.769,23.769,0,0,0,20.524,53.613ZM57,39.359h7.432a23.623,23.623,0,0,0-3.84-11.879H54.868A38.724,38.724,0,0,1,57,39.359Zm-15.268,0H54.626A35.775,35.775,0,0,0,52.334,27.48h-10.6v2.772a1.188,1.188,0,0,1-2.376,0V27.48h-10.6a35.783,35.783,0,0,0-2.292,11.879H39.359V35a1.188,1.188,0,1,1,2.376,0Zm-25.075,0h7.431A38.724,38.724,0,0,1,26.226,27.48h-5.7A23.769,23.769,0,0,0,16.66,39.359ZM41.734,25.1h9.543q-.442-.876-.938-1.691c-2.372-3.9-5.392-6.234-8.605-6.7Zm-11.918,0h9.543V16.716c-3.213.463-6.233,2.8-8.605,6.7Q30.258,24.227,29.816,25.1Zm-7.518,0h4.886a27.278,27.278,0,0,1,1.541-2.926,21.162,21.162,0,0,1,2.95-3.841A24.034,24.034,0,0,0,22.3,25.1Zm46.96,36.6a1.189,1.189,0,0,1-1.1-1.643l6.986-16.865a3.559,3.559,0,0,1,0-5.3L66.886,17.954c-.063,0-.125,0-.188,0a3.568,3.568,0,1,1,2.383-.916l8.261,19.944c.063,0,.125,0,.188,0a3.564,3.564,0,1,1,0,7.127q-.095,0-.188,0L70.356,60.969a1.188,1.188,0,0,1-1.1.734Zm8.271-22.344a1.188,1.188,0,1,0,1.188,1.188,1.189,1.189,0,0,0-1.188-1.188ZM66.7,13.208A1.188,1.188,0,1,0,67.885,14.4,1.189,1.189,0,0,0,66.7,13.208ZM11.835,61.7a1.188,1.188,0,0,1-1.1-.734L3.752,44.105c-.063,0-.125,0-.188,0a3.564,3.564,0,1,1,0-7.127q.095,0,.188,0l8.261-19.944a3.562,3.562,0,1,1,5.03-5.03L36.988,3.752c0-.063,0-.125,0-.188a3.564,3.564,0,0,1,7.127,0q0,.095,0,.188l16.887,6.995a1.188,1.188,0,0,1-.909,2.195l-16.889-7a3.559,3.559,0,0,1-5.3,0L17.954,14.207c0,.063,0,.125,0,.188A3.568,3.568,0,0,1,14.4,17.959q-.095,0-.188,0L5.946,37.9a3.559,3.559,0,0,1,0,5.3L12.932,60.06a1.189,1.189,0,0,1-1.1,1.643ZM3.564,39.359a1.188,1.188,0,1,0,1.188,1.188,1.189,1.189,0,0,0-1.188-1.188ZM14.4,13.208A1.188,1.188,0,1,0,15.584,14.4,1.189,1.189,0,0,0,14.4,13.208ZM40.547,2.376a1.188,1.188,0,1,0,1.188,1.188,1.189,1.189,0,0,0-1.188-1.188Z" transform="translate(0 0)" fill="url(#linear-gradient)"/>
  </g>
</svg>
