<svg id="_8-8" data-name="8-8" xmlns="http://www.w3.org/2000/svg" xmlns:xlink="http://www.w3.org/1999/xlink" width="73.895" height="73.895" viewBox="0 0 73.895 73.895">
  <defs>
    <linearGradient id="linear-gradient" x1="0.5" x2="0.5" y2="1" gradientUnits="objectBoundingBox">
      <stop offset="0" stop-color="#00abfb"/>
      <stop offset="1" stop-color="#00ffbf"/>
    </linearGradient>
  </defs>
  <g id="_031---Brain-Research" data-name="031---Brain-Research" transform="translate(0 0)">
    <path id="Shape" d="M67.827,41.222l-22.8,7.6a3.7,3.7,0,0,1-1.169.19h-.708a5.665,5.665,0,0,0-.459-4.851l-.11-.181a7.424,7.424,0,0,0-6.336-3.589H29.8A10.041,10.041,0,0,1,23.551,38.2a12.52,12.52,0,0,0-7.787-2.733H13.321A3.7,3.7,0,0,0,9.853,33H3.695A3.7,3.7,0,0,0,0,36.695V62.558a3.7,3.7,0,0,0,3.695,3.695H9.853a3.676,3.676,0,0,0,2.734-1.232H43.475A9.834,9.834,0,0,0,48.6,63.584L71.678,49.533a4.61,4.61,0,0,0-3.856-8.311ZM9.853,63.789H3.695a1.232,1.232,0,0,1-1.232-1.232V36.695a1.232,1.232,0,0,1,1.232-1.232H9.853a1.232,1.232,0,0,1,1.232,1.232V62.558A1.232,1.232,0,0,1,9.853,63.789ZM71.392,46a2.116,2.116,0,0,1-.985,1.424L47.316,61.48a7.378,7.378,0,0,1-3.841,1.078H13.547V37.926h2.217a10.041,10.041,0,0,1,6.253,2.193A12.52,12.52,0,0,0,29.8,42.853h6.441a4.95,4.95,0,0,1,4.224,2.393l.11.181A3.218,3.218,0,0,1,40.4,49.01H32.914a12.267,12.267,0,0,0-6.83,2.069l-.9.6a1.232,1.232,0,1,0,1.366,2.049l.9-.6a9.814,9.814,0,0,1,5.464-1.655H43.861a6.158,6.158,0,0,0,1.947-.315l22.8-7.6a2.142,2.142,0,0,1,2.4.754A2.116,2.116,0,0,1,71.392,46Z" transform="translate(0 7.642)" fill="url(#linear-gradient)"/>
    <path id="Shape-2" data-name="Shape" d="M41.935,16.467A1.232,1.232,0,1,0,39.516,16a6.485,6.485,0,0,1-11.184,3.141,1.232,1.232,0,0,0-1.826,1.648,8.956,8.956,0,0,0,5.218,2.833,4.883,4.883,0,0,1-4.26,2.463,1.232,1.232,0,1,0,0,2.463,7.327,7.327,0,0,0,6.937-4.9,8.99,8.99,0,0,0,7.534-7.181Z" transform="translate(6.074 3.47)" fill="url(#linear-gradient)"/>
    <path id="Shape-3" data-name="Shape" d="M62.68,32.637a9.274,9.274,0,0,0,.8-10.917,6.006,6.006,0,0,0-4.5-8.2A12.784,12.784,0,0,0,46.454,2.873c-.209,0-.409.026-.616.036a5.969,5.969,0,0,0-9.382-1.124A10.254,10.254,0,0,0,30.687,0a10.372,10.372,0,0,0-8.276,4.187,7.4,7.4,0,0,0-9.66,6.774,6.017,6.017,0,0,0-3.839,5.6,5.9,5.9,0,0,0,.17,1.334A12.109,12.109,0,0,0,7,24.7,12.247,12.247,0,0,0,19.22,36.947a12.088,12.088,0,0,0,3.106-.405,9.319,9.319,0,0,0,14.859,2.552,14.427,14.427,0,0,0,3.547.684c.679,2.815,2.76,4.508,7.247,6.011a7.125,7.125,0,0,1,3.272,2.155,4.6,4.6,0,0,0,3.485,1.642,4.33,4.33,0,0,0,1.7-.349,4.434,4.434,0,0,0,2.692-4.075,4.341,4.341,0,0,0-.219-1.363,16.24,16.24,0,0,0-1.478-3.325,12.661,12.661,0,0,0,5.244-7.837ZM51.965,40.08a1.232,1.232,0,0,0,.193,2.447,1.338,1.338,0,0,0,.2-.015,12.54,12.54,0,0,0,2.931-.853,13.718,13.718,0,0,1,1.286,2.9,1.859,1.859,0,0,1,.1.6,1.971,1.971,0,0,1-1.2,1.81,2.047,2.047,0,0,1-2.34-.616,9.539,9.539,0,0,0-4.368-2.9c-3.589-1.2-4.945-2.3-5.482-3.743a14.441,14.441,0,0,0,2.693-.531,1.232,1.232,0,1,0-.723-2.355,12.108,12.108,0,0,1-2.721.5,11.663,11.663,0,0,1-5.24-.793,1.355,1.355,0,0,0-1.382.342,6.9,6.9,0,0,1-11.129-8.058,1.232,1.232,0,1,0-2.113-1.266,9.344,9.344,0,0,0-.932,2.145,2.64,2.64,0,0,1-2.709-2.586v-.038a1.217,1.217,0,0,0-1.232-1.213,1.249,1.249,0,0,0-1.232,1.251,5.049,5.049,0,0,0,4.792,5.037c0,.078-.015.154-.015.232a9.445,9.445,0,0,0,.182,1.84,9.743,9.743,0,0,1-11.1-13.7,6.011,6.011,0,0,0,1.405,1.2A1.232,1.232,0,1,0,13.1,19.608,3.558,3.558,0,0,1,14.92,13a3.5,3.5,0,0,1,2.833,1.429,1.232,1.232,0,1,0,1.977-1.472,5.936,5.936,0,0,0-4.461-2.4,4.978,4.978,0,0,1,4.909-4.262,4.886,4.886,0,0,1,.973.11,10.388,10.388,0,0,0-.437,1.3,1.232,1.232,0,0,0,2.384.616,7.79,7.79,0,0,1,12.024-4.44,5.954,5.954,0,0,0-.411,2.142,1.232,1.232,0,0,0,2.463,0,3.547,3.547,0,1,1,7.093,0,1.232,1.232,0,1,0,2.463,0,6.057,6.057,0,0,0-.068-.674A10.3,10.3,0,0,1,56.487,13.6a5.939,5.939,0,0,0-2.174,1.016,1.232,1.232,0,1,0,1.478,1.971,3.554,3.554,0,0,1,5.217,4.6,3.6,3.6,0,0,1-1.6,1.478,1.232,1.232,0,1,0,1.047,2.23,6.035,6.035,0,0,0,1.409-.934,6.83,6.83,0,0,1-1.214,7.277l-.025.026a6.973,6.973,0,0,1-8.226,1.51,6.449,6.449,0,0,1-1.026-.642,5.036,5.036,0,0,0,.552-5.378,1.232,1.232,0,0,0-2.2,1.1,2.6,2.6,0,0,1-.842,3.293,2.636,2.636,0,0,1-3.793-.967,1.232,1.232,0,0,0-2.2,1.1A5,5,0,0,0,49.4,33.65a8.964,8.964,0,0,0,1.882,1.315,9.2,9.2,0,0,0,7.707.345,10.127,10.127,0,0,1-7.022,4.772Z" transform="translate(1.621 0)" fill="url(#linear-gradient)"/>
    <path id="Shape-4" data-name="Shape" d="M29.005,11.232A1.232,1.232,0,0,0,27.774,10,6.781,6.781,0,0,0,21,16.774a1.232,1.232,0,0,0,2.463,0,4.311,4.311,0,0,1,4.311-4.311A1.232,1.232,0,0,0,29.005,11.232Z" transform="translate(4.863 2.316)" fill="url(#linear-gradient)"/>
    <path id="Shape-5" data-name="Shape" d="M2.361,3.361a1.232,1.232,0,0,0,0,1.741L4.824,7.565A1.232,1.232,0,0,0,6.565,5.824L4.1,3.361a1.232,1.232,0,0,0-1.741,0Z" transform="translate(0.463 0.695)" fill="url(#linear-gradient)"/>
    <path id="Shape-6" data-name="Shape" d="M58.568,3.361a1.232,1.232,0,0,0-1.741,0L54.364,5.824a1.232,1.232,0,1,0,1.741,1.741L58.568,5.1a1.232,1.232,0,0,0,0-1.741Z" transform="translate(12.502 0.695)" fill="url(#linear-gradient)"/>
    <path id="Shape-7" data-name="Shape" d="M4.827,27.358,2.364,29.821a1.232,1.232,0,1,0,1.741,1.741L6.568,29.1a1.232,1.232,0,0,0-1.741-1.741Z" transform="translate(0.46 6.255)" fill="url(#linear-gradient)"/>
    <path id="Shape-8" data-name="Shape" d="M56.821,31.563a1.232,1.232,0,0,0,1.741-1.741L56.1,27.358A1.232,1.232,0,0,0,54.358,29.1Z" transform="translate(12.508 6.255)" fill="url(#linear-gradient)"/>
    <path id="Shape-9" data-name="Shape" d="M0,17.232a1.232,1.232,0,0,0,1.232,1.232H3.695a1.232,1.232,0,0,0,0-2.463H1.232A1.232,1.232,0,0,0,0,17.232Z" transform="translate(0 3.705)" fill="url(#linear-gradient)"/>
    <path id="Shape-10" data-name="Shape" d="M59.695,16H57.232a1.232,1.232,0,0,0,0,2.463h2.463a1.232,1.232,0,0,0,0-2.463Z" transform="translate(12.968 3.705)" fill="url(#linear-gradient)"/>
  </g>
</svg>
