<svg xmlns="http://www.w3.org/2000/svg" xmlns:xlink="http://www.w3.org/1999/xlink" width="209.009" height="199.341" viewBox="0 0 209.009 199.341">
  <defs>
    <linearGradient id="linear-gradient" x1="0.5" x2="0.5" y2="1" gradientUnits="objectBoundingBox">
      <stop offset="0" stop-color="#00abfb"/>
      <stop offset="1" stop-color="#00ffbf"/>
    </linearGradient>
  </defs>
  <g id="icon-2" transform="translate(-855.5 -3185.167)">
    <path id="Path_10285" data-name="Path 10285" d="M106.587,6.857c72.478,8.943,82.635,37.377,99.026,97.409s-27.574,106.056-109.9,100.371S0,163.132,0,104.265,34.11-2.087,106.587,6.857Z" transform="translate(855.5 3179.398)" fill="#fff"/>
    <g id="to-do-list" transform="translate(870.606 3241.256)">
      <path id="Path_10301" data-name="Path 10301" d="M120.281,161.883l7.806-9.391a1.252,1.252,0,0,0-1.926-1.6l-6.691,8.05-1.462-2.376a1.252,1.252,0,0,0-2.133,1.313l2.377,3.861A1.253,1.253,0,0,0,120.281,161.883Z" transform="translate(-49.722 -125.321)" fill="url(#linear-gradient)"/>
      <path id="Path_10302" data-name="Path 10302" d="M115.875,256.877l2.377,3.861a1.252,1.252,0,0,0,2.029.144l7.806-9.391a1.252,1.252,0,1,0-1.926-1.6l-6.691,8.05-1.462-2.376a1.252,1.252,0,1,0-2.133,1.313Z" transform="translate(-49.723 -207.79)" fill="url(#linear-gradient)"/>
      <path id="Path_10303" data-name="Path 10303" d="M115.875,356.544l2.377,3.861a1.252,1.252,0,0,0,2.029.144l7.806-9.391a1.252,1.252,0,1,0-1.926-1.6l-6.691,8.05-1.462-2.376a1.252,1.252,0,1,0-2.133,1.313Z" transform="translate(-49.723 -290.816)" fill="url(#linear-gradient)"/>
      <path id="Path_10304" data-name="Path 10304" d="M121.535,195.074a1.252,1.252,0,0,0-1.252,1.252v9.116a1.922,1.922,0,0,1-1.92,1.92H60.425a1.922,1.922,0,0,1-1.92-1.92V150.561a1.252,1.252,0,0,0-2.5,0v54.881a4.43,4.43,0,0,0,4.425,4.425h57.938a4.43,4.43,0,0,0,4.425-4.425v-9.116A1.252,1.252,0,0,0,121.535,195.074Z" transform="translate(0 -124.379)" fill="url(#linear-gradient)"/>
      <path id="Path_10305" data-name="Path 10305" d="M118.362,9.649h-6.126V4.475a4.475,4.475,0,1,0-8.949,0V9.649H93.868V4.475a4.475,4.475,0,1,0-8.949,0V9.649H75.5V4.475a4.475,4.475,0,1,0-8.949,0V9.649H60.425A4.43,4.43,0,0,0,56,14.074v6.264a1.252,1.252,0,1,0,2.5,0V14.074a1.922,1.922,0,0,1,1.92-1.92H66.55v1.988a4.475,4.475,0,1,0,8.949,0V12.154h9.419v1.988a4.475,4.475,0,1,0,8.949,0V12.154h9.419v1.988a4.475,4.475,0,1,0,8.949,0V12.154h6.126a1.922,1.922,0,0,1,1.92,1.92V66.1a1.252,1.252,0,0,0,2.5,0V14.074a4.43,4.43,0,0,0-4.425-4.425ZM73,14.142a1.97,1.97,0,1,1-3.94,0V4.475a1.97,1.97,0,1,1,3.94,0Zm18.368,0a1.97,1.97,0,0,1-3.94,0V4.475a1.97,1.97,0,0,1,3.94,0Zm18.369,0a1.97,1.97,0,1,1-3.94,0V4.475a1.97,1.97,0,1,1,3.94,0Z" transform="translate(0)" fill="url(#linear-gradient)"/>
      <path id="Path_10306" data-name="Path 10306" d="M202.163,186.03h26.381a3.924,3.924,0,0,0,0-7.847H202.163a3.924,3.924,0,0,0,0,7.847Zm0-5.343h26.381a1.419,1.419,0,0,1,0,2.838H202.163a1.419,1.419,0,0,1,0-2.838Z" transform="translate(-118.49 -148.432)" fill="url(#linear-gradient)"/>
      <path id="Path_10307" data-name="Path 10307" d="M202.163,285.243h26.381a3.924,3.924,0,0,0,0-7.848H202.163a3.924,3.924,0,0,0,0,7.848Zm0-5.343h26.381a1.419,1.419,0,0,1,0,2.838H202.163a1.419,1.419,0,0,1,0-2.838Z" transform="translate(-118.49 -231.08)" fill="url(#linear-gradient)"/>
      <path id="Path_10308" data-name="Path 10308" d="M202.163,384.456h26.381a3.924,3.924,0,1,0,0-7.847H202.163a3.924,3.924,0,1,0,0,7.847Zm0-5.343h26.381a1.419,1.419,0,1,1,0,2.838H202.163a1.419,1.419,0,1,1,0-2.838Z" transform="translate(-118.49 -313.727)" fill="url(#linear-gradient)"/>
    </g>
  </g>
</svg>
