<svg xmlns="http://www.w3.org/2000/svg" xmlns:xlink="http://www.w3.org/1999/xlink" width="105.218" height="143.657" viewBox="0 0 105.218 143.657">
  <defs>
    <linearGradient id="linear-gradient" x1="0.5" x2="0.5" y2="1" gradientUnits="objectBoundingBox">
      <stop offset="0" stop-color="#00abfb"/>
      <stop offset="1" stop-color="#00ffbf"/>
    </linearGradient>
  </defs>
  <g id="icon-4" transform="translate(-68.5)">
    <g id="Group_292" data-name="Group 292" transform="translate(68.5 0)">
      <path id="Path_10311" data-name="Path 10311" d="M171.613,187.033a2.1,2.1,0,0,0-2.1,2.1v10.306A3.511,3.511,0,0,1,166,202.951H76.216a3.511,3.511,0,0,1-3.507-3.507V90.373a2.1,2.1,0,1,0-4.209,0v109.07a7.725,7.725,0,0,0,7.716,7.716H166a7.725,7.725,0,0,0,7.716-7.716V189.138A2.1,2.1,0,0,0,171.613,187.033Z" transform="translate(-68.5 -63.502)" fill="url(#linear-gradient)"/>
      <path id="Path_10312" data-name="Path 10312" d="M173.1,39.9,133.82.616A2.105,2.105,0,0,0,132.332,0H76.216A7.725,7.725,0,0,0,68.5,7.716V17.777a2.1,2.1,0,1,0,4.209,0V7.716a3.511,3.511,0,0,1,3.507-3.507h54.012V35.774a7.725,7.725,0,0,0,7.716,7.716h31.565v73.167a2.1,2.1,0,1,0,4.209,0V41.386A2.1,2.1,0,0,0,173.1,39.9Zm-38.665-4.124V7.185l32.1,32.1H137.944a3.511,3.511,0,0,1-3.507-3.507Z" transform="translate(-68.5 0)" fill="url(#linear-gradient)"/>
      <path id="Path_10313" data-name="Path 10313" d="M142.813,225.126a6.313,6.313,0,1,0-6.313-6.313A6.32,6.32,0,0,0,142.813,225.126Zm0-8.417a2.1,2.1,0,1,1-2.1,2.1A2.107,2.107,0,0,1,142.813,216.709Z" transform="translate(-117.421 -152.877)" fill="url(#linear-gradient)"/>
      <path id="Path_10314" data-name="Path 10314" d="M210.813,225.126h35.353a6.313,6.313,0,1,0,0-12.626H210.813a6.313,6.313,0,1,0,0,12.626Zm0-8.417h35.353a2.1,2.1,0,0,1,0,4.209H210.813a2.1,2.1,0,0,1,0-4.209Z" transform="translate(-166.341 -152.877)" fill="url(#linear-gradient)"/>
      <path id="Path_10315" data-name="Path 10315" d="M142.813,285.126a6.313,6.313,0,1,0-6.313-6.313A6.32,6.32,0,0,0,142.813,285.126Zm0-8.417a2.1,2.1,0,1,1-2.1,2.1A2.107,2.107,0,0,1,142.813,276.709Z" transform="translate(-117.421 -196.042)" fill="url(#linear-gradient)"/>
      <path id="Path_10316" data-name="Path 10316" d="M210.813,285.126h35.353a6.313,6.313,0,1,0,0-12.626H210.813a6.313,6.313,0,1,0,0,12.626Zm0-8.417h35.353a2.1,2.1,0,0,1,0,4.209H210.813a2.1,2.1,0,0,1,0-4.209Z" transform="translate(-166.341 -196.042)" fill="url(#linear-gradient)"/>
      <path id="Path_10317" data-name="Path 10317" d="M142.813,345.126a6.313,6.313,0,1,0-6.313-6.313A6.32,6.32,0,0,0,142.813,345.126Zm0-8.417a2.1,2.1,0,1,1-2.1,2.1A2.107,2.107,0,0,1,142.813,336.709Z" transform="translate(-117.421 -239.207)" fill="url(#linear-gradient)"/>
      <path id="Path_10318" data-name="Path 10318" d="M210.813,345.126h3.712a2.1,2.1,0,1,0,0-4.209h-3.712a2.1,2.1,0,0,1,0-4.209h35.353a2.1,2.1,0,0,1,0,4.209H223.5a2.1,2.1,0,1,0,0,4.209h22.662a6.313,6.313,0,1,0,0-12.626H210.813a6.313,6.313,0,1,0,0,12.626Z" transform="translate(-166.341 -239.207)" fill="url(#linear-gradient)"/>
    </g>
  </g>
</svg>
