<svg id="icon-5" xmlns="http://www.w3.org/2000/svg" xmlns:xlink="http://www.w3.org/1999/xlink" width="161.731" height="168.657" viewBox="0 0 161.731 168.657">
  <defs>
    <linearGradient id="linear-gradient" x1="0.5" x2="0.5" y2="1" gradientUnits="objectBoundingBox">
      <stop offset="0" stop-color="#00abfb"/>
      <stop offset="1" stop-color="#00ffbf"/>
    </linearGradient>
  </defs>
  <path id="Path_10319" data-name="Path 10319" d="M80.967,75.034c2.258,2.256,5.748-1.237,3.489-3.492L78,65.092c-2.258-2.256-5.748,1.237-3.489,3.492Z" transform="translate(-52.96 -43.179)" fill="url(#linear-gradient)"/>
  <path id="Path_10320" data-name="Path 10320" d="M12.292,179.877l8.818,2.361c2.975.8,4.326-3.953,1.277-4.769l-8.818-2.361C10.486,174.283,9.209,179.051,12.292,179.877Z" transform="translate(-10.522 -117.409)" fill="url(#linear-gradient)"/>
  <path id="Path_10321" data-name="Path 10321" d="M21.654,295.471l-8.818,2.36c-3.043.815-1.672,5.559,1.276,4.769l8.818-2.36C26.014,299.415,24.737,294.647,21.654,295.471Z" transform="translate(-10.924 -198.157)" fill="url(#linear-gradient)"/>
  <path id="Path_10322" data-name="Path 10322" d="M82.138,393.933l-6.455,6.448c-2.259,2.256,1.232,5.748,3.489,3.492l6.455-6.448C87.885,395.17,84.4,391.677,82.138,393.933Z" transform="translate(-53.746 -263.786)" fill="url(#linear-gradient)"/>
  <path id="Path_10323" data-name="Path 10323" d="M408.347,392.762c-2.258-2.256-5.747,1.237-3.489,3.492l6.455,6.448c2.257,2.256,5.748-1.237,3.489-3.492Z" transform="translate(-274.578 -263.001)" fill="url(#linear-gradient)"/>
  <path id="Path_10324" data-name="Path 10324" d="M472.478,296.234l-8.818-2.36c-3.083-.825-4.359,3.944-1.276,4.769L471.2,301C474.177,301.8,475.528,297.05,472.478,296.234Z" transform="translate(-312.473 -197.085)" fill="url(#linear-gradient)"/>
  <path id="Path_10325" data-name="Path 10325" d="M462.573,180.723a2.469,2.469,0,0,0,.64-.085l8.818-2.361c3.083-.826,1.806-5.6-1.277-4.769l-8.818,2.361A2.479,2.479,0,0,0,462.573,180.723Z" transform="translate(-312.166 -116.336)" fill="url(#linear-gradient)"/>
  <path id="Path_10326" data-name="Path 10326" d="M405.571,74.587a2.461,2.461,0,0,0,1.745-.722l6.455-6.449c2.258-2.256-1.231-5.748-3.489-3.492l-6.455,6.449A2.529,2.529,0,0,0,405.571,74.587Z" transform="translate(-273.931 -42.394)" fill="url(#linear-gradient)"/>
  <path id="Path_10327" data-name="Path 10327" d="M306.464,13.6a2.619,2.619,0,0,0,3.024-1.745l2.363-8.809c.827-3.083-3.942-4.362-4.768-1.279l-2.363,8.809A2.469,2.469,0,0,0,306.464,13.6Z" transform="translate(-207.832 0.001)" fill="url(#linear-gradient)"/>
  <path id="Path_10328" data-name="Path 10328" d="M186.572,12.284c.813,3.029,5.6,1.814,4.768-1.279L188.978,2.2c-.827-3.082-5.6-1.8-4.768,1.279Z" transform="translate(-126.978 -0.286)" fill="url(#linear-gradient)"/>
  <path id="Path_10329" data-name="Path 10329" d="M198.716,106.278a24,24,0,0,0-17.8-23.146,19.954,19.954,0,0,0-6.228-11.449c-9.4-8.847-25.194-5.98-31.074,5.126a19.82,19.82,0,0,0-1.851-2.79,20.027,20.027,0,0,0-35.452,9.124,24.1,24.1,0,0,0-11.069,6.5c-2.213,2.289,1.322,5.735,3.549,3.432a19.147,19.147,0,0,1,13.7-5.808,2.469,2.469,0,0,0,0-4.937h-.936a15.087,15.087,0,0,1,29.593,3.651v79.99a15.09,15.09,0,0,1-29.6,3.66h.94c3.153,0,3.215-4.855.063-4.936a19.391,19.391,0,0,1-17.087-10.361,24.159,24.159,0,0,1-2.047-7.984c-.226-9.61-.131-19.285-.04-28.644.04-4.043.08-8.223.1-12.385.012-3.193-4.924-3.207-4.937-.019-.051,13.862-.381,27.268-.051,41.308A23.783,23.783,0,0,0,106.3,168.746a19.95,19.95,0,0,0,15.608,16.318,7.683,7.683,0,0,0,1.945,5.513,7.54,7.54,0,0,0,4.589,12.494,7.558,7.558,0,0,0,7.038,10.16h16.269a7.558,7.558,0,0,0,7.038-10.161,7.54,7.54,0,0,0,4.589-12.494,7.672,7.672,0,0,0,1.945-5.486,20.12,20.12,0,0,0,15.6-16.268,24,24,0,0,0,17.8-23.146v-39.4ZM151.752,208.294H135.482a2.581,2.581,0,0,1-.078-5.159H151.83A2.581,2.581,0,0,1,151.752,208.294Zm6.054-10.1H129.428a2.581,2.581,0,0,1-.253-5.148q.126,0,.253,0h12.214c3.192,0,3.192-4.937,0-4.937H129.716a2.958,2.958,0,0,1-2.867-2.621A19.8,19.8,0,0,0,133.74,184a20.126,20.126,0,0,0,9.857-8.9,20.052,20.052,0,0,0,16.789,10.4c-.394,2.156-1.642,2.606-3.6,2.608-3.192,0-3.192,4.937,0,4.937.424,0,.852.01,1.276,0A2.581,2.581,0,0,1,157.806,198.2Zm35.974-52.521a19.047,19.047,0,0,1-19.036,19.014,2.469,2.469,0,0,0,0,4.937h.95c-4.875,16.408-28.786,13.529-29.607-3.662V85.982c.833-17.2,24.739-20.05,29.607-3.656h-.95a2.469,2.469,0,1,0,0,4.937,19.047,19.047,0,0,1,19.036,19.014Z" transform="translate(-62.729 -44.575)" fill="url(#linear-gradient)"/>
  <path id="Path_10330" data-name="Path 10330" d="M314.809,301.959a19.784,19.784,0,0,0-19.771,19.753,2.469,2.469,0,1,0,4.937,0A14.842,14.842,0,0,1,314.809,306.9,2.469,2.469,0,0,0,314.809,301.959Z" transform="translate(-201.394 -202.574)" fill="url(#linear-gradient)"/>
  <path id="Path_10331" data-name="Path 10331" d="M152.462,306.9A14.842,14.842,0,0,1,167.3,321.712a2.468,2.468,0,1,0,4.937,0,19.784,19.784,0,0,0-19.771-19.753A2.469,2.469,0,0,0,152.462,306.9Z" transform="translate(-104.1 -202.574)" fill="url(#linear-gradient)"/>
  <path id="Path_10332" data-name="Path 10332" d="M169.728,132.6a2.468,2.468,0,0,0-2.469,2.469,14.842,14.842,0,0,1-14.834,14.816,2.468,2.468,0,1,0,0,4.937A19.784,19.784,0,0,0,172.2,135.072,2.468,2.468,0,0,0,169.728,132.6Z" transform="translate(-104.064 -88.958)" fill="url(#linear-gradient)"/>
  <path id="Path_10333" data-name="Path 10333" d="M314.809,149.887a14.842,14.842,0,0,1-14.834-14.816,2.469,2.469,0,0,0-4.937,0,19.784,19.784,0,0,0,19.771,19.753A2.469,2.469,0,0,0,314.809,149.887Z" transform="translate(-201.394 -88.958)" fill="url(#linear-gradient)"/>
  <path id="Path_10334" data-name="Path 10334" d="M200.1,216.689a2.469,2.469,0,0,0-3.491,0,13.558,13.558,0,0,0,0,19.2c2.258,2.256,5.748-1.237,3.49-3.492a8.662,8.662,0,0,1,0-12.211,2.469,2.469,0,0,0,0-3.491Z" transform="translate(-132.69 -144.883)" fill="url(#linear-gradient)"/>
  <path id="Path_10335" data-name="Path 10335" d="M295.328,235.867a2.469,2.469,0,0,0,3.491,0,13.622,13.622,0,0,0,0-19.2c-2.258-2.256-5.748,1.237-3.49,3.492a8.662,8.662,0,0,1,0,12.211A2.468,2.468,0,0,0,295.328,235.867Z" transform="translate(-201.099 -144.869)" fill="url(#linear-gradient)"/>
</svg>
