<svg id="icon-6" xmlns="http://www.w3.org/2000/svg" xmlns:xlink="http://www.w3.org/1999/xlink" width="148.417" height="148.366" viewBox="0 0 148.417 148.366">
  <defs>
    <linearGradient id="linear-gradient" x1="0.5" x2="0.5" y2="1" gradientUnits="objectBoundingBox">
      <stop offset="0" stop-color="#00abfb"/>
      <stop offset="1" stop-color="#00ffbf"/>
    </linearGradient>
  </defs>
  <path id="Path_10336" data-name="Path 10336" d="M235.359,277.962l-40.138-40.138,9.393-9.393a6.506,6.506,0,0,1,8.407-.644c-.9,11.675,13.679,18.48,22.123,10.363,8.9-8.364,2.347-23.425-9.817-22.666a6.505,6.505,0,0,1,.643-8.408l9.392-9.393,9.4,9.4a10.957,10.957,0,0,0,16.1-.785,8.967,8.967,0,0,1,5.129-10.562l-1.656-4.042a13.164,13.164,0,0,0-8.1,12.944A6.472,6.472,0,0,1,247.85,204l-12.488-12.488-12.481,12.481a10.988,10.988,0,0,0,.785,16.117c8.928-2.216,15.089,8.4,8.479,14.87a8.832,8.832,0,0,1-14.5-8.846,10.987,10.987,0,0,0-16.117-.785l-12.481,12.481,46.314,46.314,9.036-9.035-3.088-3.088Z" transform="translate(-134.002 -135.774)" fill="url(#linear-gradient)"/>
  <path id="Path_10337" data-name="Path 10337" d="M0,0H4.31V4.367H0Z" transform="translate(110.511 133.013) rotate(-45)" fill="url(#linear-gradient)"/>
  <path id="Path_10338" data-name="Path 10338" d="M417.6,218.833a6.413,6.413,0,0,1,1.25-3.822c17.807.324,18.819-25.187,1.023-26.227l.456,4.383a8.8,8.8,0,0,1,8.094,8.609c.162,5.88-5.642,10.094-11.233,8.615a10.975,10.975,0,0,0-.786,16.1l9.4,9.4-24.715,24.715,3.088,3.088,27.8-27.8L419.491,223.4a6.418,6.418,0,0,1-1.892-4.569Z" transform="translate(-284.305 -133.843)" fill="url(#linear-gradient)"/>
  <path id="Path_10339" data-name="Path 10339" d="M47.875,65.588H65.5V47.957a6.5,6.5,0,0,1,5.508-6.417c8.072,9.137,23.349,3.124,22.969-9.086-.23-11.708-15.353-17.208-22.971-8.316A6.5,6.5,0,0,1,65.5,17.721V.09H0V26.283H4.367V4.457H61.135V17.721A10.986,10.986,0,0,0,73.1,28.58a8.833,8.833,0,0,1,16.51,4c.1,9.253-11.766,12.4-16.51,4.518A10.986,10.986,0,0,0,61.135,47.957V61.22H47.875A10.992,10.992,0,0,0,37.01,73.2c7.88,4.745,4.731,16.609-4.519,16.51a8.832,8.832,0,0,1-4-16.51A10.992,10.992,0,0,0,17.627,61.22H4.367V30.65H0V65.588H17.627A6.508,6.508,0,0,1,24.05,71.1c-9.032,7.747-3.195,23.094,8.706,22.976,12.015.032,17.7-15.042,8.7-22.975a6.508,6.508,0,0,1,6.423-5.515Z" transform="translate(0 -0.09)" fill="url(#linear-gradient)"/>
  <path id="Path_10340" data-name="Path 10340" d="M0,0H4.367V4.367H0Z" transform="translate(68.082 101.914) rotate(-45)" fill="url(#linear-gradient)"/>
  <path id="Path_10341" data-name="Path 10341" d="M0,0H4.367V4.367H0Z" transform="translate(74.258 108.088) rotate(-45)" fill="url(#linear-gradient)"/>
  <path id="Path_10342" data-name="Path 10342" d="M30.16,30.047h4.367v4.367H30.16Z" transform="translate(-21.378 -21.325)" fill="url(#linear-gradient)"/>
  <path id="Path_10343" data-name="Path 10343" d="M30.16,60.047h4.367v4.367H30.16Z" transform="translate(-21.378 -42.59)" fill="url(#linear-gradient)"/>
</svg>
